<svg width="546" height="367" viewBox="0 0 546 367" fill="none" xmlns="http://www.w3.org/2000/svg">
<path d="M442.27 25.7914L437.739 28.4075L438.094 29.0226C429.977 37.116 428.838 51.8425 436.133 64.4765C443.427 77.1104 456.701 83.5156 467.817 80.5048L468.172 81.1199L472.703 78.5038C484.513 71.6854 487.255 54.3928 478.841 39.8188C470.427 25.2448 454.08 18.973 442.27 25.7914Z" fill="#65B87E"/>
<path style="mix-blend-mode:multiply" d="M442.27 25.7914L437.739 28.4075L438.094 29.0226C429.977 37.116 428.838 51.8425 436.133 64.4765C443.427 77.1104 456.701 83.5156 467.817 80.5048L468.172 81.1199L472.703 78.5038C484.513 71.6854 487.255 54.3928 478.841 39.8188C470.427 25.2448 454.08 18.973 442.27 25.7914Z" fill="url(#paint0_linear_2861_80751)"/>
<path d="M468.172 81.1196C479.966 74.3105 482.714 56.9906 474.31 42.4345C465.906 27.8784 449.532 21.5981 437.739 28.4071C425.945 35.2161 423.197 52.536 431.601 67.0922C440.005 81.6483 456.379 87.9286 468.172 81.1196Z" fill="url(#paint1_linear_2861_80751)"/>
<path d="M466.834 78.8013C477.163 72.8376 479.323 57.2411 471.659 43.9655C463.994 30.6899 449.407 24.7623 439.077 30.726C428.748 36.6897 426.588 52.2862 434.253 65.5618C441.917 78.8374 456.504 84.7649 466.834 78.8013Z" fill="#66BA7F"/>
<path style="mix-blend-mode:multiply" d="M466.834 78.8013C477.163 72.8376 479.323 57.2411 471.659 43.9655C463.994 30.6899 449.407 24.7623 439.077 30.726C428.748 36.6897 426.588 52.2862 434.253 65.5618C441.917 78.8374 456.504 84.7649 466.834 78.8013Z" fill="url(#paint2_linear_2861_80751)"/>
<path style="mix-blend-mode:multiply" d="M435.41 64.8933C427.897 51.8808 429.828 36.6339 439.684 30.4388C439.491 30.5501 439.298 30.6614 439.105 30.7728C428.742 36.7563 426.604 52.3121 434.28 65.6085C441.957 78.905 456.546 84.8037 466.862 78.848C477.177 72.8923 467.247 78.6254 467.44 78.514C457.147 83.952 442.977 78.0004 435.465 64.9879L435.41 64.8933Z" fill="url(#paint3_radial_2861_80751)"/>
<g filter="url(#filter0_d_2861_80751)">
<path d="M447.818 56.7892C447.856 57.3199 447.672 57.7721 447.267 58.1334L447.462 58.4857L447.138 58.7813L446.921 58.3895C446.43 58.6891 445.961 58.6811 445.529 58.3607C444.028 57.2497 443.633 52.5692 443.617 52.3718L443.579 51.9065L443.926 52.1666C445.542 53.378 447.702 55.1801 447.818 56.7892Z" fill="#28D150"/>
<path d="M450.335 55.9425C450.358 56.2643 450.253 56.5408 450.018 56.7611L450.418 57.4824L450.225 57.6586L450.008 57.2668C449.983 57.282 449.958 57.2972 449.932 57.3094L449.742 56.9662C449.447 57.1341 449.164 57.1217 448.901 56.9272C447.993 56.2536 447.753 53.5873 447.727 53.2848L447.699 52.9124L447.977 53.1219C448.953 53.857 450.263 54.9487 450.335 55.9425Z" fill="#28AE4B"/>
<path d="M461.469 50.3037C461.507 50.389 461.543 50.4774 461.579 50.5642C461.711 50.8888 461.833 51.219 461.939 51.5496C461.972 51.6488 462.003 51.7473 462.031 51.8459C462.059 51.9314 462.083 52.0162 462.108 52.1041C462.233 52.5396 462.336 52.978 462.42 53.4168L462.035 53.6753L461.213 54.2245L460.286 54.8453L457.247 56.8796L456.318 57.4998L455.687 57.9235L454.116 57.7652L453.65 57.7156L453.411 57.6914L452.212 57.5417L452.218 57.2885L452.302 54.2821L452.273 52.4701L452.667 50.361L453.159 49.4906L453.544 49.4813L455.116 50.2067L456.059 50.8518L456.652 51.2191L456.656 50.1696L456.8 49.0213L457.116 48.5367L457.641 48.4286L458.829 49.1633L460.052 49.6108L460.872 50.0127L461.469 50.3037Z" fill="#0D7DAE"/>
<path d="M454.324 57.0836L455.396 65.4478L455.465 65.9839C455.282 66.0052 455.099 66.0219 454.915 66.0271C454.81 66.0335 454.701 66.0361 454.595 66.0348C454.548 66.0344 454.501 66.0356 454.456 66.0336C451.608 65.989 448.648 64.3731 446.482 61.5178L446.17 61.0875C446.255 60.977 446.35 60.8593 446.452 60.7368C446.759 60.3709 447.133 59.9642 447.573 59.5597L447.382 59.2165L447.728 58.9604L447.898 59.2671C448.552 58.7075 449.327 58.1764 450.207 57.8021L449.937 57.3162L450.214 57.111L450.527 57.6759C451.009 57.4965 451.52 57.365 452.057 57.3036C452.045 57.0923 452.028 56.7773 452.014 56.3883L452.455 56.5208C452.464 56.7952 452.477 57.0481 452.488 57.2701C452.896 57.2511 453.317 57.2733 453.751 57.3413C453.789 57.2088 453.83 57.077 453.873 56.9475L454.324 57.0836Z" fill="#28AE4B"/>
<path d="M462.031 51.8446C462.059 51.9301 462.083 52.015 462.108 52.1028C462.329 52.87 462.483 53.6433 462.575 54.4105C462.589 54.5125 462.6 54.6145 462.61 54.7197C462.619 54.7972 462.624 54.874 462.631 54.9515C462.696 55.7016 462.699 56.4471 462.644 57.1716C462.632 57.3427 462.615 57.5147 462.595 57.6829C462.277 60.4718 461.08 62.9503 459.085 64.4901C458.995 64.5623 458.902 64.63 458.808 64.6961C458.785 64.712 458.761 64.7287 458.738 64.7432C458.233 65.0946 457.699 65.369 457.15 65.5761C457.065 65.6067 456.982 65.6379 456.898 65.6653C456.847 65.6819 456.795 65.6978 456.743 65.7129C456.148 65.8957 455.534 66.0005 454.914 66.0254C454.809 66.0318 454.701 66.0344 454.594 66.0331L454.39 65.4995L453.882 64.1707L453.643 61.9807L453.543 60.7429L453.726 58.2557L453.871 57.886L454.062 57.399L454.292 56.8103L454.717 55.4645L455.772 54.1981L456.649 53.3183L458.579 52.2217L460.296 51.7979L461.45 51.7701L461.572 51.7857L462.031 51.8446Z" fill="#28D150"/>
<path d="M462.609 54.7199C462.619 54.7973 462.623 54.8742 462.63 54.9517C462.695 55.7018 462.698 56.4473 462.643 57.1718C462.631 57.3429 462.614 57.5148 462.594 57.6831C462.276 60.472 461.079 62.9505 459.084 64.4903C458.994 64.5625 458.901 64.6301 458.807 64.6963C458.784 64.7122 458.761 64.7289 458.737 64.7433C458.232 65.0948 457.698 65.3692 457.149 65.5763C457.064 65.6068 456.981 65.6381 456.897 65.6655L456.818 65.2458L456.778 65.1306L456.16 63.3536L455.677 61.074L456.07 58.965L456.459 57.9062L457.269 56.5503L458.324 55.2839L459.41 54.7807L460.743 54.3663L461.861 54.6255L462.174 54.6649L462.609 54.7199Z" fill="#28AE4B"/>
<path d="M458.851 64.3375L458.261 62.9207L458.128 60.9181L458.624 58.9981L459.819 57.6329L461.255 57.4076L462.026 57.3883L462.411 57.379L462.194 59.1037L461.418 61.2213L460.291 63.0618L459.271 64.0411L458.851 64.3375Z" fill="#28D150"/>
<path d="M453.758 42.9449C453.756 42.9442 453.754 42.9435 453.752 42.9404C453.582 42.8953 453.411 42.8532 453.24 42.8173L453.239 42.8181C453.231 42.8152 453.213 42.8111 453.186 42.8048C453.162 42.8007 453.139 42.7959 453.114 42.7904C453.066 42.79 453.02 42.7934 452.972 42.7992C452.804 42.8186 452.638 42.8718 452.486 42.964C452.459 42.9816 452.432 42.9984 452.404 43.0175C452.331 43.0693 452.265 43.1262 452.204 43.1923C452.524 43.2162 452.842 43.2624 453.16 43.3255C453.331 43.3214 453.505 43.3634 453.672 43.4463C453.739 43.4647 453.804 43.4823 453.869 43.5038C454.12 43.5763 454.369 43.6626 454.618 43.7597C456.863 44.6489 458.971 46.5062 460.434 49.1468C460.528 49.3169 460.619 49.487 460.706 49.6627L460.706 49.6642C460.764 49.7798 460.821 49.8961 460.875 50.0117C460.925 50.1183 460.975 50.2248 461.021 50.3314C461.189 50.7159 461.34 51.1007 461.473 51.493C461.508 51.5906 461.539 51.6891 461.57 51.7876C461.597 51.8701 461.622 51.9556 461.646 52.0382C461.809 52.5797 461.937 53.129 462.032 53.6746C462.071 53.8875 462.105 54.1006 462.129 54.3131C462.145 54.4312 462.159 54.5501 462.17 54.6645C462.177 54.7251 462.183 54.7865 462.188 54.8479C462.256 55.5964 462.262 56.3372 462.205 57.0587C462.193 57.2298 462.176 57.4025 462.155 57.5731C461.844 60.2049 460.714 62.5417 458.835 64.0065C458.74 64.0834 458.643 64.1542 458.543 64.2243C458.525 64.237 458.507 64.2498 458.488 64.261C457.984 64.6117 457.454 64.8837 456.905 65.0823C456.864 65.0987 456.818 65.1137 456.776 65.1285C456.685 65.1592 456.593 65.1899 456.5 65.2152C456.136 65.3216 455.767 65.3983 455.393 65.4442C455.161 65.4744 454.925 65.4908 454.69 65.4957C454.589 65.4989 454.488 65.4983 454.389 65.4968C454.337 65.4973 454.284 65.4963 454.233 65.4944C451.556 65.395 448.79 63.8513 446.762 61.1627C446.655 61.023 446.554 60.8808 446.452 60.7355C446.35 60.858 446.255 60.9757 446.17 61.0862L446.482 61.5165C448.647 64.3702 451.607 65.9862 454.456 66.0322C454.502 66.0334 454.547 66.0331 454.595 66.0335C454.701 66.0348 454.808 66.033 454.914 66.0258C455.098 66.0191 455.281 66.0039 455.464 65.9826C455.897 65.9314 456.326 65.8426 456.743 65.7133C456.795 65.6982 456.847 65.6823 456.898 65.6657C456.982 65.6383 457.067 65.6078 457.15 65.5765C457.7 65.3709 458.232 65.0958 458.738 64.7435C458.762 64.7291 458.785 64.7124 458.808 64.6965C458.902 64.6303 458.995 64.5627 459.085 64.4905C461.08 62.9491 462.276 60.4707 462.596 57.6832C462.616 57.515 462.632 57.3431 462.644 57.172C462.699 56.4475 462.696 55.702 462.631 54.9519C462.626 54.8751 462.62 54.7975 462.61 54.7201C462.601 54.6164 462.59 54.5143 462.575 54.4108C462.536 54.0794 462.484 53.7468 462.42 53.4144C462.336 52.9748 462.232 52.5372 462.107 52.1017C462.082 52.0138 462.059 51.929 462.03 51.8435C462.002 51.7449 461.971 51.6464 461.939 51.5472C461.831 51.2174 461.712 50.8879 461.578 50.5618C461.544 50.4742 461.506 50.3866 461.468 50.3014C461.414 50.1688 461.357 50.0402 461.297 49.9093C461.14 49.5661 460.97 49.2316 460.785 48.8976C459.051 45.768 456.452 43.6886 453.758 42.9449Z" fill="white"/>
<path d="M453.989 43.6793C453.951 43.6171 453.912 43.558 453.869 43.5037C453.671 43.2315 453.431 43.0249 453.175 42.8911C453.16 42.8822 453.143 42.8734 453.128 42.8668C453.126 42.8661 453.124 42.8653 453.122 42.8623C453.073 42.8404 453.023 42.8162 452.973 42.8005C452.819 42.7442 452.663 42.7149 452.509 42.714C452.507 42.7133 452.506 42.7141 452.506 42.7141C452.5 42.7096 452.493 42.712 452.487 42.7122C452.237 42.7128 451.993 42.7856 451.777 42.9378C451.704 42.9896 451.638 43.0465 451.577 43.1126C451.037 43.6803 450.965 44.7315 451.443 45.594C451.976 46.5552 452.992 46.927 453.708 46.4227C454.424 45.9184 454.573 44.7262 454.041 43.765C454.022 43.7362 454.006 43.7073 453.989 43.6793ZM453.444 45.9497C452.922 46.3178 452.181 46.0455 451.793 45.3455C451.404 44.644 451.514 43.775 452.036 43.4078C452.188 43.301 452.357 43.247 452.531 43.2451C452.702 43.241 452.876 43.2829 453.043 43.3659C453.292 43.4922 453.521 43.7129 453.687 44.012C454.075 44.712 453.966 45.5825 453.444 45.9497Z" fill="white"/>
<path d="M454.211 57.4335C454.163 57.5962 454.117 57.7612 454.075 57.9299C453.922 57.8967 453.769 57.8711 453.619 57.8501C451.377 57.5479 449.501 58.5817 448.156 59.7397C448.045 59.837 447.935 59.9358 447.831 60.0322C447.413 60.4238 447.054 60.8156 446.762 61.1665C446.661 61.2905 446.567 61.4098 446.481 61.5188L446.169 61.0885C446.254 60.978 446.349 60.8603 446.451 60.7378C446.758 60.3719 447.132 59.9651 447.571 59.5606C447.674 59.4628 447.785 59.3639 447.897 59.2681C448.551 58.7084 449.326 58.1774 450.205 57.8031C450.262 57.7778 450.319 57.7565 450.378 57.7343C450.427 57.7146 450.477 57.6965 450.525 57.6769C451.008 57.4975 451.519 57.366 452.055 57.3046C452.198 57.2889 452.342 57.2762 452.488 57.2703C452.896 57.2513 453.317 57.2734 453.751 57.3415C453.902 57.3678 454.055 57.3972 454.211 57.4335Z" fill="white"/>
<path d="M461.297 49.9109C461.359 50.041 461.417 50.1712 461.469 50.303C461.507 50.3883 461.543 50.4766 461.579 50.5635C461.428 50.4986 461.239 50.4209 461.022 50.3307C459.964 49.8892 458.297 49.1784 457.571 48.8135C457.389 48.7217 457.26 48.7033 457.184 48.7567C457.097 48.818 457.049 48.9846 457.021 49.2045C456.993 49.4206 456.985 49.6901 456.978 49.9549C456.969 50.259 456.962 50.5739 456.923 50.8671C456.91 50.976 456.869 51.3085 456.642 51.4117C456.376 51.5335 456.058 51.2927 455.581 50.9303C455.108 50.5708 454.461 50.0824 453.635 49.7777C453.474 49.72 453.34 49.7471 453.212 49.8663C452.418 50.6117 452.374 54.2904 452.453 56.5204C452.462 56.7948 452.475 57.0477 452.486 57.2697C452.493 57.375 452.498 57.4764 452.505 57.5686L452.214 57.5417L452.069 57.5275C452.065 57.4776 452.06 57.4031 452.055 57.3055C452.043 57.0942 452.026 56.7792 452.011 56.3902C451.938 54.3524 451.925 50.3528 452.915 49.428C453.137 49.2188 453.409 49.1661 453.699 49.2745C454.592 49.6 455.271 50.116 455.77 50.4933C456.018 50.6812 456.362 50.9438 456.437 50.9119C456.437 50.9119 456.471 50.8857 456.494 50.7113C456.526 50.4459 456.535 50.1464 456.542 49.8585C456.56 49.1748 456.578 48.5312 456.921 48.289L456.923 48.2882C457.109 48.1568 457.367 48.1698 457.683 48.3292C458.302 48.6428 459.667 49.2285 460.706 49.6643L460.707 49.6658C460.921 49.7538 461.121 49.8367 461.297 49.9109Z" fill="white"/>
<path d="M453.547 56.3271L453.112 56.2899C453.102 56.1555 452.877 52.9719 453.281 51.8704L453.686 52.1469C453.384 52.972 453.484 55.4431 453.547 56.3271Z" fill="white"/>
<path d="M449.533 46.3505L449.792 46.8224L451.201 45.8423L450.941 45.3705L449.533 46.3505Z" fill="white"/>
<path d="M451.607 46.3287L450.591 47.8484L450.947 48.2205L451.963 46.7008L451.607 46.3287Z" fill="white"/>
<path d="M448.902 44.3652L448.96 44.8966L450.694 44.9451L450.636 44.4137L448.902 44.3652Z" fill="white"/>
<path d="M449.187 42.5554L449.079 43.0439L450.775 43.8824L450.883 43.3938L449.187 42.5554Z" fill="white"/>
<path d="M450.19 40.943L449.878 41.2523L451.106 42.983L451.417 42.6737L450.19 40.943Z" fill="white"/>
<path d="M451.099 40.2947L451.763 42.3652L452.167 42.2425L451.503 40.172L451.099 40.2947Z" fill="white"/>
<path d="M452.559 40.1502L452.575 42.2552L453.012 42.3331L452.996 40.2281L452.559 40.1502Z" fill="white"/>
<path d="M462.133 54.3135C461.827 54.257 461.519 54.2267 461.214 54.224C460.17 54.2099 459.149 54.5046 458.245 55.1411C457.411 55.7282 456.766 56.5431 456.32 57.4986C455.301 59.6789 455.321 62.5974 456.503 65.2163C456.578 65.383 456.658 65.5504 456.743 65.7122C456.794 65.6971 456.847 65.6812 456.897 65.6646C456.981 65.6372 457.067 65.6067 457.15 65.5754C457.064 65.4144 456.983 65.2494 456.907 65.0835C455.591 62.2231 455.771 58.9729 457.249 56.8784C457.597 56.3846 458.017 55.9559 458.507 55.611C459.062 55.2199 459.664 54.9669 460.288 54.8441C460.91 54.7207 461.552 54.7244 462.192 54.846C462.338 54.874 462.487 54.9089 462.632 54.95C462.627 54.8732 462.62 54.7957 462.611 54.7182C462.602 54.6145 462.591 54.5125 462.576 54.409C462.428 54.3718 462.28 54.3407 462.133 54.3135Z" fill="white"/>
<path d="M462.209 57.0601C461.301 56.8804 460.384 57.041 459.602 57.5915C457.793 58.8652 457.337 61.7783 458.491 64.2632C458.558 64.4124 458.632 64.5568 458.711 64.6996C458.719 64.7148 458.727 64.7299 458.737 64.7443C458.761 64.7299 458.784 64.7132 458.807 64.6973C458.901 64.6311 458.994 64.5635 459.084 64.4913C459.076 64.4784 459.069 64.4663 459.061 64.4526C458.98 64.3053 458.905 64.1571 458.837 64.0087C457.833 61.7863 458.25 59.1981 459.863 58.0622C460.553 57.5763 461.359 57.4291 462.158 57.5753C462.304 57.6018 462.451 57.6375 462.594 57.6841C462.614 57.5158 462.631 57.3439 462.643 57.1728C462.499 57.1262 462.353 57.0897 462.209 57.0601Z" fill="white"/>
<path d="M461.475 51.4932C459.866 51.3403 458.275 51.718 456.888 52.6946C455.464 53.6967 454.448 55.1953 453.872 56.9503C453.829 57.0798 453.789 57.2131 453.75 57.344C453.715 57.468 453.681 57.5935 453.651 57.718C453.64 57.7614 453.629 57.807 453.619 57.8504C453.065 60.2141 453.249 62.934 454.233 65.5C454.303 65.6792 454.376 65.8574 454.455 66.0363C454.501 66.0375 454.547 66.0372 454.594 66.0376C454.7 66.0389 454.808 66.0371 454.914 66.0299C454.836 65.8571 454.761 65.6797 454.692 65.5021C453.677 62.966 453.496 60.2584 454.075 57.9302C454.09 57.8752 454.103 57.8218 454.117 57.7676C454.146 57.6561 454.177 57.5438 454.209 57.4345C454.246 57.3175 454.282 57.1997 454.322 57.0848C454.878 55.4712 455.828 54.095 457.147 53.1661C458.506 52.2094 460.071 51.8571 461.648 52.0407C461.801 52.0554 461.954 52.0787 462.108 52.1073C462.083 52.0194 462.059 51.9346 462.031 51.8491C462.003 51.7505 461.972 51.652 461.939 51.5528C461.783 51.5273 461.63 51.5064 461.475 51.4932Z" fill="white"/>
<path d="M446.311 56.4061L448.156 59.7362C448.045 59.8335 447.935 59.9323 447.831 60.0287L445.96 56.6531L446.311 56.4061Z" fill="white"/>
<path d="M443.929 52.1675L443.582 51.9074L443.62 52.3727C443.635 52.5708 444.03 57.2514 445.532 58.3616C445.963 58.6813 446.432 58.6885 446.924 58.3904C446.945 58.3784 446.966 58.3656 446.986 58.3512C447.011 58.336 447.033 58.3201 447.056 58.3041C447.133 58.25 447.206 58.1944 447.269 58.1328C447.675 57.7715 447.858 57.3193 447.82 56.7885C447.702 55.1811 445.543 53.3789 443.929 52.1675ZM447.382 56.7529C447.406 57.0993 447.285 57.4 447.005 57.6606C446.926 57.7349 446.835 57.8055 446.731 57.8742C446.707 57.8909 446.684 57.9053 446.661 57.9197C446.305 58.1276 445.996 58.1281 445.714 57.9195C444.768 57.2213 444.271 54.3843 444.1 52.8813C446.211 54.5146 447.315 55.8167 447.382 56.7529Z" fill="white"/>
<path d="M449.42 55.6844L449.14 55.882L450.33 58.0291L450.61 57.8315L449.42 55.6844Z" fill="white"/>
<path d="M447.975 53.1232L447.697 52.9137L447.726 53.2861C447.75 53.5879 447.992 56.2549 448.9 56.9285C449.163 57.123 449.445 57.1354 449.741 56.9675C449.767 56.9577 449.791 56.9424 449.815 56.9257L449.857 56.8962C449.916 56.8548 449.971 56.8119 450.017 56.7624C450.252 56.542 450.357 56.2656 450.334 55.9438C450.263 54.9492 448.953 53.8574 447.975 53.1232ZM449.985 55.9153C449.996 56.0912 449.941 56.2479 449.808 56.3858C449.756 56.4417 449.691 56.494 449.613 56.5444C449.585 56.562 449.558 56.5788 449.533 56.5924C449.351 56.6868 449.191 56.6792 449.046 56.5742C448.515 56.1838 448.225 54.609 448.115 53.6961C449.319 54.6365 449.947 55.3807 449.985 55.9153Z" fill="white"/>
<path d="M453.24 42.8177C453.24 42.8177 452.684 42.6903 452.513 42.7113C452.343 42.7316 452.552 43.1082 452.552 43.1082L453.077 43.0001L453.24 42.8177Z" fill="white"/>
<path d="M453.523 46.0917C454.104 45.6825 454.224 44.7186 453.792 43.9387C453.36 43.1587 452.539 42.8582 451.958 43.2673C451.377 43.6765 451.256 44.6404 451.688 45.4204C452.12 46.2003 452.942 46.5009 453.523 46.0917Z" fill="#F97E03"/>
</g>
<path d="M164.489 267.326L170.725 263.725L171.214 264.572C186.446 260.466 204.782 269.244 214.821 286.631C224.86 304.019 223.359 324.249 212.121 335.426L212.61 336.272L206.374 339.873C190.12 349.257 167.623 340.625 156.042 320.567C144.462 300.509 148.236 276.71 164.489 267.326Z" fill="#65B87E"/>
<path style="mix-blend-mode:multiply" d="M164.489 267.326L170.725 263.725L171.214 264.572C186.446 260.466 204.782 269.244 214.821 286.631C224.86 304.019 223.359 324.249 212.121 335.426L212.61 336.272L206.374 339.873C190.12 349.257 167.623 340.625 156.042 320.567C144.462 300.509 148.236 276.71 164.489 267.326Z" fill="url(#paint4_linear_2861_80751)"/>
<path d="M212.61 336.273C196.379 345.644 173.844 337 162.278 316.967C150.712 296.934 154.494 273.097 170.725 263.726C186.956 254.355 209.491 262.998 221.057 283.031C232.623 303.065 228.841 326.902 212.61 336.273Z" fill="url(#paint5_linear_2861_80751)"/>
<path d="M210.768 333.082C196.552 341.289 176.476 333.131 165.927 314.86C155.379 296.589 158.352 275.124 172.568 266.917C186.784 258.709 206.86 266.867 217.408 285.138C227.957 303.409 224.984 324.874 210.768 333.082Z" fill="#66BA7F"/>
<path style="mix-blend-mode:multiply" d="M210.768 333.082C196.552 341.289 176.476 333.131 165.927 314.86C155.379 296.589 158.352 275.124 172.568 266.917C186.784 258.709 206.86 266.867 217.408 285.138C227.957 303.409 224.984 324.874 210.768 333.082Z" fill="url(#paint6_linear_2861_80751)"/>
<path style="mix-blend-mode:multiply" d="M215.815 286.057C205.475 268.148 185.974 259.957 171.808 267.441C172.074 267.288 172.339 267.135 172.604 266.982C186.868 258.747 206.88 266.904 217.445 285.203C228.01 303.503 225.002 324.95 210.805 333.147C196.607 341.343 210.274 333.453 210.008 333.606C223.573 325.08 226.23 304.096 215.89 286.187L215.815 286.057Z" fill="url(#paint7_radial_2861_80751)"/>
<g filter="url(#filter1_d_2861_80751)">
<path d="M184.35 303.787C184.444 304.48 184.232 305.092 183.71 305.608L184.004 306.05L183.588 306.471L183.261 305.98C182.617 306.423 181.979 306.461 181.365 306.085C179.233 304.781 178.314 298.678 178.276 298.421L178.187 297.814L178.68 298.12C180.977 299.544 184.061 301.687 184.35 303.787Z" fill="#28D150"/>
<path d="M187.705 302.417C187.762 302.837 187.642 303.211 187.34 303.524L187.942 304.43L187.694 304.681L187.367 304.189C187.334 304.211 187.302 304.234 187.268 304.253L186.981 303.822C186.593 304.072 186.208 304.085 185.834 303.857C184.544 303.066 184.001 299.591 183.941 299.197L183.871 298.711L184.267 298.957C185.655 299.822 187.525 301.12 187.705 302.417Z" fill="#28AE4B"/>
<path d="M202.387 293.873C202.445 293.981 202.502 294.093 202.557 294.203C202.764 294.616 202.956 295.036 203.128 295.459C203.181 295.586 203.231 295.712 203.277 295.839C203.323 295.948 203.361 296.057 203.403 296.17C203.608 296.729 203.784 297.293 203.934 297.861L203.431 298.24L202.359 299.045L201.149 299.955L197.182 302.937L195.969 303.846L195.144 304.468L192.995 304.421L192.357 304.404L192.031 304.397L190.387 304.323L190.375 303.99L190.244 300.036L190.057 297.661L190.42 294.852L191.019 293.659L191.542 293.607L193.739 294.398L195.074 295.148L195.911 295.569L195.83 294.191L195.932 292.669L196.323 292.001L197.028 291.805L198.703 292.647L200.403 293.109L201.551 293.552L202.387 293.873Z" fill="#0D7DAE"/>
<path d="M193.222 303.505L195.363 314.373L195.5 315.069C195.253 315.116 195.006 315.157 194.756 315.182C194.614 315.202 194.466 315.216 194.322 315.225C194.257 315.23 194.194 315.236 194.132 315.238C190.256 315.472 186.098 313.655 182.92 310.13L182.46 309.598C182.566 309.444 182.686 309.28 182.815 309.108C183.202 308.597 183.678 308.024 184.242 307.448L183.956 307.017L184.405 306.646L184.661 307.031C185.505 306.229 186.516 305.453 187.681 304.871L187.276 304.261L187.635 303.963L188.107 304.672C188.748 304.387 189.432 304.162 190.157 304.027C190.124 303.751 190.075 303.339 190.024 302.83L190.635 302.958C190.669 303.318 190.707 303.648 190.741 303.938C191.294 303.871 191.869 303.857 192.464 303.902C192.506 303.724 192.55 303.547 192.598 303.373L193.222 303.505Z" fill="#28AE4B"/>
<path d="M203.277 295.837C203.322 295.946 203.361 296.055 203.402 296.168C203.765 297.152 204.039 298.151 204.226 299.149C204.253 299.281 204.276 299.414 204.298 299.551C204.318 299.652 204.331 299.752 204.346 299.853C204.496 300.831 204.56 301.809 204.545 302.766C204.542 302.992 204.534 303.219 204.52 303.442C204.315 307.135 202.89 310.511 200.302 312.737C200.185 312.841 200.064 312.939 199.941 313.036C199.912 313.059 199.881 313.083 199.85 313.105C199.192 313.618 198.488 314.033 197.759 314.361C197.645 314.41 197.534 314.459 197.422 314.504C197.355 314.531 197.285 314.557 197.216 314.582C196.421 314.883 195.595 315.084 194.754 315.18C194.612 315.2 194.464 315.214 194.32 315.223L193.998 314.544L193.199 312.852L192.696 310.002L192.458 308.388L192.505 305.105L192.671 304.605L192.891 303.946L193.157 303.15L193.624 301.34L194.956 299.569L196.078 298.324L198.612 296.687L200.913 295.954L202.481 295.799L202.648 295.807L203.277 295.837Z" fill="#28D150"/>
<path d="M204.297 299.552C204.317 299.652 204.33 299.753 204.345 299.854C204.495 300.831 204.559 301.81 204.544 302.766C204.541 302.992 204.533 303.219 204.52 303.442C204.314 307.135 202.889 310.511 200.301 312.737C200.184 312.841 200.063 312.94 199.94 313.036C199.911 313.059 199.88 313.084 199.849 313.105C199.191 313.618 198.488 314.033 197.758 314.361C197.644 314.41 197.533 314.46 197.422 314.504L197.281 313.962L197.217 313.814L196.231 311.546L195.388 308.603L195.751 305.795L196.193 304.365L197.184 302.503L198.516 300.732L199.952 299.96L201.73 299.279L203.273 299.505L203.702 299.524L204.297 299.552Z" fill="#28AE4B"/>
<path d="M199.971 312.56L199.053 310.761L198.708 308.147L199.227 305.576L200.741 303.661L202.675 303.218L203.722 303.114L204.245 303.062L204.091 305.348L203.207 308.207L201.825 310.738L200.519 312.128L199.971 312.56Z" fill="#28D150"/>
<path d="M191.299 285.006C191.296 285.006 191.294 285.005 191.291 285.001C191.057 284.959 190.82 284.922 190.585 284.892L190.584 284.893C190.573 284.89 190.548 284.887 190.51 284.881C190.477 284.878 190.445 284.874 190.411 284.87C190.346 284.874 190.283 284.883 190.219 284.896C189.991 284.939 189.771 285.026 189.572 285.162C189.535 285.188 189.5 285.213 189.465 285.241C189.369 285.316 189.284 285.398 189.206 285.491C189.643 285.489 190.08 285.517 190.517 285.567C190.749 285.544 190.99 285.582 191.224 285.673C191.316 285.691 191.406 285.707 191.496 285.729C191.843 285.798 192.189 285.886 192.536 285.987C195.661 286.924 198.679 289.145 200.885 292.46C201.027 292.674 201.165 292.888 201.296 293.11L201.298 293.111C201.386 293.257 201.472 293.404 201.556 293.55C201.632 293.685 201.708 293.82 201.78 293.955C202.039 294.442 202.277 294.932 202.489 295.433C202.545 295.558 202.595 295.684 202.645 295.81C202.688 295.915 202.73 296.025 202.769 296.131C203.035 296.825 203.254 297.533 203.428 298.239C203.498 298.514 203.561 298.79 203.612 299.067C203.642 299.22 203.671 299.375 203.696 299.524C203.71 299.603 203.723 299.683 203.736 299.763C203.888 300.738 203.957 301.71 203.939 302.663C203.937 302.888 203.927 303.117 203.913 303.343C203.705 306.829 202.358 310.012 199.922 312.128C199.8 312.238 199.673 312.341 199.543 312.444C199.52 312.462 199.496 312.481 199.471 312.497C198.814 313.009 198.115 313.421 197.385 313.738C197.33 313.764 197.27 313.788 197.214 313.812C197.092 313.861 196.97 313.911 196.846 313.954C196.359 314.131 195.863 314.27 195.358 314.368C195.045 314.432 194.725 314.478 194.406 314.508C194.27 314.523 194.132 314.532 193.997 314.541C193.926 314.546 193.855 314.551 193.785 314.553C190.136 314.698 186.248 312.956 183.271 309.636C183.114 309.463 182.965 309.287 182.814 309.107C182.685 309.278 182.565 309.442 182.459 309.596L182.919 310.129C186.095 313.652 190.253 315.469 194.131 315.236C194.194 315.233 194.256 315.228 194.321 315.224C194.465 315.215 194.611 315.201 194.755 315.181C195.004 315.153 195.252 315.114 195.499 315.068C196.083 314.956 196.659 314.795 197.217 314.583C197.285 314.558 197.356 314.531 197.423 314.504C197.535 314.46 197.648 314.411 197.759 314.361C198.49 314.035 199.191 313.619 199.851 313.105C199.881 313.084 199.912 313.059 199.942 313.036C200.064 312.94 200.185 312.841 200.302 312.737C202.889 310.509 204.314 307.133 204.521 303.442C204.534 303.219 204.543 302.992 204.545 302.766C204.56 301.81 204.496 300.832 204.347 299.854C204.334 299.753 204.318 299.652 204.299 299.552C204.278 299.416 204.255 299.284 204.226 299.149C204.146 298.718 204.048 298.287 203.933 297.858C203.784 297.289 203.607 296.725 203.402 296.167C203.36 296.054 203.322 295.945 203.276 295.836C203.23 295.709 203.18 295.583 203.127 295.456C202.954 295.034 202.764 294.614 202.556 294.2C202.502 294.089 202.444 293.977 202.386 293.869C202.301 293.701 202.213 293.538 202.12 293.372C201.879 292.938 201.621 292.517 201.342 292.097C198.728 288.168 195.024 285.706 191.299 285.006Z" fill="white"/>
<path d="M191.673 285.947C191.617 285.869 191.559 285.795 191.497 285.728C191.205 285.392 190.862 285.145 190.502 284.996C190.481 284.986 190.457 284.976 190.436 284.969C190.434 284.968 190.431 284.967 190.428 284.963C190.359 284.94 190.289 284.913 190.221 284.898C190.007 284.84 189.792 284.817 189.582 284.832C189.579 284.831 189.577 284.832 189.577 284.832C189.569 284.827 189.561 284.831 189.552 284.832C189.213 284.858 188.886 284.979 188.605 285.201C188.509 285.276 188.424 285.358 188.347 285.451C187.659 286.251 187.647 287.638 188.368 288.721C189.17 289.928 190.582 290.312 191.515 289.576C192.448 288.841 192.554 287.261 191.751 286.054C191.723 286.018 191.699 285.982 191.673 285.947ZM191.118 288.983C190.437 289.519 189.408 289.238 188.823 288.359C188.237 287.478 188.316 286.327 188.995 285.791C189.193 285.635 189.419 285.547 189.655 285.527C189.887 285.504 190.127 285.541 190.361 285.632C190.711 285.773 191.04 286.039 191.29 286.414C191.875 287.293 191.798 288.447 191.118 288.983Z" fill="white"/>
<path d="M193.097 303.976C193.045 304.194 192.997 304.416 192.954 304.641C192.742 304.614 192.532 304.596 192.327 304.584C189.253 304.417 186.786 305.967 185.051 307.625C184.908 307.764 184.766 307.905 184.633 308.042C184.096 308.599 183.64 309.15 183.272 309.641C183.145 309.814 183.026 309.98 182.918 310.132L182.458 309.599C182.565 309.446 182.685 309.281 182.813 309.11C183.201 308.598 183.676 308.026 184.241 307.45C184.373 307.311 184.515 307.17 184.66 307.033C185.504 306.231 186.515 305.454 187.68 304.873C187.755 304.834 187.831 304.8 187.909 304.765C187.974 304.734 188.04 304.705 188.105 304.674C188.747 304.389 189.43 304.164 190.156 304.028C190.348 303.993 190.543 303.961 190.741 303.939C191.294 303.872 191.869 303.858 192.464 303.902C192.672 303.921 192.883 303.944 193.097 303.976Z" fill="white"/>
<path d="M202.122 293.375C202.215 293.539 202.305 293.704 202.387 293.872C202.445 293.98 202.502 294.092 202.557 294.202C202.347 294.133 202.083 294.05 201.781 293.954C200.307 293.483 197.98 292.721 196.963 292.317C196.709 292.215 196.531 292.204 196.433 292.282C196.319 292.372 196.268 292.595 196.248 292.887C196.228 293.173 196.239 293.528 196.25 293.876C196.263 294.276 196.28 294.69 196.251 295.079C196.241 295.223 196.213 295.664 195.912 295.823C195.56 296.01 195.109 295.726 194.43 295.3C193.757 294.877 192.838 294.302 191.69 293.987C191.466 293.928 191.286 293.977 191.122 294.147C190.102 295.207 190.342 300.039 190.632 302.958C190.667 303.317 190.705 303.648 190.738 303.938C190.756 304.076 190.772 304.208 190.789 304.328L190.39 304.323L190.192 304.319C190.182 304.254 190.169 304.157 190.154 304.029C190.121 303.753 190.072 303.342 190.021 302.833C189.754 300.166 189.411 294.917 190.681 293.602C190.966 293.305 191.333 293.207 191.736 293.32C192.977 293.655 193.942 294.263 194.651 294.707C195.005 294.928 195.493 295.237 195.593 295.188C195.593 295.188 195.637 295.15 195.654 294.919C195.676 294.567 195.664 294.173 195.65 293.794C195.618 292.895 195.59 292.049 196.038 291.695L196.039 291.694C196.282 291.503 196.633 291.493 197.077 291.67C197.944 292.018 199.849 292.646 201.297 293.112L201.299 293.114C201.597 293.207 201.876 293.295 202.122 293.375Z" fill="white"/>
<path d="M192.105 302.592L191.509 302.588C191.484 302.413 190.92 298.257 191.379 296.77L191.953 297.091C191.609 298.205 191.946 301.438 192.105 302.592Z" fill="white"/>
<path d="M185.831 289.91L186.222 290.503L188.058 289.072L187.667 288.479L185.831 289.91Z" fill="white"/>
<path d="M188.649 289.669L187.393 291.768L187.907 292.219L189.164 290.121L188.649 289.669Z" fill="white"/>
<path d="M184.811 287.37L184.934 288.061L187.296 287.946L187.173 287.255L184.811 287.37Z" fill="white"/>
<path d="M185.051 284.965L184.944 285.617L187.319 286.543L187.426 285.891L185.051 284.965Z" fill="white"/>
<path d="M186.284 282.746L185.885 283.183L187.695 285.329L188.094 284.891L186.284 282.746Z" fill="white"/>
<path d="M187.466 281.801L188.539 284.451L189.079 284.248L188.006 281.599L187.466 281.801Z" fill="white"/>
<path d="M189.441 281.462L189.634 284.223L190.235 284.28L190.041 281.519L189.441 281.462Z" fill="white"/>
<path d="M203.617 299.067C203.195 299.024 202.774 299.016 202.359 299.044C200.938 299.133 199.573 299.624 198.396 300.553C197.31 301.409 196.499 302.545 195.971 303.845C194.763 306.811 195.028 310.639 196.849 313.955C196.965 314.166 197.087 314.378 197.216 314.581C197.285 314.556 197.355 314.53 197.422 314.503C197.534 314.458 197.648 314.41 197.758 314.36C197.628 314.158 197.505 313.949 197.388 313.739C195.365 310.12 195.344 305.836 197.184 302.935C197.616 302.251 198.152 301.646 198.791 301.143C199.514 300.572 200.312 300.178 201.151 299.953C201.987 299.727 202.861 299.666 203.741 299.76C203.942 299.782 204.146 299.812 204.347 299.851C204.335 299.751 204.319 299.65 204.299 299.549C204.279 299.414 204.256 299.281 204.227 299.147C204.023 299.113 203.819 299.088 203.617 299.067Z" fill="white"/>
<path d="M203.945 302.664C202.695 302.522 201.461 302.827 200.442 303.629C198.086 305.487 197.704 309.357 199.475 312.5C199.578 312.689 199.69 312.871 199.81 313.05C199.822 313.069 199.835 313.088 199.849 313.106C199.88 313.085 199.911 313.06 199.94 313.037C200.063 312.941 200.184 312.842 200.301 312.738C200.288 312.722 200.278 312.707 200.267 312.69C200.144 312.505 200.03 312.318 199.926 312.13C198.378 309.317 198.734 305.877 200.835 304.22C201.734 303.512 202.818 303.236 203.917 303.346C204.117 303.365 204.32 303.397 204.519 303.443C204.533 303.221 204.541 302.993 204.544 302.767C204.344 302.721 204.143 302.688 203.945 302.664Z" fill="white"/>
<path d="M202.492 295.433C200.292 295.398 198.158 296.057 196.351 297.481C194.497 298.943 193.238 301.014 192.596 303.376C192.548 303.551 192.506 303.73 192.463 303.906C192.426 304.072 192.389 304.24 192.358 304.407C192.348 304.465 192.337 304.526 192.326 304.584C191.765 307.743 192.238 311.294 193.786 314.561C193.895 314.789 194.01 315.015 194.131 315.242C194.194 315.239 194.256 315.233 194.32 315.229C194.465 315.22 194.611 315.206 194.755 315.186C194.634 314.967 194.518 314.742 194.41 314.516C192.823 311.292 192.356 307.757 192.953 304.642C192.969 304.568 192.982 304.497 192.997 304.424C193.028 304.275 193.06 304.124 193.095 303.977C193.136 303.82 193.175 303.662 193.22 303.507C193.844 301.332 195.025 299.428 196.743 298.073C198.513 296.678 200.612 296.055 202.772 296.134C202.981 296.137 203.191 296.152 203.403 296.174C203.361 296.061 203.323 295.952 203.277 295.843C203.231 295.716 203.181 295.59 203.128 295.464C202.914 295.446 202.704 295.434 202.492 295.433Z" fill="white"/>
<path d="M182.269 303.439L185.05 307.62C184.907 307.759 184.765 307.9 184.632 308.038L181.812 303.799L182.269 303.439Z" fill="white"/>
<path d="M178.685 298.121L178.192 297.815L178.281 298.422C178.318 298.68 179.237 304.783 181.37 306.086C181.981 306.461 182.621 306.422 183.266 305.981C183.292 305.963 183.32 305.944 183.346 305.923C183.379 305.9 183.408 305.877 183.438 305.854C183.538 305.775 183.632 305.694 183.714 305.607C184.235 305.091 184.448 304.479 184.354 303.786C184.061 301.689 180.978 299.545 178.685 298.121ZM183.755 303.784C183.815 304.237 183.675 304.644 183.315 305.015C183.215 305.12 183.096 305.222 182.961 305.323C182.93 305.347 182.899 305.369 182.868 305.39C182.402 305.699 181.981 305.732 181.581 305.487C180.238 304.668 179.33 300.995 178.975 299.04C181.98 300.967 183.587 302.562 183.755 303.784Z" fill="white"/>
<path d="M186.44 302.172L186.074 302.461L187.867 305.156L188.233 304.868L186.44 302.172Z" fill="white"/>
<path d="M184.265 298.959L183.87 298.713L183.939 299.199C183.997 299.592 184.543 303.068 185.833 303.859C186.207 304.087 186.591 304.074 186.98 303.824C187.014 303.808 187.046 303.786 187.077 303.761L187.132 303.718C187.208 303.658 187.28 303.596 187.339 303.526C187.64 303.213 187.76 302.839 187.703 302.419C187.525 301.121 185.655 299.823 184.265 298.959ZM187.226 302.418C187.255 302.647 187.194 302.859 187.024 303.053C186.958 303.132 186.873 303.207 186.772 303.281C186.735 303.307 186.7 303.332 186.666 303.353C186.426 303.495 186.208 303.502 186.003 303.379C185.249 302.921 184.725 300.884 184.502 299.697C186.216 300.808 187.13 301.72 187.226 302.418Z" fill="white"/>
<path d="M190.585 284.893C190.585 284.893 189.818 284.783 189.587 284.828C189.358 284.872 189.673 285.345 189.673 285.345L190.378 285.149L190.585 284.893Z" fill="white"/>
<path d="M191.236 289.161C191.993 288.564 192.078 287.287 191.427 286.307C190.775 285.328 189.634 285.018 188.877 285.615C188.12 286.211 188.034 287.489 188.686 288.468C189.337 289.448 190.479 289.758 191.236 289.161Z" fill="#F97E03"/>
</g>
<path fill-rule="evenodd" clip-rule="evenodd" d="M510.323 234.853C510.332 234.707 510.336 234.56 510.336 234.413C510.336 225.351 493.695 218.004 473.168 218.004C452.641 218.004 436 225.351 436 234.413C436 234.449 436 234.484 436.001 234.52H436V366H510.323V234.853Z" fill="#3C3C3C"/>
<path fill-rule="evenodd" clip-rule="evenodd" d="M474.538 366H510.336V234.201H510.334C510.099 225.431 494.283 218.316 474.538 218V366Z" fill="#242424"/>
<ellipse cx="473.168" cy="235.599" rx="32.8186" ry="14.4323" fill="#575757"/>
<ellipse cx="473.168" cy="235.599" rx="27.6783" ry="11.269" fill="#313131"/>
<path fill-rule="evenodd" clip-rule="evenodd" d="M187.006 273.203C187.542 253.168 224.495 237 270.002 237C315.509 237 352.462 253.168 352.998 273.203H353.004V366.5H187V273.716C187 273.692 187 273.668 187 273.645C187 273.621 187 273.597 187 273.574V273.203H187.006Z" fill="#3C3C3C"/>
<path fill-rule="evenodd" clip-rule="evenodd" d="M273.534 366H353.004V273.17H352.998C352.476 253.657 317.406 237.811 273.534 237V366Z" fill="#242424"/>
<ellipse cx="270.002" cy="276.294" rx="73.2888" ry="32.2294" fill="#575757"/>
<ellipse cx="270.002" cy="276.294" rx="61.8099" ry="25.1654" fill="#313131"/>
<path fill-rule="evenodd" clip-rule="evenodd" d="M134.984 305.5C134.994 305.329 135 305.157 135 304.984C135 294.5 115.748 286 91.9998 286C68.2516 286 49 294.5 49 304.984C49 305.157 49.0052 305.329 49.0156 305.5H49V366.276H135V305.5H134.984Z" fill="#3C3C3C"/>
<path fill-rule="evenodd" clip-rule="evenodd" d="M93.8296 366.5H135V304.738H134.997C134.726 294.629 116.558 286.42 93.8296 286V366.5Z" fill="#242424"/>
<ellipse cx="91.9996" cy="306.356" rx="37.9679" ry="16.6967" fill="#575757"/>
<ellipse cx="91.9996" cy="306.356" rx="32.0211" ry="13.0372" fill="#313131"/>
<rect x="186" y="60" width="169" height="168" rx="80" fill="url(#paint8_linear_2861_80751)"/>
<path d="M274.24 188.138L208 150.966L265.994 118.352L332.766 155.653L274.24 188.138Z" fill="#222231"/>
<path d="M265.462 166.374V134.723L276.768 117.645L288.074 143.39V178.636L265.462 166.374Z" fill="#CFD4EB"/>
<path d="M276.768 117.646L312.349 98L321.792 124.13V159.184L288.074 178.636V143.39L276.768 117.646Z" fill="#4A516B"/>
<path d="M255.952 108.337V129.523L265.462 134.723V113.794L255.952 108.337Z" fill="#CFD4EB"/>
<path d="M246.174 134.723L255.95 129.523L265.461 134.723V145.059L246.174 134.723Z" fill="#A0A7C3"/>
<path d="M255.952 108.336L274.573 98L284.084 103.136L265.462 113.793L255.952 108.336Z" fill="#A0A7C3"/>
<path d="M265.462 134.723L276.768 117.645L284.084 113.6V103.136L265.462 113.793V134.723Z" fill="#4A516B"/>
<path d="M255.817 139.923L255.95 150.709L265.461 155.909V145.059L255.817 139.923Z" fill="#CFD4EB"/>
<path d="M246.174 155.909L255.95 150.709L255.817 139.923L246.174 134.723V155.909Z" fill="#272B43"/>
<path d="M246.175 129.009V155.909L227.62 145.316V118.93L246.175 129.009Z" fill="#272B43"/>
<path d="M255.818 104.356L227.62 118.929L246.175 129.009L255.951 123.68V108.336L259.676 106.282L255.818 104.356Z" fill="#A0A7C3"/>
<path d="M246.174 155.909L265.461 166.374V155.909L255.95 150.709L246.174 155.909Z" fill="#A0A7C3"/>
<path d="M288.074 143.39L321.792 124.13L312.349 98L276.768 117.646L288.074 143.39Z" fill="#A0A7C3"/>
<path d="M255.021 173.179V166.246L273.975 177.096V183.644L255.021 173.179Z" fill="#CFD4EB"/>
<path d="M265.462 151.158V145.059L282.222 154.689V160.403L265.462 151.158Z" fill="#272B43"/>
<path d="M269.651 147.499V140.758C269.651 140.758 269.718 134.017 274.639 133.76C279.561 133.503 281.889 139.73 281.822 144.096C281.756 148.462 281.822 154.432 281.822 154.432L269.651 147.499Z" fill="#0D0D0D"/>
<path d="M285.281 176.711L273.975 183.644V177.096L285.281 170.226V176.711Z" fill="#4A516B"/>
<path d="M274.573 134.402C279.295 134.145 281.69 139.987 281.756 144.289V144.096C281.823 139.73 279.428 133.503 274.573 133.76C269.718 134.017 269.585 140.758 269.585 140.758V141.464C269.585 141.464 269.652 134.723 274.573 134.466V134.402Z" fill="#A8B8C6"/>
<path d="M266.792 160.339V152.507L283.685 161.687V170.098L280.027 172.345L267.125 165.796L266.792 160.339Z" fill="#4A516B"/>
<path d="M255.021 166.246L266.26 160.082L267.125 160.403V165.796L260.607 169.456L255.021 166.246Z" fill="#4A516B"/>
<path d="M281.024 172.858L267.124 165.09L260.341 169.07L273.975 177.096L281.024 172.858Z" fill="#222231"/>
<path d="M255.021 166.246H256.617L273.842 176.133L273.975 177.096L255.021 166.246Z" fill="#A0A7C3"/>
<path d="M284.481 169.648L273.84 176.132L273.973 177.096L285.279 170.226L284.481 169.648Z" fill="#A0A7C3"/>
<path d="M256.617 166.246L267.125 160.403L266.26 160.082L255.021 166.246H256.617Z" fill="#A0A7C3"/>
<path d="M267.125 165.09V153.02L283.286 161.88V170.354L280.027 172.345L267.125 165.09Z" fill="#0D0D0D"/>
<path d="M265.462 145.38L268.588 144.289V147.178L265.462 145.38Z" fill="#4A516B"/>
<path d="M282.221 154.689L284.682 153.02V158.734L282.221 160.532V154.689Z" fill="#4A516B"/>
<path d="M269.984 140.95C269.984 140.95 270.051 134.209 274.972 133.952C276.037 133.952 277.034 134.145 277.832 134.659C276.901 134.017 275.837 133.696 274.573 133.76C269.652 134.017 269.585 140.758 269.585 140.758V147.499L269.984 147.692V140.95Z" fill="#A0A7C3"/>
<path d="M265.462 134.723H266.726L276.768 119.7V117.645L265.462 134.723Z" fill="#7780A1"/>
<path d="M288.074 143.39L286.943 142.876L276.768 119.7V117.645L288.074 143.39Z" fill="#7780A1"/>
<path d="M257.015 140.565V145.637L263.267 148.783V143.904L257.015 140.565Z" fill="#A0A7C3"/>
<path d="M300.91 146.343V141.592L309.09 136.585V141.721L300.91 146.343Z" fill="#0D0D0D"/>
<path d="M257.214 140.693V145.573L263.066 148.397V143.839L257.214 140.693Z" fill="#0D0D0D"/>
<path d="M258.013 118.287V122.525L262.27 125.029V120.791L258.013 118.287Z" fill="#A0A7C3"/>
<path d="M264.463 155.395V144.545L265.461 145.059V155.909L264.463 155.395Z" fill="#A0A7C3"/>
<path d="M258.212 118.544V122.46L262.07 124.707V120.855L258.212 118.544Z" fill="#0D0D0D"/>
<path d="M246.174 134.723V129.009L255.95 123.681V129.523L246.174 134.723Z" fill="#4A516B"/>
<path d="M268.056 143.968L268.588 144.289L266.06 145.701L265.462 145.38L268.056 143.968Z" fill="#4A516B"/>
<path d="M284.682 153.02L283.95 152.635L281.49 154.24L282.221 154.689L284.682 153.02Z" fill="#4A516B"/>
<path d="M265.462 145.444L282.222 154.689L282.754 154.304L266.193 145.188L265.462 145.444Z" fill="#4A516B"/>
<path d="M208 150.966V152.763L274.24 190V188.138L208 150.966Z" fill="#30304B"/>
<path d="M274.24 190V188.138L332.765 155.652V157.386L274.24 190Z" fill="#30304B"/>
<path d="M258.212 122.46L258.545 122.204V118.737L258.212 118.544V122.46Z" fill="#1A2921"/>
<path d="M262.07 124.707L258.212 122.46L258.545 122.204L262.07 124.258V124.707Z" fill="#1A2921"/>
<path d="M258.546 118.737V119.315L262.071 121.562V120.856L258.546 118.737Z" fill="#A8B8C6"/>
<path d="M267.723 153.341V154.432L283.286 163.164V161.88L267.723 153.341Z" fill="#A8B8C6"/>
<path d="M260.141 119.7V123.231L260.474 123.488V119.893L260.141 119.7Z" fill="#1A2921"/>
<path d="M257.613 140.886V145.187L257.214 145.573V140.693L257.613 140.886Z" fill="#A0A7C3"/>
<path d="M257.614 140.886V141.785L263.067 144.674V143.839L257.614 140.886Z" fill="#A8B8C6"/>
<path d="M263.066 148.398L257.214 145.573L257.613 145.188L263.066 147.948V148.398Z" fill="#A0A7C3"/>
<path d="M260.008 142.17V146.664L260.341 146.793V142.363L260.008 142.17Z" fill="#A0A7C3"/>
<path d="M267.723 153.341L267.856 164.705L267.125 165.09V153.02L267.723 153.341Z" fill="#A0A7C3"/>
<path d="M280.027 172.345L267.125 165.09L267.856 164.705L280.625 171.96L280.027 172.345Z" fill="#A0A7C3"/>
<path d="M274.439 157.065V168.942L274.838 169.263V157.257L274.439 157.065Z" fill="#A0A7C3"/>
<path d="M275.038 150.067V142.299L269.784 139.41L269.851 138.896L275.038 141.785L274.972 133.953H275.57V142.042L281.822 145.509V146.087L275.57 142.62V150.324L275.038 150.067Z" fill="#A0A7C3"/>
<path d="M227.62 145.316L246.175 134.723V155.909L227.62 145.316Z" fill="#A0A7C3"/>
<path d="M308.492 136.906V141.335L309.091 141.721V136.585L308.492 136.906Z" fill="#A0A7C3"/>
<path d="M308.491 137.612L300.91 142.299V141.592L308.491 136.906V137.612Z" fill="#A8B8C6"/>
<path d="M300.91 146.343L309.09 141.721L308.491 141.336L300.91 145.701V146.343Z" fill="#A0A7C3"/>
<path d="M304.833 139.153V143.519L305.498 143.198V138.768L304.833 139.153Z" fill="#A0A7C3"/>
<ellipse cx="270.5" cy="143.913" rx="84.5" ry="84.913" fill="url(#paint9_linear_2861_80751)"/>
<path d="M370 144C370 199.233 325.448 244 270.5 244C215.552 244 171 199.233 171 144C171 88.7668 215.552 44 270.5 44C325.448 44 370 88.7668 370 144Z" stroke="#61CD81" stroke-width="2"/>
<path opacity="0.3" d="M390 144C390 210.278 336.494 264 270.5 264C204.506 264 151 210.278 151 144C151 77.7219 204.506 24 270.5 24C336.494 24 390 77.7219 390 144Z" stroke="#61CD81" stroke-width="2"/>
<path opacity="0.12" d="M413 144C413 222.98 349.197 287 270.5 287C191.803 287 128 222.98 128 144C128 65.02 191.803 1 270.5 1C349.197 1 413 65.02 413 144Z" stroke="#61CD81" stroke-width="2"/>
<rect x="54" y="193" width="77" height="77" rx="38.5" fill="url(#paint10_linear_2861_80751)"/>
<path d="M66.7358 223.501L85.2569 212.539L89.803 215.195L85.1222 223.501L75.929 228.879L66.7358 223.501Z" fill="#7780A1"/>
<path d="M122.77 237.049L90.106 256.18L61.6172 239.568L94.2143 220.505L122.77 237.049Z" fill="#222231"/>
<path d="M71.0122 222.888L76.7032 226.054V217.611L73.8409 213.527L71.0122 215.467V222.888Z" fill="#CFD4EB"/>
<path d="M117.787 236.946L99.2319 247.976V231.602L108.492 215.194L117.787 226.224V236.946Z" fill="#4A516B"/>
<path d="M85.3578 239.806L99.2318 247.976V231.602L85.1221 223.5L85.3578 239.806Z" fill="#CFD4EB"/>
<path d="M89.4995 234.904V242.189L91.419 243.414V236.947L89.4995 234.904Z" fill="#222231"/>
<path d="M89.4995 242.189L89.8363 241.951V235.279L89.4995 234.904V242.189Z" fill="#A0A7C3"/>
<path d="M89.8363 241.95L89.4995 242.189L91.419 243.346V242.904L89.8363 241.95Z" fill="#222231"/>
<path d="M66.7358 239.772V223.5L75.929 228.879V245.15L66.7358 239.772Z" fill="#CFD4EB"/>
<path d="M85.1219 223.5L75.9287 228.879V245.15L85.3576 239.806L85.1219 223.5Z" fill="#4A516B"/>
<path d="M94.4163 206.991L85.1221 223.501L99.2318 231.602L108.492 215.195L94.4163 206.991Z" fill="#7780A1"/>
<path d="M76.7031 226.054L87.1086 220.062L89.8026 215.195V209.918L76.7031 217.612V226.054Z" fill="#4A516B"/>
<path d="M73.8413 213.527L87.1765 205.833L89.8031 209.918L76.7037 217.611L73.8413 213.527Z" fill="#A0A7C3"/>
<path d="M86.166 243.721V235.21L88.961 233.236V242.087L86.166 243.721Z" fill="#4A516B"/>
<path d="M92.2275 247.261V236.878L95.0225 235.21V245.593L92.2275 247.261Z" fill="#4A516B"/>
<path d="M68.7563 227.415V239.057L70.036 239.84V228.13L68.7563 227.415Z" fill="#0D0D0D"/>
<path d="M88.4219 233.508L92.2271 236.878L95.0221 235.21L91.0822 231.806L88.4219 233.508Z" fill="#A0A7C3"/>
<path d="M88.4224 233.509L85.5601 235.517V243.38L86.1325 243.721V235.891C86.1325 235.891 87.0417 234.564 88.254 234.7C89.3316 234.802 91.1501 236.606 91.4195 237.457V246.818L92.2276 247.295V236.913L88.4224 233.543V233.509Z" fill="#272B43"/>
<path d="M69.0257 238.785V227.551L68.7563 227.415V239.057L70.036 239.84V239.397L69.0257 238.785Z" fill="#A0A7C3"/>
<path d="M71.6519 229.015V240.657L72.9315 241.44V229.73L71.6519 229.015Z" fill="#0D0D0D"/>
<path d="M71.9213 240.385V229.185L71.6519 229.015V240.657L72.9315 241.44V240.997L71.9213 240.385Z" fill="#A0A7C3"/>
<path d="M82.5965 227.653V239.329L81.3169 240.078V228.368L82.5965 227.653Z" fill="#0D0D0D"/>
<path d="M79.9701 229.117V240.759L78.6904 241.542V229.832L79.9701 229.117Z" fill="#0D0D0D"/>
<path d="M108.493 215.194V216.352L116.945 226.326L117.787 226.224L108.493 215.194Z" fill="#A0A7C3"/>
<path d="M99.2319 231.602L99.7707 231.942L108.492 216.352V215.194L99.2319 231.602Z" fill="#A0A7C3"/>
<path d="M61.6172 239.568V240.351L90.106 257.167V256.18L61.6172 239.568Z" fill="#30304B"/>
<path d="M90.106 257.167V256.179L122.77 237.049V238.07L90.106 257.167Z" fill="#30304B"/>
<path d="M89.5 242.189L77.7139 248.963L82.8324 251.925L91.4195 246.75V243.414L89.5 242.189Z" fill="#A0A7C3"/>
<path d="M69.0254 227.551V227.96L70.0356 228.505V228.13L69.0254 227.551Z" fill="#A0A7C3"/>
<path d="M71.9219 229.185V229.56L72.9321 230.138V229.73L71.9219 229.185Z" fill="#A0A7C3"/>
<path d="M79.7007 240.487V229.288L79.9701 229.117V240.759L78.6904 241.542V241.1L79.7007 240.487Z" fill="#A0A7C3"/>
<path d="M79.7007 229.287V229.662L78.6904 230.24V229.832L79.7007 229.287Z" fill="#A0A7C3"/>
<path d="M82.2935 239.057V227.824L82.5965 227.653V239.329L81.3169 240.078V239.636L82.2935 239.057Z" fill="#A0A7C3"/>
<path d="M82.2935 227.824V228.232L81.3169 228.777V228.368L82.2935 227.824Z" fill="#A0A7C3"/>
<path d="M71.7197 222.377V219.245C71.7197 219.245 71.7197 216.726 73.1677 216.624C74.5821 216.522 75.2556 218.871 75.2556 220.471C75.2556 222.105 75.2556 224.249 75.2556 224.249L71.7197 222.343V222.377Z" fill="#0D0D0D"/>
<path d="M73.1336 217.032C74.4805 216.93 75.1877 219.075 75.2214 220.675C75.2214 220.607 75.2214 220.539 75.2214 220.471C75.2214 218.837 74.5479 216.522 73.1336 216.624C71.7192 216.726 71.6855 219.245 71.6855 219.245V219.654C71.6855 219.483 71.7529 217.169 73.1336 217.067V217.032Z" fill="#A0A7C3"/>
<path d="M71.9549 219.381C71.9549 219.381 71.8539 216.862 73.2682 216.76C73.6387 216.76 73.9417 216.862 74.2111 217.101C73.9081 216.76 73.5376 216.556 73.0999 216.59C71.6855 216.692 71.6519 219.211 71.6519 219.211V222.343L71.8876 222.479V219.347L71.9549 219.381Z" fill="#A0A7C3"/>
<path d="M75.2219 224.283L71.7197 222.377V222.037L75.2219 223.943V224.283Z" fill="#A0A7C3"/>
<path d="M73.7064 216.794V223.16L73.4707 222.99V216.692L73.7064 216.794Z" fill="#A0A7C3"/>
<path d="M71.9551 219.211L75.2215 220.811V221.152L71.9551 219.552V219.211Z" fill="#A0A7C3"/>
<path d="M105.528 239.942V236.47C105.528 236.47 105.528 233.713 103.946 233.577C102.397 233.474 101.622 236.062 101.656 237.832C101.656 239.636 101.656 242.019 101.656 242.019L105.528 239.908V239.942Z" fill="#0D0D0D"/>
<path d="M103.946 234.087C102.464 233.985 101.69 236.334 101.656 238.104C101.656 238.036 101.656 237.934 101.656 237.866C101.656 236.062 102.397 233.509 103.946 233.611C105.495 233.713 105.529 236.504 105.529 236.504V236.981C105.529 236.776 105.461 234.223 103.946 234.121V234.087Z" fill="#868EAE"/>
<path d="M105.225 236.64C105.225 236.64 105.326 233.883 103.777 233.747C103.373 233.747 103.036 233.883 102.733 234.121C103.07 233.747 103.474 233.543 103.946 233.577C105.495 233.679 105.528 236.47 105.528 236.47V239.942L105.259 240.078V236.64H105.225Z" fill="#A0A7C3"/>
<path d="M101.623 242.053L105.529 239.942V239.568L101.656 241.712L101.623 242.053Z" fill="#A0A7C3"/>
<path d="M103.34 233.815V240.827L103.576 240.657V233.713L103.34 233.815Z" fill="#A0A7C3"/>
<path d="M105.226 236.47L101.656 238.24V238.615L105.226 236.844V236.47Z" fill="#A0A7C3"/>
<path d="M111.186 237.049V233.577C111.186 233.577 111.186 230.819 109.603 230.683C108.054 230.581 107.28 233.168 107.314 234.938C107.347 236.708 107.314 239.125 107.314 239.125L111.186 237.015V237.049Z" fill="#0D0D0D"/>
<path d="M109.603 231.16C108.122 231.058 107.347 233.407 107.313 235.177C107.313 235.109 107.313 235.006 107.313 234.938C107.313 233.134 108.054 230.581 109.603 230.683C111.152 230.785 111.186 233.577 111.186 233.577V234.053C111.186 233.849 111.119 231.296 109.603 231.194V231.16Z" fill="#868EAE"/>
<path d="M110.917 233.747C110.917 233.747 111.018 230.989 109.469 230.853C109.065 230.853 108.728 230.989 108.425 231.228C108.762 230.853 109.166 230.649 109.637 230.683C111.186 230.785 111.22 233.577 111.22 233.577V237.049L110.95 237.185V233.747H110.917Z" fill="#A0A7C3"/>
<path d="M107.313 239.159L111.186 237.049V236.674L107.313 238.785V239.159Z" fill="#A0A7C3"/>
<path d="M108.997 230.887V237.9L109.233 237.729V230.785L108.997 230.887Z" fill="#A0A7C3"/>
<path d="M110.917 233.577L107.313 235.313V235.721L110.917 233.917V233.577Z" fill="#A0A7C3"/>
<path d="M116.776 234.053V230.581C116.776 230.581 116.776 227.824 115.194 227.688C113.645 227.585 112.87 230.172 112.904 231.943C112.904 233.747 112.904 236.13 112.904 236.13L116.776 234.019V234.053Z" fill="#0D0D0D"/>
<path d="M115.194 228.198C113.712 228.096 112.937 230.445 112.904 232.215C112.904 232.147 112.904 232.045 112.904 231.977C112.904 230.173 113.645 227.619 115.194 227.722C116.743 227.824 116.776 230.615 116.776 230.615V231.092C116.776 230.887 116.709 228.334 115.194 228.232V228.198Z" fill="#868EAE"/>
<path d="M116.473 230.751C116.473 230.751 116.574 227.994 115.025 227.858C114.621 227.858 114.284 227.994 113.981 228.232C114.318 227.858 114.722 227.653 115.193 227.688C116.742 227.79 116.776 230.581 116.776 230.581V234.053L116.507 234.189V230.751H116.473Z" fill="#A0A7C3"/>
<path d="M112.87 236.164L116.776 234.053V233.679L112.87 235.823V236.164Z" fill="#A0A7C3"/>
<path d="M114.587 227.926V234.938L114.823 234.768V227.824L114.587 227.926Z" fill="#A0A7C3"/>
<path d="M116.473 230.581L112.87 232.351V232.726L116.473 230.955V230.581Z" fill="#A0A7C3"/>
<path d="M110.176 223.875C110.176 225.237 109.536 226.326 108.728 226.326C107.92 226.326 107.28 225.237 107.28 223.875C107.28 222.513 107.92 221.424 108.728 221.424C109.536 221.424 110.176 222.513 110.176 223.875Z" fill="#0D0D0D"/>
<path d="M107.414 224.147C107.414 222.786 108.054 221.696 108.862 221.696C109.671 221.696 109.57 221.935 109.839 222.343C109.57 221.799 109.166 221.424 108.694 221.424C107.886 221.424 107.246 222.513 107.246 223.875C107.246 225.237 107.448 225.237 107.718 225.713C107.515 225.305 107.381 224.76 107.381 224.181L107.414 224.147Z" fill="#868EAE"/>
<path d="M107.246 223.875C107.246 222.616 107.852 221.628 108.593 221.628C109.334 221.628 109.94 222.65 109.94 223.875C109.94 225.1 109.334 226.122 108.593 226.122C107.852 226.122 107.246 224.828 107.246 223.875C107.246 225.237 107.886 226.326 108.694 226.326C109.502 226.326 110.142 225.237 110.142 223.875C110.142 222.513 109.502 221.424 108.694 221.424C107.886 221.424 107.246 222.513 107.246 223.875Z" fill="#A0A7C3"/>
<path d="M108.896 221.594H108.728V226.156H108.896V221.594Z" fill="#A0A7C3"/>
<path d="M107.28 224.352L109.974 223.5V223.262L107.246 224.181L107.28 224.352Z" fill="#A0A7C3"/>
<circle cx="92.5" cy="231.5" r="38.5" fill="url(#paint11_linear_2861_80751)"/>
<circle cx="92" cy="231" r="45" stroke="#61CD81" stroke-width="2"/>
<circle opacity="0.3" cx="92" cy="231" r="57" stroke="#61CD81" stroke-width="2"/>
<circle opacity="0.12" cx="92" cy="231" r="72" stroke="#61CD81" stroke-width="2"/>
<rect x="435" y="131" width="77" height="77" rx="38.5" fill="url(#paint12_linear_2861_80751)"/>
<path d="M447.736 161.501L466.257 150.539L470.803 153.195L466.122 161.501L456.929 166.879L447.736 161.501Z" fill="#7780A1"/>
<path d="M503.77 175.049L471.106 194.18L442.617 177.568L475.214 158.505L503.77 175.049Z" fill="#222231"/>
<path d="M452.012 160.888L457.703 164.054V155.611L454.841 151.527L452.012 153.467V160.888Z" fill="#CFD4EB"/>
<path d="M498.787 174.946L480.232 185.976V169.602L489.492 153.194L498.787 164.224V174.946Z" fill="#4A516B"/>
<path d="M466.358 177.806L480.232 185.976V169.602L466.122 161.5L466.358 177.806Z" fill="#CFD4EB"/>
<path d="M470.5 172.904V180.189L472.419 181.414V174.947L470.5 172.904Z" fill="#222231"/>
<path d="M470.5 180.189L470.836 179.951V173.279L470.5 172.904V180.189Z" fill="#A0A7C3"/>
<path d="M470.836 179.95L470.5 180.189L472.419 181.346V180.904L470.836 179.95Z" fill="#222231"/>
<path d="M447.736 177.772V161.5L456.929 166.879V183.15L447.736 177.772Z" fill="#CFD4EB"/>
<path d="M466.122 161.5L456.929 166.879V183.15L466.358 177.806L466.122 161.5Z" fill="#4A516B"/>
<path d="M475.416 144.991L466.122 161.501L480.232 169.602L489.492 153.195L475.416 144.991Z" fill="#7780A1"/>
<path d="M457.703 164.054L468.109 158.062L470.803 153.195V147.918L457.703 155.612V164.054Z" fill="#4A516B"/>
<path d="M454.841 151.527L468.176 143.833L470.803 147.918L457.704 155.611L454.841 151.527Z" fill="#A0A7C3"/>
<path d="M467.166 181.721V173.21L469.961 171.236V180.087L467.166 181.721Z" fill="#4A516B"/>
<path d="M473.228 185.261V174.878L476.023 173.21V183.593L473.228 185.261Z" fill="#4A516B"/>
<path d="M449.756 165.415V177.057L451.036 177.84V166.13L449.756 165.415Z" fill="#0D0D0D"/>
<path d="M469.422 171.508L473.227 174.878L476.022 173.21L472.082 169.806L469.422 171.508Z" fill="#A0A7C3"/>
<path d="M469.422 171.509L466.56 173.517V181.38L467.133 181.721V173.891C467.133 173.891 468.042 172.564 469.254 172.7C470.332 172.802 472.15 174.606 472.419 175.457V184.818L473.228 185.295V174.913L469.422 171.543V171.509Z" fill="#272B43"/>
<path d="M450.026 176.785V165.551L449.756 165.415V177.057L451.036 177.84V177.397L450.026 176.785Z" fill="#A0A7C3"/>
<path d="M452.652 167.015V178.657L453.932 179.44V167.73L452.652 167.015Z" fill="#0D0D0D"/>
<path d="M452.921 178.385V167.185L452.652 167.015V178.657L453.932 179.44V178.997L452.921 178.385Z" fill="#A0A7C3"/>
<path d="M463.597 165.653V177.329L462.317 178.078V166.368L463.597 165.653Z" fill="#0D0D0D"/>
<path d="M460.97 167.117V178.759L459.69 179.542V167.832L460.97 167.117Z" fill="#0D0D0D"/>
<path d="M489.492 153.194V154.352L497.945 164.326L498.787 164.224L489.492 153.194Z" fill="#A0A7C3"/>
<path d="M480.232 169.602L480.771 169.942L489.492 154.352V153.194L480.232 169.602Z" fill="#A0A7C3"/>
<path d="M442.617 177.568V178.351L471.106 195.167V194.18L442.617 177.568Z" fill="#30304B"/>
<path d="M471.106 195.167V194.179L503.771 175.049V176.07L471.106 195.167Z" fill="#30304B"/>
<path d="M470.5 180.189L458.714 186.963L463.832 189.925L472.419 184.75V181.414L470.5 180.189Z" fill="#A0A7C3"/>
<path d="M450.025 165.551V165.96L451.036 166.505V166.13L450.025 165.551Z" fill="#A0A7C3"/>
<path d="M452.922 167.185V167.56L453.932 168.138V167.73L452.922 167.185Z" fill="#A0A7C3"/>
<path d="M460.7 178.487V167.288L460.97 167.117V178.759L459.69 179.542V179.1L460.7 178.487Z" fill="#A0A7C3"/>
<path d="M460.7 167.287V167.662L459.69 168.24V167.832L460.7 167.287Z" fill="#A0A7C3"/>
<path d="M463.293 177.057V165.824L463.597 165.653V177.329L462.317 178.078V177.636L463.293 177.057Z" fill="#A0A7C3"/>
<path d="M463.293 165.824V166.232L462.317 166.777V166.368L463.293 165.824Z" fill="#A0A7C3"/>
<path d="M452.72 160.377V157.245C452.72 157.245 452.72 154.726 454.168 154.624C455.582 154.522 456.256 156.871 456.256 158.471C456.256 160.105 456.256 162.249 456.256 162.249L452.72 160.343V160.377Z" fill="#0D0D0D"/>
<path d="M454.134 155.032C455.481 154.93 456.188 157.075 456.222 158.675C456.222 158.607 456.222 158.539 456.222 158.471C456.222 156.837 455.548 154.522 454.134 154.624C452.72 154.726 452.686 157.245 452.686 157.245V157.654C452.686 157.483 452.753 155.169 454.134 155.067V155.032Z" fill="#A0A7C3"/>
<path d="M452.955 157.381C452.955 157.381 452.854 154.862 454.268 154.76C454.639 154.76 454.942 154.862 455.211 155.101C454.908 154.76 454.538 154.556 454.1 154.59C452.686 154.692 452.652 157.211 452.652 157.211V160.343L452.888 160.479V157.347L452.955 157.381Z" fill="#A0A7C3"/>
<path d="M456.222 162.283L452.72 160.377V160.037L456.222 161.943V162.283Z" fill="#A0A7C3"/>
<path d="M454.706 154.794V161.16L454.471 160.99V154.692L454.706 154.794Z" fill="#A0A7C3"/>
<path d="M452.955 157.211L456.222 158.811V159.152L452.955 157.552V157.211Z" fill="#A0A7C3"/>
<path d="M486.528 177.942V174.47C486.528 174.47 486.528 171.713 484.946 171.577C483.397 171.474 482.622 174.062 482.656 175.832C482.656 177.636 482.656 180.019 482.656 180.019L486.528 177.908V177.942Z" fill="#0D0D0D"/>
<path d="M484.946 172.087C483.464 171.985 482.69 174.334 482.656 176.104C482.656 176.036 482.656 175.934 482.656 175.866C482.656 174.062 483.397 171.509 484.946 171.611C486.495 171.713 486.529 174.504 486.529 174.504V174.981C486.529 174.776 486.461 172.223 484.946 172.121V172.087Z" fill="#868EAE"/>
<path d="M486.226 174.64C486.226 174.64 486.327 171.883 484.778 171.747C484.373 171.747 484.037 171.883 483.734 172.121C484.07 171.747 484.474 171.543 484.946 171.577C486.495 171.679 486.529 174.47 486.529 174.47V177.942L486.259 178.078V174.64H486.226Z" fill="#A0A7C3"/>
<path d="M482.623 180.053L486.529 177.942V177.568L482.656 179.712L482.623 180.053Z" fill="#A0A7C3"/>
<path d="M484.34 171.815V178.827L484.576 178.657V171.713L484.34 171.815Z" fill="#A0A7C3"/>
<path d="M486.226 174.47L482.656 176.24V176.615L486.226 174.844V174.47Z" fill="#A0A7C3"/>
<path d="M492.186 175.049V171.577C492.186 171.577 492.186 168.819 490.603 168.683C489.054 168.581 488.28 171.168 488.314 172.938C488.347 174.708 488.314 177.125 488.314 177.125L492.186 175.015V175.049Z" fill="#0D0D0D"/>
<path d="M490.603 169.16C489.122 169.058 488.347 171.407 488.313 173.177C488.313 173.109 488.313 173.006 488.313 172.938C488.313 171.134 489.054 168.581 490.603 168.683C492.152 168.785 492.186 171.577 492.186 171.577V172.053C492.186 171.849 492.119 169.296 490.603 169.194V169.16Z" fill="#868EAE"/>
<path d="M491.917 171.747C491.917 171.747 492.018 168.989 490.469 168.853C490.065 168.853 489.728 168.989 489.425 169.228C489.762 168.853 490.166 168.649 490.637 168.683C492.186 168.785 492.22 171.577 492.22 171.577V175.049L491.95 175.185V171.747H491.917Z" fill="#A0A7C3"/>
<path d="M488.314 177.159L492.186 175.049V174.674L488.314 176.785V177.159Z" fill="#A0A7C3"/>
<path d="M489.997 168.887V175.9L490.233 175.729V168.785L489.997 168.887Z" fill="#A0A7C3"/>
<path d="M491.917 171.577L488.314 173.313V173.721L491.917 171.917V171.577Z" fill="#A0A7C3"/>
<path d="M497.776 172.053V168.581C497.776 168.581 497.776 165.824 496.194 165.688C494.645 165.585 493.87 168.172 493.904 169.943C493.904 171.747 493.904 174.13 493.904 174.13L497.776 172.019V172.053Z" fill="#0D0D0D"/>
<path d="M496.194 166.198C494.712 166.096 493.937 168.445 493.904 170.215C493.904 170.147 493.904 170.045 493.904 169.977C493.904 168.173 494.645 165.619 496.194 165.722C497.743 165.824 497.776 168.615 497.776 168.615V169.092C497.776 168.887 497.709 166.334 496.194 166.232V166.198Z" fill="#868EAE"/>
<path d="M497.473 168.751C497.473 168.751 497.574 165.994 496.025 165.858C495.621 165.858 495.284 165.994 494.981 166.232C495.318 165.858 495.722 165.653 496.193 165.688C497.742 165.79 497.776 168.581 497.776 168.581V172.053L497.507 172.189V168.751H497.473Z" fill="#A0A7C3"/>
<path d="M493.87 174.164L497.776 172.053V171.679L493.87 173.823V174.164Z" fill="#A0A7C3"/>
<path d="M495.588 165.926V172.938L495.823 172.768V165.824L495.588 165.926Z" fill="#A0A7C3"/>
<path d="M497.473 168.581L493.87 170.351V170.726L497.473 168.955V168.581Z" fill="#A0A7C3"/>
<path d="M491.176 161.875C491.176 163.237 490.536 164.326 489.728 164.326C488.92 164.326 488.28 163.237 488.28 161.875C488.28 160.513 488.92 159.424 489.728 159.424C490.536 159.424 491.176 160.513 491.176 161.875Z" fill="#0D0D0D"/>
<path d="M488.414 162.147C488.414 160.786 489.054 159.696 489.862 159.696C490.671 159.696 490.57 159.935 490.839 160.343C490.57 159.799 490.166 159.424 489.694 159.424C488.886 159.424 488.246 160.513 488.246 161.875C488.246 163.237 488.448 163.237 488.718 163.713C488.515 163.305 488.381 162.76 488.381 162.181L488.414 162.147Z" fill="#868EAE"/>
<path d="M488.246 161.875C488.246 160.616 488.852 159.628 489.593 159.628C490.334 159.628 490.94 160.65 490.94 161.875C490.94 163.1 490.334 164.122 489.593 164.122C488.852 164.122 488.246 162.828 488.246 161.875C488.246 163.237 488.886 164.326 489.694 164.326C490.502 164.326 491.142 163.237 491.142 161.875C491.142 160.513 490.502 159.424 489.694 159.424C488.886 159.424 488.246 160.513 488.246 161.875Z" fill="#A0A7C3"/>
<path d="M489.896 159.594H489.728V164.156H489.896V159.594Z" fill="#A0A7C3"/>
<path d="M488.28 162.352L490.974 161.5V161.262L488.246 162.181L488.28 162.352Z" fill="#A0A7C3"/>
<circle cx="472" cy="168" r="37" fill="url(#paint13_linear_2861_80751)"/>
<circle opacity="0.12" cx="473" cy="169" r="72" stroke="#61CD81" stroke-width="2"/>
<circle cx="473" cy="169" r="45" stroke="#61CD81" stroke-width="2"/>
<circle opacity="0.3" cx="473" cy="169" r="57" stroke="#61CD81" stroke-width="2"/>
<path d="M70.4537 89.6533L76.5143 91.2772L76.2938 92.0999C88.2083 98.9554 94.0977 115.66 89.5698 132.559C85.0419 149.457 71.6536 160.997 57.843 160.959L57.6226 161.782L51.562 160.158C35.766 155.925 27.2228 136.746 32.446 117.252C37.6692 97.7592 54.6576 85.4207 70.4537 89.6533Z" fill="#65B87E"/>
<path style="mix-blend-mode:multiply" d="M70.4537 89.6533L76.5143 91.2772L76.2938 92.0999C88.2083 98.9554 94.0977 115.66 89.5698 132.559C85.0419 149.457 71.6536 160.997 57.843 160.959L57.6226 161.782L51.562 160.158C35.766 155.925 27.2228 136.746 32.446 117.252C37.6692 97.7592 54.6576 85.4207 70.4537 89.6533Z" fill="url(#paint14_linear_2861_80751)"/>
<path d="M57.6221 161.782C41.8478 157.555 33.2892 138.346 38.506 118.876C43.7228 99.407 60.7395 87.0504 76.5138 91.2772C92.2881 95.5039 100.847 114.713 95.6299 134.183C90.4131 153.652 73.3964 166.009 57.6221 161.782Z" fill="url(#paint15_linear_2861_80751)"/>
<path d="M58.4531 158.681C44.6373 154.979 37.2943 137.583 42.0522 119.827C46.81 102.07 61.867 90.6765 75.6829 94.3784C89.4987 98.0804 96.8417 115.476 92.0839 133.233C87.326 150.989 72.269 162.383 58.4531 158.681Z" fill="#66BA7F"/>
<path style="mix-blend-mode:multiply" d="M58.4531 158.681C44.6373 154.979 37.2943 137.583 42.0522 119.827C46.81 102.07 61.867 90.6765 75.6829 94.3784C89.4987 98.0804 96.8417 115.476 92.0839 133.233C87.326 150.989 72.269 162.383 58.4531 158.681Z" fill="url(#paint16_linear_2861_80751)"/>
<path style="mix-blend-mode:multiply" d="M90.5359 132.818C95.1994 115.413 88.231 98.3509 74.8916 94.234C75.1495 94.3031 75.4074 94.3722 75.6653 94.4413C89.5272 98.1556 96.8316 115.511 92.0663 133.295C87.301 151.08 72.233 162.441 58.4356 158.744C44.6382 155.047 57.9198 158.605 57.6619 158.536C71.2726 161.641 85.8384 150.349 90.5019 132.944L90.5359 132.818Z" fill="url(#paint17_radial_2861_80751)"/>
<g filter="url(#filter2_d_2861_80751)">
<path d="M60.2252 124.355C59.8567 124.84 59.3483 125.086 58.709 125.082L58.6178 125.536L58.1018 125.539L58.2033 125.035C57.5332 124.911 57.1171 124.542 56.9705 123.931C56.4602 121.814 59.6542 117.488 59.789 117.306L60.1079 116.877L60.2234 117.37C60.7615 119.662 61.3408 122.883 60.2252 124.355Z" fill="#28D150"/>
<path d="M63.1366 125.578C62.9129 125.872 62.6089 126.028 62.23 126.035L62.0432 126.964L61.7353 126.966L61.8368 126.461C61.8031 126.455 61.7694 126.449 61.7365 126.439L61.8254 125.997C61.4318 125.913 61.1869 125.683 61.097 125.312C60.7895 124.03 62.5957 121.555 62.8016 121.275L63.0583 120.932L63.15 121.328C63.4727 122.716 63.8249 124.668 63.1366 125.578Z" fill="#28AE4B"/>
<path d="M77.4467 129.359C77.4161 129.462 77.3819 129.566 77.3481 129.668C77.2215 130.049 77.0807 130.427 76.9256 130.793C76.88 130.904 76.8333 131.013 76.7836 131.119C76.7445 131.214 76.7012 131.305 76.6572 131.4C76.4395 131.871 76.1998 132.328 75.943 132.77L75.3997 132.693L74.2426 132.528L72.9365 132.344L68.6548 131.737L67.3474 131.55L66.4566 131.425L65.161 130.072L64.7784 129.668L64.582 129.463L63.6144 128.405L63.8118 128.192L66.1681 125.675L67.5163 124.097L69.4701 122.59L70.5744 122.224L70.9284 122.514L71.795 124.355L72.1552 125.639L72.4116 126.414L73.2107 125.516L74.2112 124.641L74.864 124.47L75.4193 124.784L75.9321 126.334L76.695 127.666L77.1295 128.647L77.4467 129.359Z" fill="#0D7DAE"/>
<path d="M65.8656 129.647L60.4886 137.662L60.1442 138.176C59.9629 138.052 59.7856 137.925 59.6156 137.787C59.5161 137.711 59.4162 137.629 59.3216 137.546C59.2792 137.509 59.2364 137.474 59.1972 137.437C56.6644 135.193 55.2219 131.512 55.4357 127.382L55.4805 126.77C55.6409 126.741 55.816 126.714 56.0008 126.688C56.5548 126.611 57.2003 126.551 57.9032 126.544L57.9921 126.102L58.4978 126.15L58.4184 126.545C59.4322 126.571 60.5336 126.715 61.6101 127.075L61.7359 126.449L62.1406 126.487L61.9943 127.215C62.5652 127.435 63.1251 127.717 63.6556 128.08C63.8053 127.89 64.0286 127.606 64.3108 127.261L64.6081 127.716C64.4081 127.959 64.2278 128.186 64.0696 128.386C64.4516 128.685 64.8144 129.03 65.1539 129.425C65.2889 129.341 65.4251 129.259 65.5621 129.181L65.8656 129.647Z" fill="#28AE4B"/>
<path d="M76.7849 131.118C76.7458 131.213 76.7025 131.304 76.6585 131.399C76.2755 132.229 75.8286 133.013 75.3294 133.743C75.2647 133.842 75.1971 133.938 75.126 134.036C75.0761 134.11 75.0222 134.179 74.9695 134.251C74.4591 134.946 73.8961 135.588 73.2974 136.168C73.1567 136.306 73.0115 136.441 72.8658 136.57C70.4638 138.718 67.5057 139.92 64.5398 139.697C64.4035 139.689 64.2683 139.675 64.1335 139.659C64.1011 139.655 64.067 139.651 64.0349 139.646C63.3131 139.556 62.624 139.379 61.9722 139.131C61.8721 139.091 61.7733 139.054 61.6769 139.012C61.6188 138.987 61.5594 138.96 61.5016 138.933C60.8263 138.629 60.1939 138.244 59.6163 137.785C59.5168 137.709 59.4169 137.627 59.3223 137.544L59.5427 136.927L60.0924 135.392L61.5385 133.327L62.3864 132.185L64.4382 130.191L64.8486 129.986L65.3901 129.715L66.0444 129.388L67.4476 128.561L69.3589 128.291L70.8171 128.215L73.3875 128.767L75.2563 129.733L76.3181 130.604L76.4161 130.712L76.7849 131.118Z" fill="#28D150"/>
<path d="M75.1252 134.035C75.0753 134.109 75.0214 134.179 74.9687 134.251C74.4584 134.945 73.8953 135.588 73.2966 136.168C73.1559 136.305 73.0107 136.44 72.8651 136.569C70.463 138.718 67.5049 139.92 64.539 139.697C64.4027 139.689 64.2675 139.675 64.1327 139.659C64.1003 139.655 64.0662 139.651 64.0341 139.645C63.3123 139.556 62.6232 139.378 61.9714 139.131C61.8714 139.091 61.7726 139.053 61.6762 139.012L61.9238 138.59L61.9749 138.46L62.7654 136.455L64.059 134.123L66.0128 132.616L67.1659 132.008L68.9246 131.471L70.8359 131.2L72.1966 131.61L73.7115 132.286L74.5231 133.375L74.7751 133.651L75.1252 134.035Z" fill="#28AE4B"/>
<path d="M64.4442 139.385L64.987 137.711L66.3859 135.888L68.2894 134.623L70.402 134.376L71.8665 135.295L72.576 135.875L72.9299 136.166L71.4272 137.48L69.121 138.696L66.7095 139.404L65.0483 139.456L64.4442 139.385Z" fill="#28D150"/>
<path d="M76.0781 117.065C76.0769 117.063 76.0757 117.061 76.0765 117.057C75.9577 116.887 75.8354 116.718 75.7086 116.555L75.707 116.554C75.7021 116.546 75.689 116.528 75.6693 116.502C75.6505 116.48 75.6334 116.458 75.615 116.433C75.5725 116.396 75.5277 116.363 75.4809 116.331C75.3142 116.218 75.1247 116.135 74.918 116.097C74.8794 116.09 74.8424 116.084 74.8035 116.079C74.6979 116.067 74.5953 116.064 74.4903 116.074C74.7605 116.342 75.0122 116.628 75.251 116.929C75.408 117.058 75.5332 117.229 75.6208 117.429C75.6671 117.497 75.7121 117.562 75.7547 117.631C75.9259 117.888 76.085 118.155 76.2356 118.431C77.5843 120.934 78.0756 124.162 77.3916 127.564C77.3475 127.783 77.3006 127.999 77.2452 128.217L77.2448 128.219C77.2092 128.363 77.172 128.507 77.1335 128.648C77.0974 128.778 77.0613 128.908 77.0224 129.036C76.8817 129.496 76.7267 129.944 76.5485 130.384C76.5062 130.495 76.4595 130.603 76.4127 130.712C76.3743 130.803 76.3323 130.897 76.2911 130.986C76.0275 131.577 75.7264 132.149 75.398 132.69C75.272 132.904 75.1403 133.113 75.0016 133.314C74.9256 133.428 74.8481 133.541 74.7717 133.648C74.7319 133.705 74.6904 133.762 74.649 133.819C74.1419 134.514 73.5857 135.155 72.9878 135.731C72.8471 135.869 72.7003 136.004 72.5526 136.135C70.2763 138.154 67.4853 139.286 64.6806 139.088C64.5374 139.081 64.3957 139.066 64.2528 139.049C64.2269 139.046 64.2009 139.043 64.1753 139.038C63.4551 138.949 62.7709 138.772 62.1255 138.517C62.0759 138.499 62.0239 138.477 61.9747 138.457C61.8689 138.413 61.7632 138.368 61.6602 138.318C61.2514 138.127 60.8602 137.907 60.4882 137.656C60.2564 137.503 60.0311 137.334 59.8158 137.156C59.7228 137.081 59.6323 137.002 59.5433 136.924C59.4964 136.884 59.4499 136.843 59.405 136.801C57.0679 134.642 55.7456 131.174 55.9573 127.294C55.9665 127.09 55.9835 126.89 56.0013 126.686C55.8165 126.712 55.6414 126.74 55.481 126.769L55.4362 127.38C55.2228 131.508 56.6653 135.189 59.1977 137.436C59.2385 137.472 59.2797 137.507 59.3221 137.544C59.4167 137.628 59.515 137.709 59.6161 137.785C59.7865 137.922 59.9634 138.051 60.1447 138.174C60.5732 138.465 61.0271 138.721 61.5014 138.934C61.5592 138.961 61.6186 138.988 61.6768 139.013C61.7732 139.054 61.8732 139.094 61.972 139.132C62.6234 139.381 63.3113 139.557 64.0347 139.646C64.0668 139.652 64.1009 139.656 64.1334 139.66C64.2681 139.676 64.4033 139.69 64.5397 139.698C67.5059 139.919 70.464 138.717 72.8657 136.57C73.0113 136.441 73.1565 136.306 73.2972 136.169C73.8959 135.589 74.459 134.946 74.9694 134.252C75.0233 134.182 75.076 134.11 75.1258 134.036C75.1966 133.94 75.2641 133.844 75.3292 133.744C75.5455 133.429 75.7507 133.103 75.9445 132.767C76.203 132.325 76.4411 131.869 76.6588 131.398C76.7028 131.303 76.746 131.212 76.7852 131.116C76.8348 131.01 76.8816 130.902 76.9271 130.791C77.0806 130.425 77.2226 130.049 77.3496 129.665C77.3851 129.563 77.4177 129.459 77.4483 129.357C77.4996 129.2 77.5457 129.046 77.5909 128.887C77.7096 128.47 77.8104 128.052 77.8969 127.621C78.7076 123.59 77.9422 119.791 76.0781 117.065Z" fill="white"/>
<path d="M75.7296 117.875C75.7428 117.792 75.7525 117.711 75.7552 117.631C75.7832 117.244 75.7233 116.881 75.5936 116.567C75.5874 116.548 75.5783 116.527 75.5701 116.51C75.5688 116.508 75.5676 116.506 75.5684 116.502C75.5401 116.444 75.5137 116.385 75.4809 116.333C75.385 116.166 75.2664 116.02 75.1277 115.899C75.1265 115.897 75.1249 115.897 75.1249 115.897C75.1232 115.889 75.1155 115.886 75.1098 115.881C74.8842 115.688 74.6088 115.561 74.2987 115.525C74.1931 115.512 74.0905 115.51 73.9855 115.52C73.0688 115.589 72.2068 116.436 71.9834 117.547C71.7344 118.786 72.3681 119.892 73.396 120.014C74.4238 120.135 75.4626 119.227 75.7116 117.989C75.7162 117.949 75.7237 117.912 75.7296 117.875ZM73.5171 119.403C72.7669 119.314 72.3059 118.507 72.4872 117.605C72.6689 116.701 73.4269 116.04 74.1755 116.129C74.3931 116.155 74.5871 116.24 74.7449 116.372C74.9019 116.501 75.0271 116.672 75.1148 116.873C75.2437 117.174 75.2829 117.541 75.2054 117.927C75.0241 118.829 74.2656 119.492 73.5171 119.403Z" fill="white"/>
<path d="M65.4986 129.86C65.3317 129.963 65.1657 130.069 65.0001 130.182C64.8868 130.034 64.7687 129.894 64.6494 129.76C62.8581 127.764 60.3833 127.198 58.2932 127.151C58.1191 127.149 57.9447 127.148 57.778 127.15C57.1039 127.163 56.4836 127.221 55.9547 127.297C55.7695 127.325 55.5941 127.354 55.434 127.382L55.4789 126.77C55.6393 126.741 55.8144 126.714 55.9992 126.688C56.5532 126.611 57.1986 126.551 57.9016 126.544C58.0687 126.54 58.2431 126.541 58.4167 126.545C59.4306 126.571 60.532 126.715 61.6084 127.075C61.6787 127.097 61.7467 127.123 61.8162 127.15C61.8751 127.171 61.9337 127.194 61.9926 127.215C62.5635 127.434 63.1235 127.717 63.6539 128.08C63.7941 128.177 63.9334 128.277 64.0696 128.386C64.4516 128.685 64.8144 129.031 65.1539 129.425C65.2704 129.565 65.3861 129.709 65.4986 129.86Z" fill="white"/>
<path d="M77.5906 128.889C77.547 129.048 77.5005 129.205 77.4479 129.359C77.4173 129.461 77.3831 129.565 77.3492 129.667C77.2626 129.495 77.1509 129.281 77.024 129.036C76.4056 127.837 75.4415 125.935 75.0641 125.059C74.9702 124.84 74.8672 124.724 74.7584 124.711C74.6334 124.696 74.4641 124.802 74.2725 124.97C74.0833 125.134 73.8717 125.359 73.6642 125.581C73.4253 125.835 73.1807 126.1 72.9233 126.322C72.8285 126.405 72.5397 126.659 72.2564 126.571C71.9243 126.47 71.8209 126.017 71.6653 125.336C71.5118 124.661 71.2995 123.741 70.786 122.839C70.6847 122.665 70.543 122.584 70.3378 122.588C69.0561 122.612 66.2265 125.738 64.607 127.715C64.407 127.957 64.2267 128.184 64.0685 128.384C63.9945 128.479 63.9228 128.571 63.8593 128.655L63.6168 128.406L63.4971 128.282C63.5313 128.236 63.5832 128.168 63.6524 128.08C63.8021 127.89 64.0255 127.606 64.3077 127.261C65.7866 125.453 68.8085 122.008 70.4017 121.98C70.7606 121.973 71.0464 122.139 71.2253 122.456C71.7831 123.427 72.0038 124.397 72.1668 125.107C72.2486 125.461 72.3592 125.953 72.451 125.984C72.451 125.984 72.5018 125.988 72.6547 125.856C72.885 125.653 73.1199 125.402 73.3448 125.16C73.879 124.587 74.3831 124.048 74.8767 124.106L74.8784 124.106C75.1463 124.138 75.3683 124.348 75.5325 124.73C75.8524 125.479 76.6391 127.04 77.2448 128.219L77.2444 128.221C77.3705 128.462 77.4879 128.689 77.5906 128.889Z" fill="white"/>
<path d="M65.7396 128.396L65.3751 128.027C65.468 127.904 67.6803 124.995 68.8799 124.362L69.0351 124.913C68.1367 125.388 66.3527 127.588 65.7396 128.396Z" fill="white"/>
<path d="M69.6877 116.717L69.5635 117.323L71.5764 117.573L71.7006 116.967L69.6877 116.717Z" fill="white"/>
<path d="M71.5734 118.305L69.5059 118.824L69.5445 119.419L71.612 118.901L71.5734 118.305Z" fill="white"/>
<path d="M70.625 114.524L70.2744 115.025L71.8005 116.41L72.1511 115.909L70.625 114.524Z" fill="white"/>
<path d="M72.2536 113.19L71.7861 113.526L72.6787 115.56L73.1462 115.224L72.2536 113.19Z" fill="white"/>
<path d="M74.3811 112.582L73.8657 112.606L73.6591 115.043L74.1745 115.019L74.3811 112.582Z" fill="white"/>
<path d="M75.6914 112.729L74.7197 115.022L75.1773 115.23L76.149 112.937L75.6914 112.729Z" fill="white"/>
<path d="M77.117 113.736L75.5352 115.556L75.87 115.962L77.4518 114.141L77.117 113.736Z" fill="white"/>
<path d="M75.0048 133.318C74.7713 133.032 74.517 132.767 74.2441 132.529C73.3136 131.708 72.17 131.17 70.8726 131.016C69.6759 130.875 68.4768 131.075 67.3505 131.551C64.7786 132.634 62.5825 135.156 61.6618 138.321C61.603 138.522 61.5483 138.728 61.5022 138.933C61.5599 138.959 61.6193 138.987 61.6775 139.011C61.7739 139.053 61.8739 139.093 61.9727 139.131C62.0173 138.926 62.0699 138.721 62.1271 138.52C63.1104 135.044 65.7369 132.391 68.6578 131.737C69.3457 131.582 70.0492 131.54 70.7523 131.623C71.5496 131.717 72.2841 131.966 72.9396 132.344C73.5938 132.72 74.1697 133.221 74.6542 133.821C74.7646 133.958 74.8718 134.103 74.9717 134.251C75.0256 134.181 75.0783 134.109 75.1281 134.035C75.1989 133.939 75.2665 133.843 75.3315 133.743C75.2264 133.596 75.1168 133.455 75.0048 133.318Z" fill="white"/>
<path d="M72.9904 135.736C72.3084 134.878 71.3596 134.305 70.2376 134.172C67.6412 133.865 65.0213 136.014 64.1763 139.042C64.1235 139.222 64.0804 139.403 64.0434 139.587C64.0395 139.607 64.0356 139.626 64.0333 139.646C64.0654 139.652 64.0995 139.656 64.1319 139.66C64.2667 139.676 64.4019 139.69 64.5382 139.698C64.5401 139.68 64.5433 139.664 64.5468 139.647C64.585 139.457 64.6305 139.272 64.6816 139.092C65.4614 136.405 67.8002 134.505 70.1157 134.779C71.1062 134.896 71.9437 135.394 72.5536 136.139C72.6644 136.274 72.77 136.419 72.8642 136.57C73.0099 136.441 73.155 136.306 73.2958 136.169C73.2015 136.017 73.0976 135.873 72.9904 135.736Z" fill="white"/>
<path d="M76.5505 130.385C75.2166 129.008 73.4959 128.099 71.5051 127.864C69.4624 127.622 67.4101 128.122 65.5594 129.183C65.4223 129.261 65.2858 129.345 65.1512 129.427C65.0256 129.506 64.8995 129.587 64.7779 129.671C64.7355 129.7 64.6911 129.731 64.6487 129.76C62.3567 131.361 60.4601 133.84 59.4014 136.806C59.3281 137.014 59.2592 137.224 59.1945 137.439C59.2353 137.476 59.2764 137.511 59.3189 137.548C59.4135 137.631 59.5118 137.713 59.6129 137.789C59.6732 137.58 59.7404 137.369 59.8134 137.164C60.8218 134.199 62.7124 131.733 64.9994 130.182C65.0547 130.146 65.1068 130.11 65.1606 130.075C65.2717 130.002 65.3844 129.929 65.4963 129.86C65.6188 129.788 65.74 129.715 65.8633 129.647C67.5881 128.692 69.4882 128.246 71.3815 128.47C73.3317 128.701 75.0091 129.61 76.2911 130.99C76.4177 131.121 76.5378 131.259 76.6551 131.403C76.6991 131.308 76.7424 131.217 76.7815 131.122C76.8312 131.015 76.8779 130.907 76.9235 130.796C76.8025 130.654 76.6804 130.517 76.5505 130.385Z" fill="white"/>
<path d="M59.1582 122.859L58.2956 127.148C58.1215 127.145 57.9471 127.145 57.7804 127.147L58.6548 122.799L59.1582 122.859Z" fill="white"/>
<path d="M60.226 117.373L60.1106 116.881L59.7916 117.31C59.6552 117.492 56.4612 121.818 56.9731 123.935C57.1185 124.543 57.5362 124.913 58.2059 125.038C58.2331 125.043 58.262 125.049 58.2912 125.052C58.3249 125.058 58.3574 125.062 58.3898 125.066C58.5003 125.079 58.6082 125.088 58.712 125.084C59.3513 125.088 59.8597 124.841 60.2282 124.356C61.3405 122.884 60.7613 119.663 60.226 117.373ZM59.8604 123.986C59.619 124.302 59.2817 124.466 58.8315 124.473C58.7046 124.476 58.5686 124.466 58.4232 124.445C58.3891 124.441 58.3571 124.435 58.325 124.429C57.8473 124.333 57.568 124.093 57.4718 123.696C57.1494 122.364 58.8524 119.541 59.8385 118.118C60.5026 121.157 60.5097 123.13 59.8604 123.986Z" fill="white"/>
<path d="M62.5077 124.647L62.105 124.6L61.5488 127.366L61.9515 127.413L62.5077 124.647Z" fill="white"/>
<path d="M63.1477 121.328L63.056 120.933L62.7993 121.275C62.5922 121.553 60.7872 124.03 61.0947 125.312C61.1846 125.683 61.4294 125.913 61.823 125.997C61.8539 126.009 61.8877 126.015 61.9218 126.019L61.9818 126.026C62.0663 126.036 62.1482 126.042 62.2277 126.035C62.6065 126.028 62.9106 125.872 63.1343 125.578C63.8242 124.668 63.472 122.716 63.1477 121.328ZM62.8412 125.283C62.7176 125.442 62.5495 125.535 62.3253 125.55C62.2357 125.558 62.137 125.552 62.029 125.535C61.9905 125.529 61.9535 125.522 61.9202 125.514C61.6845 125.454 61.5462 125.324 61.4955 125.121C61.3131 124.375 62.2455 122.797 62.8391 121.928C63.2107 123.668 63.2121 124.794 62.8412 125.283Z" fill="white"/>
<path d="M75.7085 116.555C75.7085 116.555 75.3035 116.014 75.1336 115.9C74.9654 115.786 74.8678 116.271 74.8678 116.271L75.4231 116.585L75.7085 116.555Z" fill="white"/>
<path d="M73.4797 119.586C74.3137 119.684 75.1536 118.95 75.3556 117.945C75.5576 116.941 75.0453 116.046 74.2113 115.948C73.3773 115.849 72.5374 116.583 72.3354 117.588C72.1333 118.593 72.6457 119.487 73.4797 119.586Z" fill="#F97E03"/>
</g>
<rect y="293" width="524" height="74" fill="url(#paint18_linear_2861_80751)"/>
<defs>
<filter id="filter0_d_2861_80751" x="416.57" y="18.6489" width="72.7971" height="78.489" filterUnits="userSpaceOnUse" color-interpolation-filters="sRGB">
<feFlood flood-opacity="0" result="BackgroundImageFix"/>
<feColorMatrix in="SourceAlpha" type="matrix" values="0 0 0 0 0 0 0 0 0 0 0 0 0 0 0 0 0 0 127 0" result="hardAlpha"/>
<feOffset dy="4"/>
<feGaussianBlur stdDeviation="10"/>
<feComposite in2="hardAlpha" operator="out"/>
<feColorMatrix type="matrix" values="0 0 0 0 1 0 0 0 0 1 0 0 0 0 1 0 0 0 0.25 0"/>
<feBlend mode="normal" in2="BackgroundImageFix" result="effect1_dropShadow_2861_80751"/>
<feBlend mode="normal" in="SourceGraphic" in2="effect1_dropShadow_2861_80751" result="shape"/>
</filter>
<filter id="filter1_d_2861_80751" x="148.326" y="257.952" width="85.5835" height="91.0112" filterUnits="userSpaceOnUse" color-interpolation-filters="sRGB">
<feFlood flood-opacity="0" result="BackgroundImageFix"/>
<feColorMatrix in="SourceAlpha" type="matrix" values="0 0 0 0 0 0 0 0 0 0 0 0 0 0 0 0 0 0 127 0" result="hardAlpha"/>
<feOffset dy="4"/>
<feGaussianBlur stdDeviation="10"/>
<feComposite in2="hardAlpha" operator="out"/>
<feColorMatrix type="matrix" values="0 0 0 0 1 0 0 0 0 1 0 0 0 0 1 0 0 0 0.25 0"/>
<feBlend mode="normal" in2="BackgroundImageFix" result="effect1_dropShadow_2861_80751"/>
<feBlend mode="normal" in="SourceGraphic" in2="effect1_dropShadow_2861_80751" result="shape"/>
</filter>
<filter id="filter2_d_2861_80751" x="30.2959" y="92" width="73.5352" height="75.7142" filterUnits="userSpaceOnUse" color-interpolation-filters="sRGB">
<feFlood flood-opacity="0" result="BackgroundImageFix"/>
<feColorMatrix in="SourceAlpha" type="matrix" values="0 0 0 0 0 0 0 0 0 0 0 0 0 0 0 0 0 0 127 0" result="hardAlpha"/>
<feOffset dy="4"/>
<feGaussianBlur stdDeviation="10"/>
<feComposite in2="hardAlpha" operator="out"/>
<feColorMatrix type="matrix" values="0 0 0 0 1 0 0 0 0 1 0 0 0 0 1 0 0 0 0.25 0"/>
<feBlend mode="normal" in2="BackgroundImageFix" result="effect1_dropShadow_2861_80751"/>
<feBlend mode="normal" in="SourceGraphic" in2="effect1_dropShadow_2861_80751" result="shape"/>
</filter>
<linearGradient id="paint0_linear_2861_80751" x1="449.018" y1="37.479" x2="485.762" y2="101.122" gradientUnits="userSpaceOnUse">
<stop stop-color="#FEFEFE"/>
<stop offset="1" stop-color="#61CD81"/>
</linearGradient>
<linearGradient id="paint1_linear_2861_80751" x1="423.698" y1="43.5665" x2="492.937" y2="76.465" gradientUnits="userSpaceOnUse">
<stop stop-color="#5FC97F"/>
<stop offset="0.169649" stop-color="#5FC97F"/>
<stop offset="0.169749" stop-color="#CCEBD5"/>
<stop offset="0.322436" stop-color="#9BDCAF"/>
<stop offset="0.322536" stop-color="#5FC97F"/>
<stop offset="0.541567" stop-color="#5FC97F"/>
</linearGradient>
<linearGradient id="paint2_linear_2861_80751" x1="445.232" y1="41.3854" x2="478.744" y2="99.4296" gradientUnits="userSpaceOnUse">
<stop stop-color="#FEFEFE"/>
<stop offset="1" stop-color="#61CD81"/>
</linearGradient>
<radialGradient id="paint3_radial_2861_80751" cx="0" cy="0" r="1" gradientUnits="userSpaceOnUse" gradientTransform="translate(403.858 -9.34961) rotate(-30) scale(21.485 27.4175)">
<stop stop-color="white" stop-opacity="0"/>
<stop offset="1" stop-color="#54B370"/>
</radialGradient>
<linearGradient id="paint4_linear_2861_80751" x1="173.776" y1="283.411" x2="224.346" y2="371.001" gradientUnits="userSpaceOnUse">
<stop stop-color="#FEFEFE"/>
<stop offset="1" stop-color="#61CD81"/>
</linearGradient>
<linearGradient id="paint5_linear_2861_80751" x1="198.455" y1="257.423" x2="190.02" y2="362.587" gradientUnits="userSpaceOnUse">
<stop stop-color="#5FC97F"/>
<stop offset="0.169649" stop-color="#5FC97F"/>
<stop offset="0.169749" stop-color="#CCEBD5"/>
<stop offset="0.322436" stop-color="#9BDCAF"/>
<stop offset="0.322536" stop-color="#5FC97F"/>
<stop offset="0.541567" stop-color="#5FC97F"/>
</linearGradient>
<linearGradient id="paint6_linear_2861_80751" x1="181.038" y1="281.587" x2="227.159" y2="361.472" gradientUnits="userSpaceOnUse">
<stop stop-color="#FEFEFE"/>
<stop offset="1" stop-color="#61CD81"/>
</linearGradient>
<radialGradient id="paint7_radial_2861_80751" cx="0" cy="0" r="1" gradientUnits="userSpaceOnUse" gradientTransform="translate(149.038 197.361) rotate(150) scale(29.5693 37.7341)">
<stop stop-color="white" stop-opacity="0"/>
<stop offset="1" stop-color="#54B370"/>
</radialGradient>
<linearGradient id="paint8_linear_2861_80751" x1="208.715" y1="83.7391" x2="329.253" y2="207.326" gradientUnits="userSpaceOnUse">
<stop stop-color="#212121"/>
<stop offset="0.677422" stop-color="#212121" stop-opacity="0"/>
</linearGradient>
<linearGradient id="paint9_linear_2861_80751" x1="339.978" y1="92.9654" x2="185.517" y2="198.875" gradientUnits="userSpaceOnUse">
<stop stop-color="#212121"/>
<stop offset="0.509508" stop-color="#212121" stop-opacity="0"/>
</linearGradient>
<linearGradient id="paint10_linear_2861_80751" x1="64.3495" y1="203.88" x2="119.603" y2="260.196" gradientUnits="userSpaceOnUse">
<stop stop-color="#212121"/>
<stop offset="0.677422" stop-color="#212121" stop-opacity="0"/>
</linearGradient>
<linearGradient id="paint11_linear_2861_80751" x1="124.156" y1="208.4" x2="54" y2="256.739" gradientUnits="userSpaceOnUse">
<stop stop-color="#212121"/>
<stop offset="0.509508" stop-color="#212121" stop-opacity="0"/>
</linearGradient>
<linearGradient id="paint12_linear_2861_80751" x1="445.349" y1="141.88" x2="500.603" y2="198.196" gradientUnits="userSpaceOnUse">
<stop stop-color="#212121"/>
<stop offset="0.677422" stop-color="#212121" stop-opacity="0"/>
</linearGradient>
<linearGradient id="paint13_linear_2861_80751" x1="502.422" y1="145.8" x2="435" y2="192.256" gradientUnits="userSpaceOnUse">
<stop stop-color="#212121"/>
<stop offset="0.509508" stop-color="#212121" stop-opacity="0"/>
</linearGradient>
<linearGradient id="paint14_linear_2861_80751" x1="66.265" y1="105.286" x2="43.4559" y2="190.41" gradientUnits="userSpaceOnUse">
<stop stop-color="#FEFEFE"/>
<stop offset="1" stop-color="#61CD81"/>
</linearGradient>
<linearGradient id="paint15_linear_2861_80751" x1="97.4822" y1="104.479" x2="27.491" y2="164.077" gradientUnits="userSpaceOnUse">
<stop stop-color="#5FC97F"/>
<stop offset="0.169649" stop-color="#5FC97F"/>
<stop offset="0.169749" stop-color="#CCEBD5"/>
<stop offset="0.322436" stop-color="#9BDCAF"/>
<stop offset="0.322536" stop-color="#5FC97F"/>
<stop offset="0.541567" stop-color="#5FC97F"/>
</linearGradient>
<linearGradient id="paint16_linear_2861_80751" x1="71.8626" y1="108.636" x2="51.0601" y2="186.272" gradientUnits="userSpaceOnUse">
<stop stop-color="#FEFEFE"/>
<stop offset="1" stop-color="#61CD81"/>
</linearGradient>
<radialGradient id="paint17_radial_2861_80751" cx="0" cy="0" r="1" gradientUnits="userSpaceOnUse" gradientTransform="translate(104.041 37.026) rotate(-165) scale(25.7648 32.8791)">
<stop stop-color="white" stop-opacity="0"/>
<stop offset="1" stop-color="#54B370"/>
</radialGradient>
<linearGradient id="paint18_linear_2861_80751" x1="262" y1="293" x2="262" y2="367" gradientUnits="userSpaceOnUse">
<stop stop-color="#2E2E2E" stop-opacity="0"/>
<stop offset="1" stop-color="#2E2E2E"/>
</linearGradient>
</defs>
</svg>
