<svg width="546" height="367" viewBox="0 0 546 367" fill="none" xmlns="http://www.w3.org/2000/svg">
<path d="M442.27 25.7913L437.739 28.4073L438.094 29.0225C429.977 37.1159 428.839 51.8424 436.133 64.4763C443.427 77.1103 456.702 83.5155 467.817 80.5046L468.173 81.1198L472.704 78.5037C484.514 71.6853 487.255 54.3927 478.841 39.8187C470.427 25.2447 454.08 18.9729 442.27 25.7913Z" fill="#53B06F"/>
<path style="mix-blend-mode:multiply" d="M442.27 25.7913L437.739 28.4073L438.094 29.0225C429.977 37.1159 428.839 51.8424 436.133 64.4763C443.427 77.1103 456.702 83.5155 467.817 80.5046L468.173 81.1198L472.704 78.5037C484.514 71.6853 487.255 54.3927 478.841 39.8187C470.427 25.2447 454.08 18.9729 442.27 25.7913Z" fill="url(#paint0_linear_1651_114824)"/>
<path d="M468.172 81.1194C479.966 74.3104 482.714 56.9905 474.31 42.4344C465.906 27.8783 449.533 21.598 437.739 28.407C425.945 35.216 423.198 52.5359 431.602 67.0921C440.006 81.6482 456.379 87.9285 468.172 81.1194Z" fill="url(#paint1_linear_1651_114824)"/>
<path d="M466.834 78.801C477.164 72.8374 479.324 57.2408 471.659 43.9652C463.994 30.6896 449.407 24.7621 439.078 30.7258C428.749 36.6894 426.588 52.2859 434.253 65.5616C441.918 78.8372 456.505 84.7647 466.834 78.801Z" fill="#54B270"/>
<path style="mix-blend-mode:multiply" d="M466.834 78.801C477.164 72.8374 479.324 57.2408 471.659 43.9652C463.994 30.6896 449.407 24.7621 439.078 30.7258C428.749 36.6894 426.588 52.2859 434.253 65.5616C441.918 78.8372 456.505 84.7647 466.834 78.801Z" fill="url(#paint2_linear_1651_114824)"/>
<path style="mix-blend-mode:multiply" d="M435.41 64.8932C427.897 51.8807 429.828 36.6338 439.684 30.4387C439.491 30.55 439.298 30.6613 439.105 30.7726C428.742 36.7561 426.604 52.312 434.28 65.6084C441.957 78.9048 456.546 84.8036 466.862 78.8479C477.177 72.8922 467.247 78.6252 467.44 78.5139C457.147 83.9519 442.977 78.0003 435.465 64.9878L435.41 64.8932Z" fill="url(#paint3_radial_1651_114824)"/>
<g filter="url(#filter0_d_1651_114824)">
<path d="M447.818 56.7887C447.856 57.3194 447.672 57.7716 447.267 58.133L447.462 58.4852L447.138 58.7808L446.921 58.389C446.43 58.6886 445.961 58.6806 445.529 58.3602C444.028 57.2492 443.633 52.5687 443.617 52.3713L443.579 51.906L443.926 52.1662C445.542 53.3775 447.702 55.1797 447.818 56.7887Z" fill="#24BC48"/>
<path d="M450.336 55.9419C450.358 56.2637 450.254 56.5402 450.019 56.7605L450.418 57.4817L450.225 57.658L450.008 57.2662C449.983 57.2814 449.959 57.2966 449.932 57.3088L449.742 56.9656C449.447 57.1335 449.165 57.1211 448.901 56.9266C447.993 56.253 447.754 53.5867 447.728 53.2842L447.699 52.9118L447.977 53.1213C448.954 53.8564 450.263 54.9481 450.336 55.9419Z" fill="#239942"/>
<path d="M461.469 50.3036C461.507 50.3889 461.544 50.4773 461.579 50.5641C461.712 50.8887 461.833 51.2189 461.939 51.5495C461.972 51.6487 462.003 51.7472 462.031 51.8458C462.06 51.9312 462.083 52.0161 462.108 52.1039C462.233 52.5395 462.336 52.9778 462.42 53.4167L462.035 53.6752L461.213 54.2243L460.287 54.8452L457.248 56.8795L456.319 57.4997L455.687 57.9234L454.116 57.7651L453.65 57.7155L453.412 57.6912L452.212 57.5416L452.218 57.2884L452.303 54.2819L452.274 52.47L452.667 50.3609L453.16 49.4904L453.545 49.4812L455.117 50.2065L456.059 50.8517L456.653 51.219L456.656 50.1695L456.8 49.0212L457.117 48.5366L457.642 48.4285L458.829 49.1631L460.052 49.6107L460.872 50.0126L461.469 50.3036Z" fill="#0B6C96"/>
<path d="M454.324 57.0834L455.396 65.4475L455.465 65.9836C455.282 66.005 455.099 66.0217 454.915 66.0269C454.81 66.0333 454.702 66.0359 454.595 66.0346C454.548 66.0342 454.501 66.0353 454.456 66.0333C451.609 65.9888 448.648 64.3728 446.483 61.5175L446.17 61.0873C446.255 60.9768 446.351 60.8591 446.453 60.7366C446.759 60.3707 447.133 59.9639 447.573 59.5594L447.383 59.2162L447.728 58.9602L447.898 59.2669C448.552 58.7072 449.327 58.1761 450.207 57.8018L449.938 57.3159L450.214 57.1108L450.527 57.6756C451.01 57.4963 451.52 57.3648 452.057 57.3034C452.045 57.0921 452.028 56.777 452.014 56.3881L452.455 56.5206C452.464 56.795 452.477 57.0478 452.488 57.2699C452.896 57.2508 453.317 57.273 453.751 57.341C453.79 57.2086 453.83 57.0768 453.873 56.9473L454.324 57.0834Z" fill="#239942"/>
<path d="M462.031 51.8444C462.06 51.9299 462.083 52.0147 462.108 52.1026C462.329 52.8697 462.484 53.6431 462.575 54.4102C462.589 54.5122 462.6 54.6143 462.61 54.7194C462.62 54.7969 462.625 54.8737 462.631 54.9513C462.696 55.7014 462.699 56.4468 462.644 57.1714C462.632 57.3425 462.616 57.5144 462.596 57.6826C462.277 60.4716 461.081 62.95 459.086 64.4899C458.995 64.5621 458.902 64.6297 458.808 64.6958C458.785 64.7118 458.762 64.7285 458.738 64.7429C458.233 65.0944 457.699 65.3688 457.15 65.5759C457.065 65.6064 456.982 65.6377 456.898 65.6651C456.847 65.6817 456.795 65.6976 456.743 65.7126C456.148 65.8955 455.534 66.0003 454.914 66.0252C454.809 66.0316 454.701 66.0342 454.595 66.0329L454.39 65.4993L453.882 64.1705L453.644 61.9804L453.543 60.7426L453.727 58.2555L453.871 57.8858L454.062 57.3988L454.292 56.81L454.717 55.4642L455.772 54.1978L456.65 53.3181L458.579 52.2214L460.296 51.7977L461.451 51.7699L461.572 51.7854L462.031 51.8444Z" fill="#24BC48"/>
<path d="M462.609 54.7194C462.619 54.7969 462.624 54.8737 462.63 54.9512C462.695 55.7013 462.698 56.4468 462.643 57.1713C462.631 57.3424 462.615 57.5144 462.595 57.6826C462.276 60.4715 461.08 62.95 459.085 64.4898C458.994 64.562 458.901 64.6297 458.807 64.6958C458.785 64.7117 458.761 64.7284 458.737 64.7428C458.232 65.0943 457.698 65.3687 457.15 65.5758C457.064 65.6064 456.981 65.6376 456.897 65.665L456.819 65.2453L456.778 65.1301L456.16 63.3531L455.677 61.0735L456.07 58.9645L456.459 57.9057L457.269 56.5498L458.324 55.2834L459.411 54.7802L460.743 54.3658L461.862 54.6251L462.174 54.6645L462.609 54.7194Z" fill="#239942"/>
<path d="M458.851 64.3371L458.261 62.9203L458.128 60.9177L458.625 58.9978L459.82 57.6326L461.255 57.4072L462.026 57.3879L462.411 57.3786L462.195 59.1034L461.418 61.2209L460.291 63.0614L459.272 64.0408L458.851 64.3371Z" fill="#24BC48"/>
<path d="M453.758 42.9445C453.756 42.9438 453.754 42.9431 453.752 42.94C453.583 42.8949 453.411 42.8529 453.241 42.817L453.239 42.8178C453.232 42.8149 453.214 42.8107 453.186 42.8044C453.162 42.8004 453.139 42.7956 453.114 42.79C453.067 42.7896 453.02 42.793 452.973 42.7988C452.804 42.8182 452.639 42.8715 452.487 42.9636C452.459 42.9812 452.432 42.998 452.405 43.0171C452.331 43.0689 452.265 43.1259 452.204 43.192C452.524 43.2158 452.842 43.262 453.16 43.3251C453.331 43.321 453.505 43.363 453.672 43.4459C453.739 43.4643 453.804 43.482 453.87 43.5035C454.12 43.5759 454.37 43.6622 454.618 43.7593C456.863 44.6485 458.971 46.5058 460.434 49.1465C460.528 49.3165 460.62 49.4867 460.706 49.6623L460.707 49.6638C460.764 49.7794 460.821 49.8957 460.876 50.0114C460.925 50.1179 460.975 50.2244 461.021 50.331C461.189 50.7155 461.341 51.1004 461.473 51.4926C461.508 51.5903 461.539 51.6888 461.57 51.7873C461.597 51.8697 461.622 51.9553 461.646 52.0378C461.809 52.5794 461.938 53.1287 462.032 53.6742C462.072 53.8871 462.105 54.1002 462.13 54.3127C462.145 54.4308 462.159 54.5498 462.17 54.6641C462.177 54.7247 462.183 54.7861 462.189 54.8476C462.256 55.5961 462.262 56.3368 462.206 57.0583C462.194 57.2294 462.176 57.4022 462.156 57.5727C461.845 60.2045 460.714 62.5414 458.835 64.0061C458.741 64.083 458.643 64.1538 458.543 64.2239C458.525 64.2367 458.507 64.2494 458.488 64.2606C457.984 64.6113 457.454 64.8833 456.905 65.082C456.864 65.0984 456.819 65.1133 456.777 65.1281C456.685 65.1588 456.594 65.1895 456.501 65.2148C456.137 65.3213 455.767 65.3979 455.393 65.4438C455.161 65.474 454.925 65.4905 454.69 65.4954C454.59 65.4986 454.489 65.4979 454.389 65.4965C454.337 65.4969 454.285 65.4959 454.233 65.4941C451.556 65.3946 448.79 63.8509 446.763 61.1624C446.655 61.0226 446.555 60.8804 446.452 60.7351C446.35 60.8576 446.255 60.9753 446.17 61.0858L446.482 61.5161C448.647 64.3699 451.607 65.9858 454.456 66.0319C454.502 66.0331 454.547 66.0327 454.595 66.0331C454.701 66.0344 454.808 66.0326 454.915 66.0254C455.098 66.0187 455.282 66.0035 455.465 65.9822C455.897 65.931 456.326 65.8422 456.744 65.7129C456.795 65.6978 456.847 65.6819 456.898 65.6653C456.982 65.6379 457.067 65.6074 457.151 65.5761C457.7 65.3706 458.232 65.0954 458.738 64.7432C458.762 64.7287 458.786 64.712 458.808 64.6961C458.902 64.63 458.995 64.5623 459.086 64.4901C461.08 62.9488 462.277 60.4703 462.596 57.6829C462.616 57.5147 462.632 57.3427 462.644 57.1716C462.699 56.4471 462.696 55.7016 462.632 54.9515C462.627 54.8747 462.62 54.7972 462.61 54.7197C462.601 54.616 462.59 54.514 462.576 54.4105C462.537 54.079 462.484 53.7464 462.42 53.414C462.337 52.9744 462.233 52.5369 462.108 52.1013C462.082 52.0134 462.059 51.9286 462.031 51.8431C462.003 51.7445 461.972 51.6461 461.939 51.5468C461.832 51.217 461.712 50.8876 461.578 50.5615C461.544 50.4738 461.506 50.3863 461.469 50.301C461.414 50.1684 461.357 50.0398 461.297 49.9089C461.14 49.5657 460.97 49.2313 460.785 48.8972C459.051 45.7676 456.452 43.6883 453.758 42.9445Z" fill="#131414"/>
<path d="M453.989 43.679C453.951 43.6169 453.912 43.5578 453.87 43.5034C453.672 43.2312 453.431 43.0247 453.175 42.8908C453.16 42.8819 453.143 42.8731 453.128 42.8665C453.126 42.8658 453.124 42.8651 453.123 42.8621C453.073 42.8402 453.023 42.816 452.974 42.8003C452.82 42.744 452.664 42.7146 452.509 42.7137C452.507 42.713 452.506 42.7138 452.506 42.7138C452.5 42.7093 452.494 42.7118 452.487 42.7119C452.238 42.7126 451.993 42.7854 451.777 42.9375C451.704 42.9893 451.638 43.0463 451.577 43.1124C451.038 43.6801 450.966 44.7312 451.444 45.5937C451.976 46.5549 452.992 46.9267 453.708 46.4225C454.424 45.9182 454.574 44.7259 454.041 43.7647C454.022 43.736 454.006 43.7071 453.989 43.679ZM453.445 45.9495C452.922 46.3175 452.181 46.0453 451.793 45.3453C451.405 44.6437 451.515 43.7748 452.036 43.4076C452.188 43.3008 452.358 43.2467 452.531 43.2448C452.702 43.2407 452.876 43.2827 453.043 43.3656C453.292 43.4919 453.522 43.7126 453.687 44.0118C454.075 44.7118 453.966 45.5822 453.445 45.9495Z" fill="#131414"/>
<path d="M454.211 57.4329C454.163 57.5956 454.118 57.7606 454.076 57.9293C453.922 57.8961 453.77 57.8705 453.62 57.8495C451.378 57.5473 449.502 58.5811 448.157 59.739C448.046 59.8364 447.935 59.9352 447.831 60.0315C447.413 60.4232 447.055 60.815 446.763 61.1659C446.662 61.2899 446.567 61.4091 446.482 61.5182L446.169 61.0879C446.254 60.9774 446.35 60.8597 446.452 60.7372C446.758 60.3713 447.132 59.9645 447.572 59.56C447.675 59.4621 447.785 59.3633 447.897 59.2675C448.551 58.7078 449.326 58.1768 450.206 57.8025C450.263 57.7772 450.32 57.7558 450.378 57.7337C450.427 57.714 450.477 57.6959 450.526 57.6763C451.008 57.4969 451.519 57.3654 452.056 57.304C452.198 57.2882 452.342 57.2755 452.488 57.2697C452.896 57.2507 453.317 57.2728 453.751 57.3409C453.903 57.3672 454.056 57.3966 454.211 57.4329Z" fill="#131414"/>
<path d="M461.298 49.9105C461.359 50.0406 461.417 50.1708 461.47 50.3026C461.507 50.3879 461.544 50.4763 461.579 50.5631C461.429 50.4983 461.239 50.4205 461.023 50.3303C459.965 49.8888 458.297 49.178 457.571 48.8131C457.39 48.7213 457.26 48.7029 457.184 48.7563C457.097 48.8176 457.049 48.9842 457.022 49.2041C456.994 49.4202 456.986 49.6897 456.978 49.9545C456.969 50.2587 456.963 50.5735 456.924 50.8668C456.91 50.9756 456.87 51.3082 456.642 51.4114C456.376 51.5332 456.059 51.2923 455.581 50.9299C455.108 50.5704 454.462 50.0821 453.636 49.7773C453.475 49.7196 453.34 49.7467 453.213 49.8659C452.418 50.6114 452.374 54.29 452.454 56.52C452.463 56.7945 452.475 57.0473 452.487 57.2694C452.493 57.3746 452.499 57.476 452.506 57.5682L452.214 57.5414L452.07 57.5271C452.066 57.4772 452.06 57.4027 452.055 57.3051C452.043 57.0939 452.026 56.7788 452.012 56.3899C451.938 54.352 451.925 50.3524 452.915 49.4276C453.137 49.2184 453.41 49.1657 453.7 49.2741C454.592 49.5996 455.272 50.1157 455.77 50.493C456.019 50.6808 456.362 50.9434 456.438 50.9116C456.438 50.9116 456.472 50.8854 456.495 50.7109C456.527 50.4455 456.536 50.146 456.543 49.8581C456.56 49.1745 456.578 48.5308 456.922 48.2887L456.923 48.2879C457.11 48.1564 457.367 48.1695 457.683 48.3288C458.302 48.6424 459.668 49.2281 460.707 49.664L460.708 49.6655C460.922 49.7534 461.122 49.8363 461.298 49.9105Z" fill="#131414"/>
<path d="M453.548 56.3266L453.112 56.2894C453.102 56.155 452.878 52.9714 453.282 51.8699L453.686 52.1464C453.384 52.9715 453.484 55.4426 453.548 56.3266Z" fill="#131414"/>
<path d="M449.533 46.3499L449.792 46.8218L451.201 45.8417L450.941 45.3698L449.533 46.3499Z" fill="#131414"/>
<path d="M451.607 46.3285L450.592 47.8481L450.948 48.2202L451.963 46.7006L451.607 46.3285Z" fill="#131414"/>
<path d="M448.902 44.3651L448.96 44.8965L450.695 44.945L450.636 44.4135L448.902 44.3651Z" fill="#131414"/>
<path d="M449.187 42.5549L449.08 43.0435L450.776 43.8819L450.883 43.3933L449.187 42.5549Z" fill="#131414"/>
<path d="M450.19 40.9422L449.878 41.2515L451.106 42.9822L451.417 42.6729L450.19 40.9422Z" fill="#131414"/>
<path d="M451.099 40.2942L451.763 42.3647L452.168 42.242L451.503 40.1715L451.099 40.2942Z" fill="#131414"/>
<path d="M452.559 40.1499L452.575 42.2549L453.012 42.3328L452.996 40.2278L452.559 40.1499Z" fill="#131414"/>
<path d="M462.133 54.3132C461.827 54.2567 461.519 54.2265 461.214 54.2238C460.17 54.2097 459.149 54.5043 458.245 55.1408C457.411 55.7279 456.766 56.5428 456.321 57.4983C455.302 59.6786 455.321 62.5972 456.503 65.2161C456.578 65.3828 456.658 65.5501 456.743 65.712C456.795 65.6969 456.847 65.681 456.898 65.6644C456.982 65.637 457.067 65.6064 457.15 65.5752C457.064 65.4142 456.984 65.2492 456.908 65.0833C455.592 62.2229 455.771 58.9726 457.249 56.8782C457.597 56.3843 458.017 55.9557 458.507 55.6108C459.062 55.2196 459.664 54.9666 460.288 54.8439C460.91 54.7204 461.553 54.7242 462.192 54.8457C462.339 54.8738 462.487 54.9087 462.632 54.9498C462.627 54.873 462.621 54.7954 462.611 54.718C462.602 54.6143 462.591 54.5122 462.576 54.4087C462.428 54.3715 462.281 54.3405 462.133 54.3132Z" fill="#131414"/>
<path d="M462.21 57.0599C461.302 56.8802 460.384 57.0408 459.602 57.5912C457.793 58.865 457.338 61.778 458.491 64.263C458.558 64.4122 458.632 64.5566 458.711 64.6993C458.719 64.7145 458.728 64.7297 458.737 64.7441C458.761 64.7297 458.785 64.7129 458.807 64.697C458.901 64.6309 458.994 64.5633 459.085 64.4911C459.076 64.4782 459.069 64.466 459.062 64.4524C458.98 64.3051 458.906 64.1568 458.838 64.0085C457.833 61.7861 458.25 59.1979 459.863 58.0619C460.553 57.576 461.359 57.4289 462.159 57.5751C462.304 57.6016 462.451 57.6373 462.595 57.6838C462.615 57.5156 462.631 57.3436 462.643 57.1725C462.5 57.126 462.353 57.0895 462.21 57.0599Z" fill="#131414"/>
<path d="M461.475 51.4926C459.867 51.3397 458.275 51.7173 456.888 52.694C455.465 53.6961 454.449 55.1947 453.872 56.9497C453.829 57.0792 453.789 57.2125 453.75 57.3434C453.715 57.4674 453.681 57.5928 453.651 57.7174C453.64 57.7608 453.629 57.8064 453.619 57.8498C453.065 60.2135 453.249 62.9334 454.234 65.4994C454.303 65.6785 454.377 65.8568 454.455 66.0357C454.502 66.0369 454.547 66.0366 454.594 66.037C454.701 66.0383 454.808 66.0365 454.914 66.0293C454.836 65.8565 454.761 65.6791 454.693 65.5014C453.677 62.9654 453.497 60.2578 454.075 57.9296C454.09 57.8746 454.103 57.8212 454.117 57.767C454.147 57.6555 454.177 57.5432 454.209 57.4339C454.247 57.3169 454.282 57.1991 454.322 57.0842C454.878 55.4706 455.828 54.0944 457.148 53.1655C458.506 52.2088 460.071 51.8564 461.648 52.04C461.801 52.0548 461.954 52.0781 462.108 52.1067C462.083 52.0188 462.059 51.934 462.031 51.8485C462.003 51.7499 461.972 51.6514 461.939 51.5522C461.784 51.5267 461.63 51.5058 461.475 51.4926Z" fill="#131414"/>
<path d="M446.311 56.4059L448.156 59.7359C448.045 59.8332 447.935 59.932 447.831 60.0284L445.96 56.6528L446.311 56.4059Z" fill="#131414"/>
<path d="M443.93 52.1673L443.583 51.9071L443.621 52.3725C443.636 52.5706 444.031 57.2512 445.533 58.3614C445.963 58.6811 446.433 58.6882 446.925 58.3902C446.945 58.3781 446.966 58.3653 446.987 58.351C447.011 58.3358 447.034 58.3198 447.056 58.3039C447.133 58.2497 447.206 58.1941 447.27 58.1326C447.675 57.7712 447.859 57.319 447.821 56.7883C447.702 55.1809 445.543 53.3787 443.93 52.1673ZM447.383 56.7527C447.406 57.0991 447.285 57.3998 447.005 57.6604C446.927 57.7346 446.835 57.8053 446.732 57.8739C446.708 57.8907 446.684 57.9051 446.661 57.9195C446.306 58.1273 445.996 58.1278 445.714 57.9192C444.769 57.2211 444.271 54.3841 444.1 52.881C446.212 54.5143 447.315 55.8164 447.383 56.7527Z" fill="#131414"/>
<path d="M449.421 55.6843L449.14 55.8818L450.33 58.029L450.61 57.8314L449.421 55.6843Z" fill="#131414"/>
<path d="M447.976 53.1227L447.698 52.9132L447.726 53.2856C447.75 53.5874 447.992 56.2544 448.9 56.928C449.163 57.1225 449.445 57.1349 449.741 56.967C449.767 56.9572 449.791 56.942 449.815 56.9252L449.857 56.8958C449.916 56.8543 449.971 56.8115 450.017 56.7619C450.252 56.5416 450.357 56.2651 450.334 55.9433C450.263 54.9487 448.953 53.857 447.976 53.1227ZM449.985 55.9148C449.996 56.0907 449.941 56.2475 449.809 56.3853C449.756 56.4412 449.691 56.4935 449.613 56.5439C449.585 56.5615 449.558 56.5783 449.533 56.592C449.351 56.6864 449.191 56.6787 449.046 56.5737C448.515 56.1833 448.225 54.6085 448.115 53.6956C449.319 54.636 449.947 55.3802 449.985 55.9148Z" fill="#131414"/>
<path d="M453.241 42.8172C453.241 42.8172 452.684 42.6898 452.514 42.7108C452.344 42.7311 452.553 43.1077 452.553 43.1077L453.078 42.9996L453.241 42.8172Z" fill="#131414"/>
<path d="M453.523 46.0913C454.104 45.6822 454.225 44.7182 453.793 43.9383C453.36 43.1584 452.539 42.8578 451.958 43.267C451.377 43.6761 451.256 44.6401 451.688 45.42C452.12 46.1999 452.942 46.5005 453.523 46.0913Z" fill="#E07103"/>
</g>
<path d="M164.489 267.326L170.725 263.725L171.214 264.572C186.446 260.466 204.782 269.244 214.821 286.631C224.86 304.019 223.359 324.249 212.121 335.426L212.61 336.272L206.374 339.873C190.12 349.257 167.623 340.625 156.042 320.567C144.462 300.509 148.236 276.71 164.489 267.326Z" fill="#53B06F"/>
<path style="mix-blend-mode:multiply" d="M164.489 267.326L170.725 263.725L171.214 264.572C186.446 260.466 204.782 269.244 214.821 286.631C224.86 304.019 223.359 324.249 212.121 335.426L212.61 336.272L206.374 339.873C190.12 349.257 167.623 340.625 156.042 320.567C144.462 300.509 148.236 276.71 164.489 267.326Z" fill="url(#paint4_linear_1651_114824)"/>
<path d="M212.61 336.273C196.379 345.644 173.844 337 162.278 316.967C150.712 296.934 154.494 273.097 170.725 263.726C186.956 254.355 209.491 262.998 221.057 283.031C232.623 303.065 228.841 326.902 212.61 336.273Z" fill="url(#paint5_linear_1651_114824)"/>
<path d="M210.768 333.082C196.552 341.289 176.476 333.131 165.927 314.86C155.379 296.589 158.352 275.124 172.568 266.917C186.784 258.709 206.86 266.867 217.408 285.138C227.957 303.409 224.984 324.874 210.768 333.082Z" fill="#54B270"/>
<path style="mix-blend-mode:multiply" d="M210.768 333.082C196.552 341.289 176.476 333.131 165.927 314.86C155.379 296.589 158.352 275.124 172.568 266.917C186.784 258.709 206.86 266.867 217.408 285.138C227.957 303.409 224.984 324.874 210.768 333.082Z" fill="url(#paint6_linear_1651_114824)"/>
<path style="mix-blend-mode:multiply" d="M215.815 286.057C205.475 268.148 185.974 259.957 171.808 267.441C172.074 267.288 172.339 267.135 172.604 266.982C186.868 258.747 206.88 266.904 217.445 285.203C228.01 303.503 225.002 324.95 210.805 333.147C196.607 341.343 210.274 333.453 210.008 333.606C223.573 325.08 226.23 304.096 215.89 286.187L215.815 286.057Z" fill="url(#paint7_radial_1651_114824)"/>
<g filter="url(#filter1_d_1651_114824)">
<path d="M184.35 303.787C184.444 304.48 184.232 305.092 183.71 305.608L184.004 306.05L183.588 306.472L183.261 305.98C182.617 306.423 181.979 306.461 181.365 306.085C179.233 304.781 178.314 298.678 178.276 298.421L178.187 297.814L178.68 298.12C180.977 299.544 184.061 301.687 184.35 303.787Z" fill="#24BC48"/>
<path d="M187.705 302.417C187.762 302.837 187.642 303.211 187.34 303.524L187.942 304.43L187.694 304.681L187.367 304.189C187.334 304.211 187.302 304.234 187.268 304.253L186.981 303.822C186.593 304.072 186.208 304.085 185.834 303.857C184.544 303.066 184.001 299.591 183.941 299.197L183.871 298.711L184.267 298.957C185.655 299.822 187.525 301.12 187.705 302.417Z" fill="#239942"/>
<path d="M202.387 293.873C202.445 293.981 202.502 294.093 202.557 294.203C202.764 294.615 202.956 295.036 203.128 295.459C203.181 295.586 203.231 295.712 203.277 295.839C203.323 295.948 203.361 296.057 203.403 296.17C203.608 296.729 203.784 297.293 203.934 297.861L203.431 298.24L202.359 299.045L201.149 299.955L197.182 302.937L195.969 303.846L195.144 304.467L192.995 304.421L192.357 304.404L192.031 304.396L190.387 304.323L190.375 303.99L190.244 300.036L190.057 297.661L190.42 294.852L191.019 293.659L191.542 293.607L193.739 294.398L195.074 295.148L195.911 295.569L195.83 294.191L195.932 292.669L196.323 292L197.028 291.805L198.703 292.647L200.403 293.109L201.551 293.552L202.387 293.873Z" fill="#0B6C96"/>
<path d="M193.222 303.505L195.363 314.373L195.5 315.069C195.253 315.116 195.006 315.157 194.756 315.183C194.614 315.202 194.466 315.216 194.322 315.225C194.257 315.23 194.194 315.236 194.132 315.238C190.256 315.472 186.098 313.656 182.92 310.13L182.46 309.598C182.566 309.444 182.686 309.28 182.815 309.109C183.202 308.597 183.678 308.025 184.242 307.448L183.956 307.018L184.405 306.646L184.661 307.031C185.505 306.229 186.516 305.453 187.681 304.871L187.276 304.261L187.635 303.963L188.107 304.673C188.748 304.388 189.432 304.162 190.157 304.027C190.124 303.751 190.075 303.339 190.024 302.83L190.635 302.958C190.669 303.318 190.707 303.648 190.741 303.939C191.294 303.872 191.869 303.857 192.464 303.902C192.506 303.724 192.55 303.547 192.598 303.373L193.222 303.505Z" fill="#239942"/>
<path d="M203.277 295.837C203.322 295.947 203.361 296.056 203.402 296.168C203.765 297.152 204.039 298.152 204.226 299.149C204.253 299.281 204.276 299.414 204.298 299.551C204.318 299.652 204.331 299.752 204.346 299.853C204.496 300.831 204.56 301.809 204.545 302.766C204.542 302.992 204.534 303.219 204.52 303.442C204.315 307.135 202.89 310.511 200.302 312.737C200.185 312.841 200.064 312.939 199.941 313.036C199.912 313.059 199.881 313.083 199.85 313.105C199.192 313.618 198.488 314.033 197.759 314.361C197.645 314.41 197.534 314.459 197.422 314.504C197.355 314.531 197.285 314.557 197.216 314.582C196.421 314.884 195.595 315.084 194.754 315.18C194.612 315.2 194.464 315.214 194.32 315.223L193.998 314.544L193.199 312.852L192.696 310.002L192.458 308.388L192.505 305.105L192.671 304.605L192.891 303.946L193.157 303.15L193.624 301.34L194.956 299.569L196.078 298.324L198.612 296.687L200.913 295.954L202.481 295.799L202.648 295.807L203.277 295.837Z" fill="#24BC48"/>
<path d="M204.297 299.551C204.317 299.652 204.33 299.752 204.345 299.854C204.495 300.831 204.559 301.809 204.544 302.766C204.541 302.992 204.533 303.219 204.52 303.442C204.314 307.135 202.889 310.511 200.301 312.737C200.184 312.841 200.063 312.939 199.94 313.036C199.911 313.059 199.88 313.083 199.849 313.105C199.191 313.618 198.488 314.033 197.758 314.361C197.644 314.41 197.533 314.46 197.422 314.504L197.281 313.961L197.217 313.814L196.231 311.546L195.388 308.603L195.751 305.795L196.193 304.365L197.184 302.502L198.516 300.732L199.952 299.96L201.73 299.279L203.273 299.504L203.702 299.524L204.297 299.551Z" fill="#239942"/>
<path d="M199.971 312.56L199.053 310.761L198.708 308.147L199.227 305.576L200.741 303.661L202.675 303.218L203.722 303.114L204.245 303.062L204.091 305.348L203.207 308.207L201.825 310.738L200.519 312.128L199.971 312.56Z" fill="#24BC48"/>
<path d="M191.299 285.007C191.296 285.006 191.294 285.005 191.291 285.001C191.057 284.959 190.82 284.922 190.585 284.892L190.584 284.893C190.573 284.89 190.548 284.887 190.51 284.881C190.477 284.879 190.445 284.875 190.411 284.87C190.346 284.874 190.283 284.884 190.219 284.896C189.991 284.939 189.771 285.026 189.572 285.162C189.535 285.188 189.5 285.213 189.465 285.241C189.369 285.316 189.284 285.398 189.206 285.491C189.643 285.489 190.08 285.517 190.517 285.567C190.749 285.545 190.99 285.582 191.224 285.673C191.316 285.691 191.406 285.707 191.496 285.729C191.843 285.798 192.189 285.886 192.536 285.988C195.661 286.924 198.679 289.145 200.885 292.461C201.027 292.674 201.165 292.888 201.296 293.11L201.298 293.112C201.386 293.257 201.472 293.404 201.556 293.55C201.632 293.685 201.708 293.82 201.78 293.955C202.039 294.442 202.277 294.932 202.489 295.433C202.545 295.558 202.595 295.684 202.645 295.81C202.688 295.915 202.73 296.025 202.769 296.131C203.035 296.825 203.254 297.533 203.428 298.239C203.498 298.514 203.561 298.791 203.612 299.067C203.642 299.22 203.671 299.375 203.696 299.524C203.71 299.603 203.723 299.683 203.736 299.763C203.888 300.738 203.957 301.71 203.939 302.663C203.937 302.888 203.927 303.117 203.913 303.343C203.705 306.829 202.358 310.012 199.922 312.128C199.8 312.238 199.673 312.341 199.543 312.444C199.52 312.462 199.496 312.481 199.471 312.497C198.814 313.01 198.115 313.421 197.385 313.738C197.33 313.764 197.27 313.788 197.214 313.812C197.092 313.862 196.97 313.911 196.846 313.954C196.359 314.131 195.863 314.27 195.358 314.368C195.045 314.432 194.725 314.478 194.406 314.508C194.27 314.523 194.132 314.532 193.997 314.541C193.926 314.547 193.855 314.551 193.785 314.553C190.136 314.698 186.248 312.956 183.271 309.636C183.114 309.463 182.965 309.287 182.814 309.107C182.685 309.278 182.565 309.442 182.459 309.596L182.919 310.129C186.095 313.652 190.253 315.469 194.131 315.237C194.194 315.233 194.256 315.228 194.321 315.224C194.465 315.215 194.611 315.201 194.755 315.181C195.004 315.153 195.252 315.114 195.499 315.068C196.083 314.956 196.659 314.795 197.217 314.583C197.285 314.558 197.356 314.531 197.423 314.504C197.535 314.46 197.648 314.411 197.759 314.362C198.49 314.035 199.191 313.619 199.851 313.105C199.881 313.084 199.912 313.059 199.942 313.036C200.064 312.94 200.185 312.841 200.302 312.737C202.889 310.509 204.314 307.134 204.521 303.442C204.534 303.219 204.543 302.992 204.545 302.766C204.56 301.81 204.496 300.832 204.347 299.854C204.334 299.753 204.318 299.652 204.299 299.552C204.278 299.417 204.255 299.284 204.226 299.149C204.146 298.718 204.048 298.287 203.933 297.858C203.784 297.289 203.607 296.726 203.402 296.167C203.36 296.054 203.322 295.945 203.276 295.836C203.23 295.709 203.18 295.583 203.127 295.456C202.954 295.035 202.764 294.614 202.556 294.2C202.502 294.089 202.444 293.978 202.386 293.87C202.301 293.701 202.213 293.538 202.12 293.373C201.879 292.938 201.621 292.517 201.342 292.097C198.728 288.168 195.024 285.706 191.299 285.007Z" fill="#131414"/>
<path d="M191.673 285.947C191.617 285.869 191.559 285.795 191.497 285.728C191.205 285.392 190.862 285.145 190.502 284.996C190.481 284.986 190.457 284.976 190.436 284.969C190.434 284.968 190.431 284.967 190.428 284.963C190.359 284.94 190.289 284.913 190.221 284.898C190.007 284.84 189.792 284.817 189.582 284.832C189.579 284.831 189.577 284.832 189.577 284.832C189.569 284.827 189.561 284.831 189.552 284.832C189.213 284.858 188.886 284.979 188.605 285.201C188.509 285.276 188.424 285.358 188.347 285.451C187.659 286.251 187.647 287.638 188.368 288.721C189.17 289.928 190.582 290.312 191.515 289.576C192.448 288.841 192.554 287.261 191.751 286.054C191.723 286.018 191.699 285.982 191.673 285.947ZM191.118 288.983C190.437 289.519 189.408 289.238 188.823 288.359C188.237 287.478 188.316 286.327 188.995 285.791C189.193 285.635 189.419 285.547 189.655 285.527C189.887 285.504 190.127 285.541 190.361 285.632C190.711 285.773 191.04 286.039 191.29 286.414C191.875 287.293 191.798 288.447 191.118 288.983Z" fill="#131414"/>
<path d="M193.097 303.976C193.045 304.194 192.997 304.416 192.954 304.641C192.742 304.614 192.532 304.596 192.327 304.584C189.253 304.417 186.786 305.967 185.051 307.625C184.908 307.764 184.766 307.905 184.633 308.042C184.096 308.599 183.64 309.15 183.272 309.641C183.145 309.814 183.026 309.98 182.918 310.132L182.458 309.599C182.565 309.446 182.685 309.281 182.813 309.11C183.201 308.598 183.676 308.026 184.241 307.45C184.373 307.311 184.515 307.17 184.66 307.033C185.504 306.231 186.515 305.454 187.68 304.873C187.755 304.834 187.831 304.8 187.909 304.765C187.974 304.734 188.04 304.705 188.105 304.674C188.747 304.389 189.43 304.164 190.156 304.028C190.348 303.993 190.543 303.961 190.741 303.939C191.294 303.872 191.869 303.858 192.464 303.902C192.672 303.921 192.883 303.944 193.097 303.976Z" fill="#131414"/>
<path d="M202.122 293.375C202.215 293.539 202.305 293.704 202.387 293.872C202.445 293.98 202.502 294.092 202.557 294.202C202.347 294.133 202.083 294.05 201.781 293.954C200.307 293.483 197.98 292.721 196.963 292.317C196.709 292.215 196.531 292.204 196.433 292.282C196.319 292.372 196.268 292.595 196.248 292.887C196.228 293.173 196.239 293.528 196.25 293.876C196.263 294.276 196.28 294.69 196.251 295.079C196.241 295.223 196.213 295.664 195.912 295.823C195.56 296.01 195.109 295.726 194.43 295.3C193.757 294.877 192.838 294.302 191.69 293.987C191.466 293.928 191.286 293.977 191.122 294.147C190.102 295.207 190.342 300.039 190.632 302.958C190.667 303.317 190.705 303.648 190.738 303.938C190.756 304.076 190.772 304.208 190.789 304.328L190.39 304.323L190.192 304.319C190.182 304.254 190.169 304.157 190.154 304.029C190.121 303.753 190.072 303.342 190.021 302.833C189.754 300.166 189.411 294.917 190.681 293.602C190.966 293.305 191.333 293.207 191.736 293.32C192.977 293.655 193.942 294.263 194.651 294.707C195.005 294.928 195.493 295.237 195.593 295.188C195.593 295.188 195.637 295.15 195.654 294.919C195.676 294.567 195.664 294.173 195.65 293.794C195.618 292.895 195.59 292.049 196.038 291.695L196.039 291.694C196.282 291.503 196.633 291.493 197.077 291.67C197.944 292.018 199.849 292.646 201.297 293.112L201.299 293.114C201.597 293.207 201.876 293.295 202.122 293.375Z" fill="#131414"/>
<path d="M192.105 302.592L191.509 302.588C191.484 302.413 190.92 298.257 191.379 296.77L191.953 297.091C191.609 298.205 191.946 301.438 192.105 302.592Z" fill="#131414"/>
<path d="M185.831 289.911L186.222 290.503L188.058 289.072L187.667 288.479L185.831 289.911Z" fill="#131414"/>
<path d="M188.649 289.669L187.393 291.768L187.907 292.219L189.164 290.121L188.649 289.669Z" fill="#131414"/>
<path d="M184.811 287.37L184.934 288.061L187.296 287.946L187.173 287.255L184.811 287.37Z" fill="#131414"/>
<path d="M185.051 284.965L184.944 285.617L187.319 286.543L187.426 285.891L185.051 284.965Z" fill="#131414"/>
<path d="M186.284 282.746L185.885 283.184L187.695 285.329L188.094 284.891L186.284 282.746Z" fill="#131414"/>
<path d="M187.466 281.801L188.539 284.451L189.079 284.248L188.006 281.599L187.466 281.801Z" fill="#131414"/>
<path d="M189.441 281.462L189.634 284.223L190.235 284.28L190.041 281.519L189.441 281.462Z" fill="#131414"/>
<path d="M203.617 299.067C203.195 299.024 202.774 299.016 202.359 299.044C200.938 299.133 199.573 299.625 198.396 300.553C197.31 301.409 196.499 302.545 195.971 303.845C194.763 306.811 195.028 310.64 196.849 313.955C196.965 314.166 197.087 314.378 197.216 314.581C197.285 314.556 197.355 314.53 197.422 314.503C197.534 314.459 197.648 314.41 197.758 314.36C197.628 314.158 197.505 313.949 197.388 313.739C195.365 310.12 195.344 305.836 197.184 302.935C197.616 302.251 198.152 301.646 198.791 301.143C199.514 300.572 200.312 300.178 201.151 299.953C201.987 299.727 202.861 299.666 203.741 299.76C203.942 299.782 204.146 299.812 204.347 299.851C204.335 299.751 204.319 299.65 204.299 299.549C204.279 299.414 204.256 299.281 204.227 299.147C204.023 299.113 203.819 299.088 203.617 299.067Z" fill="#131414"/>
<path d="M203.945 302.664C202.695 302.521 201.461 302.826 200.442 303.629C198.086 305.487 197.704 309.357 199.475 312.5C199.578 312.689 199.69 312.871 199.81 313.05C199.822 313.069 199.835 313.088 199.849 313.106C199.88 313.085 199.911 313.06 199.94 313.037C200.063 312.941 200.184 312.842 200.301 312.738C200.288 312.722 200.278 312.707 200.267 312.69C200.144 312.505 200.03 312.318 199.926 312.13C198.378 309.317 198.734 305.877 200.835 304.22C201.734 303.512 202.818 303.236 203.917 303.345C204.117 303.365 204.32 303.397 204.519 303.443C204.533 303.22 204.541 302.993 204.544 302.767C204.344 302.721 204.143 302.688 203.945 302.664Z" fill="#131414"/>
<path d="M202.492 295.433C200.292 295.398 198.158 296.057 196.351 297.481C194.497 298.943 193.238 301.014 192.596 303.377C192.548 303.551 192.506 303.73 192.463 303.906C192.426 304.072 192.389 304.24 192.358 304.407C192.348 304.465 192.337 304.526 192.326 304.584C191.765 307.743 192.238 311.294 193.786 314.561C193.895 314.789 194.01 315.015 194.131 315.242C194.194 315.239 194.256 315.234 194.32 315.229C194.465 315.22 194.611 315.207 194.755 315.186C194.634 314.968 194.518 314.742 194.41 314.516C192.823 311.292 192.356 307.757 192.953 304.642C192.969 304.568 192.982 304.497 192.997 304.424C193.028 304.275 193.06 304.124 193.095 303.977C193.136 303.82 193.175 303.662 193.22 303.507C193.844 301.332 195.025 299.428 196.743 298.073C198.513 296.678 200.612 296.055 202.772 296.134C202.981 296.138 203.191 296.152 203.403 296.174C203.361 296.061 203.323 295.952 203.277 295.843C203.231 295.717 203.181 295.59 203.128 295.464C202.914 295.446 202.704 295.434 202.492 295.433Z" fill="#131414"/>
<path d="M182.269 303.439L185.05 307.62C184.907 307.759 184.765 307.9 184.632 308.038L181.812 303.799L182.269 303.439Z" fill="#131414"/>
<path d="M178.685 298.121L178.192 297.815L178.281 298.422C178.318 298.68 179.237 304.783 181.37 306.086C181.981 306.461 182.621 306.422 183.266 305.98C183.292 305.963 183.32 305.944 183.346 305.923C183.379 305.9 183.408 305.877 183.438 305.854C183.538 305.775 183.632 305.694 183.714 305.607C184.235 305.091 184.448 304.479 184.354 303.786C184.061 301.688 180.978 299.545 178.685 298.121ZM183.755 303.784C183.815 304.236 183.675 304.644 183.315 305.014C183.215 305.12 183.096 305.222 182.961 305.323C182.93 305.347 182.899 305.368 182.868 305.39C182.402 305.699 181.981 305.732 181.581 305.487C180.238 304.668 179.33 300.995 178.975 299.04C181.98 300.967 183.587 302.562 183.755 303.784Z" fill="#131414"/>
<path d="M186.44 302.173L186.074 302.461L187.867 305.157L188.233 304.868L186.44 302.173Z" fill="#131414"/>
<path d="M184.265 298.959L183.87 298.713L183.939 299.199C183.997 299.592 184.543 303.068 185.833 303.859C186.207 304.087 186.591 304.074 186.98 303.824C187.014 303.808 187.046 303.786 187.077 303.761L187.132 303.718C187.208 303.658 187.28 303.596 187.339 303.526C187.64 303.213 187.76 302.839 187.703 302.419C187.525 301.121 185.655 299.823 184.265 298.959ZM187.226 302.418C187.255 302.647 187.194 302.859 187.024 303.053C186.958 303.132 186.873 303.207 186.772 303.281C186.735 303.307 186.7 303.332 186.666 303.353C186.426 303.495 186.208 303.502 186.003 303.379C185.249 302.921 184.725 300.884 184.502 299.697C186.216 300.808 187.13 301.72 187.226 302.418Z" fill="#131414"/>
<path d="M190.585 284.893C190.585 284.893 189.818 284.783 189.587 284.828C189.358 284.872 189.673 285.345 189.673 285.345L190.378 285.149L190.585 284.893Z" fill="#131414"/>
<path d="M191.236 289.161C191.993 288.564 192.078 287.286 191.427 286.307C190.775 285.328 189.634 285.018 188.877 285.615C188.12 286.211 188.034 287.489 188.686 288.468C189.337 289.447 190.479 289.757 191.236 289.161Z" fill="#E07103"/>
</g>
<path fill-rule="evenodd" clip-rule="evenodd" d="M510.323 234.853C510.332 234.707 510.336 234.56 510.336 234.413C510.336 225.351 493.696 218.004 473.168 218.004C452.641 218.004 436 225.351 436 234.413C436 234.449 436 234.484 436.001 234.52H436V366H510.323V234.853Z" fill="#DDDDE8"/>
<path fill-rule="evenodd" clip-rule="evenodd" d="M474.539 366H510.337V234.201H510.334C510.1 225.431 494.283 218.316 474.539 218V366Z" fill="#C4C4D9"/>
<ellipse cx="473.168" cy="235.6" rx="32.8186" ry="14.4323" fill="#F9F9FD"/>
<ellipse cx="473.168" cy="235.599" rx="27.6783" ry="11.269" fill="#DDDDE8"/>
<path fill-rule="evenodd" clip-rule="evenodd" d="M187.006 273.203C187.542 253.168 224.495 237 270.002 237C315.509 237 352.462 253.168 352.998 273.203H353.004V366.5H187V273.716C187 273.692 187 273.668 187 273.645C187 273.621 187 273.597 187 273.574V273.203H187.006Z" fill="#DDDDE8"/>
<path fill-rule="evenodd" clip-rule="evenodd" d="M273.534 366H353.004V273.17H352.998C352.476 253.657 317.406 237.811 273.534 237V366Z" fill="#C4C4D9"/>
<ellipse cx="270.002" cy="276.294" rx="73.2888" ry="32.2294" fill="#F9F9FD"/>
<ellipse cx="270.002" cy="276.294" rx="61.8099" ry="25.1654" fill="#DDDDE8"/>
<path fill-rule="evenodd" clip-rule="evenodd" d="M134.984 305.5C134.994 305.329 135 305.157 135 304.984C135 294.499 115.748 286 91.9998 286C68.2516 286 49 294.499 49 304.984C49 305.157 49.0052 305.329 49.0156 305.5H49V366.276H135V305.5H134.984Z" fill="#DDDDE8"/>
<path fill-rule="evenodd" clip-rule="evenodd" d="M93.8296 366.5H135V304.738H134.997C134.726 294.629 116.558 286.42 93.8296 286V366.5Z" fill="#C4C4D9"/>
<ellipse cx="91.9996" cy="306.356" rx="37.9679" ry="16.6967" fill="#F9F9FD"/>
<ellipse cx="91.9996" cy="306.357" rx="32.0211" ry="13.0372" fill="#DDDDE8"/>
<rect x="186" y="60" width="169" height="168" rx="80" fill="url(#paint8_linear_1651_114824)"/>
<path d="M274.24 188.139L208 150.966L265.994 118.352L332.766 155.653L274.24 188.139Z" fill="#DDDDE8"/>
<path d="M265.462 166.374V134.722L276.768 117.645L288.074 143.39V178.636L265.462 166.374Z" fill="#141930"/>
<path d="M276.768 117.646L312.349 98L321.792 124.13V159.184L288.074 178.636V143.39L276.768 117.646Z" fill="#4A516B"/>
<path d="M255.952 108.336V129.523L265.462 134.723V113.794L255.952 108.336Z" fill="#141930"/>
<path d="M246.174 134.723L255.95 129.522L265.461 134.723V145.059L246.174 134.723Z" fill="#A0A7C3"/>
<path d="M255.952 108.336L274.573 98L284.084 103.136L265.462 113.793L255.952 108.336Z" fill="#A0A7C3"/>
<path d="M265.462 134.723L276.768 117.645L284.084 113.601V103.136L265.462 113.793V134.723Z" fill="#4A516B"/>
<path d="M255.817 139.923L255.95 150.709L265.461 155.909V145.059L255.817 139.923Z" fill="#141930"/>
<path d="M246.174 155.909L255.95 150.709L255.817 139.923L246.174 134.723V155.909Z" fill="#272B43"/>
<path d="M246.175 129.009V155.909L227.62 145.316V118.93L246.175 129.009Z" fill="#272B43"/>
<path d="M255.818 104.356L227.62 118.93L246.175 129.009L255.951 123.68V108.336L259.676 106.282L255.818 104.356Z" fill="#A0A7C3"/>
<path d="M246.174 155.909L265.461 166.374V155.909L255.95 150.709L246.174 155.909Z" fill="#A0A7C3"/>
<path d="M288.074 143.39L321.792 124.13L312.349 98L276.768 117.646L288.074 143.39Z" fill="#A0A7C3"/>
<path d="M255.021 173.179V166.246L273.975 177.096V183.644L255.021 173.179Z" fill="#141930"/>
<path d="M265.462 151.158V145.059L282.222 154.689V160.403L265.462 151.158Z" fill="#272B43"/>
<path d="M269.651 147.499V140.758C269.651 140.758 269.718 134.017 274.639 133.76C279.561 133.503 281.889 139.731 281.822 144.096C281.756 148.462 281.822 154.433 281.822 154.433L269.651 147.499Z" fill="white"/>
<path d="M285.281 176.711L273.975 183.644V177.096L285.281 170.226V176.711Z" fill="#4A516B"/>
<path d="M274.573 134.402C279.295 134.145 281.69 139.987 281.756 144.289V144.096C281.823 139.731 279.428 133.503 274.573 133.76C269.718 134.017 269.585 140.758 269.585 140.758V141.464C269.585 141.464 269.652 134.723 274.573 134.466V134.402Z" fill="#A8B8C6"/>
<path d="M266.792 160.339V152.507L283.685 161.688V170.098L280.027 172.345L267.125 165.796L266.792 160.339Z" fill="#4A516B"/>
<path d="M255.021 166.246L266.26 160.082L267.125 160.403V165.796L260.607 169.456L255.021 166.246Z" fill="#4A516B"/>
<path d="M281.024 172.858L267.124 165.09L260.341 169.07L273.975 177.095L281.024 172.858Z" fill="#DDDDE8"/>
<path d="M255.021 166.246H256.617L273.842 176.133L273.975 177.096L255.021 166.246Z" fill="#A0A7C3"/>
<path d="M284.481 169.648L273.84 176.132L273.973 177.096L285.279 170.226L284.481 169.648Z" fill="#A0A7C3"/>
<path d="M256.617 166.246L267.125 160.403L266.26 160.082L255.021 166.246H256.617Z" fill="#A0A7C3"/>
<path d="M267.125 165.09V153.02L283.286 161.88V170.354L280.027 172.345L267.125 165.09Z" fill="white"/>
<path d="M265.462 145.38L268.588 144.289V147.178L265.462 145.38Z" fill="#4A516B"/>
<path d="M282.221 154.689L284.682 153.02V158.734L282.221 160.532V154.689Z" fill="#4A516B"/>
<path d="M269.984 140.951C269.984 140.951 270.051 134.209 274.972 133.953C276.037 133.953 277.034 134.145 277.832 134.659C276.901 134.017 275.837 133.696 274.573 133.76C269.652 134.017 269.585 140.758 269.585 140.758V147.499L269.984 147.692V140.951Z" fill="#A0A7C3"/>
<path d="M265.462 134.722H266.726L276.768 119.699V117.645L265.462 134.722Z" fill="#7780A1"/>
<path d="M288.074 143.39L286.943 142.876L276.768 119.699V117.645L288.074 143.39Z" fill="#7780A1"/>
<path d="M257.015 140.565V145.637L263.267 148.783V143.904L257.015 140.565Z" fill="#A0A7C3"/>
<path d="M300.91 146.343V141.592L309.09 136.584V141.721L300.91 146.343Z" fill="white"/>
<path d="M257.214 140.693V145.573L263.066 148.397V143.839L257.214 140.693Z" fill="white"/>
<path d="M258.013 118.288V122.525L262.27 125.029V120.791L258.013 118.288Z" fill="#A0A7C3"/>
<path d="M264.463 155.395V144.545L265.461 145.059V155.909L264.463 155.395Z" fill="#A0A7C3"/>
<path d="M258.212 118.544V122.46L262.07 124.707V120.855L258.212 118.544Z" fill="white"/>
<path d="M246.174 134.723V129.009L255.95 123.681V129.523L246.174 134.723Z" fill="#4A516B"/>
<path d="M268.056 143.968L268.588 144.289L266.06 145.701L265.462 145.38L268.056 143.968Z" fill="#4A516B"/>
<path d="M284.682 153.02L283.95 152.635L281.49 154.24L282.221 154.689L284.682 153.02Z" fill="#4A516B"/>
<path d="M265.462 145.444L282.222 154.689L282.754 154.304L266.193 145.188L265.462 145.444Z" fill="#4A516B"/>
<path d="M208 150.966V152.763L274.24 190V188.138L208 150.966Z" fill="#C4C4D9"/>
<path d="M274.24 190V188.138L332.765 155.652V157.386L274.24 190Z" fill="#C4C4D9"/>
<path d="M258.212 122.46L258.545 122.203V118.737L258.212 118.544V122.46Z" fill="#E6EFEA"/>
<path d="M262.07 124.707L258.212 122.46L258.545 122.204L262.07 124.258V124.707Z" fill="#E6EFEA"/>
<path d="M258.546 118.737V119.315L262.071 121.562V120.855L258.546 118.737Z" fill="#A8B8C6"/>
<path d="M267.723 153.341V154.432L283.286 163.164V161.88L267.723 153.341Z" fill="#A8B8C6"/>
<path d="M260.141 119.7V123.231L260.474 123.488V119.892L260.141 119.7Z" fill="#E6EFEA"/>
<path d="M257.613 140.886V145.187L257.214 145.573V140.693L257.613 140.886Z" fill="#A0A7C3"/>
<path d="M257.614 140.886V141.785L263.067 144.674V143.839L257.614 140.886Z" fill="#A8B8C6"/>
<path d="M263.066 148.398L257.214 145.573L257.613 145.188L263.066 147.948V148.398Z" fill="#A0A7C3"/>
<path d="M260.008 142.17V146.664L260.341 146.793V142.363L260.008 142.17Z" fill="#A0A7C3"/>
<path d="M267.723 153.341L267.856 164.705L267.125 165.09V153.02L267.723 153.341Z" fill="#A0A7C3"/>
<path d="M280.027 172.345L267.125 165.09L267.856 164.705L280.625 171.96L280.027 172.345Z" fill="#A0A7C3"/>
<path d="M274.439 157.065V168.942L274.838 169.263V157.257L274.439 157.065Z" fill="#A0A7C3"/>
<path d="M275.038 150.067V142.299L269.784 139.409L269.851 138.896L275.038 141.785L274.972 133.952H275.57V142.042L281.822 145.509V146.086L275.57 142.62V150.324L275.038 150.067Z" fill="#A0A7C3"/>
<path d="M227.62 145.316L246.175 134.723V155.909L227.62 145.316Z" fill="#A0A7C3"/>
<path d="M308.492 136.905V141.335L309.091 141.721V136.584L308.492 136.905Z" fill="#A0A7C3"/>
<path d="M308.491 137.612L300.91 142.299V141.592L308.491 136.906V137.612Z" fill="#A8B8C6"/>
<path d="M300.91 146.343L309.09 141.721L308.491 141.336L300.91 145.701V146.343Z" fill="#A0A7C3"/>
<path d="M304.833 139.153V143.519L305.498 143.198V138.768L304.833 139.153Z" fill="#A0A7C3"/>
<ellipse cx="270.5" cy="143.913" rx="84.5" ry="84.913" fill="url(#paint9_linear_1651_114824)"/>
<path d="M370 144C370 199.233 325.448 244 270.5 244C215.552 244 171 199.233 171 144C171 88.7668 215.552 44 270.5 44C325.448 44 370 88.7668 370 144Z" stroke="#61CD81" stroke-width="2"/>
<path opacity="0.3" d="M390 144C390 210.278 336.494 264 270.5 264C204.506 264 151 210.278 151 144C151 77.7219 204.506 24 270.5 24C336.494 24 390 77.7219 390 144Z" stroke="#61CD81" stroke-width="2"/>
<path opacity="0.12" d="M413 144C413 222.98 349.197 287 270.5 287C191.803 287 128 222.98 128 144C128 65.02 191.803 1 270.5 1C349.197 1 413 65.02 413 144Z" stroke="#61CD81" stroke-width="2"/>
<rect x="54" y="199" width="77" height="77" rx="38.5" fill="url(#paint10_linear_1651_114824)"/>
<path d="M66.7358 229.5L85.2569 218.539L89.803 221.194L85.1222 229.5L75.929 234.879L66.7358 229.5Z" fill="#7780A1"/>
<path d="M122.77 243.049L90.106 262.18L61.6172 245.568L94.2143 226.505L122.77 243.049Z" fill="#DDDDE8"/>
<path d="M71.0122 228.888L76.7032 232.053V223.611L73.8409 219.526L71.0122 221.467V228.888Z" fill="#141930"/>
<path d="M117.787 242.946L99.2319 253.976V237.602L108.492 221.194L117.787 232.224V242.946Z" fill="#4A516B"/>
<path d="M85.3578 245.806L99.2318 253.976V237.602L85.1221 229.5L85.3578 245.806Z" fill="#141930"/>
<path d="M89.4995 240.904V248.189L91.419 249.414V242.946L89.4995 240.904Z" fill="#DDDDE8"/>
<path d="M89.4995 248.189L89.8363 247.95V241.279L89.4995 240.904V248.189Z" fill="#A0A7C3"/>
<path d="M89.8363 247.95L89.4995 248.189L91.419 249.346V248.904L89.8363 247.95Z" fill="#DDDDE8"/>
<path d="M66.7358 245.772V229.5L75.929 234.879V251.15L66.7358 245.772Z" fill="#141930"/>
<path d="M85.1219 229.5L75.9287 234.879V251.15L85.3576 245.806L85.1219 229.5Z" fill="#4A516B"/>
<path d="M94.4163 212.991L85.1221 229.5L99.2318 237.602L108.492 221.195L94.4163 212.991Z" fill="#7780A1"/>
<path d="M76.7031 232.054L87.1086 226.062L89.8026 221.195V215.918L76.7031 223.611V232.054Z" fill="#4A516B"/>
<path d="M73.8413 219.526L87.1765 211.833L89.8031 215.918L76.7037 223.611L73.8413 219.526Z" fill="#A0A7C3"/>
<path d="M86.166 249.721V241.21L88.961 239.236V248.087L86.166 249.721Z" fill="#4A516B"/>
<path d="M92.2275 253.261V242.878L95.0225 241.21V251.593L92.2275 253.261Z" fill="#4A516B"/>
<path d="M68.7563 233.415V245.057L70.036 245.84V234.13L68.7563 233.415Z" fill="white"/>
<path d="M88.4219 239.508L92.2271 242.878L95.0221 241.21L91.0822 237.806L88.4219 239.508Z" fill="#A0A7C3"/>
<path d="M88.4224 239.508L85.5601 241.517V249.38L86.1325 249.721V241.891C86.1325 241.891 87.0417 240.564 88.254 240.7C89.3316 240.802 91.1501 242.606 91.4195 243.457V252.818L92.2276 253.295V242.912L88.4224 239.542V239.508Z" fill="#272B43"/>
<path d="M69.0257 244.785V233.551L68.7563 233.415V245.057L70.036 245.84V245.397L69.0257 244.785Z" fill="#A0A7C3"/>
<path d="M71.6519 235.015V246.657L72.9315 247.44V235.73L71.6519 235.015Z" fill="white"/>
<path d="M71.9213 246.384V235.185L71.6519 235.015V246.657L72.9315 247.44V246.997L71.9213 246.384Z" fill="#A0A7C3"/>
<path d="M82.5965 233.653V245.329L81.3169 246.078V234.368L82.5965 233.653Z" fill="white"/>
<path d="M79.9701 235.117V246.759L78.6904 247.542V235.832L79.9701 235.117Z" fill="white"/>
<path d="M108.493 221.194V222.352L116.945 232.326L117.787 232.224L108.493 221.194Z" fill="#A0A7C3"/>
<path d="M99.2319 237.602L99.7707 237.942L108.492 222.352V221.194L99.2319 237.602Z" fill="#A0A7C3"/>
<path d="M61.6172 245.568V246.351L90.106 263.167V262.179L61.6172 245.568Z" fill="#C4C4D9"/>
<path d="M90.106 263.167V262.179L122.77 243.049V244.07L90.106 263.167Z" fill="#C4C4D9"/>
<path d="M89.5 248.189L77.7139 254.963L82.8324 257.924L91.4195 252.75V249.414L89.5 248.189Z" fill="#A0A7C3"/>
<path d="M69.0254 233.551V233.96L70.0356 234.504V234.13L69.0254 233.551Z" fill="#A0A7C3"/>
<path d="M71.9219 235.185V235.559L72.9321 236.138V235.73L71.9219 235.185Z" fill="#A0A7C3"/>
<path d="M79.7007 246.487V235.287L79.9701 235.117V246.759L78.6904 247.542V247.1L79.7007 246.487Z" fill="#A0A7C3"/>
<path d="M79.7007 235.287V235.662L78.6904 236.24V235.832L79.7007 235.287Z" fill="#A0A7C3"/>
<path d="M82.2935 245.057V233.824L82.5965 233.653V245.329L81.3169 246.078V245.636L82.2935 245.057Z" fill="#A0A7C3"/>
<path d="M82.2935 233.823V234.232L81.3169 234.777V234.368L82.2935 233.823Z" fill="#A0A7C3"/>
<path d="M71.7197 228.377V225.245C71.7197 225.245 71.7197 222.726 73.1677 222.624C74.5821 222.522 75.2556 224.871 75.2556 226.471C75.2556 228.105 75.2556 230.249 75.2556 230.249L71.7197 228.343V228.377Z" fill="white"/>
<path d="M73.1336 223.033C74.4805 222.93 75.1877 225.075 75.2214 226.675C75.2214 226.607 75.2214 226.539 75.2214 226.471C75.2214 224.837 74.5479 222.522 73.1336 222.624C71.7192 222.726 71.6855 225.245 71.6855 225.245V225.654C71.6855 225.484 71.7529 223.169 73.1336 223.067V223.033Z" fill="#A0A7C3"/>
<path d="M71.9549 225.381C71.9549 225.381 71.8539 222.862 73.2682 222.76C73.6387 222.76 73.9417 222.862 74.2111 223.101C73.9081 222.76 73.5376 222.556 73.0999 222.59C71.6855 222.692 71.6519 225.211 71.6519 225.211V228.343L71.8876 228.479V225.347L71.9549 225.381Z" fill="#A0A7C3"/>
<path d="M75.2219 230.283L71.7197 228.377V228.037L75.2219 229.943V230.283Z" fill="#A0A7C3"/>
<path d="M73.7064 222.794V229.16L73.4707 228.99V222.692L73.7064 222.794Z" fill="#A0A7C3"/>
<path d="M71.9551 225.211L75.2215 226.811V227.152L71.9551 225.552V225.211Z" fill="#A0A7C3"/>
<path d="M105.528 245.942V242.47C105.528 242.47 105.528 239.713 103.946 239.576C102.397 239.474 101.622 242.061 101.656 243.832C101.656 245.636 101.656 248.019 101.656 248.019L105.528 245.908V245.942Z" fill="white"/>
<path d="M103.946 240.087C102.464 239.985 101.69 242.334 101.656 244.104C101.656 244.036 101.656 243.934 101.656 243.865C101.656 242.061 102.397 239.508 103.946 239.61C105.495 239.713 105.529 242.504 105.529 242.504V242.98C105.529 242.776 105.461 240.223 103.946 240.121V240.087Z" fill="#868EAE"/>
<path d="M105.225 242.64C105.225 242.64 105.326 239.883 103.777 239.747C103.373 239.747 103.036 239.883 102.733 240.121C103.07 239.747 103.474 239.542 103.946 239.576C105.495 239.679 105.528 242.47 105.528 242.47V245.942L105.259 246.078V242.64H105.225Z" fill="#A0A7C3"/>
<path d="M101.623 248.053L105.529 245.942V245.568L101.656 247.712L101.623 248.053Z" fill="#A0A7C3"/>
<path d="M103.34 239.815V246.827L103.576 246.657V239.712L103.34 239.815Z" fill="#A0A7C3"/>
<path d="M105.226 242.47L101.656 244.24V244.615L105.226 242.844V242.47Z" fill="#A0A7C3"/>
<path d="M111.186 243.048V239.576C111.186 239.576 111.186 236.819 109.603 236.683C108.054 236.581 107.28 239.168 107.314 240.938C107.347 242.708 107.314 245.125 107.314 245.125L111.186 243.014V243.048Z" fill="white"/>
<path d="M109.603 237.159C108.122 237.057 107.347 239.406 107.313 241.176C107.313 241.108 107.313 241.006 107.313 240.938C107.313 239.134 108.054 236.581 109.603 236.683C111.152 236.785 111.186 239.576 111.186 239.576V240.053C111.186 239.849 111.119 237.296 109.603 237.194V237.159Z" fill="#868EAE"/>
<path d="M110.917 239.747C110.917 239.747 111.018 236.989 109.469 236.853C109.065 236.853 108.728 236.989 108.425 237.228C108.762 236.853 109.166 236.649 109.637 236.683C111.186 236.785 111.22 239.576 111.22 239.576V243.048L110.95 243.185V239.747H110.917Z" fill="#A0A7C3"/>
<path d="M107.313 245.159L111.186 243.049V242.674L107.313 244.785V245.159Z" fill="#A0A7C3"/>
<path d="M108.997 236.887V243.899L109.233 243.729V236.785L108.997 236.887Z" fill="#A0A7C3"/>
<path d="M110.917 239.576L107.313 241.312V241.721L110.917 239.917V239.576Z" fill="#A0A7C3"/>
<path d="M116.776 240.053V236.581C116.776 236.581 116.776 233.824 115.194 233.688C113.645 233.585 112.87 236.172 112.904 237.943C112.904 239.747 112.904 242.13 112.904 242.13L116.776 240.019V240.053Z" fill="white"/>
<path d="M115.194 234.198C113.712 234.096 112.937 236.445 112.904 238.215C112.904 238.147 112.904 238.045 112.904 237.977C112.904 236.172 113.645 233.619 115.194 233.721C116.743 233.824 116.776 236.615 116.776 236.615V237.092C116.776 236.887 116.709 234.334 115.194 234.232V234.198Z" fill="#868EAE"/>
<path d="M116.473 236.751C116.473 236.751 116.574 233.994 115.025 233.858C114.621 233.858 114.284 233.994 113.981 234.232C114.318 233.858 114.722 233.653 115.193 233.688C116.742 233.79 116.776 236.581 116.776 236.581V240.053L116.507 240.189V236.751H116.473Z" fill="#A0A7C3"/>
<path d="M112.87 242.164L116.776 240.053V239.679L112.87 241.823V242.164Z" fill="#A0A7C3"/>
<path d="M114.587 233.926V240.938L114.823 240.768V233.823L114.587 233.926Z" fill="#A0A7C3"/>
<path d="M116.473 236.581L112.87 238.351V238.725L116.473 236.955V236.581Z" fill="#A0A7C3"/>
<path d="M110.176 229.875C110.176 231.236 109.536 232.326 108.728 232.326C107.92 232.326 107.28 231.236 107.28 229.875C107.28 228.513 107.92 227.424 108.728 227.424C109.536 227.424 110.176 228.513 110.176 229.875Z" fill="white"/>
<path d="M107.414 230.147C107.414 228.785 108.054 227.696 108.862 227.696C109.671 227.696 109.57 227.934 109.839 228.343C109.57 227.798 109.166 227.424 108.694 227.424C107.886 227.424 107.246 228.513 107.246 229.875C107.246 231.236 107.448 231.236 107.718 231.713C107.515 231.304 107.381 230.76 107.381 230.181L107.414 230.147Z" fill="#868EAE"/>
<path d="M107.246 229.875C107.246 228.615 107.852 227.628 108.593 227.628C109.334 227.628 109.94 228.649 109.94 229.875C109.94 231.1 109.334 232.121 108.593 232.121C107.852 232.121 107.246 230.828 107.246 229.875C107.246 231.236 107.886 232.326 108.694 232.326C109.502 232.326 110.142 231.236 110.142 229.875C110.142 228.513 109.502 227.424 108.694 227.424C107.886 227.424 107.246 228.513 107.246 229.875Z" fill="#A0A7C3"/>
<path d="M108.896 227.594H108.728V232.155H108.896V227.594Z" fill="#A0A7C3"/>
<path d="M107.28 230.351L109.974 229.5V229.262L107.246 230.181L107.28 230.351Z" fill="#A0A7C3"/>
<circle cx="91" cy="236" r="37" fill="url(#paint11_linear_1651_114824)"/>
<circle cx="92" cy="237" r="45" stroke="#61CD81" stroke-width="2"/>
<circle opacity="0.3" cx="92" cy="237" r="57" stroke="#61CD81" stroke-width="2"/>
<circle opacity="0.12" cx="92" cy="237" r="72" stroke="#61CD81" stroke-width="2"/>
<rect x="435" y="131" width="77" height="77" rx="38.5" fill="url(#paint12_linear_1651_114824)"/>
<path d="M447.736 161.5L466.257 150.539L470.803 153.194L466.122 161.5L456.929 166.879L447.736 161.5Z" fill="#7780A1"/>
<path d="M503.77 175.049L471.106 194.18L442.617 177.568L475.214 158.505L503.77 175.049Z" fill="#DDDDE8"/>
<path d="M452.012 160.888L457.703 164.053V155.611L454.841 151.526L452.012 153.467V160.888Z" fill="#141930"/>
<path d="M498.787 174.946L480.232 185.976V169.602L489.492 153.194L498.787 164.224V174.946Z" fill="#4A516B"/>
<path d="M466.358 177.806L480.232 185.976V169.602L466.122 161.5L466.358 177.806Z" fill="#141930"/>
<path d="M470.5 172.904V180.189L472.419 181.414V174.946L470.5 172.904Z" fill="#DDDDE8"/>
<path d="M470.5 180.189L470.836 179.95V173.279L470.5 172.904V180.189Z" fill="#A0A7C3"/>
<path d="M470.836 179.95L470.5 180.189L472.419 181.346V180.904L470.836 179.95Z" fill="#DDDDE8"/>
<path d="M447.736 177.772V161.5L456.929 166.879V183.15L447.736 177.772Z" fill="#141930"/>
<path d="M466.122 161.5L456.929 166.879V183.15L466.358 177.806L466.122 161.5Z" fill="#4A516B"/>
<path d="M475.416 144.991L466.122 161.5L480.232 169.602L489.492 153.195L475.416 144.991Z" fill="#7780A1"/>
<path d="M457.703 164.054L468.109 158.062L470.803 153.195V147.918L457.703 155.611V164.054Z" fill="#4A516B"/>
<path d="M454.841 151.526L468.176 143.833L470.803 147.918L457.704 155.611L454.841 151.526Z" fill="#A0A7C3"/>
<path d="M467.166 181.721V173.21L469.961 171.236V180.087L467.166 181.721Z" fill="#4A516B"/>
<path d="M473.228 185.261V174.878L476.023 173.21V183.593L473.228 185.261Z" fill="#4A516B"/>
<path d="M449.756 165.415V177.057L451.036 177.84V166.13L449.756 165.415Z" fill="white"/>
<path d="M469.422 171.508L473.227 174.878L476.022 173.21L472.082 169.806L469.422 171.508Z" fill="#A0A7C3"/>
<path d="M469.422 171.508L466.56 173.517V181.38L467.133 181.721V173.891C467.133 173.891 468.042 172.564 469.254 172.7C470.332 172.802 472.15 174.606 472.419 175.457V184.818L473.228 185.295V174.912L469.422 171.542V171.508Z" fill="#272B43"/>
<path d="M450.026 176.785V165.551L449.756 165.415V177.057L451.036 177.84V177.397L450.026 176.785Z" fill="#A0A7C3"/>
<path d="M452.652 167.015V178.657L453.931 179.44V167.73L452.652 167.015Z" fill="white"/>
<path d="M452.921 178.384V167.185L452.652 167.015V178.657L453.931 179.44V178.997L452.921 178.384Z" fill="#A0A7C3"/>
<path d="M463.597 165.653V177.329L462.317 178.078V166.368L463.597 165.653Z" fill="white"/>
<path d="M460.97 167.117V178.759L459.69 179.542V167.832L460.97 167.117Z" fill="white"/>
<path d="M489.493 153.194V154.352L497.945 164.326L498.787 164.224L489.493 153.194Z" fill="#A0A7C3"/>
<path d="M480.232 169.602L480.771 169.942L489.492 154.352V153.194L480.232 169.602Z" fill="#A0A7C3"/>
<path d="M442.617 177.568V178.351L471.106 195.167V194.179L442.617 177.568Z" fill="#C4C4D9"/>
<path d="M471.106 195.167V194.179L503.77 175.049V176.07L471.106 195.167Z" fill="#C4C4D9"/>
<path d="M470.5 180.189L458.714 186.963L463.832 189.924L472.419 184.75V181.414L470.5 180.189Z" fill="#A0A7C3"/>
<path d="M450.025 165.551V165.96L451.036 166.504V166.13L450.025 165.551Z" fill="#A0A7C3"/>
<path d="M452.922 167.185V167.559L453.932 168.138V167.73L452.922 167.185Z" fill="#A0A7C3"/>
<path d="M460.701 178.487V167.287L460.97 167.117V178.759L459.69 179.542V179.1L460.701 178.487Z" fill="#A0A7C3"/>
<path d="M460.701 167.287V167.662L459.69 168.24V167.832L460.701 167.287Z" fill="#A0A7C3"/>
<path d="M463.293 177.057V165.824L463.597 165.653V177.329L462.317 178.078V177.636L463.293 177.057Z" fill="#A0A7C3"/>
<path d="M463.293 165.823V166.232L462.317 166.777V166.368L463.293 165.823Z" fill="#A0A7C3"/>
<path d="M452.72 160.377V157.245C452.72 157.245 452.72 154.726 454.168 154.624C455.582 154.522 456.256 156.871 456.256 158.471C456.256 160.105 456.256 162.249 456.256 162.249L452.72 160.343V160.377Z" fill="white"/>
<path d="M454.134 155.033C455.481 154.93 456.188 157.075 456.221 158.675C456.221 158.607 456.221 158.539 456.221 158.471C456.221 156.837 455.548 154.522 454.134 154.624C452.719 154.726 452.686 157.245 452.686 157.245V157.654C452.686 157.484 452.753 155.169 454.134 155.067V155.033Z" fill="#A0A7C3"/>
<path d="M452.955 157.381C452.955 157.381 452.854 154.862 454.268 154.76C454.639 154.76 454.942 154.862 455.211 155.101C454.908 154.76 454.538 154.556 454.1 154.59C452.686 154.692 452.652 157.211 452.652 157.211V160.343L452.888 160.479V157.347L452.955 157.381Z" fill="#A0A7C3"/>
<path d="M456.222 162.283L452.72 160.377V160.037L456.222 161.943V162.283Z" fill="#A0A7C3"/>
<path d="M454.706 154.794V161.16L454.471 160.99V154.692L454.706 154.794Z" fill="#A0A7C3"/>
<path d="M452.955 157.211L456.222 158.811V159.152L452.955 157.552V157.211Z" fill="#A0A7C3"/>
<path d="M486.528 177.942V174.47C486.528 174.47 486.528 171.713 484.946 171.576C483.397 171.474 482.622 174.061 482.656 175.832C482.656 177.636 482.656 180.019 482.656 180.019L486.528 177.908V177.942Z" fill="white"/>
<path d="M484.946 172.087C483.464 171.985 482.69 174.334 482.656 176.104C482.656 176.036 482.656 175.934 482.656 175.865C482.656 174.061 483.397 171.508 484.946 171.61C486.495 171.713 486.529 174.504 486.529 174.504V174.98C486.529 174.776 486.461 172.223 484.946 172.121V172.087Z" fill="#868EAE"/>
<path d="M486.225 174.64C486.225 174.64 486.326 171.883 484.777 171.747C484.373 171.747 484.036 171.883 483.733 172.121C484.07 171.747 484.474 171.542 484.946 171.576C486.495 171.679 486.528 174.47 486.528 174.47V177.942L486.259 178.078V174.64H486.225Z" fill="#A0A7C3"/>
<path d="M482.623 180.053L486.529 177.942V177.568L482.656 179.712L482.623 180.053Z" fill="#A0A7C3"/>
<path d="M484.34 171.815V178.827L484.576 178.657V171.712L484.34 171.815Z" fill="#A0A7C3"/>
<path d="M486.226 174.47L482.656 176.24V176.615L486.226 174.844V174.47Z" fill="#A0A7C3"/>
<path d="M492.186 175.048V171.576C492.186 171.576 492.186 168.819 490.603 168.683C489.054 168.581 488.28 171.168 488.314 172.938C488.347 174.708 488.314 177.125 488.314 177.125L492.186 175.014V175.048Z" fill="white"/>
<path d="M490.603 169.159C489.122 169.057 488.347 171.406 488.313 173.176C488.313 173.108 488.313 173.006 488.313 172.938C488.313 171.134 489.054 168.581 490.603 168.683C492.152 168.785 492.186 171.576 492.186 171.576V172.053C492.186 171.849 492.119 169.296 490.603 169.194V169.159Z" fill="#868EAE"/>
<path d="M491.917 171.747C491.917 171.747 492.018 168.989 490.469 168.853C490.065 168.853 489.728 168.989 489.425 169.228C489.762 168.853 490.166 168.649 490.637 168.683C492.186 168.785 492.22 171.576 492.22 171.576V175.048L491.95 175.185V171.747H491.917Z" fill="#A0A7C3"/>
<path d="M488.313 177.159L492.186 175.049V174.674L488.313 176.785V177.159Z" fill="#A0A7C3"/>
<path d="M489.997 168.887V175.899L490.233 175.729V168.785L489.997 168.887Z" fill="#A0A7C3"/>
<path d="M491.917 171.576L488.313 173.312V173.721L491.917 171.917V171.576Z" fill="#A0A7C3"/>
<path d="M497.776 172.053V168.581C497.776 168.581 497.776 165.824 496.194 165.688C494.645 165.585 493.87 168.172 493.904 169.943C493.904 171.747 493.904 174.13 493.904 174.13L497.776 172.019V172.053Z" fill="white"/>
<path d="M496.194 166.198C494.712 166.096 493.937 168.445 493.904 170.215C493.904 170.147 493.904 170.045 493.904 169.977C493.904 168.172 494.645 165.619 496.194 165.721C497.743 165.824 497.776 168.615 497.776 168.615V169.092C497.776 168.887 497.709 166.334 496.194 166.232V166.198Z" fill="#868EAE"/>
<path d="M497.473 168.751C497.473 168.751 497.574 165.994 496.025 165.858C495.621 165.858 495.284 165.994 494.981 166.232C495.318 165.858 495.722 165.653 496.193 165.688C497.742 165.79 497.776 168.581 497.776 168.581V172.053L497.507 172.189V168.751H497.473Z" fill="#A0A7C3"/>
<path d="M493.87 174.164L497.776 172.053V171.679L493.87 173.823V174.164Z" fill="#A0A7C3"/>
<path d="M495.587 165.926V172.938L495.823 172.768V165.823L495.587 165.926Z" fill="#A0A7C3"/>
<path d="M497.473 168.581L493.87 170.351V170.725L497.473 168.955V168.581Z" fill="#A0A7C3"/>
<path d="M491.176 161.875C491.176 163.236 490.536 164.326 489.728 164.326C488.92 164.326 488.28 163.236 488.28 161.875C488.28 160.513 488.92 159.424 489.728 159.424C490.536 159.424 491.176 160.513 491.176 161.875Z" fill="white"/>
<path d="M488.414 162.147C488.414 160.785 489.054 159.696 489.862 159.696C490.671 159.696 490.57 159.934 490.839 160.343C490.57 159.798 490.166 159.424 489.694 159.424C488.886 159.424 488.246 160.513 488.246 161.875C488.246 163.236 488.448 163.236 488.718 163.713C488.515 163.304 488.381 162.76 488.381 162.181L488.414 162.147Z" fill="#868EAE"/>
<path d="M488.246 161.875C488.246 160.615 488.852 159.628 489.593 159.628C490.334 159.628 490.94 160.649 490.94 161.875C490.94 163.1 490.334 164.121 489.593 164.121C488.852 164.121 488.246 162.828 488.246 161.875C488.246 163.236 488.886 164.326 489.694 164.326C490.502 164.326 491.142 163.236 491.142 161.875C491.142 160.513 490.502 159.424 489.694 159.424C488.886 159.424 488.246 160.513 488.246 161.875Z" fill="#A0A7C3"/>
<path d="M489.896 159.594H489.728V164.155H489.896V159.594Z" fill="#A0A7C3"/>
<path d="M488.28 162.351L490.974 161.5V161.262L488.246 162.181L488.28 162.351Z" fill="#A0A7C3"/>
<circle cx="472" cy="168" r="37" fill="url(#paint13_linear_1651_114824)"/>
<circle opacity="0.12" cx="473" cy="169" r="72" stroke="#61CD81" stroke-width="2"/>
<circle cx="473" cy="169" r="45" stroke="#61CD81" stroke-width="2"/>
<circle opacity="0.3" cx="473" cy="169" r="57" stroke="#61CD81" stroke-width="2"/>
<path d="M70.4537 89.653L76.5143 91.2769L76.2938 92.0997C88.2083 98.9552 94.0977 115.66 89.5698 132.558C85.0419 149.457 71.6536 160.996 57.843 160.959L57.6226 161.782L51.562 160.158C35.766 155.925 27.2228 136.745 32.446 117.252C37.6692 97.759 54.6576 85.4205 70.4537 89.653Z" fill="#53B06F"/>
<path style="mix-blend-mode:multiply" d="M70.4537 89.653L76.5143 91.2769L76.2938 92.0997C88.2083 98.9552 94.0977 115.66 89.5698 132.558C85.0419 149.457 71.6536 160.996 57.843 160.959L57.6226 161.782L51.562 160.158C35.766 155.925 27.2228 136.745 32.446 117.252C37.6692 97.759 54.6576 85.4205 70.4537 89.653Z" fill="url(#paint14_linear_1651_114824)"/>
<path d="M57.6221 161.782C41.8478 157.555 33.2892 138.346 38.506 118.876C43.7228 99.4069 60.7395 87.0503 76.5138 91.277C92.2881 95.5037 100.847 114.713 95.6299 134.182C90.4131 153.652 73.3964 166.008 57.6221 161.782Z" fill="url(#paint15_linear_1651_114824)"/>
<path d="M58.4531 158.681C44.6373 154.979 37.2943 137.583 42.0522 119.827C46.81 102.07 61.867 90.6766 75.6829 94.3786C89.4987 98.0805 96.8417 115.476 92.0839 133.233C87.326 150.989 72.269 162.383 58.4531 158.681Z" fill="#54B270"/>
<path style="mix-blend-mode:multiply" d="M58.4531 158.681C44.6373 154.979 37.2943 137.583 42.0522 119.827C46.81 102.07 61.867 90.6766 75.6829 94.3786C89.4987 98.0805 96.8417 115.476 92.0839 133.233C87.326 150.989 72.269 162.383 58.4531 158.681Z" fill="url(#paint16_linear_1651_114824)"/>
<path style="mix-blend-mode:multiply" d="M90.5359 132.818C95.1994 115.413 88.231 98.3512 74.8916 94.2342C75.1495 94.3033 75.4074 94.3724 75.6653 94.4416C89.5272 98.1558 96.8316 115.511 92.0663 133.296C87.301 151.08 72.233 162.441 58.4356 158.744C44.6382 155.047 57.9198 158.606 57.6619 158.537C71.2726 161.641 85.8384 150.349 90.5019 132.944L90.5359 132.818Z" fill="url(#paint17_radial_1651_114824)"/>
<g filter="url(#filter2_d_1651_114824)">
<path d="M60.2252 124.355C59.8567 124.84 59.3483 125.086 58.709 125.082L58.6178 125.536L58.1018 125.539L58.2033 125.034C57.5332 124.911 57.1171 124.541 56.9705 123.931C56.4602 121.814 59.6542 117.488 59.789 117.306L60.1079 116.877L60.2234 117.369C60.7615 119.662 61.3408 122.883 60.2252 124.355Z" fill="#24BC48"/>
<path d="M63.1366 125.577C62.9129 125.871 62.6089 126.028 62.23 126.035L62.0432 126.964L61.7353 126.966L61.8368 126.461C61.8031 126.455 61.7694 126.449 61.7365 126.439L61.8254 125.997C61.4318 125.912 61.1869 125.683 61.097 125.312C60.7895 124.03 62.5957 121.554 62.8016 121.274L63.0583 120.932L63.15 121.328C63.4727 122.715 63.8249 124.668 63.1366 125.577Z" fill="#239942"/>
<path d="M77.4467 129.359C77.4161 129.461 77.3819 129.565 77.3481 129.668C77.2215 130.049 77.0807 130.427 76.9256 130.793C76.88 130.904 76.8333 131.012 76.7836 131.119C76.7445 131.214 76.7012 131.305 76.6572 131.4C76.4395 131.871 76.1998 132.327 75.943 132.769L75.3997 132.693L74.2426 132.528L72.9365 132.344L68.6548 131.737L67.3474 131.55L66.4566 131.424L65.161 130.072L64.7784 129.668L64.582 129.462L63.6144 128.405L63.8118 128.192L66.1681 125.675L67.5163 124.096L69.4701 122.589L70.5744 122.223L70.9284 122.514L71.795 124.354L72.1552 125.639L72.4116 126.414L73.2107 125.515L74.2112 124.64L74.864 124.469L75.4193 124.783L75.9321 126.334L76.695 127.666L77.1295 128.646L77.4467 129.359Z" fill="#0B6C96"/>
<path d="M65.8656 129.647L60.4886 137.662L60.1442 138.176C59.9629 138.052 59.7856 137.925 59.6156 137.787C59.5161 137.711 59.4162 137.629 59.3216 137.546C59.2792 137.509 59.2364 137.474 59.1972 137.437C56.6644 135.193 55.2219 131.512 55.4357 127.382L55.4805 126.77C55.6409 126.741 55.816 126.714 56.0008 126.687C56.5548 126.611 57.2003 126.551 57.9032 126.544L57.9921 126.102L58.4978 126.15L58.4184 126.545C59.4322 126.571 60.5336 126.715 61.6101 127.075L61.7359 126.449L62.1406 126.487L61.9943 127.215C62.5652 127.434 63.1251 127.717 63.6556 128.08C63.8053 127.89 64.0286 127.606 64.3108 127.261L64.6081 127.716C64.4081 127.959 64.2278 128.186 64.0696 128.385C64.4516 128.685 64.8144 129.03 65.1539 129.425C65.2889 129.341 65.4251 129.259 65.5621 129.181L65.8656 129.647Z" fill="#239942"/>
<path d="M76.7849 131.118C76.7458 131.213 76.7025 131.304 76.6585 131.399C76.2755 132.229 75.8286 133.013 75.3294 133.743C75.2647 133.841 75.1971 133.938 75.126 134.035C75.0761 134.109 75.0222 134.179 74.9695 134.251C74.4591 134.946 73.8961 135.588 73.2974 136.168C73.1567 136.305 73.0115 136.44 72.8658 136.569C70.4638 138.718 67.5057 139.92 64.5398 139.697C64.4035 139.689 64.2683 139.675 64.1335 139.659C64.1011 139.655 64.067 139.651 64.0349 139.645C63.3131 139.556 62.624 139.378 61.9722 139.131C61.8721 139.091 61.7733 139.053 61.6769 139.012C61.6188 138.987 61.5594 138.96 61.5016 138.933C60.8263 138.629 60.1939 138.244 59.6163 137.785C59.5168 137.709 59.4169 137.627 59.3223 137.544L59.5427 136.927L60.0924 135.392L61.5385 133.326L62.3864 132.185L64.4382 130.191L64.8486 129.985L65.3901 129.715L66.0444 129.388L67.4476 128.561L69.3589 128.29L70.8171 128.215L73.3875 128.767L75.2563 129.733L76.3181 130.604L76.4161 130.712L76.7849 131.118Z" fill="#24BC48"/>
<path d="M75.1252 134.035C75.0753 134.109 75.0214 134.179 74.9687 134.251C74.4584 134.945 73.8953 135.587 73.2966 136.167C73.1559 136.305 73.0107 136.44 72.8651 136.569C70.463 138.718 67.5049 139.919 64.539 139.697C64.4027 139.688 64.2675 139.674 64.1327 139.659C64.1003 139.655 64.0662 139.651 64.0341 139.645C63.3123 139.555 62.6232 139.378 61.9714 139.13C61.8714 139.09 61.7726 139.053 61.6762 139.011L61.9238 138.59L61.9749 138.46L62.7654 136.455L64.059 134.123L66.0128 132.616L67.1659 132.007L68.9246 131.471L70.8359 131.2L72.1966 131.609L73.7115 132.285L74.5231 133.375L74.7751 133.651L75.1252 134.035Z" fill="#239942"/>
<path d="M64.4442 139.384L64.987 137.71L66.3859 135.887L68.2894 134.623L70.402 134.376L71.8665 135.294L72.576 135.875L72.9299 136.165L71.4272 137.479L69.121 138.696L66.7095 139.404L65.0483 139.456L64.4442 139.384Z" fill="#24BC48"/>
<path d="M76.0781 117.065C76.0769 117.063 76.0757 117.061 76.0765 117.057C75.9577 116.887 75.8354 116.718 75.7086 116.555L75.707 116.554C75.7021 116.546 75.689 116.528 75.6693 116.502C75.6505 116.48 75.6334 116.458 75.615 116.433C75.5725 116.396 75.5277 116.363 75.4809 116.331C75.3142 116.218 75.1247 116.135 74.918 116.097C74.8794 116.09 74.8424 116.084 74.8035 116.079C74.6979 116.067 74.5953 116.064 74.4903 116.074C74.7605 116.342 75.0122 116.628 75.251 116.929C75.408 117.058 75.5332 117.229 75.6208 117.429C75.6671 117.497 75.7121 117.562 75.7547 117.631C75.9259 117.888 76.085 118.155 76.2356 118.431C77.5843 120.934 78.0756 124.162 77.3916 127.564C77.3475 127.783 77.3006 127.999 77.2452 128.217L77.2448 128.219C77.2092 128.363 77.172 128.507 77.1335 128.648C77.0974 128.778 77.0613 128.908 77.0224 129.036C76.8817 129.496 76.7267 129.944 76.5485 130.384C76.5062 130.495 76.4595 130.603 76.4127 130.712C76.3743 130.803 76.3323 130.897 76.2911 130.986C76.0275 131.577 75.7264 132.149 75.398 132.69C75.272 132.904 75.1403 133.113 75.0016 133.314C74.9256 133.428 74.8481 133.541 74.7717 133.648C74.7319 133.705 74.6904 133.762 74.649 133.819C74.1419 134.514 73.5857 135.155 72.9878 135.731C72.8471 135.869 72.7003 136.004 72.5526 136.135C70.2763 138.154 67.4853 139.286 64.6806 139.088C64.5374 139.081 64.3957 139.066 64.2528 139.049C64.2269 139.046 64.2009 139.043 64.1753 139.038C63.4551 138.949 62.7709 138.772 62.1255 138.517C62.0759 138.499 62.0239 138.477 61.9747 138.457C61.8689 138.413 61.7632 138.368 61.6602 138.318C61.2514 138.127 60.8602 137.907 60.4882 137.656C60.2564 137.503 60.0311 137.334 59.8158 137.156C59.7228 137.081 59.6323 137.002 59.5433 136.924C59.4964 136.884 59.4499 136.843 59.405 136.801C57.0679 134.642 55.7456 131.174 55.9573 127.294C55.9665 127.09 55.9835 126.89 56.0013 126.686C55.8165 126.712 55.6414 126.74 55.481 126.769L55.4362 127.38C55.2228 131.508 56.6653 135.189 59.1977 137.436C59.2385 137.472 59.2797 137.507 59.3221 137.544C59.4167 137.628 59.515 137.709 59.6161 137.785C59.7865 137.922 59.9634 138.051 60.1447 138.174C60.5732 138.465 61.0271 138.721 61.5014 138.934C61.5592 138.961 61.6186 138.988 61.6768 139.013C61.7732 139.054 61.8732 139.094 61.972 139.132C62.6234 139.381 63.3113 139.557 64.0347 139.646C64.0668 139.652 64.1009 139.656 64.1334 139.66C64.2681 139.676 64.4033 139.69 64.5397 139.698C67.5059 139.919 70.464 138.717 72.8657 136.57C73.0113 136.441 73.1565 136.306 73.2972 136.169C73.8959 135.589 74.459 134.946 74.9694 134.252C75.0233 134.182 75.076 134.11 75.1258 134.036C75.1966 133.94 75.2641 133.844 75.3292 133.744C75.5455 133.429 75.7507 133.103 75.9445 132.767C76.203 132.325 76.4411 131.869 76.6588 131.398C76.7028 131.303 76.746 131.212 76.7852 131.116C76.8348 131.01 76.8816 130.902 76.9271 130.791C77.0806 130.425 77.2226 130.049 77.3496 129.665C77.3851 129.563 77.4177 129.459 77.4483 129.357C77.4996 129.2 77.5457 129.046 77.5909 128.887C77.7096 128.47 77.8104 128.052 77.8969 127.621C78.7076 123.59 77.9422 119.791 76.0781 117.065Z" fill="#131414"/>
<path d="M75.7296 117.874C75.7428 117.792 75.7525 117.711 75.7552 117.631C75.7832 117.244 75.7233 116.88 75.5936 116.567C75.5874 116.548 75.5783 116.527 75.5701 116.51C75.5688 116.508 75.5676 116.506 75.5684 116.502C75.5401 116.444 75.5137 116.385 75.4809 116.333C75.385 116.166 75.2664 116.019 75.1277 115.899C75.1265 115.897 75.1249 115.896 75.1249 115.896C75.1232 115.888 75.1155 115.885 75.1098 115.881C74.8842 115.688 74.6088 115.561 74.2987 115.524C74.1931 115.512 74.0905 115.51 73.9855 115.519C73.0688 115.589 72.2068 116.436 71.9834 117.547C71.7344 118.785 72.3681 119.892 73.396 120.013C74.4238 120.135 75.4626 119.227 75.7116 117.989C75.7162 117.949 75.7237 117.912 75.7296 117.874ZM73.5171 119.403C72.7669 119.314 72.3059 118.507 72.4872 117.605C72.6689 116.701 73.4269 116.04 74.1755 116.129C74.3931 116.154 74.5871 116.239 74.7449 116.372C74.9019 116.501 75.0271 116.672 75.1148 116.873C75.2437 117.174 75.2829 117.541 75.2054 117.927C75.0241 118.828 74.2656 119.491 73.5171 119.403Z" fill="#131414"/>
<path d="M65.4986 129.86C65.3317 129.963 65.1657 130.069 65.0001 130.182C64.8868 130.034 64.7687 129.894 64.6494 129.76C62.8581 127.763 60.3833 127.198 58.2932 127.151C58.1191 127.148 57.9447 127.148 57.778 127.15C57.1039 127.162 56.4836 127.221 55.9547 127.297C55.7695 127.325 55.5941 127.354 55.434 127.381L55.4789 126.77C55.6393 126.741 55.8144 126.713 55.9992 126.687C56.5532 126.611 57.1986 126.551 57.9016 126.544C58.0687 126.54 58.2431 126.54 58.4167 126.545C59.4306 126.571 60.532 126.715 61.6084 127.075C61.6787 127.097 61.7467 127.123 61.8162 127.149C61.8751 127.17 61.9337 127.193 61.9926 127.214C62.5635 127.434 63.1235 127.717 63.6539 128.08C63.7941 128.177 63.9334 128.277 64.0696 128.385C64.4516 128.685 64.8144 129.03 65.1539 129.425C65.2704 129.565 65.3861 129.709 65.4986 129.86Z" fill="#131414"/>
<path d="M77.5906 128.889C77.547 129.048 77.5005 129.205 77.4479 129.359C77.4173 129.461 77.3831 129.565 77.3492 129.667C77.2626 129.495 77.1509 129.281 77.024 129.036C76.4056 127.837 75.4415 125.935 75.0641 125.059C74.9702 124.84 74.8672 124.724 74.7584 124.711C74.6334 124.696 74.4641 124.802 74.2725 124.97C74.0833 125.133 73.8717 125.359 73.6642 125.58C73.4253 125.835 73.1807 126.1 72.9233 126.322C72.8285 126.405 72.5397 126.659 72.2564 126.571C71.9243 126.47 71.8209 126.017 71.6653 125.336C71.5118 124.661 71.2995 123.741 70.786 122.839C70.6847 122.665 70.543 122.584 70.3378 122.587C69.0561 122.612 66.2265 125.737 64.607 127.715C64.407 127.957 64.2267 128.184 64.0685 128.384C63.9945 128.479 63.9228 128.571 63.8593 128.655L63.6168 128.406L63.4971 128.282C63.5313 128.236 63.5832 128.168 63.6524 128.08C63.8021 127.89 64.0255 127.606 64.3077 127.261C65.7866 125.453 68.8085 122.008 70.4017 121.98C70.7606 121.973 71.0464 122.139 71.2253 122.456C71.7831 123.427 72.0038 124.397 72.1668 125.107C72.2486 125.461 72.3592 125.953 72.451 125.984C72.451 125.984 72.5018 125.988 72.6547 125.855C72.885 125.652 73.1199 125.402 73.3448 125.16C73.879 124.587 74.3831 124.047 74.8767 124.106L74.8784 124.106C75.1463 124.138 75.3683 124.348 75.5325 124.73C75.8524 125.479 76.6391 127.04 77.2448 128.219L77.2444 128.221C77.3705 128.462 77.4879 128.688 77.5906 128.889Z" fill="#131414"/>
<path d="M65.7396 128.396L65.3751 128.026C65.468 127.903 67.6803 124.995 68.8799 124.362L69.0351 124.913C68.1367 125.387 66.3527 127.587 65.7396 128.396Z" fill="#131414"/>
<path d="M69.6877 116.717L69.5635 117.323L71.5764 117.573L71.7006 116.967L69.6877 116.717Z" fill="#131414"/>
<path d="M71.5734 118.305L69.5059 118.824L69.5445 119.419L71.612 118.9L71.5734 118.305Z" fill="#131414"/>
<path d="M70.625 114.523L70.2744 115.025L71.8005 116.41L72.1511 115.908L70.625 114.523Z" fill="#131414"/>
<path d="M72.2536 113.19L71.7861 113.526L72.6787 115.56L73.1462 115.223L72.2536 113.19Z" fill="#131414"/>
<path d="M74.3811 112.582L73.8657 112.606L73.6591 115.043L74.1745 115.019L74.3811 112.582Z" fill="#131414"/>
<path d="M75.6914 112.729L74.7197 115.021L75.1773 115.229L76.149 112.936L75.6914 112.729Z" fill="#131414"/>
<path d="M77.117 113.736L75.5352 115.556L75.87 115.962L77.4518 114.141L77.117 113.736Z" fill="#131414"/>
<path d="M75.0048 133.317C74.7713 133.031 74.517 132.767 74.2441 132.528C73.3136 131.707 72.17 131.17 70.8726 131.016C69.6759 130.874 68.4768 131.075 67.3505 131.55C64.7786 132.634 62.5825 135.155 61.6618 138.32C61.603 138.522 61.5483 138.728 61.5022 138.932C61.5599 138.959 61.6193 138.986 61.6775 139.011C61.7739 139.053 61.8739 139.093 61.9727 139.13C62.0173 138.925 62.0699 138.721 62.1271 138.52C63.1104 135.044 65.7369 132.391 68.6578 131.737C69.3457 131.582 70.0492 131.539 70.7523 131.622C71.5496 131.717 72.2841 131.966 72.9396 132.344C73.5938 132.72 74.1697 133.22 74.6542 133.821C74.7646 133.958 74.8718 134.103 74.9717 134.251C75.0256 134.181 75.0783 134.109 75.1281 134.035C75.1989 133.939 75.2665 133.843 75.3315 133.743C75.2264 133.596 75.1168 133.455 75.0048 133.317Z" fill="#131414"/>
<path d="M72.9904 135.736C72.3084 134.878 71.3596 134.305 70.2376 134.172C67.6412 133.865 65.0213 136.014 64.1763 139.042C64.1235 139.222 64.0804 139.403 64.0434 139.587C64.0395 139.607 64.0356 139.626 64.0333 139.646C64.0654 139.652 64.0995 139.656 64.1319 139.659C64.2667 139.675 64.4019 139.689 64.5382 139.698C64.5401 139.68 64.5433 139.664 64.5468 139.647C64.585 139.457 64.6305 139.272 64.6816 139.092C65.4614 136.405 67.8002 134.505 70.1157 134.779C71.1062 134.896 71.9437 135.393 72.5536 136.139C72.6644 136.274 72.77 136.418 72.8642 136.57C73.0099 136.441 73.155 136.306 73.2958 136.168C73.2015 136.017 73.0976 135.872 72.9904 135.736Z" fill="#131414"/>
<path d="M76.5505 130.385C75.2166 129.008 73.4959 128.099 71.5051 127.864C69.4624 127.622 67.4101 128.122 65.5594 129.183C65.4223 129.26 65.2858 129.344 65.1512 129.427C65.0256 129.506 64.8995 129.587 64.7779 129.671C64.7355 129.7 64.6911 129.731 64.6487 129.76C62.3567 131.361 60.4601 133.84 59.4014 136.806C59.3281 137.014 59.2592 137.224 59.1945 137.439C59.2353 137.476 59.2764 137.51 59.3189 137.548C59.4135 137.631 59.5118 137.713 59.6129 137.789C59.6732 137.579 59.7404 137.369 59.8134 137.163C60.8218 134.199 62.7124 131.733 64.9994 130.182C65.0547 130.146 65.1068 130.11 65.1606 130.075C65.2717 130.002 65.3844 129.929 65.4963 129.86C65.6188 129.788 65.74 129.715 65.8633 129.647C67.5881 128.692 69.4882 128.246 71.3815 128.47C73.3317 128.701 75.0091 129.61 76.2911 130.989C76.4177 131.121 76.5378 131.259 76.6551 131.403C76.6991 131.308 76.7424 131.217 76.7815 131.122C76.8312 131.015 76.8779 130.907 76.9235 130.796C76.8025 130.653 76.6804 130.517 76.5505 130.385Z" fill="#131414"/>
<path d="M59.1582 122.858L58.2956 127.148C58.1215 127.145 57.9471 127.145 57.7804 127.147L58.6548 122.799L59.1582 122.858Z" fill="#131414"/>
<path d="M60.226 117.373L60.1106 116.881L59.7916 117.31C59.6552 117.492 56.4612 121.818 56.9731 123.935C57.1185 124.543 57.5362 124.913 58.2059 125.038C58.2331 125.043 58.262 125.049 58.2912 125.052C58.3249 125.058 58.3574 125.062 58.3898 125.066C58.5003 125.079 58.6082 125.088 58.712 125.084C59.3513 125.087 59.8597 124.841 60.2282 124.356C61.3405 122.884 60.7613 119.663 60.226 117.373ZM59.8604 123.986C59.619 124.302 59.2817 124.466 58.8315 124.473C58.7046 124.476 58.5686 124.466 58.4232 124.445C58.3891 124.441 58.3571 124.435 58.325 124.429C57.8473 124.333 57.568 124.093 57.4718 123.695C57.1494 122.364 58.8524 119.541 59.8385 118.118C60.5026 121.156 60.5097 123.13 59.8604 123.986Z" fill="#131414"/>
<path d="M62.5077 124.647L62.105 124.6L61.5488 127.365L61.9515 127.413L62.5077 124.647Z" fill="#131414"/>
<path d="M63.1477 121.328L63.056 120.932L62.7993 121.274C62.5922 121.552 60.7872 124.03 61.0947 125.312C61.1846 125.683 61.4294 125.912 61.823 125.997C61.8539 126.009 61.8877 126.015 61.9218 126.019L61.9818 126.026C62.0663 126.036 62.1482 126.041 62.2277 126.035C62.6065 126.028 62.9106 125.871 63.1343 125.577C63.8242 124.668 63.472 122.716 63.1477 121.328ZM62.8412 125.282C62.7176 125.442 62.5495 125.534 62.3253 125.55C62.2357 125.557 62.137 125.552 62.029 125.535C61.9905 125.528 61.9535 125.522 61.9202 125.514C61.6845 125.454 61.5462 125.323 61.4955 125.121C61.3131 124.375 62.2455 122.797 62.8391 121.928C63.2107 123.668 63.2121 124.794 62.8412 125.282Z" fill="#131414"/>
<path d="M75.7085 116.555C75.7085 116.555 75.3035 116.014 75.1336 115.9C74.9654 115.786 74.8678 116.271 74.8678 116.271L75.4231 116.585L75.7085 116.555Z" fill="#131414"/>
<path d="M73.4797 119.585C74.3137 119.684 75.1536 118.95 75.3556 117.945C75.5576 116.94 75.0453 116.046 74.2113 115.947C73.3773 115.849 72.5374 116.583 72.3354 117.588C72.1333 118.592 72.6457 119.487 73.4797 119.585Z" fill="#E07103"/>
</g>
<defs>
<filter id="filter0_d_1651_114824" x="416.57" y="18.6489" width="72.7969" height="78.4888" filterUnits="userSpaceOnUse" color-interpolation-filters="sRGB">
<feFlood flood-opacity="0" result="BackgroundImageFix"/>
<feColorMatrix in="SourceAlpha" type="matrix" values="0 0 0 0 0 0 0 0 0 0 0 0 0 0 0 0 0 0 127 0" result="hardAlpha"/>
<feOffset dy="4"/>
<feGaussianBlur stdDeviation="10"/>
<feComposite in2="hardAlpha" operator="out"/>
<feColorMatrix type="matrix" values="0 0 0 0 1 0 0 0 0 1 0 0 0 0 1 0 0 0 0.25 0"/>
<feBlend mode="normal" in2="BackgroundImageFix" result="effect1_dropShadow_1651_114824"/>
<feBlend mode="normal" in="SourceGraphic" in2="effect1_dropShadow_1651_114824" result="shape"/>
</filter>
<filter id="filter1_d_1651_114824" x="148.326" y="257.952" width="85.5835" height="91.0112" filterUnits="userSpaceOnUse" color-interpolation-filters="sRGB">
<feFlood flood-opacity="0" result="BackgroundImageFix"/>
<feColorMatrix in="SourceAlpha" type="matrix" values="0 0 0 0 0 0 0 0 0 0 0 0 0 0 0 0 0 0 127 0" result="hardAlpha"/>
<feOffset dy="4"/>
<feGaussianBlur stdDeviation="10"/>
<feComposite in2="hardAlpha" operator="out"/>
<feColorMatrix type="matrix" values="0 0 0 0 1 0 0 0 0 1 0 0 0 0 1 0 0 0 0.25 0"/>
<feBlend mode="normal" in2="BackgroundImageFix" result="effect1_dropShadow_1651_114824"/>
<feBlend mode="normal" in="SourceGraphic" in2="effect1_dropShadow_1651_114824" result="shape"/>
</filter>
<filter id="filter2_d_1651_114824" x="30.2959" y="92" width="73.5352" height="75.7141" filterUnits="userSpaceOnUse" color-interpolation-filters="sRGB">
<feFlood flood-opacity="0" result="BackgroundImageFix"/>
<feColorMatrix in="SourceAlpha" type="matrix" values="0 0 0 0 0 0 0 0 0 0 0 0 0 0 0 0 0 0 127 0" result="hardAlpha"/>
<feOffset dy="4"/>
<feGaussianBlur stdDeviation="10"/>
<feComposite in2="hardAlpha" operator="out"/>
<feColorMatrix type="matrix" values="0 0 0 0 1 0 0 0 0 1 0 0 0 0 1 0 0 0 0.25 0"/>
<feBlend mode="normal" in2="BackgroundImageFix" result="effect1_dropShadow_1651_114824"/>
<feBlend mode="normal" in="SourceGraphic" in2="effect1_dropShadow_1651_114824" result="shape"/>
</filter>
<linearGradient id="paint0_linear_1651_114824" x1="449.018" y1="37.4789" x2="485.762" y2="101.122" gradientUnits="userSpaceOnUse">
<stop stop-color="#FEFEFE"/>
<stop offset="1" stop-color="#61CD81"/>
</linearGradient>
<linearGradient id="paint1_linear_1651_114824" x1="423.699" y1="43.5663" x2="492.938" y2="76.4649" gradientUnits="userSpaceOnUse">
<stop stop-color="#5FC97F"/>
<stop offset="0.169649" stop-color="#5FC97F"/>
<stop offset="0.169749" stop-color="#CCEBD5"/>
<stop offset="0.322436" stop-color="#9BDCAF"/>
<stop offset="0.322536" stop-color="#5FC97F"/>
<stop offset="0.541567" stop-color="#5FC97F"/>
</linearGradient>
<linearGradient id="paint2_linear_1651_114824" x1="445.232" y1="41.3852" x2="478.744" y2="99.4294" gradientUnits="userSpaceOnUse">
<stop stop-color="#FEFEFE"/>
<stop offset="1" stop-color="#61CD81"/>
</linearGradient>
<radialGradient id="paint3_radial_1651_114824" cx="0" cy="0" r="1" gradientUnits="userSpaceOnUse" gradientTransform="translate(403.858 -9.34973) rotate(-30) scale(21.485 27.4175)">
<stop stop-color="white" stop-opacity="0"/>
<stop offset="1" stop-color="#54B370"/>
</radialGradient>
<linearGradient id="paint4_linear_1651_114824" x1="173.776" y1="283.411" x2="224.346" y2="371.001" gradientUnits="userSpaceOnUse">
<stop stop-color="#FEFEFE"/>
<stop offset="1" stop-color="#61CD81"/>
</linearGradient>
<linearGradient id="paint5_linear_1651_114824" x1="198.455" y1="257.423" x2="190.02" y2="362.587" gradientUnits="userSpaceOnUse">
<stop stop-color="#5FC97F"/>
<stop offset="0.169649" stop-color="#5FC97F"/>
<stop offset="0.169749" stop-color="#CCEBD5"/>
<stop offset="0.322436" stop-color="#9BDCAF"/>
<stop offset="0.322536" stop-color="#5FC97F"/>
<stop offset="0.541567" stop-color="#5FC97F"/>
</linearGradient>
<linearGradient id="paint6_linear_1651_114824" x1="181.038" y1="281.587" x2="227.159" y2="361.472" gradientUnits="userSpaceOnUse">
<stop stop-color="#FEFEFE"/>
<stop offset="1" stop-color="#61CD81"/>
</linearGradient>
<radialGradient id="paint7_radial_1651_114824" cx="0" cy="0" r="1" gradientUnits="userSpaceOnUse" gradientTransform="translate(149.038 197.361) rotate(150) scale(29.5693 37.7341)">
<stop stop-color="white" stop-opacity="0"/>
<stop offset="1" stop-color="#54B370"/>
</radialGradient>
<linearGradient id="paint8_linear_1651_114824" x1="208.715" y1="83.7391" x2="329.253" y2="207.326" gradientUnits="userSpaceOnUse">
<stop stop-color="#DDDDE8"/>
<stop offset="0.677422" stop-color="white" stop-opacity="0"/>
</linearGradient>
<linearGradient id="paint9_linear_1651_114824" x1="339.978" y1="92.9652" x2="185.517" y2="198.874" gradientUnits="userSpaceOnUse">
<stop stop-color="white"/>
<stop offset="0.509508" stop-color="white" stop-opacity="0"/>
</linearGradient>
<linearGradient id="paint10_linear_1651_114824" x1="64.3495" y1="209.88" x2="119.603" y2="266.196" gradientUnits="userSpaceOnUse">
<stop stop-color="#DDDDE8"/>
<stop offset="0.677422" stop-color="white" stop-opacity="0"/>
</linearGradient>
<linearGradient id="paint11_linear_1651_114824" x1="121.422" y1="213.8" x2="54" y2="260.256" gradientUnits="userSpaceOnUse">
<stop stop-color="white"/>
<stop offset="0.509508" stop-color="white" stop-opacity="0"/>
</linearGradient>
<linearGradient id="paint12_linear_1651_114824" x1="445.349" y1="141.88" x2="500.603" y2="198.196" gradientUnits="userSpaceOnUse">
<stop stop-color="#DDDDE8"/>
<stop offset="0.677422" stop-color="white" stop-opacity="0"/>
</linearGradient>
<linearGradient id="paint13_linear_1651_114824" x1="502.422" y1="145.8" x2="435" y2="192.256" gradientUnits="userSpaceOnUse">
<stop stop-color="white"/>
<stop offset="0.509508" stop-color="white" stop-opacity="0"/>
</linearGradient>
<linearGradient id="paint14_linear_1651_114824" x1="66.265" y1="105.286" x2="43.4559" y2="190.41" gradientUnits="userSpaceOnUse">
<stop stop-color="#FEFEFE"/>
<stop offset="1" stop-color="#61CD81"/>
</linearGradient>
<linearGradient id="paint15_linear_1651_114824" x1="97.4822" y1="104.479" x2="27.491" y2="164.077" gradientUnits="userSpaceOnUse">
<stop stop-color="#5FC97F"/>
<stop offset="0.169649" stop-color="#5FC97F"/>
<stop offset="0.169749" stop-color="#CCEBD5"/>
<stop offset="0.322436" stop-color="#9BDCAF"/>
<stop offset="0.322536" stop-color="#5FC97F"/>
<stop offset="0.541567" stop-color="#5FC97F"/>
</linearGradient>
<linearGradient id="paint16_linear_1651_114824" x1="71.8626" y1="108.636" x2="51.0601" y2="186.272" gradientUnits="userSpaceOnUse">
<stop stop-color="#FEFEFE"/>
<stop offset="1" stop-color="#61CD81"/>
</linearGradient>
<radialGradient id="paint17_radial_1651_114824" cx="0" cy="0" r="1" gradientUnits="userSpaceOnUse" gradientTransform="translate(104.041 37.0263) rotate(-165) scale(25.7648 32.8791)">
<stop stop-color="white" stop-opacity="0"/>
<stop offset="1" stop-color="#54B370"/>
</radialGradient>
</defs>
</svg>
