<svg width="12" height="14" viewBox="0 0 12 14" fill="none" xmlns="http://www.w3.org/2000/svg">
<path fill-rule="evenodd" clip-rule="evenodd" d="M2.54671 0.21809C5.0627 -0.0739988 7.60405 -0.0739988 10.12 0.21809C11.118 0.33409 11.8334 1.19142 11.8334 2.17142V12.0001C11.8334 12.5305 11.6227 13.0392 11.2476 13.4143C10.8725 13.7894 10.3638 14.0001 9.83337 14.0001H2.83337C2.30294 14.0001 1.79423 13.7894 1.41916 13.4143C1.04409 13.0392 0.833374 12.5305 0.833374 12.0001V2.17142C0.833374 1.19142 1.54871 0.33409 2.54671 0.21809ZM3.33337 6.50009C3.33337 6.36748 3.38605 6.2403 3.47982 6.14654C3.57359 6.05277 3.70077 6.00009 3.83337 6.00009H3.83871C3.97132 6.00009 4.09849 6.05277 4.19226 6.14654C4.28603 6.2403 4.33871 6.36748 4.33871 6.50009V6.50542C4.33871 6.63803 4.28603 6.76521 4.19226 6.85898C4.09849 6.95274 3.97132 7.00542 3.83871 7.00542H3.83337C3.70077 7.00542 3.57359 6.95274 3.47982 6.85898C3.38605 6.76521 3.33337 6.63803 3.33337 6.50542V6.50009ZM3.83337 7.50009C3.70077 7.50009 3.57359 7.55277 3.47982 7.64654C3.38605 7.7403 3.33337 7.86748 3.33337 8.00009V8.00542C3.33337 8.28142 3.55737 8.50542 3.83337 8.50542H3.83871C3.97132 8.50542 4.09849 8.45274 4.19226 8.35898C4.28603 8.26521 4.33871 8.13803 4.33871 8.00542V8.00009C4.33871 7.86748 4.28603 7.7403 4.19226 7.64654C4.09849 7.55277 3.97132 7.50009 3.83871 7.50009H3.83337ZM3.33337 9.50009C3.33337 9.36748 3.38605 9.2403 3.47982 9.14654C3.57359 9.05277 3.70077 9.00009 3.83337 9.00009H3.83871C3.97132 9.00009 4.09849 9.05277 4.19226 9.14654C4.28603 9.2403 4.33871 9.36748 4.33871 9.50009V9.50542C4.33871 9.63803 4.28603 9.76521 4.19226 9.85898C4.09849 9.95274 3.97132 10.0054 3.83871 10.0054H3.83337C3.70077 10.0054 3.57359 9.95274 3.47982 9.85898C3.38605 9.76521 3.33337 9.63803 3.33337 9.50542V9.50009ZM3.83337 10.5001C3.70077 10.5001 3.57359 10.5528 3.47982 10.6465C3.38605 10.7403 3.33337 10.8675 3.33337 11.0001V11.0054C3.33337 11.2814 3.55737 11.5054 3.83337 11.5054H3.83871C3.97132 11.5054 4.09849 11.4527 4.19226 11.359C4.28603 11.2652 4.33871 11.138 4.33871 11.0054V11.0001C4.33871 10.8675 4.28603 10.7403 4.19226 10.6465C4.09849 10.5528 3.97132 10.5001 3.83871 10.5001H3.83337ZM4.99871 6.50009C4.99871 6.36748 5.05139 6.2403 5.14515 6.14654C5.23892 6.05277 5.3661 6.00009 5.49871 6.00009H5.50337C5.63598 6.00009 5.76316 6.05277 5.85693 6.14654C5.9507 6.2403 6.00337 6.36748 6.00337 6.50009V6.50542C6.00337 6.63803 5.9507 6.76521 5.85693 6.85898C5.76316 6.95274 5.63598 7.00542 5.50337 7.00542H5.49871C5.3661 7.00542 5.23892 6.95274 5.14515 6.85898C5.05139 6.76521 4.99871 6.63803 4.99871 6.50542V6.50009ZM5.49871 7.50009C5.3661 7.50009 5.23892 7.55277 5.14515 7.64654C5.05139 7.7403 4.99871 7.86748 4.99871 8.00009V8.00542C4.99871 8.28142 5.22204 8.50542 5.49871 8.50542H5.50337C5.63598 8.50542 5.76316 8.45274 5.85693 8.35898C5.9507 8.26521 6.00337 8.13803 6.00337 8.00542V8.00009C6.00337 7.86748 5.9507 7.7403 5.85693 7.64654C5.76316 7.55277 5.63598 7.50009 5.50337 7.50009H5.49871ZM4.99871 9.50009C4.99871 9.36748 5.05139 9.2403 5.14515 9.14654C5.23892 9.05277 5.3661 9.00009 5.49871 9.00009H5.50337C5.63598 9.00009 5.76316 9.05277 5.85693 9.14654C5.9507 9.2403 6.00337 9.36748 6.00337 9.50009V9.50542C6.00337 9.63803 5.9507 9.76521 5.85693 9.85898C5.76316 9.95274 5.63598 10.0054 5.50337 10.0054H5.49871C5.3661 10.0054 5.23892 9.95274 5.14515 9.85898C5.05139 9.76521 4.99871 9.63803 4.99871 9.50542V9.50009ZM5.49871 10.5001C5.3661 10.5001 5.23892 10.5528 5.14515 10.6465C5.05139 10.7403 4.99871 10.8675 4.99871 11.0001V11.0054C4.99871 11.2814 5.22204 11.5054 5.49871 11.5054H5.50337C5.63598 11.5054 5.76316 11.4527 5.85693 11.359C5.9507 11.2652 6.00337 11.138 6.00337 11.0054V11.0001C6.00337 10.8675 5.9507 10.7403 5.85693 10.6465C5.76316 10.5528 5.63598 10.5001 5.50337 10.5001H5.49871ZM6.66804 6.50009C6.66804 6.36748 6.72072 6.2403 6.81449 6.14654C6.90826 6.05277 7.03543 6.00009 7.16804 6.00009H7.17337C7.30598 6.00009 7.43316 6.05277 7.52693 6.14654C7.6207 6.2403 7.67337 6.36748 7.67337 6.50009V6.50542C7.67337 6.63803 7.6207 6.76521 7.52693 6.85898C7.43316 6.95274 7.30598 7.00542 7.17337 7.00542H7.16804C7.03543 7.00542 6.90826 6.95274 6.81449 6.85898C6.72072 6.76521 6.66804 6.63803 6.66804 6.50542V6.50009ZM7.16804 7.50009C7.03543 7.50009 6.90826 7.55277 6.81449 7.64654C6.72072 7.7403 6.66804 7.86748 6.66804 8.00009V8.00542C6.66804 8.28142 6.89204 8.50542 7.16804 8.50542H7.17337C7.30598 8.50542 7.43316 8.45274 7.52693 8.35898C7.6207 8.26521 7.67337 8.13803 7.67337 8.00542V8.00009C7.67337 7.86748 7.6207 7.7403 7.52693 7.64654C7.43316 7.55277 7.30598 7.50009 7.17337 7.50009H7.16804ZM6.66804 9.50009C6.66804 9.36748 6.72072 9.2403 6.81449 9.14654C6.90826 9.05277 7.03543 9.00009 7.16804 9.00009H7.17337C7.30598 9.00009 7.43316 9.05277 7.52693 9.14654C7.6207 9.2403 7.67337 9.36748 7.67337 9.50009V9.50542C7.67337 9.63803 7.6207 9.76521 7.52693 9.85898C7.43316 9.95274 7.30598 10.0054 7.17337 10.0054H7.16804C7.03543 10.0054 6.90826 9.95274 6.81449 9.85898C6.72072 9.76521 6.66804 9.63803 6.66804 9.50542V9.50009ZM7.16804 10.5001C7.03543 10.5001 6.90826 10.5528 6.81449 10.6465C6.72072 10.7403 6.66804 10.8675 6.66804 11.0001V11.0054C6.66804 11.2814 6.89204 11.5054 7.16804 11.5054H7.17337C7.30598 11.5054 7.43316 11.4527 7.52693 11.359C7.6207 11.2652 7.67337 11.138 7.67337 11.0054V11.0001C7.67337 10.8675 7.6207 10.7403 7.52693 10.6465C7.43316 10.5528 7.30598 10.5001 7.17337 10.5001H7.16804ZM8.33337 6.50009C8.33337 6.36748 8.38605 6.2403 8.47982 6.14654C8.57359 6.05277 8.70077 6.00009 8.83337 6.00009H8.83871C8.97132 6.00009 9.09849 6.05277 9.19226 6.14654C9.28603 6.2403 9.33871 6.36748 9.33871 6.50009V6.50542C9.33871 6.63803 9.28603 6.76521 9.19226 6.85898C9.09849 6.95274 8.97132 7.00542 8.83871 7.00542H8.83337C8.70077 7.00542 8.57359 6.95274 8.47982 6.85898C8.38605 6.76521 8.33337 6.63803 8.33337 6.50542V6.50009ZM8.83337 7.50009C8.70077 7.50009 8.57359 7.55277 8.47982 7.64654C8.38605 7.7403 8.33337 7.86748 8.33337 8.00009V8.00542C8.33337 8.28142 8.55737 8.50542 8.83337 8.50542H8.83871C8.97132 8.50542 9.09849 8.45274 9.19226 8.35898C9.28603 8.26521 9.33871 8.13803 9.33871 8.00542V8.00009C9.33871 7.86748 9.28603 7.7403 9.19226 7.64654C9.09849 7.55277 8.97132 7.50009 8.83871 7.50009H8.83337ZM3.33337 3.50009C3.33337 3.43443 3.34631 3.36941 3.37143 3.30875C3.39656 3.24809 3.43339 3.19297 3.47982 3.14654C3.52625 3.10011 3.58137 3.06328 3.64203 3.03815C3.7027 3.01302 3.76771 3.00009 3.83337 3.00009H8.83337C8.96598 3.00009 9.09316 3.05277 9.18693 3.14654C9.2807 3.2403 9.33337 3.36748 9.33337 3.50009V4.00009C9.33337 4.1327 9.2807 4.25987 9.18693 4.35364C9.09316 4.44741 8.96598 4.50009 8.83337 4.50009H3.83337C3.70077 4.50009 3.57359 4.44741 3.47982 4.35364C3.38605 4.25987 3.33337 4.1327 3.33337 4.00009V3.50009ZM9.33337 9.50009C9.33337 9.36748 9.2807 9.2403 9.18693 9.14654C9.09316 9.05277 8.96598 9.00009 8.83337 9.00009C8.70077 9.00009 8.57359 9.05277 8.47982 9.14654C8.38605 9.2403 8.33337 9.36748 8.33337 9.50009V11.0001C8.33337 11.1327 8.38605 11.2599 8.47982 11.3536C8.57359 11.4474 8.70077 11.5001 8.83337 11.5001C8.96598 11.5001 9.09316 11.4474 9.18693 11.3536C9.2807 11.2599 9.33337 11.1327 9.33337 11.0001V9.50009Z" fill="#61CD81"/>
</svg>
