<svg width="20" height="20" viewBox="0 0 20 20" fill="none" xmlns="http://www.w3.org/2000/svg">
<g clip-path="url(#clip0_491_24353)">
<path d="M15.5402 11.5952C15.4215 11.677 15.283 11.7253 15.1392 11.7349C14.9953 11.7446 14.8516 11.7153 14.723 11.6501C14.4212 11.4796 14.2586 11.0798 14.2586 10.535V8.8653C14.2586 8.06376 13.9411 7.49347 13.41 7.33865C12.5124 7.07604 11.8422 8.17546 11.5835 8.58897L9.99608 11.1582V8.0226C9.97844 7.29945 9.74327 6.86634 9.29841 6.737C9.00444 6.65077 8.5635 6.68605 8.13431 7.34061L4.58518 13.0376C4.11296 12.1342 3.86811 11.1292 3.87183 10.1097C3.87183 6.67625 6.6155 3.88359 9.99608 3.88359C13.3767 3.88359 16.1301 6.67625 16.1301 10.1097V10.1274C16.1301 10.1274 16.1301 10.1391 16.1301 10.145C16.1634 10.8094 15.9479 11.3385 15.5422 11.5952H15.5402ZM17.5 10.1117V10.0784C17.4726 5.8943 14.1175 2.5 9.99608 2.5C5.87471 2.5 2.5 5.9139 2.5 10.1097C2.5 14.3056 5.86295 17.7215 9.99608 17.7215C11.8917 17.7214 13.7152 16.9948 15.0915 15.6911C15.225 15.5653 15.3037 15.3919 15.3103 15.2084C15.3169 15.025 15.2509 14.8464 15.1267 14.7113C15.0673 14.6455 14.9955 14.5922 14.9153 14.5543C14.8352 14.5165 14.7484 14.4948 14.6599 14.4906C14.5714 14.4864 14.4829 14.4998 14.3996 14.5299C14.3162 14.56 14.2397 14.6064 14.1743 14.6662C13.5818 15.2282 12.8818 15.6647 12.1164 15.9495C11.351 16.2343 10.5359 16.3615 9.72011 16.3234C8.90432 16.2853 8.10464 16.0828 7.36907 15.728C6.63351 15.3732 5.97723 14.8733 5.43964 14.2586L8.63405 9.12399V11.4933C8.63405 12.632 9.07499 13.0004 9.44539 13.1082C9.81578 13.216 10.3822 13.1415 10.976 12.1773L12.7397 9.32192C12.7946 9.22981 12.8475 9.15142 12.8946 9.08283V10.535C12.8946 11.5992 13.3218 12.4497 14.0704 12.8691C14.4108 13.0529 14.7944 13.1416 15.181 13.1261C15.5675 13.1106 15.9427 12.9914 16.2673 12.7809C17.0904 12.2459 17.5392 11.2778 17.4922 10.1117H17.5Z" fill="#2B6AFF"/>
</g>
<defs>
<clipPath id="clip0_491_24353">
<rect width="20" height="20" fill="white"/>
</clipPath>
</defs>
</svg>
