<svg width="25" height="24" viewBox="0 0 25 24" fill="none" xmlns="http://www.w3.org/2000/svg">
<path d="M21.7778 6.375C21.7778 9.067 17.7478 11.25 12.7778 11.25C7.80783 11.25 3.77783 9.067 3.77783 6.375C3.77783 3.683 7.80783 1.5 12.7778 1.5C17.7478 1.5 21.7778 3.683 21.7778 6.375Z" fill="#61CD81"/>
<path d="M12.7778 12.7501C15.4628 12.7501 17.9678 12.1641 19.8558 11.1411C20.5507 10.7722 21.1894 10.3062 21.7528 9.75708C21.7688 9.87808 21.7778 10.0011 21.7778 10.1251C21.7778 12.8171 17.7478 15.0001 12.7778 15.0001C7.80783 15.0001 3.77783 12.8171 3.77783 10.1251C3.77783 10.0011 3.78683 9.87808 3.80283 9.75708C4.36625 10.3061 5.005 10.7722 5.69983 11.1411C7.58683 12.1641 10.0928 12.7501 12.7778 12.7501Z" fill="#61CD81"/>
<path d="M12.7778 16.5001C15.4628 16.5001 17.9678 15.9141 19.8558 14.8911C20.5507 14.5222 21.1894 14.0562 21.7528 13.5071C21.7688 13.6281 21.7778 13.7511 21.7778 13.8751C21.7778 16.5671 17.7478 18.7501 12.7778 18.7501C7.80783 18.7501 3.77783 16.5671 3.77783 13.8751C3.77783 13.7511 3.78683 13.6281 3.80283 13.5071C4.36624 14.0561 5.00499 14.5222 5.69983 14.8911C7.58683 15.9141 10.0928 16.5001 12.7778 16.5001Z" fill="#61CD81"/>
<path d="M12.7778 20.2501C15.4628 20.2501 17.9678 19.6641 19.8558 18.6411C20.5507 18.2722 21.1894 17.8062 21.7528 17.2571C21.7688 17.3781 21.7778 17.5011 21.7778 17.6251C21.7778 20.3171 17.7478 22.5001 12.7778 22.5001C7.80783 22.5001 3.77783 20.3171 3.77783 17.6251C3.77783 17.5011 3.78683 17.3781 3.80283 17.2571C4.36624 17.8061 5.00499 18.2722 5.69983 18.6411C7.58683 19.6641 10.0928 20.2501 12.7778 20.2501Z" fill="#61CD81"/>
</svg>
