<svg width="64" height="64" viewBox="0 0 64 64" fill="none" xmlns="http://www.w3.org/2000/svg">
<path d="M56 17C56 24.1787 45.2533 30 32 30C18.7467 30 8 24.1787 8 17C8 9.82133 18.7467 4 32 4C45.2533 4 56 9.82133 56 17Z" fill="#61CD81"/>
<path d="M32 33.9999C39.16 33.9999 45.84 32.4372 50.8747 29.7092C52.7276 28.7255 54.4309 27.4828 55.9333 26.0186C55.976 26.3412 56 26.6692 56 26.9999C56 34.1786 45.2533 39.9999 32 39.9999C18.7467 39.9999 8 34.1786 8 26.9999C8 26.6692 8.024 26.3412 8.06667 26.0186C9.56911 27.4827 11.2724 28.7254 13.1253 29.7092C18.1573 32.4372 24.84 33.9999 32 33.9999Z" fill="#61CD81"/>
<path d="M32 43.9999C39.16 43.9999 45.84 42.4372 50.8747 39.7092C52.7276 38.7255 54.431 37.4828 55.9333 36.0186C55.976 36.3412 56 36.6692 56 36.9999C56 44.1786 45.2533 49.9999 32 49.9999C18.7467 49.9999 8 44.1786 8 36.9999C8 36.6692 8.024 36.3412 8.06667 36.0186C9.56909 37.4827 11.2724 38.7254 13.1253 39.7092C18.1573 42.4372 24.84 43.9999 32 43.9999Z" fill="#61CD81"/>
<path d="M32 53.9999C39.16 53.9999 45.84 52.4372 50.8747 49.7092C52.7276 48.7255 54.431 47.4828 55.9333 46.0186C55.976 46.3412 56 46.6692 56 46.9999C56 54.1786 45.2533 59.9999 32 59.9999C18.7467 59.9999 8 54.1786 8 46.9999C8 46.6692 8.024 46.3412 8.06667 46.0186C9.56909 47.4827 11.2724 48.7254 13.1253 49.7092C18.1573 52.4372 24.84 53.9999 32 53.9999Z" fill="#61CD81"/>
</svg>
