<svg width="52" height="56" viewBox="0 0 52 56" fill="none" xmlns="http://www.w3.org/2000/svg">
<path d="M27.008 0.272104C26.7021 0.0935821 26.3542 -0.000488281 26 -0.000488281C25.6458 -0.000488281 25.2979 0.0935821 24.992 0.272104L2 13.6854L26 27.6854L50 13.6854L27.008 0.272104ZM52 17.1468L28 31.1468V55.1468L51.008 41.7281C51.31 41.5519 51.5605 41.2996 51.7345 40.9964C51.9086 40.6932 52.0001 40.3497 52 40.0001V17.1468ZM24 55.1468V31.1468L8.78311e-08 17.1468V40.0001C-0.000103508 40.3497 0.0914369 40.6932 0.265494 40.9964C0.439551 41.2996 0.690044 41.5519 0.992 41.7281L24 55.1468Z" fill="#61CD81"/>
</svg>
