<svg width="202" height="220" viewBox="0 0 202 220" fill="none" xmlns="http://www.w3.org/2000/svg">
<g filter="url(#filter0_d_2271_90520)">
<path d="M127.138 18.7978L111.407 15.5884L110.971 17.724C75.8576 19.8007 43.2803 51.3138 34.3315 95.1767C25.3827 139.04 42.8444 180.762 74.5054 196.461L74.0697 198.597L89.801 201.806C130.803 210.172 172.285 176.026 182.608 125.428C192.931 74.8292 168.14 27.1629 127.138 18.7978Z" fill="#56BF76"/>
<path style="mix-blend-mode:multiply" d="M127.138 18.7978L111.407 15.5884L110.971 17.724C75.8576 19.8007 43.2803 51.3138 34.3315 95.1767C25.3827 139.04 42.8444 180.762 74.5054 196.461L74.0697 198.597L89.801 201.806C130.803 210.172 172.285 176.026 182.608 125.428C192.931 74.8292 168.14 27.1629 127.138 18.7978Z" fill="url(#paint0_linear_2271_90520)"/>
<path d="M74.1741 198.597C115.119 206.951 156.67 172.755 166.981 122.219C177.291 71.6821 152.456 23.9423 111.511 15.5887C70.5658 7.23517 29.0149 41.4311 18.7045 91.9676C8.39421 142.504 33.2288 190.244 74.1741 198.597Z" fill="url(#paint1_linear_2271_90520)"/>
<path d="M75.8186 190.547C111.68 197.864 148.375 166.431 157.778 120.34C167.182 74.2497 145.733 30.9547 109.871 23.6382C74.0093 16.3218 37.3146 47.7545 27.9113 93.8452C18.508 139.936 39.9568 183.231 75.8186 190.547Z" fill="#54B270"/>
<path style="mix-blend-mode:multiply" d="M75.8186 190.547C111.68 197.864 148.375 166.431 157.778 120.34C167.182 74.2497 145.733 30.9547 109.871 23.6382C74.0093 16.3218 37.3146 47.7545 27.9113 93.8452C18.508 139.936 39.9568 183.231 75.8186 190.547Z" fill="url(#paint2_linear_2271_90520)"/>
<path style="mix-blend-mode:multiply" d="M31.9262 94.6644C41.1431 49.4872 76.5989 18.3903 111.844 24.212C111.175 24.0754 110.505 23.9389 109.836 23.8023C73.8547 16.4615 37.2942 47.8464 27.8761 94.0092C18.4581 140.172 39.9696 183.405 75.7835 190.711C111.597 198.018 77.1223 190.985 77.7917 191.121C43.0828 182.671 22.6422 140.17 31.8591 94.993L31.9262 94.6644Z" fill="url(#paint3_radial_2271_90520)"/>
<g filter="url(#filter1_d_2271_90520)">
<path d="M75.0546 100.463C74.0487 101.787 72.6611 102.459 70.9161 102.449L70.667 103.688L69.2586 103.696L69.5356 102.319C67.7066 101.982 66.5708 100.973 66.1706 99.3077C64.7779 93.5291 73.4961 81.721 73.8639 81.2234L74.7346 80.0528L75.0498 81.3965C76.5186 87.6542 78.0997 96.4451 75.0546 100.463Z" fill="#24BC48"/>
<path d="M82.9996 103.801C82.389 104.604 81.5591 105.03 80.525 105.05L80.0151 107.586L79.1747 107.59L79.4517 106.213C79.3597 106.197 79.2677 106.18 79.1778 106.153L79.4205 104.947C78.3461 104.716 77.6778 104.09 77.4323 103.077C76.5931 99.5776 81.5232 92.8201 82.0853 92.0558L82.7858 91.122L83.0362 92.2011C83.9171 95.9896 84.8785 101.318 82.9996 103.801Z" fill="#239942"/>
<path d="M122.062 114.123C121.978 114.403 121.885 114.687 121.792 114.966C121.447 116.007 121.062 117.039 120.639 118.038C120.515 118.34 120.387 118.637 120.252 118.927C120.145 119.188 120.027 119.436 119.907 119.695C119.312 120.98 118.658 122.226 117.957 123.433L116.474 123.224L113.316 122.774L109.751 122.27L98.0632 120.614L94.4947 120.104L92.0632 119.761L88.5267 116.068L87.4823 114.966L86.9462 114.406L84.305 111.518L84.8438 110.937L91.2758 104.068L94.9557 99.7586L100.289 95.6452L103.303 94.6464L104.269 95.4385L106.635 100.463L107.618 103.968L108.318 106.085L110.499 103.632L113.23 101.244L115.012 100.777L116.528 101.634L117.927 105.866L120.01 109.502L121.196 112.179L122.062 114.123Z" fill="#0B6C96"/>
<path d="M90.4505 114.91L75.7733 136.787L74.8333 138.19C74.3384 137.853 73.8546 137.506 73.3905 137.128C73.119 136.921 72.8463 136.698 72.588 136.47C72.4722 136.369 72.3554 136.273 72.2484 136.173C65.335 130.047 61.3975 119.999 61.981 108.726L62.1033 107.057C62.5413 106.977 63.0192 106.903 63.5236 106.831C65.0359 106.622 66.7976 106.459 68.7163 106.44L68.959 105.233L70.3394 105.364L70.1225 106.443C72.89 106.513 75.8964 106.907 78.8346 107.889L79.1781 106.181L80.2827 106.284L79.8833 108.27C81.4417 108.87 82.9701 109.641 84.4179 110.633C84.8266 110.112 85.4362 109.337 86.2064 108.395L87.0181 109.639C86.472 110.302 85.9799 110.921 85.5481 111.466C86.5908 112.284 87.581 113.226 88.5079 114.303C88.8763 114.074 89.248 113.85 89.6221 113.637L90.4505 114.91Z" fill="#239942"/>
<path d="M120.255 118.924C120.148 119.185 120.03 119.433 119.91 119.692C118.865 121.957 117.645 124.098 116.282 126.09C116.106 126.359 115.921 126.621 115.727 126.888C115.591 127.09 115.444 127.281 115.3 127.477C113.907 129.373 112.37 131.126 110.736 132.709C110.351 133.084 109.955 133.453 109.558 133.805C103.001 139.67 94.9266 142.951 86.831 142.343C86.4589 142.32 86.0899 142.282 85.722 142.239C85.6334 142.228 85.5403 142.217 85.4527 142.201C83.4825 141.957 81.6016 141.472 79.8224 140.797C79.5494 140.688 79.2797 140.585 79.0165 140.472C78.8578 140.404 78.6956 140.33 78.538 140.257C76.6947 139.426 74.9685 138.375 73.3917 137.122C73.1202 136.915 72.8475 136.692 72.5892 136.464L73.1909 134.781L74.6915 130.591L78.6387 124.953L80.9532 121.837L86.5537 116.395L87.674 115.833L89.1519 115.095L90.9378 114.202L94.768 111.944L99.9851 111.206L103.965 111L110.982 112.508L116.083 115.145L118.981 117.521L119.248 117.816L120.255 118.924Z" fill="#24BC48"/>
<path d="M115.724 126.887C115.588 127.089 115.441 127.28 115.297 127.476C113.904 129.372 112.367 131.125 110.733 132.708C110.349 133.083 109.953 133.452 109.555 133.804C102.999 139.669 94.9242 142.95 86.8286 142.341C86.4564 142.319 86.0875 142.281 85.7196 142.237C85.631 142.227 85.5379 142.216 85.4503 142.2C83.4801 141.956 81.5992 141.471 79.82 140.796C79.5469 140.687 79.2772 140.584 79.0141 140.471L79.69 139.321L79.8295 138.966L81.9874 133.493L85.5182 127.127L90.8514 123.014L93.9988 121.353L98.7994 119.888L104.017 119.149L107.731 120.267L111.866 122.112L114.081 125.085L114.769 125.839L115.724 126.887Z" fill="#239942"/>
<path d="M86.5697 141.488L88.0512 136.919L91.8698 131.943L97.0654 128.491L102.832 127.818L106.83 130.325L108.766 131.91L109.732 132.702L105.63 136.289L99.3355 139.61L92.7529 141.543L88.2185 141.684L86.5697 141.488Z" fill="#24BC48"/>
<path d="M118.327 80.5653C118.324 80.5595 118.32 80.5536 118.323 80.5429C117.999 80.0782 117.665 79.6178 117.319 79.1723L117.314 79.1718C117.301 79.1483 117.265 79.1004 117.211 79.0284C117.16 78.9677 117.113 78.9075 117.063 78.8414C116.947 78.7403 116.825 78.6493 116.697 78.5631C116.242 78.2523 115.725 78.0271 115.16 77.9221C115.055 77.9041 114.954 77.8867 114.848 77.8741C114.56 77.84 114.28 77.8342 113.993 77.8604C114.731 78.5927 115.418 79.3737 116.069 80.1942C116.498 80.5456 116.84 81.0124 117.079 81.56C117.205 81.7444 117.328 81.9229 117.444 82.1116C117.912 82.8119 118.346 83.5411 118.757 84.2949C122.438 91.126 123.779 99.9377 121.912 109.222C121.792 109.82 121.664 110.412 121.513 111.006L121.512 111.012C121.414 111.405 121.313 111.797 121.208 112.184C121.109 112.538 121.011 112.893 120.904 113.241C120.52 114.496 120.097 115.72 119.611 116.92C119.496 117.223 119.368 117.519 119.24 117.816C119.136 118.066 119.021 118.32 118.908 118.564C118.189 120.179 117.367 121.738 116.471 123.217C116.127 123.799 115.767 124.369 115.389 124.92C115.181 125.229 114.97 125.537 114.761 125.829C114.652 125.986 114.539 126.142 114.426 126.298C113.042 128.195 111.524 129.945 109.892 131.517C109.508 131.893 109.107 132.261 108.704 132.617C102.49 138.13 94.8722 141.218 87.2166 140.679C86.8256 140.66 86.439 140.619 86.0489 140.573C85.978 140.565 85.9071 140.556 85.8372 140.543C83.8715 140.299 82.0038 139.816 80.2423 139.121C80.1069 139.072 79.9648 139.011 79.8304 138.957C79.5418 138.836 79.2531 138.714 78.9722 138.577C77.8561 138.057 76.7883 137.455 75.773 136.771C75.1404 136.352 74.5252 135.891 73.9375 135.406C73.6838 135.201 73.4366 134.986 73.1939 134.772C73.0659 134.664 72.9389 134.55 72.8164 134.437C66.437 128.544 62.8276 119.076 63.4054 108.485C63.4307 107.931 63.4771 107.384 63.5256 106.827C63.0212 106.898 62.5433 106.973 62.1053 107.052L61.983 108.721C61.4006 119.989 65.3381 130.037 72.2504 136.169C72.3618 136.269 72.4742 136.365 72.59 136.466C72.8483 136.693 73.1166 136.916 73.3925 137.124C73.8576 137.496 74.3404 137.848 74.8352 138.186C76.0051 138.98 77.244 139.679 78.5387 140.258C78.6964 140.332 78.8585 140.405 79.0173 140.473C79.2804 140.587 79.5535 140.695 79.8232 140.798C81.6013 141.479 83.4789 141.958 85.4535 142.203C85.5411 142.219 85.6342 142.23 85.7228 142.24C86.0907 142.284 86.4596 142.322 86.8318 142.344C94.9284 142.947 103.003 139.666 109.558 133.806C109.956 133.454 110.352 133.086 110.736 132.71C112.371 131.127 113.907 129.374 115.301 127.478C115.448 127.288 115.592 127.092 115.728 126.889C115.921 126.628 116.105 126.366 116.283 126.091C116.873 125.232 117.433 124.342 117.962 123.426C118.668 122.219 119.318 120.974 119.912 119.688C120.032 119.429 120.15 119.181 120.257 118.92C120.393 118.63 120.52 118.334 120.645 118.031C121.063 117.031 121.451 116.006 121.798 114.959C121.895 114.681 121.984 114.396 122.067 114.116C122.207 113.69 122.333 113.268 122.456 112.834C122.78 111.697 123.056 110.555 123.292 109.38C125.505 98.3763 123.415 88.0057 118.327 80.5653Z" fill="#131414"/>
<path d="M117.375 82.7757C117.411 82.5504 117.437 82.3294 117.445 82.1116C117.521 81.0548 117.358 80.0625 117.004 79.2061C116.987 79.1549 116.962 79.0973 116.94 79.0509C116.936 79.045 116.933 79.0392 116.935 79.0285C116.858 78.8718 116.786 78.7102 116.696 78.5684C116.434 78.1111 116.111 77.712 115.732 77.383C115.729 77.3771 115.724 77.3766 115.724 77.3766C115.72 77.3542 115.699 77.3462 115.683 77.3334C115.067 76.8069 114.316 76.461 113.469 76.3608C113.181 76.3267 112.901 76.3208 112.614 76.3471C110.112 76.5374 107.759 78.8499 107.149 81.8825C106.47 85.2621 108.199 88.2819 111.005 88.614C113.811 88.946 116.646 86.4666 117.326 83.0869C117.338 82.9791 117.359 82.8777 117.375 82.7757ZM111.336 86.9476C109.288 86.7053 108.03 84.5011 108.524 82.0398C109.02 79.5731 111.09 77.7682 113.133 78.01C113.727 78.0803 114.256 78.3125 114.687 78.675C115.116 79.0264 115.457 79.4932 115.697 80.0408C116.049 80.8641 116.156 81.8661 115.944 82.9179C115.449 85.3792 113.379 87.1895 111.336 86.9476Z" fill="#131414"/>
<path d="M89.4472 115.492C88.9917 115.771 88.5385 116.062 88.0864 116.369C87.7772 115.966 87.4548 115.584 87.1292 115.217C82.2396 109.768 75.4846 108.225 69.7793 108.097C69.3042 108.09 68.8281 108.088 68.3731 108.094C66.533 108.128 64.84 108.288 63.3963 108.495C62.8908 108.572 62.4119 108.651 61.975 108.725L62.0973 107.056C62.5353 106.977 63.0131 106.902 63.5176 106.831C65.0299 106.622 66.7916 106.459 68.7103 106.44C69.1664 106.428 69.6426 106.43 70.1165 106.442C72.884 106.513 75.8904 106.907 78.8286 107.889C79.0205 107.95 79.2058 108.021 79.3956 108.093C79.5565 108.15 79.7164 108.213 79.8773 108.27C81.4356 108.87 82.9641 109.641 84.4119 110.632C84.7945 110.896 85.1749 111.171 85.5466 111.466C86.5892 112.284 87.5795 113.226 88.5064 114.304C88.8243 114.686 89.1401 115.078 89.4472 115.492Z" fill="#131414"/>
<path d="M122.456 112.84C122.337 113.274 122.21 113.702 122.066 114.122C121.983 114.402 121.889 114.686 121.797 114.965C121.56 114.494 121.255 113.911 120.909 113.242C119.221 109.97 116.59 104.777 115.559 102.387C115.303 101.788 115.022 101.47 114.725 101.435C114.384 101.395 113.922 101.685 113.399 102.142C112.882 102.589 112.305 103.204 111.738 103.809C111.086 104.503 110.418 105.227 109.716 105.833C109.457 106.059 108.669 106.753 107.895 106.514C106.989 106.237 106.707 105.001 106.282 103.142C105.863 101.299 105.284 98.7873 103.882 96.3256C103.605 95.8501 103.219 95.6294 102.658 95.6396C99.1599 95.7066 91.4364 104.238 87.0159 109.635C86.4698 110.297 85.9776 110.917 85.5459 111.461C85.3438 111.722 85.1483 111.972 84.9748 112.203L84.3128 111.523L83.9863 111.184C84.0796 111.058 84.2212 110.873 84.4102 110.633C84.8188 110.112 85.4284 109.337 86.1987 108.395C90.2356 103.462 98.4841 94.0578 102.833 93.9822C103.813 93.9615 104.593 94.4146 105.081 95.2814C106.604 97.9323 107.206 100.578 107.651 102.517C107.874 103.483 108.176 104.825 108.427 104.91C108.427 104.91 108.565 104.921 108.983 104.56C109.611 104.006 110.253 103.322 110.866 102.662C112.325 101.097 113.701 99.625 115.048 99.7845L115.052 99.785C115.784 99.8715 116.39 100.446 116.838 101.489C117.711 103.532 119.858 107.793 121.512 111.012L121.511 111.017C121.855 111.675 122.175 112.293 122.456 112.84Z" fill="#131414"/>
<path d="M90.105 111.495L89.1099 110.487C89.3635 110.15 95.4023 102.212 98.6766 100.484L99.1002 101.988C96.648 103.283 91.7785 109.288 90.105 111.495Z" fill="#131414"/>
<path d="M100.884 79.6161L100.545 81.2705L106.039 81.9514L106.378 80.2971L100.884 79.6161Z" fill="#131414"/>
<path d="M106.028 83.9505L100.385 85.3665L100.49 86.9914L106.134 85.5755L106.028 83.9505Z" fill="#131414"/>
<path d="M103.441 73.6285L102.484 74.9974L106.65 78.7777L107.607 77.4088L103.441 73.6285Z" fill="#131414"/>
<path d="M107.887 69.9872L106.611 70.9053L109.048 76.457L110.324 75.5389L107.887 69.9872Z" fill="#131414"/>
<path d="M113.692 68.3282L112.285 68.3945L111.721 75.0468L113.128 74.9805L113.692 68.3282Z" fill="#131414"/>
<path d="M117.271 68.7293L114.619 74.9879L115.868 75.5551L118.52 69.2965L117.271 68.7293Z" fill="#131414"/>
<path d="M121.162 71.4782L116.844 76.4475L117.758 77.5543L122.076 72.5849L121.162 71.4782Z" fill="#131414"/>
<path d="M115.397 124.928C114.759 124.148 114.065 123.426 113.32 122.775C110.781 120.534 107.659 119.066 104.117 118.646C100.851 118.26 97.578 118.807 94.5036 120.105C87.4835 123.062 81.489 129.945 78.9757 138.585C78.8153 139.134 78.666 139.696 78.54 140.255C78.6977 140.328 78.8598 140.402 79.0186 140.47C79.2817 140.583 79.5548 140.692 79.8245 140.795C79.9461 140.236 80.0899 139.679 80.2458 139.129C82.9299 129.64 90.0991 122.399 98.0722 120.615C99.9496 120.192 101.87 120.075 103.789 120.302C105.965 120.56 107.97 121.24 109.76 122.271C111.545 123.297 113.117 124.664 114.44 126.302C114.741 126.676 115.034 127.072 115.306 127.476C115.454 127.285 115.597 127.089 115.733 126.887C115.927 126.625 116.111 126.363 116.289 126.089C116.002 125.689 115.702 125.303 115.397 124.928Z" fill="#131414"/>
<path d="M109.897 131.529C108.035 129.188 105.446 127.624 102.383 127.262C95.2958 126.423 88.1445 132.289 85.8381 140.554C85.6939 141.045 85.5763 141.54 85.4754 142.042C85.4647 142.095 85.4539 142.148 85.4476 142.202C85.5352 142.218 85.6283 142.229 85.7169 142.24C86.0848 142.283 86.4538 142.321 86.8259 142.344C86.8312 142.295 86.8398 142.252 86.8494 142.204C86.9536 141.686 87.0777 141.182 87.2175 140.69C89.3459 133.355 95.7297 128.169 102.05 128.917C104.754 129.237 107.04 130.595 108.705 132.629C109.007 132.998 109.295 133.393 109.553 133.806C109.95 133.454 110.346 133.085 110.73 132.71C110.473 132.297 110.189 131.903 109.897 131.529Z" fill="#131414"/>
<path d="M119.617 116.925C115.976 113.165 111.279 110.685 105.845 110.042C100.269 109.382 94.667 110.747 89.6152 113.641C89.2412 113.854 88.8684 114.083 88.5011 114.308C88.1581 114.524 87.814 114.746 87.4822 114.974C87.3664 115.053 87.2452 115.137 87.1294 115.217C80.8733 119.587 75.6964 126.354 72.8065 134.451C72.6063 135.018 72.4184 135.592 72.2416 136.177C72.3529 136.278 72.4654 136.373 72.5812 136.474C72.8395 136.702 73.1077 136.925 73.3836 137.132C73.5483 136.562 73.7318 135.988 73.9309 135.426C76.6835 127.334 81.8441 120.604 88.0867 116.369C88.2377 116.272 88.38 116.174 88.5266 116.076C88.8298 115.877 89.1375 115.678 89.443 115.491C89.7773 115.295 90.1082 115.094 90.4447 114.909C95.1529 112.302 100.339 111.084 105.507 111.696C110.831 112.326 115.409 114.809 118.908 118.573C119.254 118.931 119.582 119.309 119.902 119.702C120.022 119.443 120.14 119.195 120.247 118.934C120.383 118.644 120.51 118.348 120.635 118.045C120.304 117.656 119.971 117.284 119.617 116.925Z" fill="#131414"/>
<path d="M72.1396 96.3792L69.7851 108.088C69.3101 108.081 68.834 108.079 68.3789 108.085L70.7656 96.2166L72.1396 96.3792Z" fill="#131414"/>
<path d="M75.0555 81.4064L74.7404 80.0627L73.8697 81.2332C73.4975 81.7303 64.7792 93.5385 66.1763 99.3176C66.5732 100.977 67.7134 101.987 69.5414 102.329C69.6157 102.343 69.6944 102.358 69.7741 102.367C69.8662 102.383 69.9548 102.394 70.0434 102.404C70.3448 102.44 70.6395 102.464 70.9229 102.454C72.668 102.464 74.0556 101.792 75.0615 100.468C78.0977 96.4485 76.5166 87.6577 75.0555 81.4064ZM74.0575 99.4578C73.3986 100.32 72.4779 100.769 71.249 100.787C70.9025 100.795 70.5314 100.768 70.1346 100.71C70.0416 100.699 69.954 100.683 69.8664 100.667C68.5626 100.404 67.8001 99.7502 67.5375 98.6642C66.6576 95.0289 71.306 87.3252 73.9976 83.4403C75.8103 91.7338 75.8298 97.1203 74.0575 99.4578Z" fill="#131414"/>
<path d="M81.2828 101.262L80.1836 101.132L78.6655 108.682L79.7647 108.812L81.2828 101.262Z" fill="#131414"/>
<path d="M83.0307 92.2017L82.7803 91.1225L82.0798 92.0563C81.5143 92.8148 76.5876 99.5782 77.4268 103.077C77.6723 104.09 78.3406 104.716 79.4149 104.947C79.4993 104.979 79.5913 104.995 79.6844 105.006L79.8484 105.026C80.0789 105.053 80.3026 105.069 80.5195 105.051C81.5536 105.031 82.3835 104.604 82.9941 103.802C84.8774 101.319 83.916 95.9906 83.0307 92.2017ZM82.194 102.997C81.8568 103.432 81.3978 103.684 80.7858 103.726C80.5412 103.747 80.272 103.731 79.9772 103.685C79.8719 103.667 79.7711 103.65 79.6801 103.628C79.0369 103.465 78.6593 103.109 78.5207 102.556C78.023 100.519 80.568 96.2121 82.1884 93.8402C83.2027 98.5901 83.2065 101.663 82.194 102.997Z" fill="#131414"/>
<path d="M117.319 79.1735C117.319 79.1735 116.213 77.6979 115.749 77.3862C115.29 77.0749 115.024 78.399 115.024 78.399L116.54 79.2562L117.319 79.1735Z" fill="#131414"/>
<path d="M111.232 87.4459C113.509 87.7153 115.802 85.7107 116.353 82.9684C116.904 80.2261 115.506 77.7847 113.229 77.5152C110.953 77.2458 108.66 79.2504 108.109 81.9927C107.557 84.735 108.956 87.1765 111.232 87.4459Z" fill="#E07103"/>
</g>
</g>
<defs>
<filter id="filter0_d_2271_90520" x="4.37109" y="6.33276" width="192.576" height="212.734" filterUnits="userSpaceOnUse" color-interpolation-filters="sRGB">
<feFlood flood-opacity="0" result="BackgroundImageFix"/>
<feColorMatrix in="SourceAlpha" type="matrix" values="0 0 0 0 0 0 0 0 0 0 0 0 0 0 0 0 0 0 127 0" result="hardAlpha"/>
<feOffset dy="4"/>
<feGaussianBlur stdDeviation="6"/>
<feComposite in2="hardAlpha" operator="out"/>
<feColorMatrix type="matrix" values="0 0 0 0 1 0 0 0 0 1 0 0 0 0 1 0 0 0 0.12 0"/>
<feBlend mode="normal" in2="BackgroundImageFix" result="effect1_dropShadow_2271_90520"/>
<feBlend mode="normal" in="SourceGraphic" in2="effect1_dropShadow_2271_90520" result="shape"/>
</filter>
<filter id="filter1_d_2271_90520" x="25.2804" y="33.1507" width="136.879" height="142.827" filterUnits="userSpaceOnUse" color-interpolation-filters="sRGB">
<feFlood flood-opacity="0" result="BackgroundImageFix"/>
<feColorMatrix in="SourceAlpha" type="matrix" values="0 0 0 0 0 0 0 0 0 0 0 0 0 0 0 0 0 0 127 0" result="hardAlpha"/>
<feOffset/>
<feGaussianBlur stdDeviation="11.3354"/>
<feComposite in2="hardAlpha" operator="out"/>
<feColorMatrix type="matrix" values="0 0 0 0 1 0 0 0 0 1 0 0 0 0 1 0 0 0 0.25 0"/>
<feBlend mode="normal" in2="BackgroundImageFix" result="effect1_dropShadow_2271_90520"/>
<feBlend mode="normal" in="SourceGraphic" in2="effect1_dropShadow_2271_90520" result="shape"/>
</filter>
<linearGradient id="paint0_linear_2271_90520" x1="118.86" y1="59.3752" x2="73.7803" y2="280.333" gradientUnits="userSpaceOnUse">
<stop stop-color="#FEFEFE"/>
<stop offset="1" stop-color="#61CD81"/>
</linearGradient>
<linearGradient id="paint1_linear_2271_90520" x1="48.4155" y1="21.8461" x2="140.534" y2="238.292" gradientUnits="userSpaceOnUse">
<stop stop-color="#5FC97F"/>
<stop offset="0.169649" stop-color="#5FC97F"/>
<stop offset="0.169749" stop-color="#CCEBD5"/>
<stop offset="0.322436" stop-color="#9BDCAF"/>
<stop offset="0.322536" stop-color="#5FC97F"/>
<stop offset="0.587582" stop-color="#5FC97F"/>
<stop offset="0.588177" stop-color="#CCEBD5"/>
<stop offset="0.610865" stop-color="#CCEBD5"/>
<stop offset="0.617223" stop-color="#5FC97F"/>
<stop offset="0.923806" stop-color="#5FC97F"/>
</linearGradient>
<linearGradient id="paint2_linear_2271_90520" x1="102.321" y1="60.6459" x2="61.2073" y2="262.165" gradientUnits="userSpaceOnUse">
<stop stop-color="#FEFEFE"/>
<stop offset="1" stop-color="#61CD81"/>
</linearGradient>
<radialGradient id="paint3_radial_2271_90520" cx="0" cy="0" r="1" gradientUnits="userSpaceOnUse" gradientTransform="translate(110.498 -140.08) rotate(11.5311) scale(65.9296 84.1342)">
<stop stop-color="white" stop-opacity="0"/>
<stop offset="1" stop-color="#54B370"/>
</radialGradient>
</defs>
</svg>
