<svg width="56" height="52" viewBox="0 0 56 52" fill="none" xmlns="http://www.w3.org/2000/svg">
<path fill-rule="evenodd" clip-rule="evenodd" d="M2 0C1.46957 0 0.960859 0.210713 0.585787 0.585786C0.210714 0.960859 0 1.46957 0 2C0 2.53043 0.210714 3.03914 0.585787 3.41421C0.960859 3.78929 1.46957 4 2 4H4V32C4 34.1217 4.84285 36.1566 6.34315 37.6569C7.84344 39.1571 9.87827 40 12 40H15.2267L12.1013 49.368C11.9337 49.8716 11.973 50.4211 12.2105 50.8957C12.4481 51.3703 12.8644 51.731 13.368 51.8987C13.8716 52.0663 14.4211 52.027 14.8957 51.7894C15.3703 51.5519 15.7311 51.1356 15.8987 50.632L16.776 48H39.224L40.104 50.632C40.2861 51.1162 40.6487 51.511 41.1157 51.7335C41.5827 51.956 42.1177 51.9889 42.6085 51.8254C43.0992 51.6618 43.5075 51.3144 43.7476 50.8562C43.9876 50.398 44.0408 49.8646 43.896 49.368L40.776 40H44C46.1217 40 48.1566 39.1571 49.6569 37.6569C51.1571 36.1566 52 34.1217 52 32V4H54C54.5304 4 55.0391 3.78929 55.4142 3.41421C55.7893 3.03914 56 2.53043 56 2C56 1.46957 55.7893 0.960859 55.4142 0.585786C55.0391 0.210713 54.5304 0 54 0H2ZM18.1067 44L19.44 40H36.56L37.8933 44H18.1067ZM38 12C38 11.4696 37.7893 10.9609 37.4142 10.5858C37.0391 10.2107 36.5304 10 36 10C35.4696 10 34.9609 10.2107 34.5858 10.5858C34.2107 10.9609 34 11.4696 34 12V28C34 28.5304 34.2107 29.0391 34.5858 29.4142C34.9609 29.7893 35.4696 30 36 30C36.5304 30 37.0391 29.7893 37.4142 29.4142C37.7893 29.0391 38 28.5304 38 28V12ZM30 18C30 17.4696 29.7893 16.9609 29.4142 16.5858C29.0391 16.2107 28.5304 16 28 16C27.4696 16 26.9609 16.2107 26.5858 16.5858C26.2107 16.9609 26 17.4696 26 18V28C26 28.5304 26.2107 29.0391 26.5858 29.4142C26.9609 29.7893 27.4696 30 28 30C28.5304 30 29.0391 29.7893 29.4142 29.4142C29.7893 29.0391 30 28.5304 30 28V18ZM22 24C22 23.4696 21.7893 22.9609 21.4142 22.5858C21.0391 22.2107 20.5304 22 20 22C19.4696 22 18.9609 22.2107 18.5858 22.5858C18.2107 22.9609 18 23.4696 18 24V28C18 28.5304 18.2107 29.0391 18.5858 29.4142C18.9609 29.7893 19.4696 30 20 30C20.5304 30 21.0391 29.7893 21.4142 29.4142C21.7893 29.0391 22 28.5304 22 28V24Z" fill="#61CD81"/>
</svg>
