<svg width="20" height="20" viewBox="0 0 20 20" fill="none" xmlns="http://www.w3.org/2000/svg">
<path d="M8.72001 7.28854C8.90918 7.13854 9.13418 7.02937 9.37501 6.96021V9.28937C9.13729 9.22428 8.91472 9.11299 8.72001 8.96187C8.39168 8.70104 8.26501 8.39437 8.26501 8.1252C8.26501 7.85604 8.39168 7.54937 8.72001 7.28854ZM10.625 13.0519V10.6985C10.9142 10.7694 11.1783 10.8885 11.3925 11.0494C11.7483 11.316 11.875 11.621 11.875 11.8752C11.875 12.1294 11.7483 12.4344 11.3925 12.701C11.1628 12.8681 10.9018 12.988 10.625 13.0519Z" fill="#61CD81"/>
<g clip-path="url(#clip0_1309_8137)">
<rect x="2.00012" y="2" width="16" height="16" rx="8" fill="#61CD81"/>
<path d="M2.00012 2H18.0001V18H2.00012V2Z" fill="#61CD81"/>
<path fill-rule="evenodd" clip-rule="evenodd" d="M11.5343 6.14921C10.5129 5.71428 9.36062 5.70289 8.33086 6.11756C7.98155 6.25822 7.58436 6.08908 7.4437 5.73977C7.30304 5.39047 7.47218 4.99328 7.82149 4.85262C9.18673 4.30285 10.7145 4.31795 12.0686 4.89458C13.4227 5.47121 14.4923 6.56215 15.0421 7.9274C15.5918 9.29265 15.5767 10.8204 15.0001 12.1745C14.6718 12.9453 14.1769 13.624 13.5596 14.167H14.7429C15.1195 14.167 15.4247 14.4723 15.4247 14.8488C15.4247 15.2254 15.1195 15.5307 14.7429 15.5307H11.7126C11.336 15.5307 11.0308 15.2254 11.0308 14.8488V14.5314C11.0305 14.5209 11.0305 14.5105 11.0308 14.5001V11.8185C11.0308 11.4419 11.336 11.1367 11.7126 11.1367C12.0891 11.1367 12.3944 11.4419 12.3944 11.8185V13.3574C12.9838 12.9184 13.4526 12.328 13.7455 11.6402C14.1804 10.6189 14.1918 9.46654 13.7771 8.43677C13.3624 7.40701 12.5557 6.58415 11.5343 6.14921Z" fill="white"/>
<path fill-rule="evenodd" clip-rule="evenodd" d="M6.03388 6.38477C6.41044 6.38477 6.7157 6.69003 6.7157 7.06659V7.07265C6.7157 7.44921 6.41044 7.75448 6.03388 7.75448C5.65731 7.75448 5.35205 7.44921 5.35205 7.07265V7.06659C5.35205 6.69003 5.65731 6.38477 6.03388 6.38477Z" fill="white"/>
<path fill-rule="evenodd" clip-rule="evenodd" d="M5.08234 8.71289C5.4589 8.71289 5.76416 9.01815 5.76416 9.39472V9.40078C5.76416 9.77734 5.4589 10.0826 5.08234 10.0826C4.70578 10.0826 4.40051 9.77734 4.40051 9.40078V9.39472C4.40051 9.01815 4.70578 8.71289 5.08234 8.71289Z" fill="white"/>
<path fill-rule="evenodd" clip-rule="evenodd" d="M5.4278 11.1973C5.80436 11.1973 6.10962 11.5025 6.10962 11.8791V11.8852C6.10962 12.2617 5.80436 12.567 5.4278 12.567C5.05124 12.567 4.74597 12.2617 4.74597 11.8852V11.8791C4.74597 11.5025 5.05124 11.1973 5.4278 11.1973Z" fill="white"/>
<path fill-rule="evenodd" clip-rule="evenodd" d="M6.96124 13.1777C7.33781 13.1777 7.64307 13.483 7.64307 13.8596V13.8656C7.64307 14.2422 7.33781 14.5474 6.96124 14.5474C6.58468 14.5474 6.27942 14.2422 6.27942 13.8656V13.8596C6.27942 13.483 6.58468 13.1777 6.96124 13.1777Z" fill="white"/>
<path fill-rule="evenodd" clip-rule="evenodd" d="M9.28815 14.1306C9.66471 14.1306 9.96998 14.4359 9.96998 14.8124V14.8185C9.96998 15.1951 9.66471 15.5003 9.28815 15.5003C8.91159 15.5003 8.60632 15.1951 8.60632 14.8185V14.8124C8.60632 14.4359 8.91159 14.1306 9.28815 14.1306Z" fill="white"/>
</g>
<defs>
<clipPath id="clip0_1309_8137">
<rect x="2.00012" y="2" width="16" height="16" rx="8" fill="white"/>
</clipPath>
</defs>
</svg>
