<svg width="64" height="64" viewBox="0 0 64 64" fill="none" xmlns="http://www.w3.org/2000/svg">
<path d="M30.5866 10.2401C30.9616 9.86552 31.47 9.65515 32 9.65515C32.53 9.65515 33.0383 9.86552 33.4133 10.2401L56.5866 33.4134C56.7697 33.6099 56.9905 33.7675 57.2359 33.8768C57.4812 33.9861 57.746 34.0449 58.0146 34.0496C58.2831 34.0544 58.5499 34.005 58.7989 33.9044C59.0479 33.8038 59.2742 33.6541 59.4641 33.4642C59.654 33.2742 59.8037 33.048 59.9043 32.799C60.0049 32.5499 60.0543 32.2832 60.0495 32.0147C60.0448 31.7461 59.986 31.4813 59.8767 31.236C59.7674 30.9906 59.6098 30.7698 59.4133 30.5867L36.2426 7.41339C35.6855 6.85623 35.024 6.41427 34.2961 6.11274C33.5681 5.8112 32.7879 5.65601 32 5.65601C31.212 5.65601 30.4318 5.8112 29.7039 6.11274C28.9759 6.41427 28.3145 6.85623 27.7573 7.41339L4.58397 30.5867C4.21983 30.9641 4.01847 31.4694 4.02328 31.9938C4.02808 32.5182 4.23865 33.0197 4.60965 33.3904C4.98064 33.761 5.48237 33.9711 6.00676 33.9754C6.53116 33.9797 7.03627 33.7779 7.4133 33.4134L30.5866 10.2401Z" fill="#61CD81"/>
<path d="M32 14.4853L53.7573 36.2426C53.8373 36.3226 53.9173 36.3973 54 36.472V53C54 55.76 51.76 58 49 58H40C39.4696 58 38.9609 57.7893 38.5858 57.4142C38.2107 57.0391 38 56.5304 38 56V44C38 43.4695 37.7893 42.9608 37.4142 42.5858C37.0391 42.2107 36.5304 42 36 42H28C27.4696 42 26.9609 42.2107 26.5858 42.5858C26.2107 42.9608 26 43.4695 26 44V56C26 56.5304 25.7893 57.0391 25.4142 57.4142C25.0391 57.7893 24.5304 58 24 58H15C13.6739 58 12.4021 57.4732 11.4645 56.5355C10.5268 55.5978 10 54.3261 10 53V36.472C10.083 36.3978 10.1639 36.3213 10.2427 36.2426L32 14.48V14.4853Z" fill="#61CD81"/>
</svg>
