<svg width="20" height="20" viewBox="0 0 20 20" fill="none" xmlns="http://www.w3.org/2000/svg">
<path fill-rule="evenodd" clip-rule="evenodd" d="M6.25159 5H12.1916C12.9368 5.0011 13.6511 5.29791 14.1776 5.82523C14.7042 6.35256 14.9999 7.0673 14.9999 7.8125V15.625C15.663 15.625 16.2988 15.3616 16.7677 14.8928C17.2365 14.4239 17.4999 13.788 17.4999 13.125V5.09C17.4999 3.83583 16.5624 2.7475 15.2799 2.64C15.0931 2.62482 14.9061 2.61093 14.7191 2.59833C14.5081 2.19191 14.1896 1.85122 13.7983 1.61345C13.407 1.37568 12.9578 1.24996 12.4999 1.25H11.2499C10.792 1.24996 10.3429 1.37568 9.95155 1.61345C9.56021 1.85122 9.2417 2.19191 9.03075 2.59833C8.84325 2.61083 8.65575 2.625 8.46992 2.64C7.21825 2.74583 6.29492 3.785 6.25159 5ZM11.2499 2.5C10.9184 2.5 10.6005 2.6317 10.366 2.86612C10.1316 3.10054 9.99992 3.41848 9.99992 3.75H13.7499C13.7499 3.41848 13.6182 3.10054 13.3838 2.86612C13.1494 2.6317 12.8314 2.5 12.4999 2.5H11.2499Z" fill="#61CD81"/>
<path fill-rule="evenodd" clip-rule="evenodd" d="M2.49988 7.8125C2.49988 6.94917 3.19988 6.25 4.06238 6.25H12.1874C13.0507 6.25 13.7499 6.95 13.7499 7.8125V17.1875C13.7499 18.05 13.0499 18.75 12.1874 18.75H4.06238C3.64798 18.75 3.25055 18.5854 2.95752 18.2924C2.6645 17.9993 2.49988 17.6019 2.49988 17.1875V7.8125ZM4.99988 10C4.99988 9.83424 5.06573 9.67527 5.18294 9.55806C5.30015 9.44085 5.45912 9.375 5.62488 9.375H5.63154C5.7973 9.375 5.95628 9.44085 6.07349 9.55806C6.1907 9.67527 6.25654 9.83424 6.25654 10V10.0067C6.25654 10.1724 6.1907 10.3314 6.07349 10.4486C5.95628 10.5658 5.7973 10.6317 5.63154 10.6317H5.62488C5.45912 10.6317 5.30015 10.5658 5.18294 10.4486C5.06573 10.3314 4.99988 10.1724 4.99988 10.0067V10ZM6.87488 10C6.87488 9.83424 6.94073 9.67527 7.05794 9.55806C7.17515 9.44085 7.33412 9.375 7.49988 9.375H10.6249C10.7906 9.375 10.9496 9.44085 11.0668 9.55806C11.184 9.67527 11.2499 9.83424 11.2499 10C11.2499 10.1658 11.184 10.3247 11.0668 10.4419C10.9496 10.5592 10.7906 10.625 10.6249 10.625H7.49988C7.33412 10.625 7.17515 10.5592 7.05794 10.4419C6.94073 10.3247 6.87488 10.1658 6.87488 10ZM4.99988 12.5C4.99988 12.3342 5.06573 12.1753 5.18294 12.0581C5.30015 11.9408 5.45912 11.875 5.62488 11.875H5.63154C5.7973 11.875 5.95628 11.9408 6.07349 12.0581C6.1907 12.1753 6.25654 12.3342 6.25654 12.5V12.5067C6.25654 12.6724 6.1907 12.8314 6.07349 12.9486C5.95628 13.0658 5.7973 13.1317 5.63154 13.1317H5.62488C5.45912 13.1317 5.30015 13.0658 5.18294 12.9486C5.06573 12.8314 4.99988 12.6724 4.99988 12.5067V12.5ZM6.87488 12.5C6.87488 12.3342 6.94073 12.1753 7.05794 12.0581C7.17515 11.9408 7.33412 11.875 7.49988 11.875H10.6249C10.7906 11.875 10.9496 11.9408 11.0668 12.0581C11.184 12.1753 11.2499 12.3342 11.2499 12.5C11.2499 12.6658 11.184 12.8247 11.0668 12.9419C10.9496 13.0592 10.7906 13.125 10.6249 13.125H7.49988C7.33412 13.125 7.17515 13.0592 7.05794 12.9419C6.94073 12.8247 6.87488 12.6658 6.87488 12.5ZM4.99988 15C4.99988 14.8342 5.06573 14.6753 5.18294 14.5581C5.30015 14.4408 5.45912 14.375 5.62488 14.375H5.63154C5.7973 14.375 5.95628 14.4408 6.07349 14.5581C6.1907 14.6753 6.25654 14.8342 6.25654 15V15.0067C6.25654 15.1724 6.1907 15.3314 6.07349 15.4486C5.95628 15.5658 5.7973 15.6317 5.63154 15.6317H5.62488C5.45912 15.6317 5.30015 15.5658 5.18294 15.4486C5.06573 15.3314 4.99988 15.1724 4.99988 15.0067V15ZM6.87488 15C6.87488 14.8342 6.94073 14.6753 7.05794 14.5581C7.17515 14.4408 7.33412 14.375 7.49988 14.375H10.6249C10.7906 14.375 10.9496 14.4408 11.0668 14.5581C11.184 14.6753 11.2499 14.8342 11.2499 15C11.2499 15.1658 11.184 15.3247 11.0668 15.4419C10.9496 15.5592 10.7906 15.625 10.6249 15.625H7.49988C7.33412 15.625 7.17515 15.5592 7.05794 15.4419C6.94073 15.3247 6.87488 15.1658 6.87488 15Z" fill="#61CD81"/>
</svg>
