<svg width="64" height="64" viewBox="0 0 64 64" fill="none" xmlns="http://www.w3.org/2000/svg">
<path fill-rule="evenodd" clip-rule="evenodd" d="M20.0054 16H39.0134C41.398 16.0035 43.6838 16.9533 45.3687 18.6407C47.0537 20.3282 48 22.6154 48 25V50C50.1218 50 52.1566 49.1571 53.6569 47.6569C55.1572 46.1566 56 44.1217 56 42V16.288C56 12.2747 53 8.792 48.896 8.448C48.2981 8.39943 47.6999 8.35499 47.1014 8.31467C46.4264 7.0141 45.4071 5.92391 44.1548 5.16304C42.9025 4.40218 41.4653 3.99986 40 4H36C34.5347 3.99986 33.0975 4.40218 31.8453 5.16304C30.593 5.92391 29.5737 7.0141 28.8987 8.31467C28.2987 8.35467 27.6987 8.4 27.104 8.448C23.0987 8.78667 20.144 12.112 20.0054 16ZM36 8C34.9392 8 33.9218 8.42143 33.1716 9.17157C32.4215 9.92172 32 10.9391 32 12H44C44 10.9391 43.5786 9.92172 42.8285 9.17157C42.0783 8.42143 41.0609 8 40 8H36Z" fill="#61CD81"/>
<path fill-rule="evenodd" clip-rule="evenodd" d="M8 25C8 22.2373 10.24 20 13 20H39C41.7627 20 44 22.24 44 25V55C44 57.76 41.76 60 39 60H13C11.6739 60 10.4021 59.4732 9.46447 58.5355C8.52678 57.5979 8 56.3261 8 55V25ZM16 32C16 31.4696 16.2107 30.9609 16.5858 30.5858C16.9609 30.2107 17.4696 30 18 30H18.0213C18.5518 30 19.0605 30.2107 19.4355 30.5858C19.8106 30.9609 20.0213 31.4696 20.0213 32V32.0213C20.0213 32.5518 19.8106 33.0605 19.4355 33.4355C19.0605 33.8106 18.5518 34.0213 18.0213 34.0213H18C17.4696 34.0213 16.9609 33.8106 16.5858 33.4355C16.2107 33.0605 16 32.5518 16 32.0213V32ZM22 32C22 31.4696 22.2107 30.9609 22.5858 30.5858C22.9609 30.2107 23.4696 30 24 30H34C34.5304 30 35.0391 30.2107 35.4142 30.5858C35.7893 30.9609 36 31.4696 36 32C36 32.5304 35.7893 33.0391 35.4142 33.4142C35.0391 33.7893 34.5304 34 34 34H24C23.4696 34 22.9609 33.7893 22.5858 33.4142C22.2107 33.0391 22 32.5304 22 32ZM16 40C16 39.4696 16.2107 38.9609 16.5858 38.5858C16.9609 38.2107 17.4696 38 18 38H18.0213C18.5518 38 19.0605 38.2107 19.4355 38.5858C19.8106 38.9609 20.0213 39.4696 20.0213 40V40.0213C20.0213 40.5518 19.8106 41.0605 19.4355 41.4355C19.0605 41.8106 18.5518 42.0213 18.0213 42.0213H18C17.4696 42.0213 16.9609 41.8106 16.5858 41.4355C16.2107 41.0605 16 40.5518 16 40.0213V40ZM22 40C22 39.4696 22.2107 38.9609 22.5858 38.5858C22.9609 38.2107 23.4696 38 24 38H34C34.5304 38 35.0391 38.2107 35.4142 38.5858C35.7893 38.9609 36 39.4696 36 40C36 40.5304 35.7893 41.0391 35.4142 41.4142C35.0391 41.7893 34.5304 42 34 42H24C23.4696 42 22.9609 41.7893 22.5858 41.4142C22.2107 41.0391 22 40.5304 22 40ZM16 48C16 47.4696 16.2107 46.9609 16.5858 46.5858C16.9609 46.2107 17.4696 46 18 46H18.0213C18.5518 46 19.0605 46.2107 19.4355 46.5858C19.8106 46.9609 20.0213 47.4696 20.0213 48V48.0213C20.0213 48.5518 19.8106 49.0605 19.4355 49.4355C19.0605 49.8106 18.5518 50.0213 18.0213 50.0213H18C17.4696 50.0213 16.9609 49.8106 16.5858 49.4355C16.2107 49.0605 16 48.5518 16 48.0213V48ZM22 48C22 47.4696 22.2107 46.9609 22.5858 46.5858C22.9609 46.2107 23.4696 46 24 46H34C34.5304 46 35.0391 46.2107 35.4142 46.5858C35.7893 46.9609 36 47.4696 36 48C36 48.5304 35.7893 49.0391 35.4142 49.4142C35.0391 49.7893 34.5304 50 34 50H24C23.4696 50 22.9609 49.7893 22.5858 49.4142C22.2107 49.0391 22 48.5304 22 48Z" fill="#61CD81"/>
</svg>
