<svg width="50" height="50" viewBox="0 0 50 50" fill="none" xmlns="http://www.w3.org/2000/svg">
<rect width="50" height="50" rx="25" fill="white" fill-opacity="0.25"/>
<path d="M25 12C27.1837 12 28.8143 12.838 29.9619 14.1289C31.0712 15.3769 31.6702 16.9778 31.999 18.457C32.3306 19.9491 32.4102 21.4206 32.4102 22.5039C32.4102 22.6794 32.4078 22.8456 32.4043 23.001C34.3965 23.0388 36 24.6657 36 26.667V35.2227C36 37.2477 34.3581 38.8896 32.333 38.8896H17.667C15.642 38.8896 14 37.2477 14 35.2227V26.667C14 24.6657 15.6034 23.0388 17.5957 23.001C17.5922 22.8456 17.5898 22.6794 17.5898 22.5039C17.5898 21.4206 17.6694 19.9491 18.001 18.457C18.3297 16.9778 18.9288 15.3769 20.0381 14.1289C21.1857 12.838 22.8163 12 25 12ZM17.667 25.4443C16.992 25.4443 16.4444 25.992 16.4443 26.667V35.2227C16.4444 35.8977 16.992 36.4443 17.667 36.4443H32.333C33.008 36.4443 33.5556 35.8977 33.5557 35.2227V26.667C33.5556 25.992 33.008 25.4443 32.333 25.4443H17.667ZM25 29.2158C26.0123 29.2158 26.8328 30.0364 26.833 31.0488C26.833 32.0613 26.0125 32.8828 25 32.8828C23.9875 32.8828 23.167 32.0613 23.167 31.0488C23.1672 30.0364 23.9877 29.2158 25 29.2158ZM25 14.4443C23.5175 14.4443 22.5509 14.9818 21.8652 15.7529C21.1414 16.5673 20.6701 17.7168 20.3877 18.9873C20.1081 20.2453 20.0352 21.5247 20.0352 22.5039C20.0352 22.6809 20.0371 22.8469 20.041 23H29.959C29.9629 22.8469 29.9648 22.6809 29.9648 22.5039C29.9648 21.5247 29.8918 20.2453 29.6123 18.9873C29.33 17.7168 28.8586 16.5673 28.1348 15.7529C27.4491 14.9818 26.4825 14.4443 25 14.4443Z" fill="white"/>
</svg>
