<svg width="1256" height="1256" viewBox="0 0 1256 1256" fill="none" xmlns="http://www.w3.org/2000/svg">
<path d="M628.928 1236.34C963.182 1236.34 1234.15 965.834 1234.15 632.144C1234.15 298.455 963.182 27.9463 628.928 27.9463C294.674 27.9463 23.7072 298.455 23.7072 632.144C23.7072 965.834 294.674 1236.34 628.928 1236.34Z" fill="#8AB8FD"/>
<path d="M715.432 1167.91C1013.98 1119.56 1216.86 838.746 1168.57 540.68C1120.28 242.615 839.115 40.1753 540.568 88.5179C242.02 136.86 39.1448 417.679 87.4323 715.745C135.72 1013.81 416.885 1216.25 715.432 1167.91Z" fill="#6F9FE7"/>
<g style="mix-blend-mode:multiply">
<path style="mix-blend-mode:multiply" d="M1155.52 627.749C1155.52 326.192 919.735 81.0416 629.62 81.0416C931.687 81.0416 1177.25 326.192 1177.25 627.749C1177.25 929.305 931.687 1174.46 629.62 1174.46C920.821 1174.46 1155.52 929.305 1155.52 627.749Z" fill="url(#paint0_radial_80_1025)"/>
<path style="mix-blend-mode:multiply" d="M628.533 81.0374C337.332 81.0374 102.632 326.188 102.632 627.744C102.632 929.301 338.418 1174.45 628.533 1174.45C326.466 1174.45 80.9006 929.301 80.9006 627.744C80.9006 326.188 326.466 81.0374 628.533 81.0374Z" fill="url(#paint1_radial_80_1025)"/>
</g>
<g filter="url(#filter0_d_80_1025)">
<path d="M392.918 609.987C383.961 624.365 368.794 632.697 347.638 634.658V647.293L330.603 649.035V634.985C307.633 633.786 291.422 625.073 282.52 608.952C251.583 553.021 328.405 425.092 331.647 419.7L339.34 407.01L346.429 420.027C379.455 480.642 420.009 566.364 392.918 609.987Z" fill="#24BC48"/>
<path d="M497.272 633.878C491.831 642.592 482.819 647.82 470.345 649.236V675.105L460.179 676.14V662.089C459.025 662.035 457.871 661.98 456.717 661.817V649.509C443.144 648.474 433.528 643.028 428.088 633.225C409.404 599.35 452.651 526.209 457.597 517.931L463.806 507.801L469.466 518.257C489.359 554.964 513.977 606.92 497.272 633.878Z" fill="#239942"/>
<path d="M995.439 690.654C995.11 693.54 994.67 696.481 994.231 699.368C992.582 710.151 990.439 720.88 987.746 731.336C986.977 734.495 986.153 737.599 985.219 740.649C984.559 743.372 983.735 745.987 982.911 748.71C978.844 762.216 973.953 775.395 968.403 788.248L949.94 787.922L910.594 787.159L866.194 786.342L720.627 783.619L676.171 782.748L645.893 782.203L594.074 749.581L578.742 739.832L570.884 734.876L531.869 709.225L536.979 702.799L598.14 626.771L632.21 579.499L686.777 532.227L720.847 518.72L734.475 525.474L775.359 572.746L795.801 606.512L809.429 626.771L829.871 599.759L857.127 572.746L877.569 565.993L898.011 572.746L925.266 613.265L959.336 647.031L980.218 672.301L995.439 690.654Z" fill="#0B6C96"/>
<path d="M614.541 735.774L490.076 971.046L482.108 986.132C475.294 983.354 468.59 980.468 462.051 977.255C458.259 975.512 454.413 973.606 450.731 971.645C449.082 970.774 447.434 969.957 445.895 969.085C347.257 916.204 275.106 820.733 254.719 707.727L252.136 690.953C257.247 689.646 262.852 688.339 268.787 687.032C286.591 683.165 307.527 679.461 330.717 677.011V664.703L347.752 664.376V675.377C381.437 672.817 418.804 673.198 456.776 679.516V662.088L470.404 661.816V682.076C490.736 686.215 511.123 692.096 531.07 700.266C534.752 694.602 540.247 686.16 547.281 675.867L560.139 687.304C555.139 694.547 550.688 701.3 546.786 707.237C561.403 714.153 575.691 722.377 589.538 732.016C593.44 729.293 597.396 726.625 601.408 724.065L614.541 735.774Z" fill="#239942"/>
<path d="M985.245 740.618C984.586 743.341 983.761 745.955 982.937 748.678C975.793 772.477 966.232 795.242 954.582 816.7C953.098 819.586 951.505 822.418 949.801 825.305C948.647 827.483 947.328 829.553 946.065 831.677C933.81 852.208 919.468 871.488 903.532 889.188C899.795 893.381 895.894 897.52 891.937 901.496C826.82 967.666 737.029 1009.87 637.512 1013.36C632.951 1013.58 628.39 1013.63 623.829 1013.63C622.73 1013.63 621.576 1013.63 620.477 1013.58C596.024 1013.47 572.065 1010.85 548.875 1006.22C545.303 1005.46 541.787 1004.75 538.325 1003.94C536.236 1003.45 534.093 1002.9 532.005 1002.36C507.662 996.258 484.197 987.816 462.052 977.197C458.26 975.454 454.414 973.548 450.732 971.587L453.919 954.105L461.887 910.591L495.957 849.758L516.399 815.992L570.966 755.159L583.165 748.242L599.266 739.147L618.719 728.146L659.602 701.133L720.983 687.627L768.681 680.874L857.318 687.627L925.513 707.887L966.397 728.146L970.353 730.76L985.245 740.618Z" fill="#24BC48"/>
<path d="M949.769 825.295C948.615 827.473 947.297 829.542 946.033 831.666C933.778 852.198 919.436 871.478 903.5 889.177C899.764 893.371 895.862 897.51 891.905 901.486C826.788 967.656 736.997 1009.86 637.48 1013.35C632.919 1013.57 628.358 1013.62 623.797 1013.62C622.698 1013.62 621.544 1013.62 620.445 1013.57C595.992 1013.46 572.033 1010.84 548.843 1006.21C545.272 1005.45 541.755 1004.74 538.293 1003.93L543.678 991.673L544.502 987.97L557.306 930.895L584.562 863.308L639.129 816.036L673.199 795.777L727.765 775.517L789.146 762.011L836.844 768.764L891.411 782.27L925.481 809.283L935.647 815.982L949.769 825.295Z" fill="#239942"/>
<path d="M632.271 1005.16L639.085 957.885L673.21 903.805L727.722 863.286L795.917 849.779L850.429 870.039L877.74 883.545L891.368 890.298L850.429 930.872L782.289 971.391L707.28 998.404L652.713 1005.16H632.271Z" fill="#24BC48"/>
<path d="M868.477 360.711C868.422 360.656 868.367 360.602 868.367 360.493C863.312 356.245 858.146 352.051 852.871 348.021H852.816C852.596 347.803 852.047 347.368 851.222 346.714C850.453 346.17 849.739 345.625 848.969 345.026C847.321 344.155 845.617 343.392 843.859 342.684C837.594 340.125 830.78 338.491 823.692 338.109C822.373 338.055 821.109 338 819.79 338C816.218 338 812.811 338.273 809.404 338.872C820.12 345.298 830.341 352.269 840.232 359.676C846.277 362.671 851.552 366.919 855.783 372.093C857.762 373.781 859.685 375.415 861.553 377.158C868.917 383.584 875.951 390.338 882.765 397.363C943.981 461.083 981.677 547.294 981.677 642.002C981.677 648.102 981.567 654.147 981.183 660.247V660.301C980.963 664.331 980.688 668.361 980.358 672.337C980.029 675.986 979.699 679.635 979.259 683.229C977.666 696.191 975.523 708.88 972.555 721.406C971.896 724.565 971.072 727.67 970.247 730.774C969.588 733.388 968.819 736.057 968.049 738.616C963.268 755.554 957.114 772.055 949.86 787.849C947.113 794.058 944.145 800.157 940.903 806.093C939.145 809.416 937.331 812.738 935.518 815.896C934.584 817.585 933.595 819.273 932.606 820.961C920.461 841.493 906.339 860.718 890.403 878.309C886.666 882.502 882.71 886.641 878.698 890.672C816.878 952.921 732.143 992.677 638.121 996.326C633.34 996.598 628.559 996.653 623.723 996.653C622.844 996.653 621.965 996.653 621.086 996.598C596.687 996.489 572.893 993.875 549.868 989.028C548.11 988.702 546.242 988.266 544.483 987.885C540.692 987.013 536.9 986.142 533.163 985.107C518.381 981.24 503.984 976.502 490.026 970.893C481.344 967.462 472.772 963.595 464.474 959.456C460.902 957.713 457.385 955.861 453.923 954.01C452.11 953.084 450.296 952.104 448.538 951.123C356.934 899.93 290.168 809.851 271.374 703.652C270.33 698.097 269.561 692.597 268.792 686.987C262.857 688.294 257.252 689.601 252.141 690.908L254.724 707.682C275.111 820.635 347.262 916.105 445.9 969.041C447.494 969.912 449.087 970.729 450.736 971.601C454.418 973.561 458.209 975.467 462.056 977.21C468.595 980.369 475.299 983.31 482.113 986.087C498.214 992.623 514.919 998.123 532.009 1002.37C534.097 1002.92 536.241 1003.46 538.329 1003.95C541.791 1004.77 545.362 1005.53 548.879 1006.24C572.069 1010.92 595.973 1013.48 620.481 1013.59C621.58 1013.64 622.734 1013.64 623.833 1013.64C628.394 1013.64 632.955 1013.59 637.516 1013.37C737.033 1009.83 826.824 967.625 891.941 901.509C895.898 897.534 899.8 893.395 903.536 889.201C919.472 871.501 933.814 852.222 946.069 831.69C947.387 829.621 948.651 827.497 949.805 825.318C951.509 822.486 953.102 819.654 954.586 816.713C959.642 807.455 964.258 797.924 968.434 788.176C974.039 775.323 978.875 762.143 982.941 748.637C983.765 745.914 984.59 743.3 985.249 740.577C986.183 737.527 987.007 734.423 987.777 731.264C990.414 720.807 992.613 710.133 994.261 699.295C994.756 696.409 995.14 693.468 995.47 690.582C996.129 686.17 996.624 681.813 997.064 677.348C998.218 665.638 998.767 653.929 998.767 641.948C998.767 529.704 948.212 428.842 868.477 360.711Z" fill="#131414"/>
<path d="M862.33 383.856C862.22 381.569 862 379.336 861.561 377.157C859.912 366.538 855.516 356.844 849.142 348.729C848.812 348.239 848.372 347.694 847.988 347.258C847.933 347.204 847.878 347.149 847.878 347.041C846.559 345.57 845.295 344.045 843.866 342.738C839.58 338.49 834.69 334.896 829.304 332.064C829.249 332.009 829.194 332.009 829.194 332.009C829.084 331.791 828.81 331.737 828.59 331.628C819.853 327.108 809.906 324.548 799.411 324.548C795.839 324.548 792.432 324.82 789.025 325.419C759.186 330.266 736.326 356.081 736.326 387.015C736.326 421.489 764.626 449.536 799.411 449.536C834.195 449.536 862.495 421.489 862.495 387.015C862.385 385.926 862.385 384.891 862.33 383.856ZM799.356 432.544C773.968 432.544 753.361 412.067 753.361 386.96C753.361 361.799 774.023 341.377 799.356 341.377C806.719 341.377 813.698 343.065 819.798 346.169C825.842 349.164 831.118 353.412 835.349 358.586C841.613 366.374 845.35 376.232 845.35 386.96C845.35 412.067 824.688 432.544 799.356 432.544Z" fill="#131414"/>
<path d="M603.817 742.749C598.981 746.072 594.201 749.503 589.475 753.097C584.749 749.448 579.913 746.017 575.078 742.749C502.597 694.225 417.037 686.818 347.633 692.264C341.863 692.754 336.094 693.299 330.598 693.898C308.398 696.403 288.286 699.997 271.306 703.755C265.371 705.117 259.766 706.478 254.656 707.731L252.073 690.957C257.183 689.65 262.788 688.343 268.723 687.036C286.527 683.169 307.464 679.466 330.653 677.015C336.149 676.361 341.918 675.817 347.688 675.381C381.374 672.821 418.741 673.203 456.712 679.52C459.185 679.901 461.603 680.391 464.076 680.882C466.164 681.263 468.252 681.699 470.34 682.08C490.672 686.219 511.059 692.101 531.006 700.27C536.282 702.448 541.557 704.736 546.778 707.241C561.395 714.157 575.682 722.381 589.53 732.021C594.311 735.452 599.091 738.992 603.817 742.749Z" fill="#131414"/>
<path d="M997.058 677.404C996.674 681.87 996.179 686.281 995.465 690.638C995.135 693.524 994.695 696.465 994.256 699.352C990.244 694.94 985.134 689.494 979.309 683.231C950.899 652.624 906.388 603.99 888.09 581.389C883.529 575.725 879.352 572.893 875.67 572.893C871.439 572.893 866.549 576.324 861.328 581.498C856.163 586.563 850.668 593.37 845.282 600.069C839.073 607.748 832.753 615.754 825.72 622.616C823.137 625.176 815.279 633.018 805.333 631.548C793.683 629.859 787.254 617.878 777.582 599.851C768.021 581.988 754.887 557.644 731.917 534.77C727.411 530.359 722.191 528.616 715.432 529.379C673.229 534.171 600.473 628.28 560.084 687.261C555.084 694.505 550.633 701.258 546.731 707.194C544.918 710.026 543.159 712.749 541.62 715.254L531.949 709.264L527.168 706.268C527.992 704.907 529.256 702.892 530.96 700.277C534.642 694.613 540.137 686.172 547.171 675.879C584.043 621.962 661.03 518.541 713.509 512.659C725.323 511.297 735.874 514.892 743.897 522.952C768.79 547.569 782.528 573.22 792.639 592.009C797.694 601.376 804.618 614.392 807.86 614.937C807.86 614.937 809.564 614.882 813.74 610.798C820.005 604.535 826.104 596.965 831.929 589.667C845.777 572.348 858.855 556.064 875.561 556.064H875.616C884.683 556.064 893.42 561.075 901.388 570.932C916.939 590.266 953.317 630.186 981.177 660.303V660.357C986.947 666.512 992.333 672.284 997.058 677.404Z" fill="#131414"/>
<path d="M602.053 702.154L587.546 693.277C589.799 689.628 643.596 603.416 679.04 582.34L687.832 596.826C661.291 612.62 616.945 678.191 602.053 702.154Z" fill="#131414"/>
<path d="M654.927 371.825L654.85 388.708L723.044 389.013L723.121 372.131L654.927 371.825Z" fill="#131414"/>
<path d="M727.806 408.94L662.912 429.703L668.145 445.769L733.039 425.006L727.806 408.94Z" fill="#131414"/>
<path d="M671.325 309.149L663.07 323.917L722.72 356.669L730.975 341.901L671.325 309.149Z" fill="#131414"/>
<path d="M716.311 267.628L703.093 278.279L746.117 330.719L759.335 320.068L716.311 267.628Z" fill="#131414"/>
<path d="M782.575 244.251L765.701 246.57L775.071 313.515L791.944 311.195L782.575 244.251Z" fill="#131414"/>
<path d="M826.87 244.029L809.991 309.514L826.497 313.692L843.375 248.208L826.87 244.029Z" fill="#131414"/>
<path d="M880.686 266.829L840.499 321.432L854.261 331.381L894.449 276.778L880.686 266.829Z" fill="#131414"/>
<path d="M941.018 806.17C931.401 799.144 921.235 792.772 910.63 787.163C874.417 767.829 833.038 756.883 789.132 756.883C748.633 756.883 710.332 766.195 676.262 782.752C598.45 820.493 542.62 896.14 533.223 985.183C532.619 990.847 532.179 996.62 532.014 1002.34C534.102 1002.88 536.245 1003.43 538.334 1003.92C541.796 1004.73 545.367 1005.5 548.884 1006.21C548.994 1000.49 549.379 994.769 549.928 989.105C559.325 891.401 628.509 810.799 720.717 783.623C742.423 777.197 765.393 773.766 789.187 773.766C816.168 773.766 842.105 778.177 866.284 786.346C890.408 794.461 912.773 806.224 932.775 820.983C937.336 824.36 941.842 827.954 946.128 831.658C947.447 829.588 948.711 827.464 949.865 825.286C951.569 822.454 953.162 819.622 954.646 816.681C950.195 813.032 945.634 809.546 941.018 806.17Z" fill="#131414"/>
<path d="M890.513 878.419C862.268 857.289 827.099 844.763 789.127 844.763C701.26 844.763 628.944 911.641 621.141 996.709C620.591 1001.77 620.371 1006.84 620.371 1011.96C620.371 1012.5 620.371 1013.05 620.426 1013.59C621.525 1013.65 622.679 1013.65 623.778 1013.65C628.339 1013.65 632.9 1013.59 637.461 1013.37C637.406 1012.88 637.406 1012.45 637.406 1011.96C637.406 1006.68 637.681 1001.5 638.176 996.437C646.089 920.845 710.766 861.646 789.127 861.646C822.648 861.646 853.64 872.483 878.753 890.782C883.314 894.104 887.765 897.699 891.887 901.511C895.843 897.535 899.745 893.396 903.481 889.203C899.36 885.39 894.964 881.796 890.513 878.419Z" fill="#131414"/>
<path d="M972.627 721.451C919.379 688.284 856.46 669.114 789.089 669.114C719.961 669.114 655.448 689.319 601.32 724.12C597.309 726.679 593.352 729.402 589.451 732.071C585.824 734.631 582.197 737.245 578.735 739.913C577.526 740.839 576.262 741.82 575.054 742.745C509.936 793.667 463.722 867.189 448.445 951.277C447.401 957.159 446.522 963.095 445.808 969.14C447.401 970.011 448.995 970.828 450.643 971.7C454.325 973.66 458.117 975.567 461.963 977.309C462.568 971.427 463.392 965.491 464.436 959.664C478.064 875.794 524.168 802.653 589.451 753.093C591.044 751.949 592.528 750.806 594.067 749.662C597.254 747.32 600.496 744.978 603.738 742.745C607.31 740.404 610.827 738.007 614.454 735.774C665.119 704.241 724.961 685.997 789.035 685.997C855.031 685.997 916.522 705.331 968.067 738.715C973.122 741.874 978.013 745.251 982.848 748.791C983.673 746.067 984.497 743.453 985.156 740.73C986.091 737.681 986.915 734.576 987.684 731.418C982.739 727.932 977.793 724.61 972.627 721.451Z" fill="#131414"/>
<path d="M347.691 572.735V692.168C341.921 692.658 336.151 693.203 330.656 693.802V572.735H347.691Z" fill="#131414"/>
<path d="M346.534 420.116L339.445 407.1L331.752 419.789C328.455 425.181 251.633 553.11 282.626 609.042C291.473 625.108 307.738 633.821 330.708 635.074C331.642 635.129 332.632 635.183 333.621 635.183C334.775 635.237 335.874 635.237 336.973 635.237C340.709 635.237 344.336 635.129 347.743 634.693C368.899 632.732 384.066 624.4 393.023 610.022C420.004 566.399 379.45 480.677 346.534 420.116ZM378.406 601.145C372.526 610.512 362.47 616.067 347.633 617.701C343.457 618.191 338.896 618.354 333.95 618.246C332.796 618.246 331.697 618.191 330.598 618.137C314.168 617.047 303.342 611.438 297.518 600.927C278.01 565.745 315.542 483.509 338.676 441.628C380.824 522.122 394.177 575.766 378.406 601.145Z" fill="#131414"/>
<path d="M470.303 610.601H456.676V687.609H470.303V610.601Z" fill="#131414"/>
<path d="M469.398 518.268L463.738 507.812L457.528 517.942C452.528 526.165 409.336 599.361 428.019 633.236C433.46 643.039 443.076 648.485 456.649 649.52C457.748 649.737 458.902 649.792 460.056 649.792H462.089C464.947 649.792 467.694 649.683 470.277 649.247C482.751 647.831 491.763 642.603 497.203 633.889C513.963 606.931 489.345 554.975 469.398 518.268ZM485.554 626.809C482.531 631.547 477.586 634.597 470.277 635.741C467.365 636.231 464.067 636.394 460.386 636.286C459.067 636.231 457.803 636.177 456.649 636.068C448.461 635.196 443.021 632.092 439.999 626.755C429.008 607.04 449.341 561.129 463.188 535.587C487.037 581.716 494.566 612.323 485.554 626.809Z" fill="#131414"/>
<path d="M852.865 348.034C852.865 348.034 835.885 334.637 829.511 332.077C823.191 329.518 823.191 343.024 823.191 343.024L843.633 349.777L852.865 348.034Z" fill="#131414"/>
<path d="M799.336 437.628C827.561 437.628 850.441 414.952 850.441 386.98C850.441 359.007 827.561 336.331 799.336 336.331C771.112 336.331 748.231 359.007 748.231 386.98C748.231 414.952 771.112 437.628 799.336 437.628Z" fill="#E07103"/>
</g>
<defs>
<filter id="filter0_d_80_1025" x="9.21005" y="45.7832" width="1239.43" height="1231.28" filterUnits="userSpaceOnUse" color-interpolation-filters="sRGB">
<feFlood flood-opacity="0" result="BackgroundImageFix"/>
<feColorMatrix in="SourceAlpha" type="matrix" values="0 0 0 0 0 0 0 0 0 0 0 0 0 0 0 0 0 0 127 0" result="hardAlpha"/>
<feOffset dy="32.5848"/>
<feGaussianBlur stdDeviation="81.4621"/>
<feComposite in2="hardAlpha" operator="out"/>
<feColorMatrix type="matrix" values="0 0 0 0 1 0 0 0 0 1 0 0 0 0 1 0 0 0 0.25 0"/>
<feBlend mode="normal" in2="BackgroundImageFix" result="effect1_dropShadow_80_1025"/>
<feBlend mode="normal" in="SourceGraphic" in2="effect1_dropShadow_80_1025" result="shape"/>
</filter>
<radialGradient id="paint0_radial_80_1025" cx="0" cy="0" r="1" gradientUnits="userSpaceOnUse" gradientTransform="translate(623.101 610.393) rotate(-180) scale(1486.43 1483.92)">
<stop stop-color="white" stop-opacity="0"/>
<stop offset="1" stop-color="#F9A825"/>
</radialGradient>
<radialGradient id="paint1_radial_80_1025" cx="0" cy="0" r="1" gradientUnits="userSpaceOnUse" gradientTransform="translate(623.1 610.389) rotate(-180) scale(1486.43 1483.92)">
<stop stop-color="white" stop-opacity="0"/>
<stop offset="1" stop-color="#61CD81"/>
</radialGradient>
</defs>
</svg>
