<svg width="18" height="15" viewBox="0 0 18 15" fill="none" xmlns="http://www.w3.org/2000/svg">
<path d="M0 4.59961V11.7496C0 12.4127 0.263392 13.0485 0.732233 13.5174C1.20107 13.9862 1.83696 14.2496 2.5 14.2496H15C15.663 14.2496 16.2989 13.9862 16.7678 13.5174C17.2366 13.0485 17.5 12.4127 17.5 11.7496V4.59961L10.06 9.17711C9.66603 9.41949 9.21255 9.54781 8.75 9.54781C8.28745 9.54781 7.83396 9.41949 7.44 9.17711L0 4.59961Z" fill="#66CE85"/>
<path d="M17.5 3.13167V3C17.5 2.33696 17.2366 1.70107 16.7678 1.23223C16.2989 0.763392 15.663 0.5 15 0.5H2.5C1.83696 0.5 1.20107 0.763392 0.732233 1.23223C0.263392 1.70107 0 2.33696 0 3V3.13167L8.095 8.11333C8.29198 8.23452 8.51872 8.29869 8.75 8.29869C8.98128 8.29869 9.20802 8.23452 9.405 8.11333L17.5 3.13167Z" fill="#66CE85"/>
</svg>
