<svg width="21" height="20" viewBox="0 0 21 20" fill="none" xmlns="http://www.w3.org/2000/svg">
<path d="M6.125 10C6.125 10.1658 6.05915 10.3247 5.94194 10.4419C5.82473 10.5592 5.66576 10.625 5.5 10.625C5.33424 10.625 5.17527 10.5592 5.05806 10.4419C4.94085 10.3247 4.875 10.1658 4.875 10C4.875 9.83424 4.94085 9.67527 5.05806 9.55806C5.17527 9.44085 5.33424 9.375 5.5 9.375C5.66576 9.375 5.82473 9.44085 5.94194 9.55806C6.05915 9.67527 6.125 9.83424 6.125 10ZM11.125 10C11.125 10.1658 11.0592 10.3247 10.9419 10.4419C10.8247 10.5592 10.6658 10.625 10.5 10.625C10.3342 10.625 10.1753 10.5592 10.0581 10.4419C9.94085 10.3247 9.875 10.1658 9.875 10C9.875 9.83424 9.94085 9.67527 10.0581 9.55806C10.1753 9.44085 10.3342 9.375 10.5 9.375C10.6658 9.375 10.8247 9.44085 10.9419 9.55806C11.0592 9.67527 11.125 9.83424 11.125 10ZM16.125 10C16.125 10.1658 16.0592 10.3247 15.9419 10.4419C15.8247 10.5592 15.6658 10.625 15.5 10.625C15.3342 10.625 15.1753 10.5592 15.0581 10.4419C14.9408 10.3247 14.875 10.1658 14.875 10C14.875 9.83424 14.9408 9.67527 15.0581 9.55806C15.1753 9.44085 15.3342 9.375 15.5 9.375C15.6658 9.375 15.8247 9.44085 15.9419 9.55806C16.0592 9.67527 16.125 9.83424 16.125 10Z" fill="#0A0A0A"/>
<path d="M6.125 10C6.125 10.1658 6.05915 10.3247 5.94194 10.4419C5.82473 10.5592 5.66576 10.625 5.5 10.625C5.33424 10.625 5.17527 10.5592 5.05806 10.4419C4.94085 10.3247 4.875 10.1658 4.875 10C4.875 9.83424 4.94085 9.67527 5.05806 9.55806C5.17527 9.44085 5.33424 9.375 5.5 9.375C5.66576 9.375 5.82473 9.44085 5.94194 9.55806C6.05915 9.67527 6.125 9.83424 6.125 10ZM11.125 10C11.125 10.1658 11.0592 10.3247 10.9419 10.4419C10.8247 10.5592 10.6658 10.625 10.5 10.625C10.3342 10.625 10.1753 10.5592 10.0581 10.4419C9.94085 10.3247 9.875 10.1658 9.875 10C9.875 9.83424 9.94085 9.67527 10.0581 9.55806C10.1753 9.44085 10.3342 9.375 10.5 9.375C10.6658 9.375 10.8247 9.44085 10.9419 9.55806C11.0592 9.67527 11.125 9.83424 11.125 10ZM16.125 10C16.125 10.1658 16.0592 10.3247 15.9419 10.4419C15.8247 10.5592 15.6658 10.625 15.5 10.625C15.3342 10.625 15.1753 10.5592 15.0581 10.4419C14.9408 10.3247 14.875 10.1658 14.875 10C14.875 9.83424 14.9408 9.67527 15.0581 9.55806C15.1753 9.44085 15.3342 9.375 15.5 9.375C15.6658 9.375 15.8247 9.44085 15.9419 9.55806C16.0592 9.67527 16.125 9.83424 16.125 10Z" fill="#0A1339"/>
<path d="M6.125 10C6.125 10.1658 6.05915 10.3247 5.94194 10.4419C5.82473 10.5592 5.66576 10.625 5.5 10.625C5.33424 10.625 5.17527 10.5592 5.05806 10.4419C4.94085 10.3247 4.875 10.1658 4.875 10C4.875 9.83424 4.94085 9.67527 5.05806 9.55806C5.17527 9.44085 5.33424 9.375 5.5 9.375C5.66576 9.375 5.82473 9.44085 5.94194 9.55806C6.05915 9.67527 6.125 9.83424 6.125 10ZM11.125 10C11.125 10.1658 11.0592 10.3247 10.9419 10.4419C10.8247 10.5592 10.6658 10.625 10.5 10.625C10.3342 10.625 10.1753 10.5592 10.0581 10.4419C9.94085 10.3247 9.875 10.1658 9.875 10C9.875 9.83424 9.94085 9.67527 10.0581 9.55806C10.1753 9.44085 10.3342 9.375 10.5 9.375C10.6658 9.375 10.8247 9.44085 10.9419 9.55806C11.0592 9.67527 11.125 9.83424 11.125 10ZM16.125 10C16.125 10.1658 16.0592 10.3247 15.9419 10.4419C15.8247 10.5592 15.6658 10.625 15.5 10.625C15.3342 10.625 15.1753 10.5592 15.0581 10.4419C14.9408 10.3247 14.875 10.1658 14.875 10C14.875 9.83424 14.9408 9.67527 15.0581 9.55806C15.1753 9.44085 15.3342 9.375 15.5 9.375C15.6658 9.375 15.8247 9.44085 15.9419 9.55806C16.0592 9.67527 16.125 9.83424 16.125 10Z" fill="white" fill-opacity="0.9"/>
<path d="M6.125 10C6.125 10.1658 6.05915 10.3247 5.94194 10.4419C5.82473 10.5592 5.66576 10.625 5.5 10.625C5.33424 10.625 5.17527 10.5592 5.05806 10.4419C4.94085 10.3247 4.875 10.1658 4.875 10C4.875 9.83424 4.94085 9.67527 5.05806 9.55806C5.17527 9.44085 5.33424 9.375 5.5 9.375C5.66576 9.375 5.82473 9.44085 5.94194 9.55806C6.05915 9.67527 6.125 9.83424 6.125 10ZM11.125 10C11.125 10.1658 11.0592 10.3247 10.9419 10.4419C10.8247 10.5592 10.6658 10.625 10.5 10.625C10.3342 10.625 10.1753 10.5592 10.0581 10.4419C9.94085 10.3247 9.875 10.1658 9.875 10C9.875 9.83424 9.94085 9.67527 10.0581 9.55806C10.1753 9.44085 10.3342 9.375 10.5 9.375C10.6658 9.375 10.8247 9.44085 10.9419 9.55806C11.0592 9.67527 11.125 9.83424 11.125 10ZM16.125 10C16.125 10.1658 16.0592 10.3247 15.9419 10.4419C15.8247 10.5592 15.6658 10.625 15.5 10.625C15.3342 10.625 15.1753 10.5592 15.0581 10.4419C14.9408 10.3247 14.875 10.1658 14.875 10C14.875 9.83424 14.9408 9.67527 15.0581 9.55806C15.1753 9.44085 15.3342 9.375 15.5 9.375C15.6658 9.375 15.8247 9.44085 15.9419 9.55806C16.0592 9.67527 16.125 9.83424 16.125 10Z" stroke="#0A0A0A" stroke-width="1.5" stroke-linecap="round" stroke-linejoin="round"/>
<path d="M6.125 10C6.125 10.1658 6.05915 10.3247 5.94194 10.4419C5.82473 10.5592 5.66576 10.625 5.5 10.625C5.33424 10.625 5.17527 10.5592 5.05806 10.4419C4.94085 10.3247 4.875 10.1658 4.875 10C4.875 9.83424 4.94085 9.67527 5.05806 9.55806C5.17527 9.44085 5.33424 9.375 5.5 9.375C5.66576 9.375 5.82473 9.44085 5.94194 9.55806C6.05915 9.67527 6.125 9.83424 6.125 10ZM11.125 10C11.125 10.1658 11.0592 10.3247 10.9419 10.4419C10.8247 10.5592 10.6658 10.625 10.5 10.625C10.3342 10.625 10.1753 10.5592 10.0581 10.4419C9.94085 10.3247 9.875 10.1658 9.875 10C9.875 9.83424 9.94085 9.67527 10.0581 9.55806C10.1753 9.44085 10.3342 9.375 10.5 9.375C10.6658 9.375 10.8247 9.44085 10.9419 9.55806C11.0592 9.67527 11.125 9.83424 11.125 10ZM16.125 10C16.125 10.1658 16.0592 10.3247 15.9419 10.4419C15.8247 10.5592 15.6658 10.625 15.5 10.625C15.3342 10.625 15.1753 10.5592 15.0581 10.4419C14.9408 10.3247 14.875 10.1658 14.875 10C14.875 9.83424 14.9408 9.67527 15.0581 9.55806C15.1753 9.44085 15.3342 9.375 15.5 9.375C15.6658 9.375 15.8247 9.44085 15.9419 9.55806C16.0592 9.67527 16.125 9.83424 16.125 10Z" stroke="#0A1339" stroke-opacity="0.6" stroke-width="1.5" stroke-linecap="round" stroke-linejoin="round"/>
<path d="M6.125 10C6.125 10.1658 6.05915 10.3247 5.94194 10.4419C5.82473 10.5592 5.66576 10.625 5.5 10.625C5.33424 10.625 5.17527 10.5592 5.05806 10.4419C4.94085 10.3247 4.875 10.1658 4.875 10C4.875 9.83424 4.94085 9.67527 5.05806 9.55806C5.17527 9.44085 5.33424 9.375 5.5 9.375C5.66576 9.375 5.82473 9.44085 5.94194 9.55806C6.05915 9.67527 6.125 9.83424 6.125 10ZM11.125 10C11.125 10.1658 11.0592 10.3247 10.9419 10.4419C10.8247 10.5592 10.6658 10.625 10.5 10.625C10.3342 10.625 10.1753 10.5592 10.0581 10.4419C9.94085 10.3247 9.875 10.1658 9.875 10C9.875 9.83424 9.94085 9.67527 10.0581 9.55806C10.1753 9.44085 10.3342 9.375 10.5 9.375C10.6658 9.375 10.8247 9.44085 10.9419 9.55806C11.0592 9.67527 11.125 9.83424 11.125 10ZM16.125 10C16.125 10.1658 16.0592 10.3247 15.9419 10.4419C15.8247 10.5592 15.6658 10.625 15.5 10.625C15.3342 10.625 15.1753 10.5592 15.0581 10.4419C14.9408 10.3247 14.875 10.1658 14.875 10C14.875 9.83424 14.9408 9.67527 15.0581 9.55806C15.1753 9.44085 15.3342 9.375 15.5 9.375C15.6658 9.375 15.8247 9.44085 15.9419 9.55806C16.0592 9.67527 16.125 9.83424 16.125 10Z" stroke="white" stroke-opacity="0.6" stroke-width="1.5" stroke-linecap="round" stroke-linejoin="round"/>
</svg>
