<svg width="130" height="130" viewBox="0 0 130 130" fill="none" xmlns="http://www.w3.org/2000/svg">
<path d="M65 130C100.899 130 130 100.899 130 65C130 29.1015 100.899 0 65 0C29.1015 0 0 29.1015 0 65C0 100.899 29.1015 130 65 130Z" fill="#61cd81"/>
<path d="M78.6757 128.468C79.9222 128.226 81.1613 127.948 82.3915 127.633C84.4774 127.05 86.5329 126.363 88.5502 125.575C90.5701 124.793 92.5497 123.911 94.4815 122.932C96.4138 121.949 98.2958 120.869 100.12 119.698C101.943 118.527 103.705 117.265 105.401 115.917C107.101 114.568 108.731 113.134 110.287 111.622C111.841 110.113 113.318 108.528 114.713 106.871C116.109 105.214 117.421 103.487 118.645 101.698C119.869 99.9127 121.002 98.0669 122.041 96.168C123.081 94.2664 124.025 92.3139 124.869 90.318C125.714 88.3217 126.459 86.2843 127.101 84.2134C127.65 82.4004 128.12 80.5642 128.509 78.7101L89.8882 40.0947C86.6266 36.8187 82.7494 34.2201 78.4798 32.4482C74.2101 30.6764 69.6321 29.7664 65.0094 29.7705C60.3825 29.7655 55.8003 30.675 51.526 32.4468C47.2518 34.2186 43.37 36.8177 40.1036 40.0947C36.829 43.3621 34.231 47.2433 32.4584 51.516C30.6859 55.7888 29.7734 60.3692 29.7734 64.9951C29.7734 69.621 30.6859 74.2014 32.4584 78.4742C34.231 82.747 36.829 86.6282 40.1036 89.8955L78.6757 128.462V128.468Z" fill="#0FAB3B"/>
<path d="M65.0094 29.7759C74.0119 29.7759 83.0144 33.2155 89.9044 40.1001C93.179 43.3674 95.7769 47.2486 97.5495 51.5214C99.3221 55.7942 100.235 60.3746 100.235 65.0005C100.235 69.6264 99.3221 74.2068 97.5495 78.4796C95.7769 82.7523 93.179 86.6335 89.9044 89.9009C86.637 93.1755 82.7558 95.7734 78.4831 97.546C74.2103 99.3186 69.6299 100.231 65.004 100.231C60.3781 100.231 55.7977 99.3186 51.5249 97.546C47.2521 95.7734 43.371 93.1755 40.1036 89.9009C36.829 86.6335 34.231 82.7523 32.4584 78.4796C30.6859 74.2068 29.7734 69.6264 29.7734 65.0005C29.7734 60.3746 30.6859 55.7942 32.4584 51.5214C34.231 47.2486 36.829 43.3674 40.1036 40.1001C43.37 36.823 47.2518 34.2239 51.526 32.4521C55.8003 30.6804 60.3825 29.7708 65.0094 29.7759ZM81.0427 54.1617C80.53 54.2108 80.0417 54.4043 79.6344 54.7196L59.8419 69.5613L50.6715 60.3963C48.6836 58.3271 44.7673 62.238 46.8419 64.2259L57.6752 75.0592C58.1449 75.5033 58.7537 75.7713 59.3984 75.8177C60.043 75.8641 60.6839 75.6861 61.2123 75.3138L82.879 59.0638C84.699 57.7367 83.5777 54.1996 81.3244 54.1671C81.2324 54.1624 81.1402 54.1624 81.0482 54.1671L81.0427 54.1617Z" fill="white"/>
</svg>
