<svg width="21" height="20" viewBox="0 0 21 20" fill="none" xmlns="http://www.w3.org/2000/svg">
<rect x="0.5" width="20" height="20" rx="10" fill="#F6F8F9"/>
<path d="M15.3961 7H12.5648C12.3703 7 12.2109 7.15469 12.2109 7.34688C12.2109 7.53906 12.3703 7.69375 12.5648 7.69375H14.5266L11.2922 11.0266L9.27891 9.05547C9.21094 8.98984 9.12422 8.95469 9.02812 8.95469C8.93437 8.95469 8.84531 8.98984 8.77734 9.05547L5.34844 12.4094C5.30391 12.4539 5.25 12.5312 5.25 12.6602C5.25 12.7562 5.28281 12.8359 5.34844 12.8992C5.41641 12.9648 5.50313 13 5.59922 13C5.69297 13 5.78203 12.9648 5.85 12.8992L9.02812 9.78906L11.0414 11.7602C11.1094 11.8258 11.1961 11.8609 11.2922 11.8609C11.3859 11.8609 11.475 11.8258 11.543 11.7602L15.0445 8.2V10.1148C15.0445 10.3047 15.2039 10.4617 15.3984 10.4617C15.593 10.4617 15.7523 10.307 15.7523 10.1148V7.34688C15.75 7.15469 15.5906 7 15.3961 7Z" fill="#61CD81"/>
</svg>
