<svg width="41" height="41" viewBox="0 0 41 41" fill="none" xmlns="http://www.w3.org/2000/svg">
<rect x="1.5" y="1.6665" width="38" height="38" rx="19" stroke="#61CD81" stroke-width="2"/>
<path d="M10 26.2915C10 26.9877 10.2766 27.6554 10.7688 28.1477C11.2611 28.6399 11.9288 28.9165 12.625 28.9165H28.375C29.0712 28.9165 29.7389 28.6399 30.2312 28.1477C30.7234 27.6554 31 26.9877 31 26.2915V19.0728H10V26.2915ZM13.0938 22.729C13.0938 22.356 13.2419 21.9984 13.5056 21.7346C13.7694 21.4709 14.127 21.3228 14.5 21.3228H16.75C17.123 21.3228 17.4806 21.4709 17.7444 21.7346C18.0081 21.9984 18.1562 22.356 18.1562 22.729V23.6665C18.1562 24.0395 18.0081 24.3971 17.7444 24.6609C17.4806 24.9246 17.123 25.0728 16.75 25.0728H14.5C14.127 25.0728 13.7694 24.9246 13.5056 24.6609C13.2419 24.3971 13.0938 24.0395 13.0938 23.6665V22.729ZM28.375 12.4165H12.625C11.9288 12.4165 11.2611 12.6931 10.7688 13.1853C10.2766 13.6776 10 14.3453 10 15.0415V16.2603H31V15.0415C31 14.3453 30.7234 13.6776 30.2312 13.1853C29.7389 12.6931 29.0712 12.4165 28.375 12.4165Z" fill="#61CD81"/>
</svg>
