<svg width="25" height="24" viewBox="0 0 25 24" fill="none" xmlns="http://www.w3.org/2000/svg">
<path d="M12.5 2.25C7.12391 2.25 2.75 6.62391 2.75 12C2.75 17.3761 7.12391 21.75 12.5 21.75C17.8761 21.75 22.25 17.3761 22.25 12C22.25 6.62391 17.8761 2.25 12.5 2.25ZM10.1459 7.72594C10.7398 7.09641 11.5756 6.75 12.5 6.75C13.4244 6.75 14.2527 7.09875 14.8489 7.73156C15.4531 8.37281 15.747 9.23437 15.6777 10.1606C15.5389 12 14.1139 13.5 12.5 13.5C10.8861 13.5 9.45828 12 9.32234 10.1602C9.25344 9.22641 9.54688 8.36203 10.1459 7.72594ZM12.5 20.25C11.3987 20.2507 10.3084 20.0303 9.29382 19.6018C8.27927 19.1732 7.36109 18.5453 6.59375 17.7553C7.03323 17.1286 7.5932 16.5957 8.24094 16.1878C9.43578 15.4219 10.948 15 12.5 15C14.052 15 15.5642 15.4219 16.7577 16.1878C17.4059 16.5955 17.9664 17.1284 18.4062 17.7553C17.639 18.5454 16.7208 19.1734 15.7062 19.6019C14.6917 20.0304 13.6014 20.2508 12.5 20.25Z" fill="black" fill-opacity="0.3"/>
</svg>
