<svg width="305" height="304" viewBox="0 0 305 304" fill="none" xmlns="http://www.w3.org/2000/svg">
<rect x="0.5" width="304" height="304" rx="32" fill="#24BC48" fill-opacity="0.1"/>
<path d="M42.9352 88.0704L42.9351 59.5001C42.9351 50.4979 50.2329 43.2001 59.2352 43.2001L89.3353 43.2002" stroke="#239942" stroke-width="1.5"/>
<path d="M216.43 42.4352L245 42.4351C254.002 42.4351 261.3 49.7329 261.3 58.7352L261.3 88.8353" stroke="#239942" stroke-width="1.5"/>
<path d="M142.92 128.078C145.353 125.452 148.75 124.005 152.5 124.005C156.27 124.005 159.679 125.443 162.1 128.053C164.548 130.692 165.74 134.278 165.46 138.15C164.905 145.79 159.092 152.005 152.5 152.005C145.909 152.005 140.105 145.792 139.542 138.153C139.258 134.315 140.458 130.737 142.92 128.078ZM130.5 180.005H174.5C175.076 180.013 175.647 179.892 176.17 179.651C176.693 179.411 177.156 179.056 177.525 178.614C178.338 177.643 178.665 176.317 178.423 174.975C177.368 169.123 174.075 164.207 168.9 160.755C164.303 157.692 158.479 156.005 152.5 156.005C146.522 156.005 140.698 157.693 136.1 160.755C130.925 164.205 127.633 169.122 126.578 174.974C126.335 176.315 126.663 177.642 127.475 178.613C127.844 179.055 128.307 179.41 128.831 179.651C129.354 179.892 129.924 180.013 130.5 180.005Z" fill="#61CD81"/>
<path d="M88.5704 261.565L60.0001 261.565C50.9978 261.565 43.7001 254.267 43.7001 245.265L43.7001 215.165" stroke="#239942" stroke-width="1.5"/>
<path d="M262.065 215.93L262.065 244.5C262.065 253.502 254.767 260.8 245.765 260.8L215.665 260.8" stroke="#239942" stroke-width="1.5"/>
</svg>
