<svg width="25" height="24" viewBox="0 0 25 24" fill="none" xmlns="http://www.w3.org/2000/svg">
<path d="M20.5625 10.5H14C13.4033 10.5 12.831 10.2629 12.409 9.84099C11.9871 9.41903 11.75 8.84674 11.75 8.25V1.6875C11.75 1.63777 11.7302 1.59008 11.6951 1.55492C11.6599 1.51975 11.6122 1.5 11.5625 1.5H7.25C6.45435 1.5 5.69129 1.81607 5.12868 2.37868C4.56607 2.94129 4.25 3.70435 4.25 4.5V19.5C4.25 20.2956 4.56607 21.0587 5.12868 21.6213C5.69129 22.1839 6.45435 22.5 7.25 22.5H17.75C18.5456 22.5 19.3087 22.1839 19.8713 21.6213C20.4339 21.0587 20.75 20.2956 20.75 19.5V10.6875C20.75 10.6378 20.7302 10.5901 20.6951 10.5549C20.6599 10.5198 20.6122 10.5 20.5625 10.5ZM16.25 18H8.75C8.55109 18 8.36032 17.921 8.21967 17.7803C8.07902 17.6397 8 17.4489 8 17.25C8 17.0511 8.07902 16.8603 8.21967 16.7197C8.36032 16.579 8.55109 16.5 8.75 16.5H16.25C16.4489 16.5 16.6397 16.579 16.7803 16.7197C16.921 16.8603 17 17.0511 17 17.25C17 17.4489 16.921 17.6397 16.7803 17.7803C16.6397 17.921 16.4489 18 16.25 18ZM16.25 14.25H8.75C8.55109 14.25 8.36032 14.171 8.21967 14.0303C8.07902 13.8897 8 13.6989 8 13.5C8 13.3011 8.07902 13.1103 8.21967 12.9697C8.36032 12.829 8.55109 12.75 8.75 12.75H16.25C16.4489 12.75 16.6397 12.829 16.7803 12.9697C16.921 13.1103 17 13.3011 17 13.5C17 13.6989 16.921 13.8897 16.7803 14.0303C16.6397 14.171 16.4489 14.25 16.25 14.25Z" fill="#61CD81"/>
<path d="M20.1509 8.84013L13.4098 2.09904C13.3967 2.08601 13.3801 2.07714 13.3619 2.07356C13.3438 2.06997 13.325 2.07183 13.3079 2.07889C13.2908 2.08595 13.2762 2.09791 13.2659 2.11326C13.2556 2.1286 13.2501 2.14665 13.25 2.16513V8.24998C13.25 8.44889 13.329 8.63966 13.4697 8.78031C13.6103 8.92096 13.8011 8.99998 14 8.99998H20.0848C20.1033 8.9999 20.1214 8.99436 20.1367 8.98405C20.1521 8.97375 20.164 8.95913 20.1711 8.94205C20.1781 8.92497 20.18 8.90618 20.1764 8.88805C20.1728 8.86991 20.164 8.85324 20.1509 8.84013Z" fill="#61CD81"/>
</svg>
