<svg width="41" height="41" viewBox="0 0 41 41" fill="none" xmlns="http://www.w3.org/2000/svg">
<rect x="1.5" y="1.6665" width="38" height="38" rx="19" stroke="#61CD81" stroke-width="2"/>
<path d="M25 15.4165H30.25V20.6665" stroke="#61CD81" stroke-width="1.5" stroke-linecap="round" stroke-linejoin="round"/>
<path d="M10.75 25.9165L16.4392 20.2273C16.5785 20.088 16.7439 19.9774 16.9259 19.902C17.1079 19.8266 17.303 19.7878 17.5 19.7878C17.697 19.7878 17.8921 19.8266 18.0741 19.902C18.2561 19.9774 18.4215 20.088 18.5608 20.2273L20.9392 22.6057C21.0785 22.745 21.2439 22.8556 21.4259 22.931C21.6079 23.0064 21.803 23.0452 22 23.0452C22.197 23.0452 22.3921 23.0064 22.5741 22.931C22.7561 22.8556 22.9215 22.745 23.0608 22.6057L29.5 16.1665" stroke="#61CD81" stroke-width="1.5" stroke-linecap="round" stroke-linejoin="round"/>
</svg>
