<svg width="41" height="41" viewBox="0 0 41 41" fill="none" xmlns="http://www.w3.org/2000/svg">
<rect x="1.5" y="1.6665" width="38" height="38" rx="19" stroke="#61CD81" stroke-width="2"/>
<path fill-rule="evenodd" clip-rule="evenodd" d="M18.5 12.6665H22.5C26.2712 12.6665 28.1569 12.6665 29.3284 13.8381C30.5 15.0096 30.5 16.8953 30.5 20.6665C30.5 24.4377 30.5 26.3234 29.3284 27.4949C28.1569 28.6665 26.2712 28.6665 22.5 28.6665H18.5C14.7288 28.6665 12.8431 28.6665 11.6716 27.4949C10.5 26.3234 10.5 24.4377 10.5 20.6665C10.5 16.8953 10.5 15.0096 11.6716 13.8381C12.8431 12.6665 14.7288 12.6665 18.5 12.6665ZM21.75 17.6665C21.75 17.2523 22.0858 16.9165 22.5 16.9165H27.5C27.9142 16.9165 28.25 17.2523 28.25 17.6665C28.25 18.0807 27.9142 18.4165 27.5 18.4165H22.5C22.0858 18.4165 21.75 18.0807 21.75 17.6665ZM22.75 20.6665C22.75 20.2523 23.0858 19.9165 23.5 19.9165H27.5C27.9142 19.9165 28.25 20.2523 28.25 20.6665C28.25 21.0807 27.9142 21.4165 27.5 21.4165H23.5C23.0858 21.4165 22.75 21.0807 22.75 20.6665ZM23.75 23.6665C23.75 23.2523 24.0858 22.9165 24.5 22.9165H27.5C27.9142 22.9165 28.25 23.2523 28.25 23.6665C28.25 24.0807 27.9142 24.4165 27.5 24.4165H24.5C24.0858 24.4165 23.75 24.0807 23.75 23.6665ZM19.5 17.6665C19.5 18.7711 18.6046 19.6665 17.5 19.6665C16.3954 19.6665 15.5 18.7711 15.5 17.6665C15.5 16.5619 16.3954 15.6665 17.5 15.6665C18.6046 15.6665 19.5 16.5619 19.5 17.6665ZM17.5 25.6665C21.5 25.6665 21.5 24.7711 21.5 23.6665C21.5 22.5619 19.7091 21.6665 17.5 21.6665C15.2909 21.6665 13.5 22.5619 13.5 23.6665C13.5 24.7711 13.5 25.6665 17.5 25.6665Z" fill="#61CD81"/>
</svg>
