<svg width="17" height="18" viewBox="0 0 17 18" fill="none" xmlns="http://www.w3.org/2000/svg">
<path d="M7.84 12.84V6.4H9.16V12.84H7.84ZM8.5 5.48C8.23333 5.48 8.03333 5.41333 7.9 5.28C7.76667 5.14667 7.7 4.95333 7.7 4.7C7.7 4.43333 7.76667 4.24 7.9 4.12C8.03333 3.98667 8.23333 3.92 8.5 3.92C8.71333 3.92 8.89333 3.98667 9.04 4.12C9.2 4.24 9.28 4.43333 9.28 4.7C9.28 4.96667 9.2 5.16667 9.04 5.3C8.89333 5.42 8.71333 5.48 8.5 5.48ZM8.5 17.1C7.36667 17.1 6.3 16.8867 5.3 16.46C4.3 16.0333 3.42 15.4467 2.66 14.7C1.91333 13.94 1.32667 13.06 0.9 12.06C0.473333 11.06 0.26 9.99333 0.26 8.86C0.26 7.71333 0.473333 6.64667 0.9 5.66C1.32667 4.66 1.91333 3.78667 2.66 3.04C3.42 2.28 4.3 1.68667 5.3 1.26C6.3 0.833332 7.36667 0.619999 8.5 0.619999C9.64667 0.619999 10.7133 0.833332 11.7 1.26C12.7 1.68667 13.5733 2.28 14.32 3.04C15.08 3.78667 15.6733 4.66 16.1 5.66C16.5267 6.64667 16.74 7.71333 16.74 8.86C16.74 9.99333 16.5267 11.06 16.1 12.06C15.6733 13.06 15.08 13.94 14.32 14.7C13.5733 15.4467 12.7 16.0333 11.7 16.46C10.7133 16.8867 9.64667 17.1 8.5 17.1ZM8.5 15.98C9.48667 15.98 10.4067 15.8 11.26 15.44C12.1267 15.0667 12.8867 14.5533 13.54 13.9C14.1933 13.2467 14.7 12.4933 15.06 11.64C15.4333 10.7733 15.62 9.84667 15.62 8.86C15.62 7.87333 15.4333 6.95333 15.06 6.1C14.7 5.23333 14.1933 4.47333 13.54 3.82C12.8867 3.16667 12.1267 2.66 11.26 2.3C10.4067 1.92667 9.48667 1.74 8.5 1.74C7.51333 1.74 6.58667 1.92667 5.72 2.3C4.86667 2.66 4.11333 3.16667 3.46 3.82C2.80667 4.47333 2.29333 5.23333 1.92 6.1C1.56 6.95333 1.38 7.87333 1.38 8.86C1.38 9.84667 1.56 10.7733 1.92 11.64C2.29333 12.4933 2.80667 13.2467 3.46 13.9C4.11333 14.5533 4.86667 15.0667 5.72 15.44C6.58667 15.8 7.51333 15.98 8.5 15.98Z" fill="#61CD81"/>
</svg>
