<svg width="20" height="20" viewBox="0 0 20 20" fill="none" xmlns="http://www.w3.org/2000/svg">
<path fill-rule="evenodd" clip-rule="evenodd" d="M2.75499 8.05904C3.09548 6.78718 3.76478 5.62737 4.69562 4.69619C5.62647 3.76501 6.78604 3.09529 8.05778 2.75435C9.32952 2.4134 10.6686 2.41326 11.9404 2.75393C13.2122 3.09459 14.3719 3.76407 15.303 4.69504L17.206 6.59804H14.023C13.8241 6.59804 13.6333 6.67706 13.4927 6.81771C13.352 6.95837 13.273 7.14913 13.273 7.34804C13.273 7.54696 13.352 7.73772 13.4927 7.87838C13.6333 8.01903 13.8241 8.09804 14.023 8.09804H19.015C19.2139 8.09804 19.4047 8.01903 19.5453 7.87838C19.686 7.73772 19.765 7.54696 19.765 7.34804V2.35604C19.765 2.15713 19.686 1.96637 19.5453 1.82571C19.4047 1.68506 19.2139 1.60604 19.015 1.60604C18.8161 1.60604 18.6253 1.68506 18.4847 1.82571C18.344 1.96637 18.265 2.15713 18.265 2.35604V5.53604L16.365 3.63604C15.248 2.5185 13.8564 1.71473 12.3302 1.30555C10.804 0.896366 9.19702 0.896195 7.67075 1.30505C6.14448 1.71391 4.75275 2.51738 3.63548 3.63469C2.51822 4.752 1.71479 6.14376 1.30599 7.67004C1.28052 7.76525 1.27404 7.86455 1.28694 7.96226C1.29984 8.05997 1.33185 8.15418 1.38116 8.23952C1.43047 8.32486 1.4961 8.39964 1.57432 8.45962C1.65253 8.51959 1.74179 8.56357 1.83699 8.58904C1.9322 8.61452 2.0315 8.621 2.12921 8.6081C2.22692 8.5952 2.32113 8.56318 2.40647 8.51388C2.4918 8.46457 2.56659 8.39893 2.62657 8.32072C2.68654 8.24251 2.73052 8.15325 2.75599 8.05804L2.75499 8.05904ZM18.163 11.411C18.0679 11.3855 17.9686 11.3789 17.8709 11.3917C17.7732 11.4045 17.679 11.4364 17.5937 11.4857C17.5084 11.5349 17.4335 11.6004 17.3735 11.6786C17.3135 11.7567 17.2695 11.8459 17.244 11.941C16.9035 13.2129 16.2342 14.3727 15.3034 15.3039C14.3725 16.2351 13.2129 16.9048 11.9412 17.2457C10.6695 17.5867 9.33038 17.5868 8.05857 17.2462C6.78676 16.9055 5.62704 16.236 4.69599 15.305L2.79399 13.402H5.97699C6.17591 13.402 6.36667 13.323 6.50732 13.1824C6.64798 13.0417 6.72699 12.851 6.72699 12.652C6.72699 12.4531 6.64798 12.2624 6.50732 12.1217C6.36667 11.9811 6.17591 11.902 5.97699 11.902H0.983994C0.785081 11.902 0.594316 11.9811 0.453664 12.1217C0.313011 12.2624 0.233994 12.4531 0.233994 12.652V17.644C0.233994 17.843 0.313011 18.0337 0.453664 18.1744C0.594316 18.315 0.785081 18.394 0.983994 18.394C1.18291 18.394 1.37367 18.315 1.51432 18.1744C1.65498 18.0337 1.73399 17.843 1.73399 17.644V14.464L3.63399 16.364C4.75109 17.4816 6.14272 18.2853 7.66897 18.6944C9.19521 19.1036 10.8023 19.1036 12.3286 18.6947C13.8548 18.2857 15.2466 17.4821 16.3638 16.3647C17.481 15.2473 18.2843 13.8554 18.693 12.329C18.7443 12.137 18.7173 11.9325 18.618 11.7604C18.5186 11.5882 18.3549 11.4626 18.163 11.411Z" fill="#61CD81"/>
</svg>
