<svg width="64" height="64" viewBox="0 0 64 64" fill="none" xmlns="http://www.w3.org/2000/svg">
<path d="M27.9042 23.3226C28.5096 22.8426 29.2296 22.4933 30.0002 22.272V29.7253C29.2395 29.517 28.5273 29.1609 27.9042 28.6773C26.8536 27.8426 26.4482 26.8613 26.4482 26C26.4482 25.1386 26.8536 24.1573 27.9042 23.3226ZM34.0002 41.7653V34.2346C34.9256 34.4613 35.7709 34.8426 36.4562 35.3573C37.5949 36.2106 38.0002 37.1866 38.0002 38C38.0002 38.8133 37.5949 39.7893 36.4562 40.6426C35.7212 41.1774 34.8859 41.5609 34.0002 41.7653Z" fill="#61CD81"/>
<g clip-path="url(#clip0_2887_30462)">
<rect x="6.3999" y="6.3999" width="51.2" height="51.2" rx="25.6" fill="white"/>
<path d="M6.3999 6.3999H57.5999V57.5999H6.3999V6.3999Z" fill="#61CD81"/>
<path fill-rule="evenodd" clip-rule="evenodd" d="M36.9076 19.6782C33.6393 18.2864 29.9518 18.2499 26.6566 19.5769C25.5388 20.027 24.2678 19.4857 23.8177 18.368C23.3676 17.2502 23.9088 15.9792 25.0266 15.5291C29.3954 13.7698 34.2841 13.8181 38.6173 15.6633C42.9505 17.5086 46.3732 20.9996 48.1324 25.3684C49.8917 29.7372 49.8433 34.6259 47.9981 38.9591C46.9477 41.4257 45.364 43.5974 43.3886 45.3351H47.1752C48.3802 45.3351 49.357 46.3119 49.357 47.5169C49.357 48.7219 48.3802 49.6988 47.1752 49.6988H37.4781C36.2731 49.6988 35.2963 48.7219 35.2963 47.5169V46.5011C35.2955 46.4676 35.2955 46.4342 35.2963 46.4009V37.8199C35.2963 36.6149 36.2731 35.638 37.4781 35.638C38.6831 35.638 39.6599 36.6149 39.6599 37.8199V42.7443C41.546 41.3397 43.0461 39.4502 43.9833 37.2494C45.3751 33.981 45.4115 30.2936 44.0846 26.9984C42.7576 23.7031 40.176 21.07 36.9076 19.6782Z" fill="#494949"/>
<path fill-rule="evenodd" clip-rule="evenodd" d="M19.3064 20.4312C20.5114 20.4312 21.4882 21.408 21.4882 22.613V22.6324C21.4882 23.8374 20.5114 24.8142 19.3064 24.8142C18.1014 24.8142 17.1245 23.8374 17.1245 22.6324V22.613C17.1245 21.408 18.1014 20.4312 19.3064 20.4312Z" fill="#494949"/>
<path fill-rule="evenodd" clip-rule="evenodd" d="M16.2614 27.8811C17.4664 27.8811 18.4433 28.8579 18.4433 30.0629V30.0823C18.4433 31.2873 17.4664 32.2642 16.2614 32.2642C15.0564 32.2642 14.0796 31.2873 14.0796 30.0823V30.0629C14.0796 28.8579 15.0564 27.8811 16.2614 27.8811Z" fill="#494949"/>
<path fill-rule="evenodd" clip-rule="evenodd" d="M17.3669 35.8311C18.5719 35.8311 19.5487 36.8079 19.5487 38.0129V38.0323C19.5487 39.2373 18.5719 40.2141 17.3669 40.2141C16.1619 40.2141 15.1851 39.2373 15.1851 38.0323V38.0129C15.1851 36.8079 16.1619 35.8311 17.3669 35.8311Z" fill="#494949"/>
<path fill-rule="evenodd" clip-rule="evenodd" d="M22.2741 42.1687C23.4791 42.1687 24.456 43.1455 24.456 44.3505V44.3699C24.456 45.5749 23.4791 46.5518 22.2741 46.5518C21.0691 46.5518 20.0923 45.5749 20.0923 44.3699V44.3505C20.0923 43.1455 21.0691 42.1687 22.2741 42.1687Z" fill="#494949"/>
<path fill-rule="evenodd" clip-rule="evenodd" d="M29.7199 45.2188C30.9249 45.2188 31.9018 46.1956 31.9018 47.4006V47.42C31.9018 48.625 30.9249 49.6018 29.7199 49.6018C28.5149 49.6018 27.5381 48.625 27.5381 47.42V47.4006C27.5381 46.1956 28.5149 45.2188 29.7199 45.2188Z" fill="#494949"/>
</g>
<defs>
<clipPath id="clip0_2887_30462">
<rect x="6.3999" y="6.3999" width="51.2" height="51.2" rx="25.6" fill="white"/>
</clipPath>
</defs>
</svg>
