<svg width="52" height="52" viewBox="0 0 52 52" fill="none" xmlns="http://www.w3.org/2000/svg">
<g clip-path="url(#clip0_2887_26323)">
<rect x="0.399902" y="0.400024" width="51.2" height="51.2" rx="25.6" fill="#0A0A0A"/>
<path d="M0.399902 0.400024H51.5999V51.6H0.399902V0.400024Z" fill="#61CD81"/>
<path fill-rule="evenodd" clip-rule="evenodd" d="M30.9076 13.6783C27.6393 12.2865 23.9518 12.2501 20.6566 13.577C19.5388 14.0271 18.2678 13.4859 17.8177 12.3681C17.3676 11.2503 17.9088 9.97929 19.0266 9.52918C23.3954 7.76993 28.2841 7.81823 32.6173 9.66346C36.9505 11.5087 40.3732 14.9997 42.1324 19.3685C43.8917 23.7373 43.8433 28.626 41.9981 32.9592C40.9477 35.4259 39.364 37.5975 37.3886 39.3352H41.1752C42.3802 39.3352 43.357 40.3121 43.357 41.5171C43.357 42.7221 42.3802 43.6989 41.1752 43.6989H31.4781C30.2731 43.6989 29.2963 42.7221 29.2963 41.5171V40.5012C29.2955 40.4677 29.2955 40.4343 29.2963 40.401V31.82C29.2963 30.615 30.2731 29.6381 31.4781 29.6381C32.6831 29.6381 33.6599 30.615 33.6599 31.82V36.7445C35.546 35.3398 37.0461 33.4504 37.9833 31.2495C39.3751 27.9811 39.4115 24.2937 38.0846 20.9985C36.7576 17.7032 34.176 15.0701 30.9076 13.6783Z" fill="white"/>
<path fill-rule="evenodd" clip-rule="evenodd" d="M13.3064 14.4314C14.5114 14.4314 15.4882 15.4082 15.4882 16.6132V16.6326C15.4882 17.8376 14.5114 18.8145 13.3064 18.8145C12.1014 18.8145 11.1245 17.8376 11.1245 16.6326V16.6132C11.1245 15.4082 12.1014 14.4314 13.3064 14.4314Z" fill="white"/>
<path fill-rule="evenodd" clip-rule="evenodd" d="M10.2614 21.8812C11.4664 21.8812 12.4433 22.8581 12.4433 24.0631V24.0825C12.4433 25.2875 11.4664 26.2643 10.2614 26.2643C9.05643 26.2643 8.07959 25.2875 8.07959 24.0825V24.0631C8.07959 22.8581 9.05643 21.8812 10.2614 21.8812Z" fill="white"/>
<path fill-rule="evenodd" clip-rule="evenodd" d="M11.3669 29.8313C12.5719 29.8313 13.5487 30.8081 13.5487 32.0131V32.0325C13.5487 33.2375 12.5719 34.2144 11.3669 34.2144C10.1619 34.2144 9.18506 33.2375 9.18506 32.0325V32.0131C9.18506 30.8081 10.1619 29.8313 11.3669 29.8313Z" fill="white"/>
<path fill-rule="evenodd" clip-rule="evenodd" d="M16.2741 36.1688C17.4791 36.1688 18.456 37.1457 18.456 38.3507V38.3701C18.456 39.5751 17.4791 40.5519 16.2741 40.5519C15.0691 40.5519 14.0923 39.5751 14.0923 38.3701V38.3507C14.0923 37.1457 15.0691 36.1688 16.2741 36.1688Z" fill="white"/>
<path fill-rule="evenodd" clip-rule="evenodd" d="M23.7199 39.2188C24.9249 39.2188 25.9018 40.1956 25.9018 41.4006V41.42C25.9018 42.625 24.9249 43.6018 23.7199 43.6018C22.5149 43.6018 21.5381 42.625 21.5381 41.42V41.4006C21.5381 40.1956 22.5149 39.2188 23.7199 39.2188Z" fill="white"/>
</g>
<defs>
<clipPath id="clip0_2887_26323">
<rect x="0.399902" y="0.400024" width="51.2" height="51.2" rx="25.6" fill="white"/>
</clipPath>
</defs>
</svg>
