<svg width="20" height="20" viewBox="0 0 20 20" fill="none" xmlns="http://www.w3.org/2000/svg">
<g clip-path="url(#clip0_434_44472)">
<path d="M3.33268 9.16666C3.77471 9.16666 4.19863 9.34226 4.51119 9.65482C4.82375 9.96738 4.99935 10.3913 4.99935 10.8333V11.6667H14.9993V10.8333C14.9993 10.3913 15.1749 9.96738 15.4875 9.65482C15.8001 9.34226 16.224 9.16666 16.666 9.16666C17.108 9.16666 17.532 9.34226 17.8445 9.65482C18.1571 9.96738 18.3327 10.3913 18.3327 10.8333V15C18.3327 15.221 18.2449 15.433 18.0886 15.5893C17.9323 15.7455 17.7204 15.8333 17.4993 15.8333H2.49935C2.27834 15.8333 2.06637 15.7455 1.91009 15.5893C1.75381 15.433 1.66602 15.221 1.66602 15V10.8333C1.66602 10.3913 1.84161 9.96738 2.15417 9.65482C2.46673 9.34226 2.89065 9.16666 3.33268 9.16666Z" stroke="#61CD81" stroke-width="1.5" stroke-linecap="round" stroke-linejoin="round"/>
<path d="M3.33398 9.16666V6.66666C3.33398 6.00362 3.59738 5.36774 4.06622 4.8989C4.53506 4.43006 5.17094 4.16666 5.83398 4.16666H14.1673C14.8304 4.16666 15.4662 4.43006 15.9351 4.8989C16.4039 5.36774 16.6673 6.00362 16.6673 6.66666V9.16666" stroke="#61CD81" stroke-width="1.5" stroke-linecap="round" stroke-linejoin="round"/>
<path d="M10 4.16666V11.6667" stroke="#61CD81" stroke-width="1.5" stroke-linecap="round" stroke-linejoin="round"/>
</g>
<defs>
<clipPath id="clip0_434_44472">
<rect width="20" height="20" fill="white"/>
</clipPath>
</defs>
</svg>
