<svg width="21" height="20" viewBox="0 0 21 20" fill="none" xmlns="http://www.w3.org/2000/svg">
<rect x="0.5" width="20" height="20" rx="10" fill="#FF5454" fill-opacity="0.12"/>
<path d="M10.5 7.021C9.67581 6.28168 8.6072 5.87348 7.5 5.875C6.974 5.875 6.469 5.965 6 6.131V13.256C6.48181 13.086 6.98908 12.9994 7.5 13C8.6525 13 9.704 13.4335 10.5 14.146M10.5 7.021C11.3242 6.28164 12.3928 5.87343 13.5 5.875C14.026 5.875 14.531 5.965 15 6.131V13.256C14.5182 13.086 14.0109 12.9994 13.5 13C12.3928 12.9985 11.3242 13.4067 10.5 14.146M10.5 7.021V14.146" stroke="#FF5454" stroke-width="1.5" stroke-linecap="round" stroke-linejoin="round"/>
</svg>
