<svg width="20" height="20" viewBox="0 0 20 20" fill="none" xmlns="http://www.w3.org/2000/svg">
<g clip-path="url(#clip0_491_24341)">
<path d="M18.3095 3.62015C18.24 3.43476 18.1705 3.38841 18.0778 3.36524C17.8228 3.27254 17.4289 3.4116 17.4289 3.4116C17.4289 3.4116 2.80556 8.67228 1.97127 9.25165C1.78587 9.36752 1.73951 9.46021 1.69316 9.52973C1.55412 9.94688 1.99443 10.1323 1.99443 10.1323L5.77193 11.3605C5.77193 11.3605 5.91098 11.3605 5.95733 11.3605C6.8148 10.8275 14.5784 5.91448 15.0187 5.75225C15.0882 5.75225 15.1346 5.75224 15.1346 5.79859C14.9492 6.42431 8.20529 12.4266 8.20529 12.4266C8.20529 12.4266 8.18211 12.4498 8.15894 12.4961L7.81132 16.2273C7.81132 16.2273 7.67227 17.3628 8.80784 16.2273C9.61896 15.4161 10.4069 14.7441 10.7777 14.4196C12.0755 15.3235 13.466 16.2968 14.0685 16.8298C14.3698 17.0847 14.6247 17.1311 14.8333 17.1311C15.4127 17.1311 15.5749 16.4822 15.5749 16.4822C15.5749 16.4822 18.24 5.75224 18.3327 4.3154C18.3327 4.17635 18.3327 4.08367 18.3327 3.99097C18.3327 3.85192 18.3327 3.71287 18.3095 3.66652V3.62015Z" fill="#4EABE7"/>
</g>
<defs>
<clipPath id="clip0_491_24341">
<rect width="20" height="20" fill="white"/>
</clipPath>
</defs>
</svg>
