<svg width="53" height="56" viewBox="0 0 53 56" fill="none" xmlns="http://www.w3.org/2000/svg">
<path d="M10.4659 26.6675C9.83842 27.6838 8.77594 28.2728 7.29386 28.4113V29.3044L6.1005 29.4276V28.4344C4.49138 28.3498 3.35576 27.7338 2.73213 26.5944C0.564832 22.6409 5.94652 13.5982 6.17364 13.2171L6.71258 12.3202L7.20917 13.2402C9.52276 17.5248 12.3637 23.584 10.4659 26.6675Z" fill="#24BC48"/>
<path d="M17.7763 28.3562C17.3952 28.9722 16.7639 29.3417 15.89 29.4418V31.2704L15.1778 31.3435V30.3503C15.097 30.3465 15.0162 30.3426 14.9353 30.3311V29.4611C13.9845 29.3879 13.3108 29.003 12.9297 28.3101C11.6209 25.9156 14.6505 20.7457 14.9969 20.1605L15.4319 19.4445L15.8284 20.1836C17.222 22.7782 18.9466 26.4507 17.7763 28.3562Z" fill="#239942"/>
<path d="M52.676 32.3694C52.653 32.5735 52.6222 32.7813 52.5914 32.9854C52.4759 33.7476 52.3257 34.5059 52.1371 35.245C52.0832 35.4683 52.0255 35.6877 51.96 35.9033C51.9138 36.0958 51.8561 36.2806 51.7984 36.4731C51.5135 37.4277 51.1709 38.3593 50.7821 39.2678L49.4886 39.2447L46.7323 39.1908L43.6219 39.1331L33.4244 38.9406L30.3101 38.879L28.189 38.8405L24.5589 36.5346L23.4848 35.8456L22.9344 35.4953L20.2012 33.6821L20.5592 33.2279L24.8437 27.8539L27.2305 24.5125L31.0531 21.1711L33.4398 20.2164L34.3945 20.6937L37.2586 24.0351L38.6906 26.4219L39.6453 27.8539L41.0773 25.9445L42.9867 24.0351L44.4187 23.5578L45.8508 24.0351L47.7602 26.8992L50.1469 29.2859L51.6097 31.0721L52.676 32.3694Z" fill="#0B6C96"/>
<path d="M25.9914 35.5588L17.2721 52.1889L16.7139 53.2552C16.2366 53.0588 15.7669 52.8548 15.3088 52.6277C15.0432 52.5045 14.7737 52.3698 14.5158 52.2312C14.4003 52.1696 14.2849 52.1119 14.1771 52.0503C7.26711 48.3123 2.21263 41.5641 0.784448 33.5762L0.603516 32.3906C0.961525 32.2982 1.35418 32.2058 1.76993 32.1134C3.01719 31.8401 4.48387 31.5783 6.10839 31.4051V30.5351L7.30175 30.512V31.2896C9.66153 31.1087 12.2792 31.1356 14.9393 31.5822V30.3503L15.894 30.3311V31.7631C17.3183 32.0557 18.7465 32.4714 20.1439 33.0488C20.4018 32.6485 20.7868 32.0518 21.2795 31.3242L22.1803 32.1327C21.83 32.6446 21.5182 33.122 21.2449 33.5416C22.2688 34.0305 23.2697 34.6118 24.2398 35.2931C24.5131 35.1007 24.7903 34.912 25.0713 34.7311L25.9914 35.5588Z" fill="#239942"/>
<path d="M51.9603 35.9011C51.9141 36.0935 51.8564 36.2783 51.7986 36.4708C51.2982 38.1531 50.6283 39.7622 49.8122 41.2789C49.7083 41.4829 49.5967 41.6831 49.4773 41.8871C49.3965 42.0411 49.3041 42.1874 49.2156 42.3375C48.3571 43.7888 47.3524 45.1516 46.236 46.4027C45.9742 46.6991 45.7009 46.9916 45.4237 47.2727C40.862 51.9499 34.5718 54.9333 27.6003 55.1797C27.2808 55.1951 26.9613 55.1989 26.6417 55.1989C26.5647 55.1989 26.4839 55.1989 26.4069 55.1951C24.6939 55.1874 23.0155 55.0026 21.3909 54.6754C21.1407 54.6215 20.8943 54.5714 20.6518 54.5137C20.5055 54.479 20.3554 54.4405 20.2091 54.402C18.5038 53.9709 16.86 53.3742 15.3086 52.6235C15.043 52.5004 14.7735 52.3656 14.5156 52.227L14.7389 50.9913L15.2971 47.9155L17.6838 43.6156L19.1158 41.2289L22.9385 36.9289L23.7931 36.44L24.921 35.7971L26.2837 35.0195L29.1478 33.1101L33.4478 32.1554L36.7892 31.6781L42.9985 32.1554L47.7758 33.5875L50.6399 35.0195L50.9171 35.2043L51.9603 35.9011Z" fill="#24BC48"/>
<path d="M49.4759 41.8865C49.395 42.0404 49.3027 42.1867 49.2141 42.3369C48.3557 43.7881 47.3509 45.1509 46.2346 46.402C45.9728 46.6984 45.6995 46.991 45.4223 47.272C40.8606 51.9492 34.5704 54.9326 27.5988 55.179C27.2793 55.1944 26.9598 55.1982 26.6403 55.1982C26.5633 55.1982 26.4825 55.1982 26.4055 55.1944C24.6924 55.1867 23.014 55.0019 21.3895 54.6747C21.1393 54.6208 20.8929 54.5708 20.6504 54.513L21.0276 53.6469L21.0854 53.3851L21.9823 49.3507L23.8917 44.5734L27.7143 41.232L30.1011 39.8L33.9237 38.368L38.2236 37.4133L41.565 37.8906L45.3877 38.8453L47.7744 40.7547L48.4866 41.2282L49.4759 41.8865Z" fill="#239942"/>
<path d="M27.2344 54.6L27.7117 51.2586L30.1023 47.436L33.9211 44.5719L38.6984 43.6172L42.5171 45.0492L44.4304 46.0039L45.385 46.4813L42.5171 49.3492L37.7437 52.2133L32.489 54.1226L28.6664 54.6H27.2344Z" fill="#24BC48"/>
<path d="M43.7802 9.04759C43.7763 9.04374 43.7725 9.03989 43.7725 9.03219C43.4183 8.73193 43.0564 8.43551 42.6869 8.15064H42.683C42.6676 8.13524 42.6291 8.10445 42.5714 8.05825C42.5175 8.01976 42.4675 7.98126 42.4136 7.93892C42.2981 7.87732 42.1788 7.82343 42.0556 7.77339C41.6167 7.59246 41.1394 7.47697 40.6428 7.45002C40.5504 7.44617 40.4618 7.44232 40.3695 7.44232C40.1192 7.44232 39.8806 7.46157 39.6419 7.50392C40.3926 7.95817 41.1086 8.45091 41.8015 8.97445C42.2249 9.18617 42.5945 9.48644 42.8909 9.85215C43.0295 9.97149 43.1642 10.087 43.2951 10.2102C43.811 10.6644 44.3037 11.1417 44.7811 11.6383C49.0695 16.1423 51.7103 22.2362 51.7103 28.9306C51.7103 29.3617 51.7026 29.789 51.6756 30.2202V30.224C51.6602 30.5089 51.641 30.7937 51.6179 31.0748C51.5948 31.3327 51.5717 31.5906 51.5409 31.8447C51.4292 32.7609 51.2791 33.6578 51.0712 34.5432C51.025 34.7665 50.9673 34.9859 50.9096 35.2053C50.8634 35.3901 50.8095 35.5788 50.7556 35.7597C50.4207 36.9569 49.9895 38.1233 49.4814 39.2397C49.2889 39.6785 49.081 40.1097 48.8539 40.5293C48.7307 40.7641 48.6037 40.9989 48.4766 41.2222C48.4112 41.3415 48.3419 41.4609 48.2726 41.5802C47.4219 43.0315 46.4325 44.3904 45.3161 45.6338C45.0544 45.9302 44.7772 46.2228 44.4962 46.5076C40.1654 50.9077 34.2294 53.7179 27.6428 53.9758C27.3079 53.995 26.973 53.9989 26.6342 53.9989C26.5726 53.9989 26.511 53.9989 26.4495 53.995C24.7403 53.9873 23.0734 53.8026 21.4604 53.46C21.3372 53.4369 21.2064 53.4061 21.0832 53.3791C20.8175 53.3175 20.5519 53.2559 20.2902 53.1828C19.2546 52.9095 18.246 52.5746 17.2683 52.1781C16.66 51.9355 16.0595 51.6622 15.4782 51.3696C15.228 51.2465 14.9816 51.1156 14.7391 50.9847C14.6121 50.9192 14.485 50.8499 14.3618 50.7807C7.94463 47.1621 3.26741 40.7949 1.95086 33.2883C1.87772 32.8956 1.82383 32.5068 1.76993 32.1103C1.35418 32.2027 0.961525 32.2951 0.603516 32.3875L0.784448 33.5731C2.21263 41.5571 7.26711 48.3054 14.1771 52.0472C14.2887 52.1088 14.4003 52.1665 14.5158 52.2281C14.7737 52.3667 15.0394 52.5014 15.3088 52.6246C15.7669 52.8479 16.2366 53.0557 16.7139 53.2521C17.8418 53.714 19.0121 54.1028 20.2093 54.4031C20.3556 54.4416 20.5057 54.4801 20.652 54.5147C20.8945 54.5725 21.1448 54.6264 21.3911 54.6764C23.0156 55.0075 24.6902 55.1884 26.4071 55.1961C26.4841 55.2 26.5649 55.2 26.6419 55.2C26.9614 55.2 27.281 55.1961 27.6005 55.1807C34.572 54.9305 40.8622 51.9471 45.4239 47.2737C45.7011 46.9927 45.9744 46.7001 46.2362 46.4037C47.3526 45.1526 48.3573 43.7899 49.2157 42.3386C49.3081 42.1923 49.3967 42.0422 49.4775 41.8882C49.5969 41.688 49.7085 41.4878 49.8124 41.2799C50.1666 40.6255 50.4899 39.9519 50.7825 39.2628C51.1752 38.3543 51.5139 37.4227 51.7988 36.468C51.8565 36.2755 51.9143 36.0907 51.9605 35.8983C52.0259 35.6827 52.0837 35.4633 52.1376 35.24C52.3223 34.5009 52.4763 33.7464 52.5918 32.9803C52.6265 32.7763 52.6534 32.5684 52.6765 32.3644C52.7227 32.0526 52.7573 31.7446 52.7881 31.4289C52.869 30.6013 52.9075 29.7736 52.9075 28.9267C52.9075 20.9928 49.3659 13.8634 43.7802 9.04759Z" fill="#131414"/>
<path d="M43.3505 10.6836C43.3428 10.5219 43.3274 10.364 43.2966 10.2101C43.1811 9.4594 42.8731 8.77418 42.4266 8.2006C42.4035 8.16595 42.3727 8.12745 42.3457 8.09666C42.3419 8.09281 42.338 8.08896 42.338 8.08126C42.2457 7.97733 42.1571 7.86954 42.057 7.77715C41.7568 7.47688 41.4141 7.22281 41.0369 7.02263C41.033 7.01879 41.0292 7.01878 41.0292 7.01878C41.0215 7.00338 41.0022 6.99954 40.9868 6.99184C40.3748 6.67232 39.678 6.49139 38.9427 6.49139C38.6925 6.49139 38.4538 6.51064 38.2152 6.55299C36.1249 6.8956 34.5234 8.72029 34.5234 10.9068C34.5234 13.3436 36.506 15.3261 38.9427 15.3261C41.3795 15.3261 43.362 13.3436 43.362 10.9068C43.3543 10.8298 43.3543 10.7567 43.3505 10.6836ZM38.9389 14.1251C37.1604 14.1251 35.7168 12.6776 35.7168 10.903C35.7168 9.12449 37.1642 7.68091 38.9389 7.68091C39.4547 7.68091 39.9436 7.80024 40.3709 8.01967C40.7944 8.23139 41.1639 8.53166 41.4603 8.89737C41.8992 9.44785 42.161 10.1446 42.161 10.903C42.161 12.6776 40.7135 14.1251 38.9389 14.1251Z" fill="#131414"/>
<path d="M25.2406 36.0518C24.9019 36.2866 24.567 36.5291 24.2359 36.7832C23.9048 36.5253 23.5661 36.2827 23.2273 36.0518C18.1497 32.6218 12.156 32.0983 7.29399 32.4832C6.88979 32.5179 6.48559 32.5564 6.10063 32.5987C4.54541 32.7758 3.13647 33.0299 1.94695 33.2955C1.5312 33.3917 1.13855 33.488 0.780541 33.5765L0.599609 32.3908C0.957618 32.2984 1.35028 32.2061 1.76603 32.1137C3.01328 31.8403 4.47996 31.5786 6.10448 31.4053C6.48943 31.3592 6.89364 31.3207 7.29784 31.2899C9.65762 31.1089 12.2753 31.1359 14.9354 31.5824C15.1086 31.6094 15.278 31.644 15.4512 31.6787C15.5975 31.7056 15.7438 31.7364 15.8901 31.7634C17.3144 32.0559 18.7426 32.4717 20.14 33.0491C20.5095 33.2031 20.8791 33.3648 21.2448 33.5419C22.2688 34.0307 23.2697 34.612 24.2397 35.2934C24.5747 35.5359 24.9096 35.7861 25.2406 36.0518Z" fill="#131414"/>
<path d="M52.7887 31.4329C52.7617 31.7486 52.7271 32.0604 52.677 32.3683C52.6539 32.5724 52.6231 32.7802 52.5923 32.9843C52.3113 32.6725 51.9533 32.2875 51.5453 31.8448C49.555 29.6814 46.4369 26.2437 45.155 24.6461C44.8355 24.2458 44.5429 24.0456 44.285 24.0456C43.9886 24.0456 43.646 24.2881 43.2803 24.6538C42.9184 25.0118 42.5335 25.493 42.1562 25.9665C41.7212 26.5093 41.2785 27.0752 40.7857 27.5602C40.6048 27.7412 40.0543 28.2955 39.3576 28.1916C38.5415 28.0722 38.0911 27.2253 37.4135 25.9511C36.7437 24.6885 35.8237 22.9677 34.2146 21.3509C33.8989 21.0391 33.5332 20.9159 33.0597 20.9698C30.1032 21.3086 25.0064 27.9606 22.177 32.1297C21.8267 32.6417 21.5149 33.119 21.2415 33.5386C21.1145 33.7388 20.9913 33.9313 20.8835 34.1083L20.206 33.6849L19.8711 33.4732C19.9288 33.3769 20.0174 33.2345 20.1367 33.0497C20.3946 32.6494 20.7796 32.0527 21.2723 31.3251C23.8554 27.514 29.2486 20.2037 32.925 19.788C33.7526 19.6917 34.4917 19.9458 35.0538 20.5156C36.7976 22.2556 37.76 24.0687 38.4683 25.3968C38.8225 26.0589 39.3075 26.979 39.5346 27.0175C39.5346 27.0175 39.654 27.0136 39.9465 26.7249C40.3854 26.2822 40.8127 25.7471 41.2208 25.2313C42.1908 24.0071 43.107 22.8561 44.2773 22.8561H44.2812C44.9163 22.8561 45.5284 23.2102 46.0866 23.907C47.176 25.2736 49.7244 28.0953 51.6761 30.2241V30.228C52.0804 30.663 52.4576 31.071 52.7887 31.4329Z" fill="#131414"/>
<path d="M25.1178 33.1823L24.1016 32.5548C24.2594 32.2969 28.0281 26.203 30.5111 24.7133L31.127 25.7372C29.2677 26.8536 26.1611 31.4885 25.1178 33.1823Z" fill="#131414"/>
<path d="M28.8218 9.83319L28.8164 11.0266L33.5937 11.0481L33.5991 9.85476L28.8218 9.83319Z" fill="#131414"/>
<path d="M33.9269 12.4566L29.3809 13.9242L29.7475 15.0598L34.2935 13.5922L33.9269 12.4566Z" fill="#131414"/>
<path d="M29.9689 5.40294L29.3906 6.44678L33.5693 8.76186L34.1476 7.71802L29.9689 5.40294Z" fill="#131414"/>
<path d="M33.1212 2.46799L32.1953 3.22089L35.2093 6.92759L36.1352 6.1747L33.1212 2.46799Z" fill="#131414"/>
<path d="M37.7641 0.815585L36.582 0.979553L37.2384 5.71147L38.4205 5.5475L37.7641 0.815585Z" fill="#131414"/>
<path d="M40.866 0.799989L39.6836 5.42871L40.8398 5.72407L42.0222 1.09535L40.866 0.799989Z" fill="#131414"/>
<path d="M44.6375 2.41153L41.8223 6.27112L42.7864 6.97437L45.6017 3.11478L44.6375 2.41153Z" fill="#131414"/>
<path d="M48.8632 40.5346C48.1895 40.038 47.4774 39.5876 46.7344 39.1911C44.1975 37.8245 41.2988 37.0508 38.223 37.0508C35.3859 37.0508 32.7028 37.7091 30.316 38.8793C24.8651 41.5471 20.9539 46.8941 20.2956 53.1881C20.2533 53.5885 20.2225 53.9965 20.2109 54.4007C20.3572 54.4392 20.5074 54.4777 20.6536 54.5124C20.8962 54.5701 21.1464 54.624 21.3928 54.6741C21.4004 54.2699 21.4274 53.8656 21.4659 53.4653C22.1242 46.5592 26.9708 40.8618 33.4303 38.9409C34.9509 38.4867 36.56 38.2441 38.2269 38.2441C40.117 38.2441 41.934 38.556 43.6278 39.1334C45.3178 39.707 46.8845 40.5385 48.2858 41.5817C48.6053 41.8204 48.921 42.0745 49.2212 42.3362C49.3136 42.1899 49.4021 42.0398 49.483 41.8858C49.6023 41.6856 49.714 41.4855 49.8179 41.2776C49.5061 41.0197 49.1866 40.7733 48.8632 40.5346Z" fill="#131414"/>
<path d="M45.3248 45.6416C43.3461 44.148 40.8824 43.2626 38.2224 43.2626C32.0669 43.2626 27.0009 47.9898 26.4543 54.0028C26.4158 54.3609 26.4004 54.7189 26.4004 55.0807C26.4004 55.1192 26.4004 55.1577 26.4042 55.1962C26.4812 55.2001 26.5621 55.2001 26.6391 55.2001C26.9586 55.2001 27.2781 55.1962 27.5976 55.1808C27.5938 55.1462 27.5938 55.1154 27.5938 55.0807C27.5938 54.7073 27.613 54.3416 27.6476 53.9836C28.202 48.6404 32.7329 44.4559 38.2224 44.4559C40.5706 44.4559 42.7418 45.222 44.501 46.5155C44.8205 46.7503 45.1323 47.0043 45.4211 47.2738C45.6982 46.9928 45.9715 46.7002 46.2333 46.4038C45.9446 46.1343 45.6366 45.8803 45.3248 45.6416Z" fill="#131414"/>
<path d="M51.0776 34.5463C47.3474 32.2019 42.9396 30.8469 38.2201 30.8469C33.3773 30.8469 28.8579 32.275 25.0661 34.7349C24.7851 34.9158 24.5079 35.1083 24.2346 35.297C23.9806 35.4779 23.7265 35.6627 23.484 35.8513C23.3993 35.9167 23.3107 35.986 23.226 36.0515C18.6643 39.6508 15.4268 44.8477 14.3567 50.7914C14.2835 51.2072 14.2219 51.6268 14.1719 52.0541C14.2835 52.1157 14.3952 52.1734 14.5106 52.235C14.7686 52.3736 15.0342 52.5083 15.3036 52.6315C15.346 52.2158 15.4037 51.7962 15.4769 51.3843C16.4316 45.4559 19.6613 40.286 24.2346 36.7829C24.3463 36.702 24.4502 36.6212 24.558 36.5404C24.7813 36.3748 25.0084 36.2093 25.2355 36.0515C25.4857 35.8859 25.7321 35.7166 25.9862 35.5587C29.5355 33.3298 33.7276 32.0402 38.2162 32.0402C42.8395 32.0402 47.1472 33.4068 50.7581 35.7666C51.1122 35.9899 51.4549 36.2285 51.7936 36.4788C51.8514 36.2863 51.9091 36.1015 51.9553 35.909C52.0207 35.6935 52.0785 35.474 52.1324 35.2508C51.7859 35.0044 51.4395 34.7696 51.0776 34.5463Z" fill="#131414"/>
<path d="M7.29883 24.0344V32.4764C6.89463 32.5111 6.49042 32.5496 6.10547 32.5919V24.0344H7.29883Z" fill="#131414"/>
<path d="M7.21664 13.2466L6.72005 12.3265L6.18111 13.2235C5.95013 13.6046 0.568449 22.6472 2.7396 26.6007C3.35938 27.7363 4.49885 28.3523 6.10796 28.4408C6.17341 28.4446 6.2427 28.4485 6.31199 28.4485C6.39283 28.4523 6.46982 28.4523 6.54682 28.4523C6.80859 28.4523 7.06266 28.4446 7.30133 28.4138C8.78341 28.2753 9.84589 27.6863 10.4734 26.67C12.3635 23.5865 9.52253 17.5273 7.21664 13.2466ZM9.44938 26.0425C9.03748 26.7046 8.33301 27.0973 7.29363 27.2128C7.00106 27.2474 6.68155 27.259 6.33509 27.2513C6.25425 27.2513 6.17726 27.2474 6.10027 27.2436C4.94925 27.1666 4.19089 26.7701 3.78283 26.0271C2.41624 23.5403 5.04549 17.7275 6.66615 14.7672C9.61876 20.4568 10.5542 24.2486 9.44938 26.0425Z" fill="#131414"/>
<path d="M15.8883 26.7109H14.9336V32.1542H15.8883V26.7109Z" fill="#131414"/>
<path d="M15.8248 20.1844L15.4283 19.4453L14.9933 20.1613C14.643 20.7426 11.6172 25.9164 12.9261 28.3108C13.3072 29.0038 13.9809 29.3887 14.9317 29.4619C15.0087 29.4773 15.0895 29.4811 15.1704 29.4811H15.3128C15.513 29.4811 15.7055 29.4734 15.8864 29.4426C16.7603 29.3425 17.3916 28.973 17.7727 28.357C18.9468 26.4515 17.2222 22.779 15.8248 20.1844ZM16.9566 27.8566C16.7449 28.1915 16.3984 28.4071 15.8864 28.4879C15.6824 28.5226 15.4514 28.5341 15.1935 28.5264C15.1011 28.5226 15.0126 28.5187 14.9317 28.511C14.3581 28.4494 13.977 28.23 13.7653 27.8527C12.9954 26.4592 14.4197 23.214 15.3898 21.4086C17.0605 24.6692 17.5879 26.8326 16.9566 27.8566Z" fill="#131414"/>
<path d="M42.6881 8.15152C42.6881 8.15152 41.4986 7.20454 41.0521 7.02361C40.6094 6.84268 40.6094 7.79737 40.6094 7.79737L42.0414 8.27471L42.6881 8.15152Z" fill="#131414"/>
<path d="M38.9375 14.4844C40.9147 14.4844 42.5176 12.8815 42.5176 10.9043C42.5176 8.92708 40.9147 7.32422 38.9375 7.32422C36.9603 7.32422 35.3574 8.92708 35.3574 10.9043C35.3574 12.8815 36.9603 14.4844 38.9375 14.4844Z" fill="#E07103"/>
</svg>
