<svg width="20" height="20" viewBox="0 0 20 20" fill="none" xmlns="http://www.w3.org/2000/svg">
<g clip-path="url(#clip0_491_24349)">
<path d="M6.96122 16.8121C13.226 16.8121 16.6431 11.6294 16.6431 7.13019C16.6431 2.63096 16.6431 6.84543 16.6431 6.69355C17.3075 6.21895 17.8771 5.61146 18.3327 4.92804C17.7252 5.19381 17.0608 5.38365 16.3773 5.45959C17.0797 5.04194 17.6113 4.3775 17.8771 3.58017C17.2126 3.97883 16.4912 4.24461 15.7129 4.41547C15.0864 3.75102 14.2131 3.33337 13.226 3.33337C11.3465 3.33337 9.82783 4.8521 9.82783 6.73152C9.82783 8.61095 9.8658 7.26307 9.92275 7.50987C7.09413 7.37698 4.58822 6.01013 2.91762 3.95985C2.63286 4.45343 2.462 5.04194 2.462 5.66842C2.462 6.84543 3.06949 7.88955 3.98073 8.49704C3.43019 8.49704 2.89864 8.32618 2.44302 8.07939C2.44302 8.07939 2.44302 8.09838 2.44302 8.11736C2.44302 9.76897 3.62004 11.1358 5.17673 11.4586C4.89197 11.5345 4.58821 11.5725 4.28447 11.5725C3.98072 11.5725 3.84784 11.5535 3.63902 11.5155C4.07565 12.8634 5.3286 13.8505 6.80936 13.8695C5.65133 14.7808 4.17056 15.3313 2.5759 15.3313C0.98124 15.3313 2.02537 15.3313 1.75959 15.2933C3.25933 16.2615 5.06283 16.831 6.98022 16.831" fill="#2DAAE0"/>
</g>
<defs>
<clipPath id="clip0_491_24349">
<rect width="20" height="20" fill="white"/>
</clipPath>
</defs>
</svg>
