<svg width="18" height="16" viewBox="0 0 18 16" fill="none" xmlns="http://www.w3.org/2000/svg">
<path d="M0.894167 2.6875C1.57863 2.08212 2.46123 1.74858 3.375 1.75H14.625C15.5758 1.75 16.4442 2.10417 17.1058 2.6875C17.0297 2.08328 16.7357 1.52763 16.2789 1.12485C15.8221 0.722082 15.234 0.499892 14.625 0.5H3.375C2.766 0.499892 2.17791 0.722082 1.72113 1.12485C1.26435 1.52763 0.970291 2.08328 0.894167 2.6875ZM0.894167 5.1875C1.57863 4.58212 2.46123 4.24858 3.375 4.25H14.625C15.5758 4.25 16.4442 4.60417 17.1058 5.1875C17.0297 4.58328 16.7357 4.02763 16.2789 3.62485C15.8221 3.22208 15.234 2.99989 14.625 3H3.375C2.766 2.99989 2.17791 3.22208 1.72113 3.62485C1.26435 4.02763 0.970291 4.58328 0.894167 5.1875ZM3.375 5.5C2.71196 5.5 2.07607 5.76339 1.60723 6.23223C1.13839 6.70107 0.875 7.33696 0.875 8V13C0.875 13.663 1.13839 14.2989 1.60723 14.7678C2.07607 15.2366 2.71196 15.5 3.375 15.5H14.625C15.288 15.5 15.9239 15.2366 16.3928 14.7678C16.8616 14.2989 17.125 13.663 17.125 13V8C17.125 7.33696 16.8616 6.70107 16.3928 6.23223C15.9239 5.76339 15.288 5.5 14.625 5.5H11.5C11.3342 5.5 11.1753 5.56585 11.0581 5.68306C10.9408 5.80027 10.875 5.95924 10.875 6.125C10.875 6.62228 10.6775 7.09919 10.3258 7.45082C9.97419 7.80246 9.49728 8 9 8C8.50272 8 8.02581 7.80246 7.67417 7.45082C7.32254 7.09919 7.125 6.62228 7.125 6.125C7.125 5.95924 7.05915 5.80027 6.94194 5.68306C6.82473 5.56585 6.66576 5.5 6.5 5.5H3.375Z" fill="#61CD81"/>
</svg>
