<svg width="20" height="20" viewBox="0 0 20 20" fill="none" xmlns="http://www.w3.org/2000/svg">
<g clip-path="url(#clip0_491_24345)">
<path d="M17.9816 5.99589C17.7968 5.27527 17.224 4.72095 16.5034 4.5177C15.21 4.16662 9.99936 4.16663 9.99936 4.16663C9.99936 4.16663 4.80719 4.16662 3.49529 4.5177C2.77467 4.70247 2.22034 5.27527 2.01709 5.99589C1.66602 7.28931 1.66602 10.0055 1.66602 10.0055C1.66602 10.0055 1.66602 12.7032 2.01709 14.0151C2.20187 14.7357 2.77467 15.2901 3.49529 15.4933C4.78871 15.8444 9.99936 15.8444 9.99936 15.8444C9.99936 15.8444 15.1915 15.8444 16.5034 15.4933C17.224 15.3085 17.7784 14.7357 17.9816 14.0151C18.3327 12.7217 18.3327 10.0055 18.3327 10.0055C18.3327 10.0055 18.3327 7.30779 17.9816 5.99589ZM8.35486 12.5V7.51105L12.6786 10.0055L8.35486 12.5Z" fill="#E15141"/>
</g>
<defs>
<clipPath id="clip0_491_24345">
<rect width="20" height="20" fill="white"/>
</clipPath>
</defs>
</svg>
