<?xml version="1.0" encoding="utf-8"?>
<svg viewBox="0 0 113 116" fill="none" xmlns="http://www.w3.org/2000/svg">
  <defs>
    <linearGradient id="paint0_linear_3194_99077" x1="15.9448" y1="27.358" x2="94.5022" y2="112.551" gradientUnits="userSpaceOnUse" gradientTransform="matrix(1.286223, 0, 0, 1.286223, -17.813051, -10.457761)">
      <stop stop-color="#434B76"/>
      <stop offset="0.1739" stop-color="#343A5B"/>
      <stop offset="0.1747" stop-color="#898EAA"/>
      <stop offset="0.3224" stop-color="#898EAA"/>
      <stop offset="0.3236" stop-color="#434B76"/>
      <stop offset="0.5876" stop-color="#343A5B"/>
      <stop offset="0.5904" stop-color="#898EAA"/>
      <stop offset="0.6109" stop-color="#898EAA"/>
      <stop offset="0.6126" stop-color="#434B76"/>
      <stop offset="0.9238" stop-color="#434B76"/>
    </linearGradient>
    <linearGradient id="paint1_linear_3194_99077" x1="54.036" y1="31.3974" x2="69.7363" y2="133.712" gradientUnits="userSpaceOnUse" gradientTransform="matrix(1.286223, 0, 0, 1.286223, -17.813051, -10.457761)">
      <stop stop-color="#FEFEFE"/>
      <stop offset="1" stop-color="#303553"/>
    </linearGradient>
    <radialGradient id="paint2_radial_3194_99077" cx="0" cy="0" r="1" gradientUnits="userSpaceOnUse" gradientTransform="translate(57.1545 51.6282) rotate(-180) scale(106.171 106.882)">
      <stop stop-color="white" stop-opacity="0"/>
      <stop offset="1" stop-color="#F9A825"/>
    </radialGradient>
    <radialGradient id="paint3_radial_3194_99077" cx="0" cy="0" r="1" gradientUnits="userSpaceOnUse" gradientTransform="translate(57.1562 51.6282) rotate(-180) scale(106.171 106.882)">
      <stop stop-color="white" stop-opacity="0"/>
      <stop offset="1" stop-color="#61CD81"/>
    </radialGradient>
    <filter id="filter0_d_3194_99077" x="-4.32017" y="-2.00653" width="121.725" height="121.726" filterUnits="userSpaceOnUse" color-interpolation-filters="sRGB">
      <feFlood flood-opacity="0" result="BackgroundImageFix"/>
      <feColorMatrix in="SourceAlpha" type="matrix" values="0 0 0 0 0 0 0 0 0 0 0 0 0 0 0 0 0 0 127 0" result="hardAlpha"/>
      <feOffset dy="7.16032"/>
      <feGaussianBlur stdDeviation="17.9008"/>
      <feComposite in2="hardAlpha" operator="out"/>
      <feColorMatrix type="matrix" values="0 0 0 0 1 0 0 0 0 1 0 0 0 0 1 0 0 0 0.25 0"/>
      <feBlend mode="normal" in2="BackgroundImageFix" result="effect1_dropShadow_3194_99077"/>
      <feBlend mode="normal" in="SourceGraphic" in2="effect1_dropShadow_3194_99077" result="shape"/>
    </filter>
  </defs>
  <rect x="0.326" y="1.249" width="112.662" height="112.662" rx="43.796" fill="white" style=""/>
  <path d="M 69.028 112.437 C 98.912 105.325 117.412 75.171 110.347 45.086 C 103.283 15.001 73.33 -3.622 43.445 3.49 C 13.561 10.601 -4.938 40.755 2.126 70.84 C 9.191 100.925 39.143 119.547 69.028 112.437 Z" fill="url(#paint0_linear_3194_99077)" style=""/>
  <path d="M 64.21 107.606 C 91.639 103.134 110.273 77.124 105.83 49.511 C 101.388 21.899 75.551 3.14 48.123 7.612 C 20.694 12.085 2.06 38.095 6.503 65.707 C 10.945 93.32 36.782 112.079 64.21 107.606 Z" fill="#2C3250" style=""/>
  <path style="mix-blend-mode: multiply;" d="M 64.21 107.75 C 91.639 103.277 110.273 77.267 105.83 49.655 C 101.388 22.042 75.551 3.283 48.123 7.756 C 20.694 12.228 2.06 38.237 6.503 65.851 C 10.945 93.463 36.782 112.221 64.21 107.75 Z" fill="url(#paint1_linear_3194_99077)"/>
  <g style="mix-blend-mode: multiply;" transform="matrix(1.28622305393219, 0, 0, 1.28622305393219, -17.813051223754883, -10.457761764526367)">
    <path style="mix-blend-mode:multiply" d="M95.1835 52.8783C95.1835 31.1581 78.342 13.5006 57.6201 13.5006C79.1958 13.5006 96.7357 31.1581 96.7357 52.8783C96.7357 74.5986 79.1958 92.2561 57.6201 92.2561C78.4197 92.2561 95.1835 74.5986 95.1835 52.8783Z" fill="url(#paint2_radial_3194_99077)"/>
    <path style="mix-blend-mode:multiply" d="M57.5443 13.5006C36.7447 13.5006 19.9809 31.1581 19.9809 52.8783C19.9809 74.5986 36.8223 92.2561 57.5443 92.2561C35.9686 92.2561 18.4287 74.5986 18.4287 52.8783C18.4287 31.1581 35.9686 13.5006 57.5443 13.5006Z" fill="url(#paint3_radial_3194_99077)"/>
  </g>
  <g filter="url(#filter0_d_3194_99077)" style="" transform="matrix(1.28622305393219, 0, 0, 1.28622305393219, -17.813051223754883, -10.457761764526367)">
    <path d="M43.5956 50.6523C43.1041 51.4482 42.2721 51.9094 41.1113 52.018V52.7174L40.1767 52.8139V52.0361C38.9166 51.9697 38.0272 51.4874 37.5388 50.595C35.8414 47.4987 40.0562 40.4169 40.234 40.1185L40.6561 39.416L41.045 40.1366C42.8569 43.4921 45.0819 48.2374 43.5956 50.6523Z" fill="#24BC48"/>
    <path d="M49.3197 51.9749C49.0212 52.4573 48.5268 52.7467 47.8424 52.8251V54.2571L47.2847 54.3144V53.5366C47.2214 53.5336 47.158 53.5306 47.0947 53.5215V52.8402C46.3501 52.7829 45.8225 52.4814 45.524 51.9387C44.499 50.0635 46.8716 46.0146 47.143 45.5564L47.4836 44.9956L47.7942 45.5744C48.8855 47.6064 50.2362 50.4826 49.3197 51.9749Z" fill="#239942"/>
    <path d="M76.6508 55.1178C76.6327 55.2775 76.6086 55.4403 76.5845 55.6001C76.494 56.1971 76.3765 56.791 76.2287 57.3698C76.1865 57.5447 76.1413 57.7165 76.09 57.8854C76.0539 58.0361 76.0087 58.1808 75.9634 58.3316C75.7403 59.0792 75.472 59.8088 75.1675 60.5203L74.1545 60.5022L71.9959 60.46L69.5599 60.4148L61.5737 60.2641L59.1347 60.2158L57.4735 60.1857L54.6305 58.3798L53.7894 57.8401L53.3583 57.5658L51.2178 56.1458L51.4981 55.7901L54.8536 51.5814L56.7228 48.9645L59.7166 46.3477L61.5857 45.6L62.3334 45.9738L64.5764 48.5907L65.698 50.4599L66.4456 51.5814L67.5672 50.086L69.0625 48.5907L70.184 48.2168L71.3055 48.5907L72.8009 50.8337L74.6701 52.7029L75.8157 54.1018L76.6508 55.1178Z" fill="#0B6C96"/>
    <path d="M55.7538 57.6155L48.9253 70.6395L48.4881 71.4746C48.1143 71.3209 47.7465 71.1611 47.3877 70.9832C47.1797 70.8867 46.9687 70.7812 46.7667 70.6727C46.6762 70.6244 46.5858 70.5792 46.5014 70.531C41.0898 67.6036 37.1313 62.3186 36.0128 56.0629L35.8711 55.1343C36.1515 55.0619 36.459 54.9896 36.7846 54.9172C37.7614 54.7032 38.91 54.4982 40.1823 54.3625V53.6811L41.1169 53.6631V54.2721C42.965 54.1304 45.015 54.1515 47.0983 54.5012V53.5364L47.846 53.5214V54.6429C48.9615 54.872 50.08 55.1976 51.1743 55.6498C51.3763 55.3363 51.6778 54.869 52.0637 54.2992L52.7692 54.9323C52.4948 55.3333 52.2506 55.7071 52.0366 56.0357C52.8385 56.4186 53.6224 56.8738 54.3821 57.4075C54.5962 57.2567 54.8132 57.109 55.0333 56.9673L55.7538 57.6155Z" fill="#239942"/>
    <path d="M76.0918 57.8837C76.0556 58.0344 76.0104 58.1791 75.9652 58.3299C75.5732 59.6473 75.0486 60.9075 74.4095 62.0954C74.3281 62.2552 74.2407 62.4119 74.1472 62.5717C74.0839 62.6923 74.0115 62.8069 73.9422 62.9245C73.2699 64.061 72.483 65.1283 71.6087 66.1081C71.4037 66.3403 71.1897 66.5694 70.9726 66.7895C67.4 70.4525 62.4738 72.789 57.014 72.9819C56.7637 72.994 56.5135 72.997 56.2633 72.997C56.203 72.997 56.1397 72.997 56.0794 72.994C54.7378 72.9879 53.4233 72.8432 52.1511 72.587C51.9551 72.5448 51.7622 72.5056 51.5722 72.4603C51.4577 72.4332 51.3401 72.4031 51.2255 72.3729C49.89 72.0353 48.6026 71.5679 47.3877 70.9801C47.1796 70.8836 46.9686 70.7781 46.7666 70.6695L46.9415 69.7018L47.3786 67.2929L49.2478 63.9254L50.3693 62.0562L53.363 58.6886L54.0323 58.3057L54.9157 57.8023L55.9829 57.1933L58.2259 55.6979L61.5935 54.9503L64.2104 54.5764L69.0733 54.9503L72.8147 56.0718L75.0577 57.1933L75.2748 57.338L76.0918 57.8837Z" fill="#24BC48"/>
    <path d="M74.1453 62.5712C74.082 62.6918 74.0096 62.8064 73.9403 62.9239C73.268 64.0605 72.4811 65.1278 71.6068 66.1076C71.4018 66.3397 71.1878 66.5689 70.9707 66.7889C67.3981 70.452 62.4719 72.7884 57.0121 72.9814C56.7618 72.9935 56.5116 72.9965 56.2614 72.9965C56.2011 72.9965 56.1378 72.9965 56.0775 72.9934C54.7359 72.9874 53.4214 72.8427 52.1492 72.5864C51.9532 72.5442 51.7602 72.505 51.5703 72.4598L51.8658 71.7815L51.911 71.5765L52.6134 68.4169L54.1088 64.6756L57.1025 62.0587L58.9717 60.9372L61.9654 59.8157L65.333 59.068L67.9498 59.4418L70.9436 60.1895L72.8127 61.6849L73.3705 62.0557L74.1453 62.5712Z" fill="#239942"/>
    <path d="M56.7256 72.5279L57.0994 69.9111L58.9716 66.9173L61.9623 64.6743L65.7037 63.9266L68.6944 65.0482L70.1928 65.7958L70.9405 66.1697L68.6944 68.4157L64.9561 70.6587L60.8408 72.1541L57.8471 72.5279H56.7256Z" fill="#24BC48"/>
    <path d="M69.6853 36.8531C69.6823 36.8501 69.6793 36.8471 69.6793 36.8411C69.4019 36.6059 69.1185 36.3738 68.8291 36.1507H68.8261C68.8141 36.1386 68.7839 36.1145 68.7387 36.0783C68.6965 36.0482 68.6573 36.018 68.6151 35.9849C68.5246 35.9366 68.4312 35.8944 68.3347 35.8552C67.991 35.7135 67.6172 35.6231 67.2283 35.602C67.1559 35.599 67.0866 35.5959 67.0142 35.5959C66.8182 35.5959 66.6313 35.611 66.4444 35.6442C67.0323 35.9999 67.593 36.3858 68.1357 36.7958C68.4673 36.9617 68.7568 37.1968 68.9889 37.4832C69.0974 37.5767 69.203 37.6671 69.3055 37.7636C69.7095 38.1194 70.0954 38.4932 70.4692 38.8821C73.8277 42.4094 75.8959 47.1819 75.8959 52.4247C75.8959 52.7623 75.8898 53.097 75.8687 53.4346V53.4377C75.8567 53.6608 75.8416 53.8839 75.8235 54.1039C75.8054 54.3059 75.7873 54.5079 75.7632 54.7069C75.6758 55.4244 75.5582 56.1269 75.3954 56.8203C75.3592 56.9952 75.314 57.167 75.2688 57.3388C75.2326 57.4836 75.1904 57.6313 75.1482 57.773C74.8859 58.7106 74.5482 59.6241 74.1503 60.4984C73.9995 60.8421 73.8367 61.1797 73.6589 61.5083C73.5624 61.6922 73.4629 61.8761 73.3634 62.051C73.3122 62.1445 73.2579 62.2379 73.2036 62.3314C72.5374 63.468 71.7625 64.5322 70.8882 65.506C70.6832 65.7381 70.4662 65.9673 70.2461 66.1904C66.8544 69.6363 62.2056 71.8371 57.0472 72.0391C56.7849 72.0542 56.5226 72.0572 56.2573 72.0572C56.2091 72.0572 56.1608 72.0572 56.1126 72.0542C54.774 72.0482 53.4686 71.9034 52.2054 71.6351C52.1089 71.617 52.0064 71.5929 51.9099 71.5718C51.7019 71.5236 51.4939 71.4753 51.2889 71.4181C50.4779 71.204 49.688 70.9417 48.9223 70.6312C48.4459 70.4413 47.9756 70.2272 47.5204 69.9981C47.3244 69.9016 47.1315 69.7991 46.9415 69.6966C46.842 69.6453 46.7425 69.5911 46.6461 69.5368C41.6204 66.7029 37.9574 61.7164 36.9263 55.8375C36.869 55.5299 36.8268 55.2255 36.7846 54.9149C36.459 54.9873 36.1515 55.0596 35.8711 55.132L36.0128 56.0606C37.1313 62.3133 41.0898 67.5983 46.5014 70.5287C46.5888 70.5769 46.6762 70.6221 46.7667 70.6704C46.9687 70.7789 47.1767 70.8844 47.3877 70.9809C47.7465 71.1558 48.1143 71.3186 48.4881 71.4723C49.3715 71.8341 50.288 72.1386 51.2256 72.3738C51.3401 72.4039 51.4577 72.4341 51.5723 72.4612C51.7622 72.5064 51.9582 72.5486 52.1511 72.5878C53.4234 72.8471 54.7348 72.9888 56.0794 72.9948C56.1397 72.9978 56.2031 72.9978 56.2633 72.9978C56.5136 72.9978 56.7638 72.9948 57.014 72.9828C62.4739 72.7868 67.4001 70.4503 70.9727 66.7903C71.1897 66.5702 71.4038 66.3411 71.6088 66.109C72.4831 65.1291 73.27 64.0619 73.9423 62.9253C74.0146 62.8107 74.084 62.6932 74.1473 62.5726C74.2407 62.4158 74.3282 62.259 74.4096 62.0962C74.6869 61.5837 74.9402 61.0561 75.1693 60.5165C75.4768 59.805 75.7421 59.0754 75.9652 58.3277C76.0104 58.177 76.0557 58.0322 76.0918 57.8815C76.1431 57.7127 76.1883 57.5408 76.2305 57.366C76.3752 56.7871 76.4958 56.1962 76.5863 55.5963C76.6134 55.4365 76.6345 55.2737 76.6526 55.1139C76.6888 54.8697 76.7159 54.6285 76.74 54.3813C76.8033 53.7331 76.8335 53.0849 76.8335 52.4217C76.8335 46.2081 74.0598 40.6247 69.6853 36.8531Z" fill="white"/>
    <path d="M69.3485 38.1343C69.3425 38.0077 69.3304 37.8841 69.3063 37.7635C69.2159 37.1756 68.9747 36.639 68.625 36.1898C68.6069 36.1626 68.5828 36.1325 68.5617 36.1084C68.5586 36.1054 68.5556 36.1023 68.5556 36.0963C68.4833 36.0149 68.4139 35.9305 68.3355 35.8581C68.1004 35.623 67.8321 35.424 67.5366 35.2672C67.5336 35.2642 67.5306 35.2642 67.5306 35.2642C67.5246 35.2522 67.5095 35.2492 67.4974 35.2431C67.0181 34.9929 66.4724 34.8512 65.8966 34.8512C65.7006 34.8512 65.5137 34.8663 65.3268 34.8994C63.6897 35.1678 62.4355 36.5968 62.4355 38.3092C62.4355 40.2176 63.9882 41.7702 65.8966 41.7702C67.8049 41.7702 69.3576 40.2176 69.3576 38.3092C69.3515 38.2489 69.3515 38.1916 69.3485 38.1343ZM65.8935 40.8296C64.5007 40.8296 63.3701 39.696 63.3701 38.3062C63.3701 36.9133 64.5037 35.7828 65.8935 35.7828C66.2975 35.7828 66.6804 35.8762 67.0151 36.0481C67.3467 36.2139 67.6361 36.4491 67.8683 36.7355C68.2119 37.1666 68.4169 37.7123 68.4169 38.3062C68.4169 39.696 67.2834 40.8296 65.8935 40.8296Z" fill="white"/>
    <path d="M55.1651 58.0017C54.8998 58.1856 54.6375 58.3755 54.3782 58.5745C54.1189 58.3725 53.8536 58.1826 53.5883 58.0017C49.6118 55.3155 44.9177 54.9054 41.11 55.2069C40.7934 55.2341 40.4769 55.2642 40.1754 55.2974C38.9574 55.4361 37.854 55.635 36.9224 55.8431C36.5968 55.9184 36.2893 55.9938 36.0089 56.0631L35.8672 55.1346C36.1476 55.0622 36.4551 54.9899 36.7807 54.9175C37.7575 54.7035 38.9061 54.4984 40.1784 54.3628C40.4799 54.3266 40.7964 54.2965 41.113 54.2723C42.9611 54.1306 45.0111 54.1517 47.0944 54.5015C47.2301 54.5226 47.3627 54.5497 47.4984 54.5768C47.6129 54.5979 47.7275 54.6221 47.8421 54.6432C48.9575 54.8723 50.076 55.1979 51.1704 55.6501C51.4598 55.7707 51.7493 55.8973 52.0357 56.036C52.8376 56.4189 53.6215 56.8741 54.3812 57.4078C54.6435 57.5977 54.9058 57.7937 55.1651 58.0017Z" fill="white"/>
    <path d="M76.7407 54.3843C76.7196 54.6316 76.6924 54.8757 76.6532 55.1169C76.6352 55.2767 76.611 55.4395 76.5869 55.5993C76.3668 55.3551 76.0865 55.0536 75.7669 54.7069C74.2082 53.0126 71.7662 50.3204 70.7623 49.0692C70.5121 48.7557 70.2829 48.5989 70.0809 48.5989C69.8488 48.5989 69.5805 48.7888 69.2941 49.0752C69.0107 49.3556 68.7092 49.7325 68.4137 50.1033C68.0731 50.5284 67.7264 50.9716 67.3405 51.3514C67.1988 51.4931 66.7676 51.9273 66.222 51.8459C65.5828 51.7524 65.2301 51.0891 64.6995 50.0912C64.1749 49.1024 63.4544 47.7547 62.1942 46.4885C61.9469 46.2443 61.6605 46.1478 61.2897 46.1901C58.9743 46.4554 54.9827 51.665 52.7668 54.93C52.4925 55.331 52.2483 55.7048 52.0342 56.0334C51.9347 56.1902 51.8383 56.341 51.7538 56.4796L51.2232 56.148L50.9609 55.9822C51.0062 55.9068 51.0755 55.7953 51.169 55.6506C51.371 55.337 51.6724 54.8697 52.0583 54.2999C54.0813 51.3152 58.305 45.5901 61.1842 45.2645C61.8324 45.1891 62.4112 45.3881 62.8514 45.8343C64.2171 47.197 64.9708 48.617 65.5255 49.6571C65.8029 50.1756 66.1828 50.8962 66.3606 50.9263C66.3606 50.9263 66.4541 50.9233 66.6832 50.6972C67.0269 50.3505 67.3616 49.9314 67.6811 49.5275C68.4409 48.5687 69.1584 47.6673 70.0749 47.6673H70.0779C70.5754 47.6673 71.0547 47.9447 71.4919 48.4904C72.3451 49.5606 74.3409 51.7705 75.8694 53.4377V53.4407C76.1859 53.7814 76.4814 54.1009 76.7407 54.3843Z" fill="white"/>
    <path d="M55.0694 55.7544L54.2734 55.263C54.397 55.061 57.3486 50.2886 59.2931 49.1218L59.7755 49.9238C58.3193 50.7981 55.8864 54.4279 55.0694 55.7544Z" fill="white"/>
    <path d="M57.9691 37.4684L57.9648 38.403L61.7062 38.4198L61.7105 37.4853L57.9691 37.4684Z" fill="white"/>
    <path d="M61.9675 39.523L58.4072 40.6724L58.6943 41.5617L62.2546 40.4124L61.9675 39.523Z" fill="white"/>
    <path d="M58.8699 33.9988L58.417 34.8163L61.6896 36.6294L62.1425 35.8119L58.8699 33.9988Z" fill="white"/>
    <path d="M61.3375 31.7004L60.6123 32.29L62.9727 35.193L63.6979 34.6033L61.3375 31.7004Z" fill="white"/>
    <path d="M64.9736 30.4063L64.0479 30.5347L64.5619 34.2405L65.4876 34.1121L64.9736 30.4063Z" fill="white"/>
    <path d="M67.4026 30.3938L66.4766 34.0188L67.3821 34.2501L68.3081 30.6251L67.4026 30.3938Z" fill="white"/>
    <path d="M70.3542 31.6559L68.1494 34.6786L68.9045 35.2293L71.1093 32.2067L70.3542 31.6559Z" fill="white"/>
    <path d="M73.6659 61.5126C73.1383 61.1237 72.5805 60.7709 71.9987 60.4604C70.0119 59.3902 67.7418 58.7842 65.3329 58.7842C63.111 58.7842 61.0097 59.2997 59.1405 60.2162C54.8715 62.3055 51.8084 66.4931 51.2929 71.4223C51.2597 71.7359 51.2356 72.0554 51.2266 72.372C51.3411 72.4021 51.4587 72.4323 51.5733 72.4594C51.7632 72.5046 51.9592 72.5468 52.1521 72.586C52.1581 72.2695 52.1792 71.9529 52.2094 71.6394C52.7249 66.2308 56.5206 61.7688 61.5795 60.2645C62.7703 59.9087 64.0305 59.7188 65.3359 59.7188C66.8162 59.7188 68.2392 59.963 69.5657 60.4152C70.8892 60.8644 72.1163 61.5156 73.2137 62.3326C73.4639 62.5195 73.7111 62.7185 73.9463 62.9235C74.0186 62.809 74.088 62.6914 74.1513 62.5708C74.2447 62.414 74.3322 62.2573 74.4136 62.0945C74.1694 61.8925 73.9191 61.6995 73.6659 61.5126Z" fill="white"/>
    <path d="M70.8941 65.5121C69.3445 64.3423 67.415 63.6489 65.3318 63.6489C60.5111 63.6489 56.5436 67.3511 56.1154 72.0603C56.0853 72.3407 56.0732 72.621 56.0732 72.9044C56.0732 72.9346 56.0732 72.9647 56.0763 72.9949C56.1366 72.9979 56.1999 72.9979 56.2602 72.9979C56.5104 72.9979 56.7606 72.9949 57.0109 72.9828C57.0078 72.9557 57.0078 72.9316 57.0078 72.9044C57.0078 72.612 57.0229 72.3256 57.05 72.0452C57.4842 67.8606 61.0326 64.5835 65.3318 64.5835C67.1708 64.5835 68.8712 65.1835 70.2489 66.1964C70.4992 66.3804 70.7434 66.5793 70.9695 66.7904C71.1865 66.5703 71.4006 66.3412 71.6056 66.109C71.3795 65.898 71.1383 65.699 70.8941 65.5121Z" fill="white"/>
    <path d="M75.3992 56.8227C72.4778 54.9866 69.0259 53.9254 65.3297 53.9254C61.537 53.9254 57.9976 55.0439 55.028 56.9704C54.808 57.1121 54.5909 57.2628 54.3768 57.4105C54.1779 57.5522 53.9789 57.697 53.7889 57.8447C53.7226 57.8959 53.6533 57.9502 53.587 58.0015C50.0144 60.8203 47.4789 64.8903 46.6408 69.5452C46.5835 69.8708 46.5353 70.1994 46.4961 70.5341C46.5835 70.5823 46.671 70.6275 46.7614 70.6758C46.9634 70.7843 47.1714 70.8898 47.3825 70.9863C47.4156 70.6607 47.4608 70.3321 47.5181 70.0095C48.2658 65.3667 50.7952 61.3178 54.3768 58.5743C54.4643 58.511 54.5457 58.4476 54.6301 58.3843C54.8049 58.2547 54.9828 58.1251 55.1607 58.0015C55.3567 57.8718 55.5496 57.7392 55.7486 57.6156C58.5282 55.87 61.8114 54.86 65.3267 54.86C68.9475 54.86 72.3211 55.9303 75.149 57.7784C75.4263 57.9532 75.6946 58.1401 75.9599 58.3361C76.0052 58.1854 76.0504 58.0406 76.0866 57.8899C76.1378 57.7211 76.183 57.5492 76.2253 57.3744C75.9539 57.1814 75.6826 56.9975 75.3992 56.8227Z" fill="white"/>
    <path d="M41.1123 48.5901V55.2016C40.7958 55.2287 40.4792 55.2589 40.1777 55.292V48.5901H41.1123Z" fill="white"/>
    <path d="M41.0502 40.1416L40.6613 39.421L40.2392 40.1235C40.0583 40.4219 35.8436 47.5038 37.5439 50.6C38.0293 51.4894 38.9217 51.9717 40.1819 52.0411C40.2332 52.0441 40.2874 52.0471 40.3417 52.0471C40.405 52.0501 40.4653 52.0501 40.5256 52.0501C40.7306 52.0501 40.9296 52.0441 41.1165 52.02C42.2772 51.9114 43.1093 51.4502 43.6007 50.6542C45.081 48.2394 42.8561 43.494 41.0502 40.1416ZM42.7988 50.1628C42.4762 50.6814 41.9245 50.9889 41.1105 51.0793C40.8814 51.1065 40.6311 51.1155 40.3598 51.1095C40.2965 51.1095 40.2362 51.1065 40.1759 51.1035C39.2745 51.0432 38.6805 50.7326 38.361 50.1508C37.2907 48.2032 39.3498 43.6508 40.6191 41.3324C42.9314 45.7883 43.664 48.7579 42.7988 50.1628Z" fill="white"/>
    <path d="M47.8404 50.6864H47.0928V54.9494H47.8404V50.6864Z" fill="white"/>
    <path d="M47.7905 45.5751L47.48 44.9962L47.1393 45.557C46.8649 46.0122 44.4953 50.0641 45.5203 51.9393C45.8188 52.482 46.3464 52.7835 47.0911 52.8408C47.1514 52.8528 47.2147 52.8559 47.278 52.8559H47.3895C47.5463 52.8559 47.697 52.8498 47.8387 52.8257C48.5231 52.7473 49.0175 52.4579 49.316 51.9755C50.2355 50.4832 48.8849 47.607 47.7905 45.5751ZM48.6769 51.5836C48.511 51.8459 48.2397 52.0147 47.8387 52.078C47.6789 52.1052 47.4981 52.1142 47.2961 52.1082C47.2237 52.1052 47.1544 52.1021 47.0911 52.0961C46.6419 52.0479 46.3434 51.876 46.1776 51.5806C45.5746 50.4892 46.6901 47.9477 47.4498 46.5338C48.7583 49.0873 49.1713 50.7817 48.6769 51.5836Z" fill="white"/>
    <path d="M68.8292 36.1515C68.8292 36.1515 67.8976 35.4098 67.5479 35.2681C67.2012 35.1264 67.2012 35.8741 67.2012 35.8741L68.3227 36.2479L68.8292 36.1515Z" fill="white"/>
    <path d="M65.8917 41.111C67.4402 41.111 68.6955 39.8557 68.6955 38.3072C68.6955 36.7587 67.4402 35.5034 65.8917 35.5034C64.3432 35.5034 63.0879 36.7587 63.0879 38.3072C63.0879 39.8557 64.3432 41.111 65.8917 41.111Z" fill="#E07103"/>
  </g>
</svg>