<?xml version="1.0" encoding="utf-8"?>
<svg viewBox="0 0 113 116" fill="none" xmlns="http://www.w3.org/2000/svg">
  <defs>
    <linearGradient id="paint0_linear_3194_98979" x1="15.9448" y1="27.3586" x2="94.5022" y2="112.551" gradientUnits="userSpaceOnUse" gradientTransform="matrix(1.286159, 0, 0, 1.286159, -17.806784, -9.972816)">
      <stop stop-color="#5FC97F"/>
      <stop offset="0.1696" stop-color="#5FC97F"/>
      <stop offset="0.1697" stop-color="#CCEBD5"/>
      <stop offset="0.3224" stop-color="#9BDCAF"/>
      <stop offset="0.3225" stop-color="#5FC97F"/>
      <stop offset="0.5416" stop-color="#5FC97F"/>
    </linearGradient>
    <linearGradient id="paint1_linear_3194_98979" x1="57.5542" y1="50.5258" x2="57.5542" y2="116.78" gradientUnits="userSpaceOnUse" gradientTransform="matrix(1.286159, 0, 0, 1.286159, -17.806784, -9.972816)">
      <stop stop-color="white" stop-opacity="0"/>
      <stop offset="1" stop-color="#61CD81"/>
    </linearGradient>
    <radialGradient id="paint2_radial_3194_98979" cx="0" cy="0" r="1" gradientUnits="userSpaceOnUse" gradientTransform="translate(57.1545 51.6289) rotate(-180) scale(106.171 106.882)">
      <stop stop-color="white" stop-opacity="0"/>
      <stop offset="1" stop-color="#F9A825"/>
    </radialGradient>
    <radialGradient id="paint3_radial_3194_98979" cx="0" cy="0" r="1" gradientUnits="userSpaceOnUse" gradientTransform="translate(57.1562 51.6289) rotate(-180) scale(106.171 106.882)">
      <stop stop-color="white" stop-opacity="0"/>
      <stop offset="1" stop-color="#61CD81"/>
    </radialGradient>
    <filter id="filter0_d_3194_98979" x="-4.32017" y="-2.00604" width="121.725" height="121.726" filterUnits="userSpaceOnUse" color-interpolation-filters="sRGB">
      <feFlood flood-opacity="0" result="BackgroundImageFix"/>
      <feColorMatrix in="SourceAlpha" type="matrix" values="0 0 0 0 0 0 0 0 0 0 0 0 0 0 0 0 0 0 127 0" result="hardAlpha"/>
      <feOffset dy="7.16032"/>
      <feGaussianBlur stdDeviation="17.9008"/>
      <feComposite in2="hardAlpha" operator="out"/>
      <feColorMatrix type="matrix" values="0 0 0 0 1 0 0 0 0 1 0 0 0 0 1 0 0 0 0.25 0"/>
      <feBlend mode="normal" in2="BackgroundImageFix" result="effect1_dropShadow_3194_98979"/>
      <feBlend mode="normal" in="SourceGraphic" in2="effect1_dropShadow_3194_98979" result="shape"/>
    </filter>
  </defs>
  <path d="M 69.03 112.915 C 98.912 105.804 117.412 75.652 110.347 45.568 C 103.283 15.485 73.332 -3.138 43.449 3.974 C 13.566 11.086 -4.933 41.238 2.131 71.321 C 9.195 101.404 39.147 120.026 69.03 112.915 Z" fill="url(#paint0_linear_3194_98979)" style=""/>
  <path d="M 64.213 108.085 C 91.64 103.613 110.273 77.604 105.831 49.994 C 101.388 22.382 75.553 3.624 48.125 8.096 C 20.698 12.568 2.065 38.576 6.507 66.188 C 10.95 93.799 36.785 112.557 64.213 108.085 Z" fill="#54B270" style=""/>
  <path style="mix-blend-mode: multiply;" d="M 64.213 108.229 C 91.64 103.756 110.273 77.747 105.831 50.137 C 101.388 22.525 75.553 3.767 48.125 8.24 C 20.698 12.711 2.065 38.72 6.507 66.331 C 10.95 93.942 36.785 112.7 64.213 108.229 Z" fill="url(#paint1_linear_3194_98979)"/>
  <g style="mix-blend-mode: multiply;" transform="matrix(1.2861590385437012, 0, 0, 1.2861590385437012, -17.806781768798828, -9.972816467285156)">
    <path style="mix-blend-mode:multiply" d="M95.1835 52.8789C95.1835 31.1587 78.342 13.5012 57.6201 13.5012C79.1958 13.5012 96.7357 31.1587 96.7357 52.8789C96.7357 74.5992 79.1958 92.2567 57.6201 92.2567C78.4197 92.2567 95.1835 74.5992 95.1835 52.8789Z" fill="url(#paint2_radial_3194_98979)"/>
    <path style="mix-blend-mode:multiply" d="M57.5443 13.5012C36.7447 13.5012 19.9809 31.1587 19.9809 52.8789C19.9809 74.5992 36.8223 92.2567 57.5443 92.2567C35.9686 92.2567 18.4287 74.5992 18.4287 52.8789C18.4287 31.1587 35.9686 13.5012 57.5443 13.5012Z" fill="url(#paint3_radial_3194_98979)"/>
  </g>
  <g filter="url(#filter0_d_3194_98979)" style="" transform="matrix(1.2861590385437012, 0, 0, 1.2861590385437012, -17.806781768798828, -9.972816467285156)">
    <path d="M43.5956 50.653C43.1041 51.4489 42.2721 51.9102 41.1113 52.0187V52.7181L40.1767 52.8146V52.0368C38.9166 51.9705 38.0272 51.4881 37.5388 50.5957C35.8414 47.4995 40.0562 40.4177 40.234 40.1192L40.6561 39.4167L41.045 40.1373C42.8569 43.4928 45.0819 48.2381 43.5956 50.653Z" fill="#24BC48"/>
    <path d="M49.3197 51.9756C49.0212 52.458 48.5268 52.7474 47.8424 52.8258V54.2579L47.2847 54.3151V53.5373C47.2214 53.5343 47.158 53.5313 47.0947 53.5222V52.8409C46.3501 52.7836 45.8225 52.4821 45.524 51.9395C44.499 50.0643 46.8716 46.0153 47.143 45.5571L47.4836 44.9963L47.7942 45.5752C48.8855 47.6072 50.2362 50.4833 49.3197 51.9756Z" fill="#239942"/>
    <path d="M76.6508 55.1186C76.6327 55.2784 76.6086 55.4412 76.5845 55.601C76.494 56.1979 76.3765 56.7918 76.2287 57.3707C76.1865 57.5456 76.1413 57.7174 76.09 57.8862C76.0539 58.037 76.0087 58.1817 75.9634 58.3324C75.7403 59.0801 75.472 59.8097 75.1675 60.5212L74.1545 60.5031L71.9959 60.4609L69.5599 60.4157L61.5737 60.2649L59.1347 60.2167L57.4735 60.1865L54.6305 58.3807L53.7894 57.841L53.3583 57.5667L51.2178 56.1467L51.4981 55.7909L54.8536 51.5822L56.7228 48.9654L59.7166 46.3485L61.5857 45.6008L62.3334 45.9747L64.5764 48.5915L65.698 50.4607L66.4456 51.5822L67.5672 50.0869L69.0625 48.5915L70.184 48.2177L71.3055 48.5915L72.8009 50.8346L74.6701 52.7037L75.8157 54.1026L76.6508 55.1186Z" fill="#0B6C96"/>
    <path d="M55.7538 57.6166L48.9253 70.6406L48.4881 71.4757C48.1143 71.322 47.7465 71.1622 47.3877 70.9843C47.1797 70.8878 46.9687 70.7823 46.7667 70.6738C46.6762 70.6255 46.5858 70.5803 46.5014 70.5321C41.0898 67.6047 37.1313 62.3197 36.0128 56.064L35.8711 55.1354C36.1515 55.063 36.459 54.9907 36.7846 54.9183C37.7614 54.7043 38.91 54.4993 40.1823 54.3636V53.6822L41.1169 53.6642V54.2732C42.965 54.1315 45.015 54.1526 47.0983 54.5023V53.5375L47.846 53.5225V54.644C48.9615 54.8731 50.08 55.1987 51.1743 55.6509C51.3763 55.3374 51.6778 54.8701 52.0637 54.3003L52.7692 54.9334C52.4948 55.3344 52.2506 55.7082 52.0366 56.0368C52.8385 56.4197 53.6224 56.8749 54.3821 57.4086C54.5962 57.2578 54.8132 57.1101 55.0333 56.9684L55.7538 57.6166Z" fill="#239942"/>
    <path d="M76.0918 57.8847C76.0556 58.0354 76.0104 58.1801 75.9652 58.3308C75.5732 59.6483 75.0486 60.9085 74.4095 62.0964C74.3281 62.2561 74.2407 62.4129 74.1472 62.5727C74.0839 62.6933 74.0115 62.8079 73.9422 62.9254C73.2699 64.062 72.483 65.1293 71.6087 66.1091C71.4037 66.3412 71.1897 66.5703 70.9726 66.7904C67.4 70.4534 62.4738 72.7899 57.014 72.9829C56.7637 72.9949 56.5135 72.998 56.2633 72.998C56.203 72.998 56.1397 72.998 56.0794 72.9949C54.7378 72.9889 53.4233 72.8442 52.1511 72.5879C51.9551 72.5457 51.7622 72.5065 51.5722 72.4613C51.4577 72.4342 51.3401 72.404 51.2255 72.3739C49.89 72.0362 48.6026 71.5689 47.3877 70.981C47.1796 70.8846 46.9686 70.779 46.7666 70.6705L46.9415 69.7028L47.3786 67.2939L49.2478 63.9264L50.3693 62.0572L53.363 58.6896L54.0323 58.3067L54.9157 57.8033L55.9829 57.1943L58.2259 55.6989L61.5935 54.9512L64.2104 54.5774L69.0733 54.9512L72.8147 56.0727L75.0577 57.1943L75.2748 57.339L76.0918 57.8847Z" fill="#24BC48"/>
    <path d="M74.1453 62.5721C74.082 62.6927 74.0096 62.8072 73.9403 62.9248C73.268 64.0614 72.4811 65.1286 71.6068 66.1085C71.4018 66.3406 71.1878 66.5697 70.9707 66.7898C67.3981 70.4528 62.4719 72.7893 57.0121 72.9822C56.7618 72.9943 56.5116 72.9973 56.2614 72.9973C56.2011 72.9973 56.1378 72.9973 56.0775 72.9943C54.7359 72.9883 53.4214 72.8436 52.1492 72.5873C51.9532 72.5451 51.7602 72.5059 51.5703 72.4607L51.8658 71.7823L51.911 71.5773L52.6134 68.4178L54.1088 64.6764L57.1025 62.0595L58.9717 60.938L61.9654 59.8165L65.333 59.0688L67.9498 59.4427L70.9436 60.1904L72.8127 61.6857L73.3705 62.0565L74.1453 62.5721Z" fill="#239942"/>
    <path d="M56.7256 72.5285L57.0994 69.9117L58.9716 66.918L61.9623 64.6749L65.7037 63.9272L68.6944 65.0488L70.1928 65.7964L70.9405 66.1703L68.6944 68.4163L64.9561 70.6593L60.8408 72.1547L57.8471 72.5285H56.7256Z" fill="#24BC48"/>
    <path d="M69.6853 36.8539C69.6823 36.8508 69.6793 36.8478 69.6793 36.8418C69.4019 36.6066 69.1185 36.3745 68.8291 36.1514H68.8261C68.8141 36.1393 68.7839 36.1152 68.7387 36.0791C68.6965 36.0489 68.6573 36.0188 68.6151 35.9856C68.5246 35.9374 68.4312 35.8951 68.3347 35.856C67.991 35.7143 67.6172 35.6238 67.2283 35.6027C67.1559 35.5997 67.0866 35.5967 67.0142 35.5967C66.8182 35.5967 66.6313 35.6118 66.4444 35.6449C67.0323 36.0007 67.593 36.3866 68.1357 36.7966C68.4673 36.9624 68.7568 37.1976 68.9889 37.484C69.0974 37.5774 69.203 37.6679 69.3055 37.7643C69.7095 38.1201 70.0954 38.4939 70.4692 38.8828C73.8277 42.4102 75.8959 47.1826 75.8959 52.4254C75.8959 52.7631 75.8898 53.0977 75.8687 53.4354V53.4384C75.8567 53.6615 75.8416 53.8846 75.8235 54.1047C75.8054 54.3067 75.7873 54.5087 75.7632 54.7076C75.6758 55.4252 75.5582 56.1276 75.3954 56.821C75.3592 56.9959 75.314 57.1677 75.2688 57.3396C75.2326 57.4843 75.1904 57.632 75.1482 57.7737C74.8859 58.7113 74.5482 59.6248 74.1503 60.4991C73.9995 60.8428 73.8367 61.1805 73.6589 61.5091C73.5624 61.693 73.4629 61.8769 73.3634 62.0517C73.3122 62.1452 73.2579 62.2387 73.2036 62.3321C72.5374 63.4687 71.7625 64.5329 70.8882 65.5067C70.6832 65.7389 70.4662 65.968 70.2461 66.1911C66.8544 69.637 62.2056 71.8379 57.0472 72.0398C56.7849 72.0549 56.5226 72.0579 56.2573 72.0579C56.2091 72.0579 56.1608 72.0579 56.1126 72.0549C54.774 72.0489 53.4686 71.9042 52.2054 71.6359C52.1089 71.6178 52.0064 71.5937 51.9099 71.5725C51.7019 71.5243 51.4939 71.4761 51.2889 71.4188C50.4779 71.2047 49.688 70.9425 48.9223 70.6319C48.4459 70.442 47.9756 70.2279 47.5204 69.9988C47.3244 69.9023 47.1315 69.7998 46.9415 69.6973C46.842 69.6461 46.7425 69.5918 46.6461 69.5375C41.6204 66.7036 37.9574 61.7171 36.9263 55.8382C36.869 55.5307 36.8268 55.2262 36.7846 54.9157C36.459 54.988 36.1515 55.0604 35.8711 55.1327L36.0128 56.0613C37.1313 62.314 41.0898 67.599 46.5014 70.5294C46.5888 70.5777 46.6762 70.6229 46.7667 70.6711C46.9687 70.7797 47.1767 70.8852 47.3877 70.9816C47.7465 71.1565 48.1143 71.3193 48.4881 71.4731C49.3715 71.8348 50.288 72.1393 51.2256 72.3745C51.3401 72.4046 51.4577 72.4348 51.5723 72.4619C51.7622 72.5071 51.9582 72.5493 52.1511 72.5885C53.4234 72.8478 54.7348 72.9895 56.0794 72.9955C56.1397 72.9986 56.2031 72.9986 56.2633 72.9986C56.5136 72.9986 56.7638 72.9955 57.014 72.9835C62.4739 72.7875 67.4001 70.451 70.9727 66.791C71.1897 66.571 71.4038 66.3418 71.6088 66.1097C72.4831 65.1299 73.27 64.0626 73.9423 62.926C74.0146 62.8115 74.084 62.6939 74.1473 62.5733C74.2407 62.4165 74.3282 62.2598 74.4096 62.097C74.6869 61.5844 74.9402 61.0569 75.1693 60.5172C75.4768 59.8057 75.7421 59.0761 75.9652 58.3284C76.0104 58.1777 76.0557 58.033 76.0918 57.8822C76.1431 57.7134 76.1883 57.5416 76.2305 57.3667C76.3752 56.7879 76.4958 56.197 76.5863 55.597C76.6134 55.4372 76.6345 55.2744 76.6526 55.1146C76.6888 54.8704 76.7159 54.6293 76.74 54.382C76.8033 53.7338 76.8335 53.0857 76.8335 52.4224C76.8335 46.2089 74.0598 40.6254 69.6853 36.8539Z" fill="#131414"/>
    <path d="M69.3485 38.1352C69.3425 38.0086 69.3304 37.885 69.3063 37.7644C69.2159 37.1765 68.9747 36.6398 68.625 36.1906C68.6069 36.1635 68.5828 36.1333 68.5617 36.1092C68.5586 36.1062 68.5556 36.1032 68.5556 36.0972C68.4833 36.0158 68.4139 35.9314 68.3355 35.859C68.1004 35.6238 67.8321 35.4249 67.5366 35.2681C67.5336 35.2651 67.5306 35.2651 67.5306 35.2651C67.5246 35.253 67.5095 35.25 67.4974 35.244C67.0181 34.9937 66.4724 34.8521 65.8966 34.8521C65.7006 34.8521 65.5137 34.8671 65.3268 34.9003C63.6897 35.1686 62.4355 36.5976 62.4355 38.31C62.4355 40.2184 63.9882 41.7711 65.8966 41.7711C67.8049 41.7711 69.3576 40.2184 69.3576 38.31C69.3515 38.2498 69.3515 38.1925 69.3485 38.1352ZM65.8935 40.8304C64.5007 40.8304 63.3701 39.6969 63.3701 38.307C63.3701 36.9142 64.5037 35.7836 65.8935 35.7836C66.2975 35.7836 66.6804 35.8771 67.0151 36.0489C67.3467 36.2147 67.6361 36.4499 67.8683 36.7363C68.2119 37.1674 68.4169 37.7131 68.4169 38.307C68.4169 39.6969 67.2834 40.8304 65.8935 40.8304Z" fill="#131414"/>
    <path d="M55.1651 58.0025C54.8998 58.1864 54.6375 58.3764 54.3782 58.5753C54.1189 58.3734 53.8536 58.1834 53.5883 58.0025C49.6118 55.3163 44.9177 54.9063 41.11 55.2078C40.7934 55.2349 40.4769 55.2651 40.1754 55.2982C38.9574 55.4369 37.854 55.6359 36.9224 55.8439C36.5968 55.9193 36.2893 55.9947 36.0089 56.064L35.8672 55.1354C36.1476 55.0631 36.4551 54.9907 36.7807 54.9184C37.7575 54.7043 38.9061 54.4993 40.1784 54.3636C40.4799 54.3275 40.7964 54.2973 41.113 54.2732C42.9611 54.1315 45.0111 54.1526 47.0944 54.5023C47.2301 54.5234 47.3627 54.5506 47.4984 54.5777C47.6129 54.5988 47.7275 54.6229 47.8421 54.644C48.9575 54.8731 50.076 55.1987 51.1704 55.651C51.4598 55.7716 51.7493 55.8982 52.0357 56.0369C52.8376 56.4197 53.6215 56.875 54.3812 57.4086C54.6435 57.5985 54.9058 57.7945 55.1651 58.0025Z" fill="#131414"/>
    <path d="M76.7407 54.3854C76.7196 54.6326 76.6924 54.8768 76.6532 55.118C76.6352 55.2778 76.611 55.4406 76.5869 55.6004C76.3668 55.3562 76.0865 55.0547 75.7669 54.708C74.2082 53.0137 71.7662 50.3215 70.7623 49.0703C70.5121 48.7568 70.2829 48.6 70.0809 48.6C69.8488 48.6 69.5805 48.7899 69.2941 49.0763C69.0107 49.3567 68.7092 49.7336 68.4137 50.1044C68.0731 50.5295 67.7264 50.9727 67.3405 51.3525C67.1988 51.4942 66.7676 51.9284 66.222 51.847C65.5828 51.7535 65.2301 51.0902 64.6995 50.0923C64.1749 49.1035 63.4544 47.7558 62.1942 46.4896C61.9469 46.2454 61.6605 46.1489 61.2897 46.1911C58.9743 46.4565 54.9827 51.6661 52.7668 54.9311C52.4925 55.3321 52.2483 55.7059 52.0342 56.0345C51.9347 56.1913 51.8383 56.3421 51.7538 56.4807L51.2232 56.1491L50.9609 55.9833C51.0062 55.9079 51.0755 55.7964 51.169 55.6517C51.371 55.3381 51.6724 54.8708 52.0583 54.301C54.0813 51.3163 58.305 45.5912 61.1842 45.2656C61.8324 45.1902 62.4112 45.3892 62.8514 45.8354C64.2171 47.1981 64.9708 48.6181 65.5255 49.6582C65.8029 50.1767 66.1828 50.8973 66.3606 50.9274C66.3606 50.9274 66.4541 50.9244 66.6832 50.6983C67.0269 50.3516 67.3616 49.9325 67.6811 49.5286C68.4409 48.5698 69.1584 47.6684 70.0749 47.6684H70.0779C70.5754 47.6684 71.0547 47.9458 71.4919 48.4915C72.3451 49.5617 74.3409 51.7716 75.8694 53.4388V53.4418C76.1859 53.7825 76.4814 54.102 76.7407 54.3854Z" fill="#131414"/>
    <path d="M55.0694 55.7554L54.2734 55.264C54.397 55.062 57.3486 50.2895 59.2931 49.1228L59.7755 49.9247C58.3193 50.799 55.8864 54.4289 55.0694 55.7554Z" fill="#131414"/>
    <path d="M57.9691 37.4692L57.9648 38.4038L61.7062 38.4207L61.7105 37.4861L57.9691 37.4692Z" fill="#131414"/>
    <path d="M61.9675 39.5242L58.4072 40.6736L58.6943 41.5629L62.2546 40.4136L61.9675 39.5242Z" fill="#131414"/>
    <path d="M58.8699 33.9994L58.417 34.8169L61.6896 36.63L62.1425 35.8125L58.8699 33.9994Z" fill="#131414"/>
    <path d="M61.3375 31.7011L60.6123 32.2908L62.9727 35.1937L63.6979 34.6041L61.3375 31.7011Z" fill="#131414"/>
    <path d="M64.9726 30.407L64.0469 30.5354L64.5609 34.2412L65.4867 34.1128L64.9726 30.407Z" fill="#131414"/>
    <path d="M67.4026 30.395L66.4766 34.02L67.3821 34.2513L68.3081 30.6263L67.4026 30.395Z" fill="#131414"/>
    <path d="M70.3542 31.6568L68.1494 34.6794L68.9045 35.2302L71.1093 32.2075L70.3542 31.6568Z" fill="#131414"/>
    <path d="M73.6659 61.5131C73.1383 61.1242 72.5805 60.7714 71.9987 60.4609C70.0119 59.3906 67.7418 58.7847 65.3329 58.7847C63.111 58.7847 61.0097 59.3002 59.1405 60.2167C54.8715 62.306 51.8084 66.4936 51.2929 71.4228C51.2597 71.7363 51.2356 72.0559 51.2266 72.3725C51.3411 72.4026 51.4587 72.4328 51.5733 72.4599C51.7632 72.5051 51.9592 72.5473 52.1521 72.5865C52.1581 72.27 52.1792 71.9534 52.2094 71.6399C52.7249 66.2313 56.5206 61.7693 61.5795 60.2649C62.7703 59.9092 64.0305 59.7193 65.3359 59.7193C66.8162 59.7193 68.2392 59.9635 69.5657 60.4157C70.8892 60.8649 72.1163 61.5161 73.2137 62.3331C73.4639 62.52 73.7111 62.719 73.9463 62.924C74.0186 62.8095 74.088 62.6919 74.1513 62.5713C74.2447 62.4145 74.3322 62.2577 74.4136 62.0949C74.1694 61.893 73.9191 61.7 73.6659 61.5131Z" fill="#131414"/>
    <path d="M70.8941 65.5131C69.3445 64.3433 67.415 63.6499 65.3318 63.6499C60.5111 63.6499 56.5436 67.3521 56.1154 72.0613C56.0853 72.3416 56.0732 72.622 56.0732 72.9054C56.0732 72.9356 56.0732 72.9657 56.0763 72.9958C56.1366 72.9989 56.1999 72.9989 56.2602 72.9989C56.5104 72.9989 56.7606 72.9958 57.0109 72.9838C57.0078 72.9566 57.0078 72.9325 57.0078 72.9054C57.0078 72.613 57.0229 72.3266 57.05 72.0462C57.4842 67.8616 61.0326 64.5845 65.3318 64.5845C67.1708 64.5845 68.8712 65.1844 70.2489 66.1974C70.4992 66.3813 70.7434 66.5803 70.9695 66.7913C71.1865 66.5713 71.4006 66.3421 71.6056 66.11C71.3795 65.899 71.1383 65.7 70.8941 65.5131Z" fill="#131414"/>
    <path d="M75.3992 56.8235C72.4778 54.9875 69.0259 53.9263 65.3297 53.9263C61.537 53.9263 57.9976 55.0448 55.028 56.9712C54.808 57.1129 54.5909 57.2637 54.3768 57.4114C54.1779 57.5531 53.9789 57.6978 53.7889 57.8455C53.7226 57.8968 53.6533 57.9511 53.587 58.0023C50.0144 60.8212 47.4789 64.8912 46.6408 69.5461C46.5835 69.8717 46.5353 70.2003 46.4961 70.5349C46.5835 70.5832 46.671 70.6284 46.7614 70.6766C46.9634 70.7851 47.1714 70.8907 47.3825 70.9871C47.4156 70.6615 47.4608 70.3329 47.5181 70.0103C48.2658 65.3675 50.7952 61.3186 54.3768 58.5751C54.4643 58.5118 54.5457 58.4485 54.6301 58.3852C54.8049 58.2556 54.9828 58.1259 55.1607 58.0023C55.3567 57.8727 55.5496 57.74 55.7486 57.6164C58.5282 55.8708 61.8114 54.8609 65.3267 54.8609C68.9475 54.8609 72.3211 55.9311 75.149 57.7792C75.4263 57.9541 75.6946 58.141 75.9599 58.337C76.0052 58.1862 76.0504 58.0415 76.0866 57.8908C76.1378 57.7219 76.183 57.5501 76.2253 57.3752C75.9539 57.1823 75.6826 56.9984 75.3992 56.8235Z" fill="#131414"/>
    <path d="M41.1123 48.5911V55.2026C40.7958 55.2297 40.4792 55.2598 40.1777 55.293V48.5911H41.1123Z" fill="#131414"/>
    <path d="M41.0502 40.1427L40.6613 39.4221L40.2392 40.1246C40.0583 40.423 35.8436 47.5049 37.5439 50.6011C38.0293 51.4905 38.9217 51.9728 40.1819 52.0422C40.2332 52.0452 40.2874 52.0482 40.3417 52.0482C40.405 52.0512 40.4653 52.0512 40.5256 52.0512C40.7306 52.0512 40.9296 52.0452 41.1165 52.0211C42.2772 51.9125 43.1093 51.4513 43.6007 50.6553C45.081 48.2405 42.8561 43.4951 41.0502 40.1427ZM42.7988 50.1639C42.4762 50.6825 41.9245 50.99 41.1105 51.0804C40.8814 51.1076 40.6311 51.1166 40.3598 51.1106C40.2965 51.1106 40.2362 51.1076 40.1759 51.1046C39.2745 51.0443 38.6805 50.7337 38.361 50.1519C37.2907 48.2043 39.3498 43.6519 40.6191 41.3335C42.9314 45.7894 43.664 48.759 42.7988 50.1639Z" fill="#131414"/>
    <path d="M47.8395 50.687H47.0918V54.95H47.8395V50.687Z" fill="#131414"/>
    <path d="M47.7905 45.5757L47.48 44.9968L47.1393 45.5576C46.8649 46.0128 44.4953 50.0647 45.5203 51.94C45.8188 52.4826 46.3464 52.7841 47.0911 52.8414C47.1514 52.8534 47.2147 52.8565 47.278 52.8565H47.3895C47.5463 52.8565 47.697 52.8504 47.8387 52.8263C48.5231 52.7479 49.0175 52.4585 49.316 51.9761C50.2355 50.4838 48.8849 47.6077 47.7905 45.5757ZM48.6769 51.5842C48.511 51.8465 48.2397 52.0153 47.8387 52.0786C47.6789 52.1058 47.4981 52.1148 47.2961 52.1088C47.2237 52.1058 47.1544 52.1028 47.0911 52.0967C46.6419 52.0485 46.3434 51.8766 46.1776 51.5812C45.5746 50.4898 46.6901 47.9483 47.4498 46.5344C48.7583 49.0879 49.1713 50.7823 48.6769 51.5842Z" fill="#131414"/>
    <path d="M68.8282 36.1522C68.8282 36.1522 67.8966 35.4105 67.5469 35.2688C67.2002 35.1271 67.2002 35.8748 67.2002 35.8748L68.3217 36.2487L68.8282 36.1522Z" fill="#131414"/>
    <path d="M65.8907 41.1117C67.4392 41.1117 68.6945 39.8564 68.6945 38.3079C68.6945 36.7594 67.4392 35.5042 65.8907 35.5042C64.3422 35.5042 63.0869 36.7594 63.0869 38.3079C63.0869 39.8564 64.3422 41.1117 65.8907 41.1117Z" fill="#E07103"/>
  </g>
</svg>