<svg width="40" height="42" viewBox="0 0 40 42" fill="none" xmlns="http://www.w3.org/2000/svg">
<path d="M7.6004 20.0006C7.12979 20.7628 6.33293 21.2045 5.22137 21.3085V21.9783L4.32635 22.0707V21.3258C3.11951 21.2623 2.2678 20.8003 1.80008 19.9457C0.1746 16.9806 4.21086 10.1987 4.38121 9.91282L4.78541 9.24011L5.15786 9.93015C6.89304 13.1436 9.02378 17.688 7.6004 20.0006Z" fill="#28D150"/>
<path d="M13.0832 21.2672C12.7974 21.7291 12.3239 22.0063 11.6685 22.0814V23.4528L11.1344 23.5076V22.7627C11.0737 22.7598 11.0131 22.7569 10.9525 22.7483V22.0958C10.2393 22.0409 9.73409 21.7522 9.44826 21.2325C8.46662 19.4367 10.7388 15.5592 10.9987 15.1204L11.3249 14.5834L11.6223 15.1377C12.6674 17.0837 13.9609 19.838 13.0832 21.2672Z" fill="#28AE4B"/>
<path d="M39.257 24.277C39.2397 24.43 39.2166 24.5859 39.1935 24.739C39.1069 25.3106 38.9943 25.8794 38.8528 26.4337C38.8124 26.6012 38.7691 26.7658 38.72 26.9274C38.6854 27.0718 38.6421 27.2104 38.5988 27.3547C38.3851 28.0708 38.1282 28.7695 37.8365 29.4508L36.8665 29.4335L34.7992 29.3931L32.4664 29.3498L24.8183 29.2054L22.4826 29.1592L20.8918 29.1304L18.1692 27.4009L17.3636 26.8841L16.9508 26.6214L14.9009 25.2615L15.1694 24.9209L18.3828 20.8904L20.1728 18.3843L23.0398 15.8783L24.8299 15.1622L25.5459 15.5202L27.6939 18.0263L28.768 19.8163L29.484 20.8904L30.558 19.4583L31.99 18.0263L33.0641 17.6683L34.1381 18.0263L35.5701 20.1744L37.3602 21.9644L38.4573 23.304L39.257 24.277Z" fill="#0D7DAE"/>
<path d="M19.2445 26.6691L12.7051 39.1416L12.2864 39.9414C11.9284 39.7941 11.5762 39.6411 11.2326 39.4708C11.0334 39.3784 10.8313 39.2773 10.6378 39.1734C10.5512 39.1272 10.4646 39.0839 10.3838 39.0377C5.20131 36.2343 1.41045 31.1731 0.339312 25.1822L0.203613 24.2929C0.47212 24.2236 0.766613 24.1543 1.07843 24.0851C2.01387 23.8801 3.11388 23.6837 4.33226 23.5538V22.9013L5.22729 22.884V23.4672C6.99712 23.3315 8.9604 23.3517 10.9554 23.6866V22.7627L11.6715 22.7483V23.8223C12.7397 24.0417 13.8108 24.3536 14.8589 24.7866C15.0523 24.4864 15.341 24.0389 15.7106 23.4932L16.3862 24.0995C16.1235 24.4835 15.8896 24.8415 15.6846 25.1562C16.4526 25.5229 17.2033 25.9588 17.9308 26.4699C18.1358 26.3255 18.3437 26.184 18.5545 26.0483L19.2445 26.6691Z" fill="#28AE4B"/>
<path d="M38.7212 26.9258C38.6865 27.0701 38.6432 27.2087 38.5999 27.3531C38.2246 28.6148 37.7222 29.8216 37.1102 30.9591C37.0322 31.1122 36.9485 31.2623 36.859 31.4153C36.7983 31.5308 36.729 31.6405 36.6626 31.7531C36.0188 32.8416 35.2653 33.8636 34.428 34.802C34.2316 35.0243 34.0267 35.2437 33.8188 35.4545C30.3975 38.9624 25.6798 41.1999 20.4512 41.3847C20.2115 41.3963 19.9719 41.3991 19.7323 41.3991C19.6745 41.3991 19.6139 41.3991 19.5562 41.3963C18.2714 41.3905 17.0126 41.2519 15.7942 41.0065C15.6065 40.9661 15.4217 40.9285 15.2398 40.8852C15.1301 40.8592 15.0175 40.8304 14.9078 40.8015C13.6288 40.4781 12.396 40.0306 11.2325 39.4676C11.0332 39.3752 10.8311 39.2742 10.6377 39.1703L10.8052 38.2435L11.2238 35.9366L13.0138 32.7117L14.0879 30.9216L16.9548 27.6966L17.5958 27.33L18.4417 26.8478L19.4638 26.2646L21.6118 24.8326L24.8368 24.1166L27.3429 23.7585L31.9999 24.1166L35.5828 25.1906L37.7309 26.2646L37.9388 26.4032L38.7212 26.9258Z" fill="#28D150"/>
<path d="M36.8574 31.4148C36.7968 31.5303 36.7275 31.64 36.6611 31.7526C36.0172 32.8411 35.2637 33.8631 34.4264 34.8015C34.2301 35.0238 34.0251 35.2432 33.8172 35.454C30.3959 38.9619 25.6783 41.1994 20.4496 41.3842C20.21 41.3958 19.9704 41.3987 19.7307 41.3987C19.673 41.3987 19.6123 41.3987 19.5546 41.3958C18.2698 41.39 17.011 41.2514 15.7926 41.006C15.605 40.9656 15.4202 40.928 15.2383 40.8847L15.5212 40.2351L15.5645 40.0388L16.2372 37.013L17.6693 33.4301L20.5362 30.924L22.3263 29.85L25.1932 28.776L28.4182 28.0599L30.9243 28.4179L33.7912 29.134L35.5813 30.566L36.1154 30.9211L36.8574 31.4148Z" fill="#28AE4B"/>
<path d="M20.1758 40.95L20.5338 38.4439L22.3267 35.577L25.1908 33.4289L28.7738 32.7129L31.6378 33.7869L33.0728 34.5029L33.7888 34.8609L31.6378 37.0119L28.0578 39.1599L24.1168 40.592L21.2498 40.95H20.1758Z" fill="#28D150"/>
<path d="M32.5861 6.78562C32.5832 6.78273 32.5803 6.77984 32.5803 6.77407C32.3147 6.54887 32.0433 6.32656 31.7661 6.1129H31.7633C31.7517 6.10136 31.7228 6.07826 31.6795 6.04361C31.6391 6.01474 31.6016 5.98587 31.5612 5.95411C31.4745 5.90792 31.385 5.8675 31.2927 5.82996C30.9635 5.69427 30.6055 5.60765 30.2331 5.58744C30.1638 5.58455 30.0974 5.58167 30.0281 5.58167C29.8404 5.58167 29.6614 5.5961 29.4824 5.62786C30.0454 5.96855 30.5824 6.3381 31.1021 6.73076C31.4197 6.88955 31.6969 7.11475 31.9192 7.38904C32.0231 7.47854 32.1242 7.56515 32.2223 7.65754C32.6092 7.99823 32.9788 8.35623 33.3368 8.72868C36.5531 12.1067 38.5337 16.6771 38.5337 21.6978C38.5337 22.0212 38.5279 22.3417 38.5077 22.665V22.6679C38.4961 22.8816 38.4817 23.0952 38.4644 23.306C38.4471 23.4994 38.4297 23.6929 38.4066 23.8834C38.3229 24.5706 38.2103 25.2433 38.0544 25.9073C38.0198 26.0748 37.9765 26.2394 37.9331 26.4039C37.8985 26.5425 37.8581 26.684 37.8177 26.8197C37.5665 27.7176 37.2431 28.5924 36.862 29.4297C36.7176 29.7588 36.5617 30.0822 36.3914 30.3969C36.299 30.573 36.2037 30.7491 36.1085 30.9166C36.0594 31.0061 36.0074 31.0956 35.9554 31.1851C35.3174 32.2735 34.5754 33.2927 33.7381 34.2253C33.5418 34.4476 33.3339 34.667 33.1231 34.8807C29.875 38.1807 25.423 40.2883 20.4831 40.4818C20.2319 40.4962 19.9807 40.4991 19.7267 40.4991C19.6805 40.4991 19.6343 40.4991 19.5881 40.4962C18.3062 40.4904 17.056 40.3518 15.8463 40.0949C15.7539 40.0776 15.6557 40.0545 15.5634 40.0343C15.3641 39.9881 15.1649 39.9419 14.9686 39.887C14.1919 39.682 13.4355 39.4308 12.7022 39.1335C12.246 38.9516 11.7956 38.7466 11.3596 38.5272C11.172 38.4348 10.9872 38.3366 10.8053 38.2384C10.71 38.1894 10.6147 38.1374 10.5224 38.0854C5.70945 35.3715 2.20153 30.5961 1.21412 24.9661C1.15927 24.6716 1.11885 24.38 1.07843 24.0826C0.766613 24.1519 0.47212 24.2212 0.203613 24.2905L0.339312 25.1798C1.41045 31.1678 5.20131 36.229 10.3838 39.0353C10.4675 39.0815 10.5512 39.1248 10.6378 39.171C10.8313 39.2749 11.0305 39.376 11.2326 39.4684C11.5762 39.6358 11.9284 39.7917 12.2864 39.939C13.1324 40.2854 14.0101 40.577 14.908 40.8022C15.0177 40.8311 15.1303 40.86 15.24 40.886C15.4219 40.9293 15.6095 40.9697 15.7943 41.0072C17.0127 41.2555 18.2686 41.3912 19.5563 41.397C19.6141 41.3999 19.6747 41.3999 19.7324 41.3999C19.9721 41.3999 20.2117 41.397 20.4513 41.3855C25.68 41.1978 30.3976 38.9602 33.8189 35.4552C34.0268 35.2444 34.2318 35.025 34.4281 34.8027C35.2654 33.8644 36.019 32.8423 36.6628 31.7539C36.7321 31.6441 36.7985 31.5315 36.8591 31.4161C36.9486 31.2659 37.0323 31.1158 37.1103 30.9599C37.3759 30.4691 37.6184 29.9638 37.8379 29.447C38.1324 28.7656 38.3864 28.0669 38.6001 27.3509C38.6434 27.2066 38.6867 27.068 38.7213 26.9236C38.7704 26.7619 38.8137 26.5974 38.8541 26.4299C38.9927 25.8756 39.1082 25.3097 39.1948 24.7351C39.2208 24.5821 39.241 24.4262 39.2584 24.2732C39.293 24.0393 39.319 23.8084 39.3421 23.5716C39.4027 22.9509 39.4316 22.3301 39.4316 21.695C39.4316 15.7445 36.7754 10.3975 32.5861 6.78562Z" fill="white"/>
<path d="M32.2633 8.01266C32.2576 7.8914 32.246 7.77302 32.2229 7.65753C32.1363 7.09454 31.9053 6.58062 31.5704 6.15043C31.5531 6.12445 31.53 6.09558 31.5098 6.07248C31.5069 6.06959 31.504 6.06671 31.504 6.06093C31.4347 5.98298 31.3683 5.90214 31.2933 5.83285C31.0681 5.60765 30.8111 5.41709 30.5282 5.26696C30.5253 5.26407 30.5224 5.26407 30.5224 5.26407C30.5166 5.25252 30.5022 5.24964 30.4906 5.24386C30.0316 5.00423 29.509 4.86853 28.9575 4.86853C28.7699 4.86853 28.5909 4.88297 28.4119 4.91472C26.8441 5.17168 25.6431 6.5402 25.6431 8.18011C25.6431 10.0077 27.13 11.4946 28.9575 11.4946C30.7851 11.4946 32.272 10.0077 32.272 8.18011C32.2662 8.12237 32.2662 8.06751 32.2633 8.01266ZM28.9546 10.5938C27.6208 10.5938 26.5381 9.50821 26.5381 8.17722C26.5381 6.84335 27.6237 5.76067 28.9546 5.76067C29.3415 5.76067 29.7082 5.85017 30.0287 6.01473C30.3463 6.17353 30.6234 6.39873 30.8457 6.67301C31.1749 7.08588 31.3712 7.60845 31.3712 8.17722C31.3712 9.50821 30.2856 10.5938 28.9546 10.5938Z" fill="white"/>
<path d="M18.681 27.0388C18.4269 27.2149 18.1757 27.3968 17.9274 27.5873C17.6791 27.3939 17.425 27.212 17.171 27.0388C13.3628 24.4663 8.86748 24.0737 5.22098 24.3624C4.91783 24.3884 4.61468 24.4172 4.32596 24.449C3.15954 24.5818 2.10284 24.7724 1.2107 24.9716C0.89889 25.0437 0.604401 25.1159 0.335894 25.1823L0.200195 24.2931C0.468702 24.2238 0.763195 24.1545 1.07501 24.0852C2.01045 23.8802 3.11046 23.6839 4.32885 23.554C4.61756 23.5193 4.92072 23.4904 5.22387 23.4674C6.9937 23.3317 8.95698 23.3519 10.952 23.6868C11.0819 23.707 11.209 23.733 11.3389 23.759C11.4486 23.7792 11.5583 23.8023 11.668 23.8225C12.7363 24.0419 13.8074 24.3537 14.8555 24.7868C15.1326 24.9023 15.4098 25.0235 15.6841 25.1563C16.4521 25.523 17.2027 25.959 17.9303 26.47C18.1815 26.6519 18.4327 26.8396 18.681 27.0388Z" fill="white"/>
<path d="M39.342 23.5747C39.3218 23.8114 39.2958 24.0453 39.2583 24.2763C39.2409 24.4293 39.2178 24.5852 39.1947 24.7382C38.984 24.5043 38.7155 24.2156 38.4094 23.8836C36.9168 22.261 34.5782 19.6828 33.6167 18.4846C33.3771 18.1843 33.1577 18.0342 32.9642 18.0342C32.7419 18.0342 32.485 18.2161 32.2107 18.4904C31.9393 18.7589 31.6506 19.1198 31.3676 19.4749C31.0414 19.882 30.7094 20.3064 30.3398 20.6702C30.2041 20.8059 29.7912 21.2216 29.2687 21.1437C28.6566 21.0542 28.3188 20.419 27.8106 19.4633C27.3083 18.5164 26.6182 17.2258 25.4114 16.0132C25.1747 15.7793 24.9004 15.6869 24.5453 15.7273C22.3279 15.9814 18.5053 20.9704 16.3832 24.0973C16.1205 24.4812 15.8866 24.8393 15.6816 25.154C15.5864 25.3041 15.494 25.4484 15.4131 25.5813L14.905 25.2637L14.6538 25.1049C14.6971 25.0327 14.7635 24.9259 14.853 24.7873C15.0465 24.487 15.3352 24.0395 15.7047 23.4938C17.642 20.6355 21.687 15.1528 24.4442 14.841C25.0649 14.7688 25.6193 14.9594 26.0408 15.3867C27.3487 16.6917 28.0705 18.0515 28.6017 19.0476C28.8673 19.5442 29.2311 20.2342 29.4015 20.2631C29.4015 20.2631 29.491 20.2602 29.7104 20.0437C30.0395 19.7116 30.36 19.3103 30.6661 18.9234C31.3936 18.0053 32.0808 17.1421 32.9585 17.1421H32.9614C33.4377 17.1421 33.8968 17.4077 34.3154 17.9303C35.1325 18.9552 37.0438 21.0715 38.5076 22.6681V22.671C38.8108 22.9972 39.0937 23.3033 39.342 23.5747Z" fill="white"/>
<path d="M18.5884 24.8867L17.8262 24.4161C17.9445 24.2226 20.7711 19.6522 22.6333 18.5349L23.0953 19.3029C21.7008 20.1402 19.3708 23.6163 18.5884 24.8867Z" fill="white"/>
<path d="M21.3663 7.37488L21.3623 8.2699L24.9453 8.28607L24.9493 7.39105L21.3663 7.37488Z" fill="white"/>
<path d="M25.1952 9.34243L21.7856 10.4431L22.0606 11.2948L25.4702 10.1941L25.1952 9.34243Z" fill="white"/>
<path d="M22.2277 4.05221L21.7939 4.83508L24.928 6.57139L25.3617 5.78852L22.2277 4.05221Z" fill="white"/>
<path d="M24.5914 1.85098L23.897 2.41565L26.1575 5.19568L26.8519 4.63101L24.5914 1.85098Z" fill="white"/>
<path d="M28.073 0.611643L27.1865 0.734619L27.6788 4.28356L28.5653 4.16058L28.073 0.611643Z" fill="white"/>
<path d="M30.4 0.599991L29.5132 4.07153L30.3804 4.29305L31.2672 0.821509L30.4 0.599991Z" fill="white"/>
<path d="M33.2277 1.80856L31.1162 4.70325L31.8393 5.23068L33.9508 2.33599L33.2277 1.80856Z" fill="white"/>
<path d="M36.3974 30.401C35.8921 30.0285 35.358 29.6907 34.8008 29.3933C32.8982 28.3684 30.7241 27.7881 28.4173 27.7881C26.2894 27.7881 24.2771 28.2818 22.487 29.1595C18.3988 31.1603 15.4654 35.1706 14.9717 39.8911C14.94 40.1914 14.9169 40.4974 14.9082 40.8006C15.0179 40.8294 15.1305 40.8583 15.2402 40.8843C15.4221 40.9276 15.6098 40.968 15.7946 41.0055C15.8003 40.7024 15.8205 40.3992 15.8494 40.099C16.3431 34.9194 19.9781 30.6464 24.8227 29.2057C25.9632 28.865 27.17 28.6831 28.4202 28.6831C29.8378 28.6831 31.2005 28.917 32.4709 29.35C33.7383 29.7802 34.9134 30.4039 35.9643 31.1863C36.204 31.3653 36.4407 31.5558 36.6659 31.7522C36.7352 31.6425 36.8016 31.5299 36.8622 31.4144C36.9517 31.2642 37.0355 31.1141 37.1134 30.9582C36.8796 30.7648 36.6399 30.58 36.3974 30.401Z" fill="white"/>
<path d="M33.7441 34.2312C32.2601 33.1109 30.4123 32.4469 28.4173 32.4469C23.8007 32.4469 20.0012 35.9923 19.5912 40.5021C19.5623 40.7706 19.5508 41.0391 19.5508 41.3105C19.5508 41.3394 19.5508 41.3683 19.5537 41.3971C19.6114 41.4 19.672 41.4 19.7298 41.4C19.9694 41.4 20.2091 41.3971 20.4487 41.3856C20.4458 41.3596 20.4458 41.3365 20.4458 41.3105C20.4458 41.0305 20.4602 40.7562 20.4862 40.4877C20.902 36.4803 24.3002 33.3419 28.4173 33.3419C30.1784 33.3419 31.8068 33.9165 33.1262 34.8866C33.3659 35.0627 33.5997 35.2532 33.8163 35.4553C34.0242 35.2446 34.2291 35.0251 34.4255 34.8028C34.2089 34.6007 33.978 34.4102 33.7441 34.2312Z" fill="white"/>
<path d="M38.0582 25.9097C35.2605 24.1514 31.9547 23.1351 28.4151 23.1351C24.783 23.1351 21.3935 24.2063 18.5496 26.0512C18.3388 26.1869 18.131 26.3312 17.926 26.4727C17.7354 26.6084 17.5449 26.747 17.363 26.8885C17.2995 26.9375 17.233 26.9895 17.1695 27.0386C13.7482 29.7381 11.3201 33.6358 10.5175 38.0936C10.4626 38.4054 10.4164 38.7201 10.3789 39.0405C10.4626 39.0867 10.5464 39.13 10.633 39.1762C10.8264 39.2802 11.0256 39.3812 11.2277 39.4736C11.2595 39.1618 11.3028 38.8471 11.3577 38.5382C12.0737 34.0919 14.496 30.2145 17.926 27.5871C18.0097 27.5265 18.0876 27.4659 18.1685 27.4053C18.3359 27.2811 18.5063 27.157 18.6766 27.0386C18.8643 26.9144 19.0491 26.7874 19.2396 26.669C21.9016 24.9974 25.0457 24.0302 28.4122 24.0302C31.8797 24.0302 35.1104 25.0551 37.8186 26.8249C38.0842 26.9924 38.3411 27.1714 38.5952 27.3591C38.6385 27.2147 38.6818 27.0761 38.7165 26.9318C38.7656 26.7701 38.8089 26.6055 38.8493 26.4381C38.5894 26.2533 38.3296 26.0772 38.0582 25.9097Z" fill="white"/>
<path d="M5.22412 18.0258V24.3573C4.92097 24.3833 4.61782 24.4122 4.3291 24.4439V18.0258H5.22412Z" fill="white"/>
<path d="M5.16346 9.93491L4.79101 9.24487L4.38681 9.91758C4.21358 10.2034 0.177313 16.9854 1.80568 19.9505C2.27051 20.8022 3.12511 21.2642 4.33195 21.3306C4.38103 21.3334 4.433 21.3363 4.48497 21.3363C4.5456 21.3392 4.60334 21.3392 4.66109 21.3392C4.85742 21.3392 5.04797 21.3335 5.22697 21.3104C6.33853 21.2064 7.13539 20.7647 7.606 20.0025C9.0236 17.6898 6.89287 13.1454 5.16346 9.93491ZM6.83801 19.5319C6.52909 20.0285 6.00074 20.3229 5.2212 20.4096C5.00177 20.4355 4.76214 20.4442 4.50229 20.4384C4.44166 20.4384 4.38392 20.4355 4.32618 20.4327C3.46291 20.3749 2.89414 20.0775 2.5881 19.5203C1.56316 17.6552 3.53509 13.2956 4.75059 11.0753C6.96505 15.3426 7.66663 18.1864 6.83801 19.5319Z" fill="white"/>
<path d="M11.6662 20.0332H10.9502V24.1157H11.6662V20.0332Z" fill="white"/>
<path d="M11.6186 15.1383L11.3212 14.584L10.995 15.121C10.7322 15.557 8.46293 19.4373 9.44457 21.2331C9.7304 21.7528 10.2357 22.0415 10.9488 22.0964C11.0065 22.1079 11.0672 22.1108 11.1278 22.1108H11.2346C11.3847 22.1108 11.5291 22.1051 11.6648 22.082C12.3202 22.0069 12.7937 21.7297 13.0795 21.2678C13.9601 19.8386 12.6666 17.0843 11.6186 15.1383ZM12.4674 20.8924C12.3086 21.1436 12.0488 21.3053 11.6648 21.3659C11.5118 21.3919 11.3386 21.4006 11.1451 21.3948C11.0758 21.3919 11.0094 21.389 10.9488 21.3833C10.5186 21.3371 10.2328 21.1725 10.074 20.8896C9.49654 19.8444 10.5648 17.4105 11.2924 16.0564C12.5454 18.5019 12.9409 20.1245 12.4674 20.8924Z" fill="white"/>
<path d="M31.7661 6.11366C31.7661 6.11366 30.874 5.40342 30.5391 5.26772C30.207 5.13202 30.207 5.84804 30.207 5.84804L31.2811 6.20605L31.7661 6.11366Z" fill="white"/>
<path d="M28.9536 10.8633C30.4365 10.8633 31.6387 9.66115 31.6387 8.17823C31.6387 6.69531 30.4365 5.49316 28.9536 5.49316C27.4707 5.49316 26.2686 6.69531 26.2686 8.17823C26.2686 9.66115 27.4707 10.8633 28.9536 10.8633Z" fill="#F97E03"/>
</svg>
