<svg width="262" height="220" viewBox="0 0 262 220" fill="none" xmlns="http://www.w3.org/2000/svg">
<g filter="url(#filter0_d_1_945)">
<rect x="21.0626" y="16.525" width="219.491" height="176.802" rx="8.26176" fill="white" shape-rendering="crispEdges"/>
<rect x="33.435" y="29.1243" width="194.746" height="26.4377" rx="3.51125" fill="white"/>
<rect x="33.435" y="29.1243" width="194.746" height="26.4377" rx="3.51125" stroke="#E4E4E7" stroke-width="0.413089"/>
<path d="M109.293 44.8431V40.0363H112.194V40.5526H109.875V42.1768H112.044V42.6932H109.875V44.3268H112.232V44.8431H109.293ZM113.168 44.8431V41.238H113.703V41.8013H113.75C113.825 41.6088 113.947 41.4594 114.114 41.353C114.281 41.245 114.483 41.1911 114.717 41.1911C114.955 41.1911 115.153 41.245 115.311 41.353C115.471 41.4594 115.595 41.6088 115.684 41.8013H115.722C115.814 41.6151 115.953 41.4672 116.137 41.3577C116.322 41.2466 116.543 41.1911 116.801 41.1911C117.124 41.1911 117.387 41.292 117.592 41.4938C117.797 41.6941 117.9 42.0063 117.9 42.4303V44.8431H117.346V42.4303C117.346 42.1643 117.273 41.9742 117.128 41.86C116.982 41.7458 116.811 41.6886 116.614 41.6886C116.36 41.6886 116.164 41.7653 116.025 41.9187C115.885 42.0704 115.816 42.2629 115.816 42.496V44.8431H115.252V42.374C115.252 42.169 115.186 42.0039 115.053 41.8788C114.92 41.752 114.749 41.6886 114.539 41.6886C114.395 41.6886 114.26 41.727 114.135 41.8037C114.012 41.8803 113.911 41.9867 113.835 42.1229C113.76 42.2574 113.722 42.4131 113.722 42.5899V44.8431H113.168ZM119.974 44.9276C119.745 44.9276 119.538 44.8846 119.352 44.7985C119.165 44.7109 119.018 44.585 118.908 44.4207C118.798 44.2548 118.744 44.0545 118.744 43.8198C118.744 43.6133 118.784 43.4458 118.866 43.3175C118.947 43.1877 119.056 43.0859 119.192 43.0124C119.328 42.9389 119.478 42.8841 119.643 42.8481C119.809 42.8106 119.975 42.7808 120.143 42.7589C120.362 42.7308 120.539 42.7096 120.675 42.6955C120.813 42.6799 120.913 42.6541 120.976 42.6181C121.04 42.5821 121.072 42.5195 121.072 42.4303V42.4115C121.072 42.18 121.009 42 120.882 41.8717C120.757 41.7434 120.567 41.6793 120.312 41.6793C120.047 41.6793 119.84 41.7372 119.69 41.8529C119.539 41.9687 119.434 42.0923 119.373 42.2238L118.847 42.036C118.941 41.817 119.066 41.6464 119.223 41.5243C119.381 41.4007 119.553 41.3147 119.739 41.2662C119.927 41.2161 120.111 41.1911 120.293 41.1911C120.409 41.1911 120.542 41.2051 120.692 41.2333C120.844 41.2599 120.99 41.3155 121.131 41.4C121.273 41.4844 121.391 41.612 121.485 41.7825C121.579 41.9531 121.626 42.1815 121.626 42.4679V44.8431H121.072V44.3549H121.044C121.006 44.4332 120.944 44.5169 120.856 44.6061C120.768 44.6953 120.652 44.7712 120.506 44.8338C120.361 44.8963 120.183 44.9276 119.974 44.9276ZM120.058 44.4301C120.277 44.4301 120.462 44.387 120.612 44.301C120.764 44.2149 120.878 44.1038 120.955 43.9677C121.033 43.8315 121.072 43.6884 121.072 43.5382V43.0312C121.049 43.0593 120.997 43.0852 120.917 43.1086C120.839 43.1305 120.748 43.1501 120.645 43.1673C120.543 43.183 120.444 43.197 120.347 43.2096C120.251 43.2205 120.174 43.2299 120.114 43.2377C119.97 43.2565 119.836 43.287 119.711 43.3293C119.587 43.3699 119.487 43.4318 119.41 43.5147C119.335 43.596 119.298 43.7071 119.298 43.848C119.298 44.0404 119.369 44.186 119.511 44.2845C119.655 44.3815 119.837 44.4301 120.058 44.4301ZM122.637 44.8431V41.238H123.191V44.8431H122.637ZM122.919 40.6371C122.811 40.6371 122.718 40.6004 122.639 40.5268C122.563 40.4533 122.524 40.3649 122.524 40.2616C122.524 40.1583 122.563 40.0699 122.639 39.9964C122.718 39.9228 122.811 39.8861 122.919 39.8861C123.027 39.8861 123.119 39.9228 123.196 39.9964C123.274 40.0699 123.313 40.1583 123.313 40.2616C123.313 40.3649 123.274 40.4533 123.196 40.5268C123.119 40.6004 123.027 40.6371 122.919 40.6371ZM124.759 40.0363V44.8431H124.205V40.0363H124.759ZM127.905 44.8431H127.295L129.06 40.0363H129.661L131.426 44.8431H130.815L129.379 40.7967H129.341L127.905 44.8431ZM128.13 42.9655H130.59V43.4818H128.13V42.9655ZM133.461 44.9182C133.16 44.9182 132.895 44.8424 132.665 44.6906C132.435 44.5372 132.255 44.3213 132.125 44.0428C131.995 43.7627 131.93 43.4318 131.93 43.05C131.93 42.6713 131.995 42.3427 132.125 42.0642C132.255 41.7857 132.436 41.5705 132.667 41.4187C132.899 41.2669 133.166 41.1911 133.47 41.1911C133.705 41.1911 133.89 41.2302 134.026 41.3084C134.164 41.3851 134.269 41.4727 134.341 41.5713C134.414 41.6683 134.471 41.7481 134.512 41.8107H134.559V40.0363H135.113V44.8431H134.578V44.2892H134.512C134.471 44.3549 134.414 44.4379 134.338 44.538C134.263 44.6366 134.156 44.725 134.017 44.8032C133.878 44.8799 133.692 44.9182 133.461 44.9182ZM133.536 44.4207C133.758 44.4207 133.946 44.3628 134.099 44.247C134.252 44.1296 134.369 43.9677 134.449 43.7611C134.529 43.553 134.568 43.3128 134.568 43.0406C134.568 42.7714 134.529 42.5359 134.451 42.3341C134.373 42.1307 134.257 41.9726 134.104 41.86C133.95 41.7458 133.761 41.6886 133.536 41.6886C133.301 41.6886 133.105 41.7489 132.949 41.8694C132.794 41.9883 132.677 42.1502 132.599 42.3552C132.523 42.5586 132.484 42.7871 132.484 43.0406C132.484 43.2972 132.523 43.5303 132.602 43.74C132.681 43.9481 132.799 44.114 132.954 44.2376C133.11 44.3596 133.304 44.4207 133.536 44.4207ZM137.566 44.9182C137.265 44.9182 137 44.8424 136.77 44.6906C136.54 44.5372 136.36 44.3213 136.23 44.0428C136.1 43.7627 136.035 43.4318 136.035 43.05C136.035 42.6713 136.1 42.3427 136.23 42.0642C136.36 41.7857 136.541 41.5705 136.772 41.4187C137.004 41.2669 137.271 41.1911 137.575 41.1911C137.81 41.1911 137.995 41.2302 138.131 41.3084C138.269 41.3851 138.374 41.4727 138.446 41.5713C138.519 41.6683 138.576 41.7481 138.617 41.8107H138.664V40.0363H139.218V44.8431H138.683V44.2892H138.617C138.576 44.3549 138.519 44.4379 138.443 44.538C138.368 44.6366 138.261 44.725 138.122 44.8032C137.983 44.8799 137.797 44.9182 137.566 44.9182ZM137.641 44.4207C137.863 44.4207 138.051 44.3628 138.204 44.247C138.357 44.1296 138.474 43.9677 138.554 43.7611C138.634 43.553 138.673 43.3128 138.673 43.0406C138.673 42.7714 138.634 42.5359 138.556 42.3341C138.478 42.1307 138.362 41.9726 138.209 41.86C138.055 41.7458 137.866 41.6886 137.641 41.6886C137.406 41.6886 137.21 41.7489 137.054 41.8694C136.899 41.9883 136.783 42.1502 136.704 42.3552C136.628 42.5586 136.589 42.7871 136.589 43.0406C136.589 43.2972 136.628 43.5303 136.707 43.74C136.786 43.9481 136.904 44.114 137.059 44.2376C137.215 44.3596 137.409 44.4207 137.641 44.4207ZM140.309 44.8431V41.238H140.845V41.7825H140.882C140.948 41.6041 141.067 41.4594 141.239 41.3483C141.411 41.2372 141.605 41.1817 141.821 41.1817C141.862 41.1817 141.912 41.1825 141.974 41.184C142.035 41.1856 142.081 41.1879 142.112 41.1911V41.7544C142.093 41.7497 142.05 41.7426 141.983 41.7332C141.917 41.7223 141.848 41.7168 141.774 41.7168C141.599 41.7168 141.442 41.7536 141.305 41.8271C141.168 41.8991 141.06 41.9992 140.981 42.1276C140.902 42.2543 140.863 42.399 140.863 42.5618V44.8431H140.309ZM144.17 44.9182C143.823 44.9182 143.523 44.8416 143.271 44.6882C143.021 44.5333 142.828 44.3174 142.692 44.0404C142.557 43.7619 142.49 43.438 142.49 43.0687C142.49 42.6995 142.557 42.374 142.692 42.0923C142.828 41.8091 143.017 41.5885 143.26 41.4305C143.504 41.2709 143.789 41.1911 144.114 41.1911C144.302 41.1911 144.487 41.2224 144.67 41.2849C144.853 41.3475 145.02 41.4492 145.17 41.5901C145.32 41.7293 145.44 41.914 145.529 42.144C145.619 42.374 145.663 42.6572 145.663 42.9936V43.2283H142.884V42.7495H145.1C145.1 42.5461 145.059 42.3646 144.978 42.205C144.898 42.0454 144.784 41.9194 144.635 41.8271C144.488 41.7348 144.314 41.6886 144.114 41.6886C143.893 41.6886 143.703 41.7434 143.541 41.8529C143.382 41.9609 143.259 42.1017 143.173 42.2754C143.087 42.4491 143.044 42.6353 143.044 42.834V43.1532C143.044 43.4255 143.091 43.6563 143.185 43.8456C143.28 44.0334 143.412 44.1766 143.581 44.2751C143.75 44.3722 143.947 44.4207 144.17 44.4207C144.316 44.4207 144.447 44.4003 144.565 44.3596C144.684 44.3174 144.786 44.2548 144.872 44.1719C144.958 44.0874 145.025 43.9825 145.072 43.8574L145.607 44.0076C145.55 44.1891 145.456 44.3487 145.323 44.4864C145.19 44.6225 145.026 44.7289 144.83 44.8056C144.634 44.8807 144.414 44.9182 144.17 44.9182ZM149.059 42.0454L148.562 42.1862C148.531 42.1033 148.484 42.0227 148.423 41.9445C148.364 41.8647 148.282 41.799 148.179 41.7473C148.076 41.6957 147.944 41.6699 147.783 41.6699C147.562 41.6699 147.378 41.7207 147.231 41.8224C147.085 41.9226 147.013 42.0501 147.013 42.205C147.013 42.3427 147.063 42.4514 147.163 42.5313C147.263 42.6111 147.42 42.6776 147.632 42.7308L148.167 42.8622C148.49 42.9404 148.73 43.0601 148.888 43.2213C149.046 43.3809 149.125 43.5867 149.125 43.8386C149.125 44.0451 149.066 44.2298 148.947 44.3925C148.829 44.5552 148.665 44.6835 148.454 44.7774C148.243 44.8713 147.997 44.9182 147.717 44.9182C147.349 44.9182 147.045 44.8384 146.804 44.6788C146.563 44.5192 146.41 44.2861 146.346 43.9794L146.872 43.848C146.922 44.042 147.017 44.1875 147.156 44.2845C147.297 44.3815 147.481 44.4301 147.707 44.4301C147.966 44.4301 148.171 44.3753 148.322 44.2658C148.476 44.1547 148.552 44.0217 148.552 43.8667C148.552 43.7416 148.509 43.6367 148.421 43.5522C148.333 43.4662 148.199 43.402 148.017 43.3598L147.416 43.2189C147.086 43.1407 146.844 43.0194 146.689 42.8551C146.535 42.6893 146.459 42.482 146.459 42.2332C146.459 42.0298 146.516 41.8498 146.63 41.6933C146.746 41.5369 146.903 41.414 147.102 41.3248C147.302 41.2357 147.529 41.1911 147.783 41.1911C148.139 41.1911 148.419 41.2693 148.623 41.4258C148.828 41.5822 148.973 41.7888 149.059 42.0454ZM152.513 42.0454L152.015 42.1862C151.984 42.1033 151.938 42.0227 151.876 41.9445C151.817 41.8647 151.736 41.799 151.632 41.7473C151.529 41.6957 151.397 41.6699 151.236 41.6699C151.015 41.6699 150.831 41.7207 150.684 41.8224C150.539 41.9226 150.466 42.0501 150.466 42.205C150.466 42.3427 150.516 42.4514 150.616 42.5313C150.716 42.6111 150.873 42.6776 151.086 42.7308L151.621 42.8622C151.943 42.9404 152.183 43.0601 152.341 43.2213C152.499 43.3809 152.578 43.5867 152.578 43.8386C152.578 44.0451 152.519 44.2298 152.4 44.3925C152.283 44.5552 152.118 44.6835 151.907 44.7774C151.696 44.8713 151.45 44.9182 151.17 44.9182C150.802 44.9182 150.498 44.8384 150.257 44.6788C150.016 44.5192 149.863 44.2861 149.799 43.9794L150.325 43.848C150.375 44.042 150.47 44.1875 150.609 44.2845C150.75 44.3815 150.934 44.4301 151.161 44.4301C151.419 44.4301 151.624 44.3753 151.776 44.2658C151.929 44.1547 152.006 44.0217 152.006 43.8667C152.006 43.7416 151.962 43.6367 151.874 43.5522C151.787 43.4662 151.652 43.402 151.47 43.3598L150.87 43.2189C150.539 43.1407 150.297 43.0194 150.142 42.8551C149.989 42.6893 149.912 42.482 149.912 42.2332C149.912 42.0298 149.969 41.8498 150.083 41.6933C150.199 41.5369 150.356 41.414 150.555 41.3248C150.755 41.2357 150.982 41.1911 151.236 41.1911C151.592 41.1911 151.873 41.2693 152.076 41.4258C152.281 41.5822 152.426 41.7888 152.513 42.0454Z" fill="#52525B"/>
<rect x="33.435" y="70.8462" width="194.746" height="26.4377" rx="3.51125" fill="white"/>
<rect x="33.435" y="70.8462" width="194.746" height="26.4377" rx="3.51125" stroke="#E4E4E7" stroke-width="0.413089"/>
<path d="M108.624 83.2604H108.042C108.007 83.0929 107.947 82.9458 107.861 82.8191C107.776 82.6924 107.673 82.586 107.551 82.4999C107.431 82.4123 107.297 82.3466 107.15 82.3027C107.003 82.2589 106.849 82.237 106.69 82.237C106.399 82.237 106.135 82.3106 105.899 82.4576C105.664 82.6047 105.477 82.8214 105.338 83.1078C105.2 83.3941 105.131 83.7454 105.131 84.1616C105.131 84.5779 105.2 84.9291 105.338 85.2155C105.477 85.5018 105.664 85.7185 105.899 85.8656C106.135 86.0127 106.399 86.0863 106.69 86.0863C106.849 86.0863 107.003 86.0643 107.15 86.0205C107.297 85.9767 107.431 85.9118 107.551 85.8257C107.673 85.7381 107.776 85.6309 107.861 85.5042C107.947 85.3759 108.007 85.2288 108.042 85.0629H108.624C108.58 85.3086 108.5 85.5284 108.384 85.7225C108.268 85.9165 108.124 86.0816 107.952 86.2177C107.78 86.3523 107.587 86.4547 107.373 86.5252C107.16 86.5956 106.932 86.6308 106.69 86.6308C106.28 86.6308 105.915 86.5306 105.596 86.3304C105.277 86.1301 105.026 85.8453 104.842 85.476C104.659 85.1067 104.568 84.6686 104.568 84.1616C104.568 83.6547 104.659 83.2165 104.842 82.8473C105.026 82.478 105.277 82.1932 105.596 81.9929C105.915 81.7926 106.28 81.6925 106.69 81.6925C106.932 81.6925 107.16 81.7277 107.373 81.7981C107.587 81.8685 107.78 81.9718 107.952 82.1079C108.124 82.2425 108.268 82.4068 108.384 82.6008C108.5 82.7933 108.58 83.0131 108.624 83.2604ZM109.489 86.5651V82.9599H110.024V83.5045H110.062C110.128 83.3261 110.246 83.1813 110.419 83.0702C110.591 82.9591 110.785 82.9036 111.001 82.9036C111.041 82.9036 111.092 82.9044 111.153 82.9059C111.214 82.9075 111.26 82.9099 111.292 82.913V83.4763C111.273 83.4716 111.23 83.4646 111.163 83.4552C111.097 83.4442 111.027 83.4387 110.954 83.4387C110.778 83.4387 110.622 83.4755 110.484 83.549C110.348 83.621 110.24 83.7212 110.16 83.8495C110.082 83.9762 110.043 84.121 110.043 84.2837V86.5651H109.489ZM113.35 86.6402C113.003 86.6402 112.703 86.5635 112.451 86.4102C112.201 86.2552 112.008 86.0393 111.871 85.7624C111.737 85.4838 111.67 85.1599 111.67 84.7907C111.67 84.4214 111.737 84.0959 111.871 83.8143C112.008 83.5311 112.197 83.3104 112.439 83.1524C112.684 82.9928 112.968 82.913 113.294 82.913C113.482 82.913 113.667 82.9443 113.85 83.0069C114.033 83.0695 114.2 83.1712 114.35 83.312C114.5 83.4513 114.62 83.6359 114.709 83.8659C114.798 84.0959 114.843 84.3791 114.843 84.7156V84.9503H112.064V84.4715H114.28C114.28 84.268 114.239 84.0865 114.157 83.9269C114.078 83.7673 113.963 83.6414 113.815 83.549C113.668 83.4567 113.494 83.4106 113.294 83.4106C113.073 83.4106 112.882 83.4653 112.721 83.5749C112.561 83.6828 112.439 83.8237 112.353 83.9973C112.267 84.171 112.223 84.3572 112.223 84.5559V84.8752C112.223 85.1474 112.27 85.3782 112.364 85.5675C112.46 85.7553 112.592 85.8985 112.761 85.9971C112.93 86.0941 113.126 86.1426 113.35 86.1426C113.496 86.1426 113.627 86.1222 113.744 86.0816C113.863 86.0393 113.966 85.9767 114.052 85.8938C114.138 85.8093 114.204 85.7045 114.251 85.5793L114.787 85.7295C114.73 85.911 114.636 86.0706 114.503 86.2083C114.37 86.3444 114.205 86.4508 114.01 86.5275C113.814 86.6026 113.594 86.6402 113.35 86.6402ZM116.746 86.6496C116.518 86.6496 116.311 86.6065 116.124 86.5205C115.938 86.4328 115.79 86.3069 115.681 86.1426C115.571 85.9767 115.516 85.7764 115.516 85.5417C115.516 85.3352 115.557 85.1678 115.639 85.0395C115.72 84.9096 115.829 84.8079 115.965 84.7343C116.101 84.6608 116.251 84.606 116.415 84.57C116.581 84.5325 116.748 84.5027 116.915 84.4808C117.134 84.4527 117.312 84.4316 117.448 84.4175C117.586 84.4018 117.686 84.376 117.749 84.34C117.813 84.304 117.845 84.2414 117.845 84.1522V84.1335C117.845 83.9019 117.781 83.7219 117.655 83.5936C117.529 83.4653 117.339 83.4012 117.084 83.4012C116.82 83.4012 116.613 83.4591 116.462 83.5749C116.312 83.6907 116.207 83.8143 116.145 83.9457L115.62 83.7579C115.714 83.5389 115.839 83.3683 115.995 83.2463C116.153 83.1227 116.325 83.0366 116.512 82.9881C116.699 82.938 116.884 82.913 117.066 82.913C117.181 82.913 117.314 82.9271 117.465 82.9552C117.616 82.9818 117.763 83.0374 117.903 83.1219C118.046 83.2064 118.164 83.3339 118.258 83.5045C118.352 83.675 118.399 83.9035 118.399 84.1898V86.5651H117.845V86.0769H117.817C117.779 86.1551 117.716 86.2388 117.629 86.328C117.541 86.4172 117.425 86.4931 117.279 86.5557C117.134 86.6183 116.956 86.6496 116.746 86.6496ZM116.831 86.152C117.05 86.152 117.235 86.1089 117.385 86.0229C117.537 85.9368 117.651 85.8257 117.727 85.6896C117.806 85.5535 117.845 85.4103 117.845 85.2601V84.7531C117.821 84.7813 117.77 84.8071 117.69 84.8306C117.612 84.8525 117.521 84.872 117.418 84.8892C117.316 84.9049 117.217 84.919 117.12 84.9315C117.024 84.9424 116.947 84.9518 116.887 84.9597C116.743 84.9784 116.609 85.0089 116.483 85.0512C116.36 85.0919 116.26 85.1537 116.183 85.2366C116.108 85.318 116.07 85.4291 116.07 85.5699C116.07 85.7624 116.142 85.9079 116.284 86.0065C116.428 86.1035 116.61 86.152 116.831 86.152ZM120.978 82.9599V83.4293H119.109V82.9599H120.978ZM119.654 82.0962H120.208V85.5323C120.208 85.6888 120.23 85.8062 120.276 85.8844C120.323 85.9611 120.382 86.0127 120.454 86.0393C120.528 86.0643 120.605 86.0769 120.687 86.0769C120.748 86.0769 120.798 86.0737 120.837 86.0675C120.876 86.0597 120.907 86.0534 120.931 86.0487L121.043 86.5463C121.006 86.5604 120.953 86.5745 120.886 86.5885C120.819 86.6042 120.733 86.612 120.63 86.612C120.474 86.612 120.32 86.5784 120.17 86.5111C120.022 86.4438 119.898 86.3413 119.799 86.2036C119.702 86.0659 119.654 85.8922 119.654 85.6826V82.0962ZM123.284 86.6402C122.936 86.6402 122.637 86.5635 122.385 86.4102C122.134 86.2552 121.941 86.0393 121.805 85.7624C121.67 85.4838 121.603 85.1599 121.603 84.7907C121.603 84.4214 121.67 84.0959 121.805 83.8143C121.941 83.5311 122.13 83.3104 122.373 83.1524C122.617 82.9928 122.902 82.913 123.227 82.913C123.415 82.913 123.6 82.9443 123.784 83.0069C123.967 83.0695 124.133 83.1712 124.283 83.312C124.434 83.4513 124.553 83.6359 124.643 83.8659C124.732 84.0959 124.776 84.3791 124.776 84.7156V84.9503H121.997V84.4715H124.213C124.213 84.268 124.172 84.0865 124.091 83.9269C124.011 83.7673 123.897 83.6414 123.748 83.549C123.601 83.4567 123.428 83.4106 123.227 83.4106C123.007 83.4106 122.816 83.4653 122.655 83.5749C122.495 83.6828 122.372 83.8237 122.286 83.9973C122.2 84.171 122.157 84.3572 122.157 84.5559V84.8752C122.157 85.1474 122.204 85.3782 122.298 85.5675C122.393 85.7553 122.525 85.8985 122.694 85.9971C122.863 86.0941 123.06 86.1426 123.284 86.1426C123.429 86.1426 123.561 86.1222 123.678 86.0816C123.797 86.0393 123.899 85.9767 123.985 85.8938C124.071 85.8093 124.138 85.7045 124.185 85.5793L124.72 85.7295C124.664 85.911 124.569 86.0706 124.436 86.2083C124.303 86.3444 124.139 86.4508 123.943 86.5275C123.748 86.6026 123.528 86.6402 123.284 86.6402ZM127.553 86.5651V81.7582H129.177C129.554 81.7582 129.862 81.8263 130.102 81.9624C130.343 82.097 130.521 82.2793 130.637 82.5093C130.753 82.7393 130.811 82.9959 130.811 83.2791C130.811 83.5623 130.753 83.8197 130.637 84.0513C130.523 84.2829 130.346 84.4675 130.107 84.6052C129.867 84.7414 129.56 84.8094 129.187 84.8094H128.022V84.2931H129.168C129.426 84.2931 129.633 84.2485 129.79 84.1593C129.946 84.0701 130.06 83.9496 130.13 83.7978C130.202 83.6445 130.238 83.4716 130.238 83.2791C130.238 83.0867 130.202 82.9145 130.13 82.7628C130.06 82.611 129.945 82.4921 129.787 82.406C129.629 82.3184 129.42 82.2746 129.158 82.2746H128.135V86.5651H127.553ZM132.734 86.6496C132.506 86.6496 132.298 86.6065 132.112 86.5205C131.926 86.4328 131.778 86.3069 131.669 86.1426C131.559 85.9767 131.504 85.7764 131.504 85.5417C131.504 85.3352 131.545 85.1678 131.626 85.0395C131.708 84.9096 131.816 84.8079 131.953 84.7343C132.089 84.6608 132.239 84.606 132.403 84.57C132.569 84.5325 132.736 84.5027 132.903 84.4808C133.122 84.4527 133.3 84.4316 133.436 84.4175C133.574 84.4018 133.674 84.376 133.736 84.34C133.801 84.304 133.833 84.2414 133.833 84.1522V84.1335C133.833 83.9019 133.769 83.7219 133.642 83.5936C133.517 83.4653 133.327 83.4012 133.072 83.4012C132.808 83.4012 132.6 83.4591 132.45 83.5749C132.3 83.6907 132.194 83.8143 132.133 83.9457L131.608 83.7579C131.701 83.5389 131.827 83.3683 131.983 83.2463C132.141 83.1227 132.313 83.0366 132.499 82.9881C132.687 82.938 132.872 82.913 133.053 82.913C133.169 82.913 133.302 82.9271 133.452 82.9552C133.604 82.9818 133.75 83.0374 133.891 83.1219C134.034 83.2064 134.152 83.3339 134.246 83.5045C134.34 83.675 134.387 83.9035 134.387 84.1898V86.5651H133.833V86.0769H133.804C133.767 86.1551 133.704 86.2388 133.617 86.328C133.529 86.4172 133.412 86.4931 133.267 86.5557C133.121 86.6183 132.944 86.6496 132.734 86.6496ZM132.819 86.152C133.038 86.152 133.222 86.1089 133.373 86.0229C133.524 85.9368 133.639 85.8257 133.715 85.6896C133.793 85.5535 133.833 85.4103 133.833 85.2601V84.7531C133.809 84.7813 133.757 84.8071 133.678 84.8306C133.599 84.8525 133.509 84.872 133.405 84.8892C133.304 84.9049 133.204 84.919 133.107 84.9315C133.012 84.9424 132.934 84.9518 132.875 84.9597C132.731 84.9784 132.596 85.0089 132.471 85.0512C132.348 85.0919 132.248 85.1537 132.171 85.2366C132.096 85.318 132.058 85.4291 132.058 85.5699C132.058 85.7624 132.129 85.9079 132.272 86.0065C132.416 86.1035 132.598 86.152 132.819 86.152ZM137.951 83.7673L137.454 83.9082C137.422 83.8252 137.376 83.7446 137.315 83.6664C137.256 83.5866 137.174 83.5209 137.071 83.4692C136.968 83.4176 136.836 83.3918 136.674 83.3918C136.454 83.3918 136.27 83.4426 136.123 83.5444C135.977 83.6445 135.904 83.772 135.904 83.9269C135.904 84.0646 135.955 84.1734 136.055 84.2532C136.155 84.333 136.311 84.3995 136.524 84.4527L137.059 84.5841C137.382 84.6624 137.622 84.7821 137.78 84.9432C137.938 85.1028 138.017 85.3086 138.017 85.5605C138.017 85.7671 137.957 85.9517 137.839 86.1144C137.721 86.2772 137.557 86.4055 137.346 86.4993C137.134 86.5932 136.889 86.6402 136.609 86.6402C136.241 86.6402 135.937 86.5604 135.696 86.4008C135.455 86.2412 135.302 86.008 135.238 85.7013L135.764 85.5699C135.814 85.7639 135.908 85.9094 136.048 86.0065C136.188 86.1035 136.372 86.152 136.599 86.152C136.857 86.152 137.062 86.0972 137.214 85.9877C137.368 85.8766 137.444 85.7436 137.444 85.5887C137.444 85.4635 137.4 85.3587 137.313 85.2742C137.225 85.1881 137.091 85.1239 136.909 85.0817L136.308 84.9409C135.978 84.8626 135.736 84.7414 135.581 84.5771C135.427 84.4112 135.351 84.2039 135.351 83.9551C135.351 83.7517 135.408 83.5717 135.522 83.4153C135.638 83.2588 135.795 83.136 135.994 83.0468C136.194 82.9576 136.421 82.913 136.674 82.913C137.031 82.913 137.311 82.9912 137.515 83.1477C137.72 83.3042 137.865 83.5107 137.951 83.7673ZM141.404 83.7673L140.907 83.9082C140.875 83.8252 140.829 83.7446 140.768 83.6664C140.709 83.5866 140.627 83.5209 140.524 83.4692C140.421 83.4176 140.289 83.3918 140.128 83.3918C139.907 83.3918 139.723 83.4426 139.576 83.5444C139.43 83.6445 139.358 83.772 139.358 83.9269C139.358 84.0646 139.408 84.1734 139.508 84.2532C139.608 84.333 139.764 84.3995 139.977 84.4527L140.512 84.5841C140.835 84.6624 141.075 84.7821 141.233 84.9432C141.391 85.1028 141.47 85.3086 141.47 85.5605C141.47 85.7671 141.411 85.9517 141.292 86.1144C141.174 86.2772 141.01 86.4055 140.799 86.4993C140.588 86.5932 140.342 86.6402 140.062 86.6402C139.694 86.6402 139.39 86.5604 139.149 86.4008C138.908 86.2412 138.755 86.008 138.691 85.7013L139.217 85.5699C139.267 85.7639 139.362 85.9094 139.501 86.0065C139.642 86.1035 139.826 86.152 140.052 86.152C140.311 86.152 140.516 86.0972 140.667 85.9877C140.821 85.8766 140.897 85.7436 140.897 85.5887C140.897 85.4635 140.854 85.3587 140.766 85.2742C140.678 85.1881 140.544 85.1239 140.362 85.0817L139.761 84.9409C139.431 84.8626 139.189 84.7414 139.034 84.5771C138.88 84.4112 138.804 84.2039 138.804 83.9551C138.804 83.7517 138.861 83.5717 138.975 83.4153C139.091 83.2588 139.248 83.136 139.447 83.0468C139.647 82.9576 139.874 82.913 140.128 82.913C140.484 82.913 140.764 82.9912 140.968 83.1477C141.173 83.3042 141.318 83.5107 141.404 83.7673ZM143.121 86.5651L142.022 82.9599H142.604L143.384 85.7201H143.421L144.191 82.9599H144.782L145.543 85.7107H145.58L146.36 82.9599H146.942L145.843 86.5651H145.299L144.51 83.7955H144.454L143.665 86.5651H143.121ZM149.016 86.6402C148.69 86.6402 148.405 86.5627 148.159 86.4078C147.915 86.2529 147.724 86.0362 147.587 85.7577C147.45 85.4791 147.382 85.1537 147.382 84.7813C147.382 84.4057 147.45 84.0779 147.587 83.7978C147.724 83.5178 147.915 83.3003 148.159 83.1453C148.405 82.9904 148.69 82.913 149.016 82.913C149.341 82.913 149.626 82.9904 149.87 83.1453C150.116 83.3003 150.307 83.5178 150.443 83.7978C150.581 84.0779 150.65 84.4057 150.65 84.7813C150.65 85.1537 150.581 85.4791 150.443 85.7577C150.307 86.0362 150.116 86.2529 149.87 86.4078C149.626 86.5627 149.341 86.6402 149.016 86.6402ZM149.016 86.1426C149.263 86.1426 149.467 86.0792 149.626 85.9525C149.786 85.8257 149.904 85.6591 149.981 85.4525C150.057 85.246 150.096 85.0222 150.096 84.7813C150.096 84.5403 150.057 84.3158 149.981 84.1077C149.904 83.8995 149.786 83.7313 149.626 83.603C149.467 83.4747 149.263 83.4106 149.016 83.4106C148.769 83.4106 148.565 83.4747 148.406 83.603C148.246 83.7313 148.128 83.8995 148.051 84.1077C147.975 84.3158 147.936 84.5403 147.936 84.7813C147.936 85.0222 147.975 85.246 148.051 85.4525C148.128 85.6591 148.246 85.8257 148.406 85.9525C148.565 86.0792 148.769 86.1426 149.016 86.1426ZM151.495 86.5651V82.9599H152.03V83.5045H152.068C152.133 83.3261 152.252 83.1813 152.425 83.0702C152.597 82.9591 152.791 82.9036 153.007 82.9036C153.047 82.9036 153.098 82.9044 153.159 82.9059C153.22 82.9075 153.266 82.9099 153.298 82.913V83.4763C153.279 83.4716 153.236 83.4646 153.169 83.4552C153.103 83.4442 153.033 83.4387 152.96 83.4387C152.784 83.4387 152.628 83.4755 152.49 83.549C152.354 83.621 152.246 83.7212 152.166 83.8495C152.088 83.9762 152.049 84.121 152.049 84.2837V86.5651H151.495ZM155.206 86.6402C154.905 86.6402 154.64 86.5643 154.41 86.4125C154.18 86.2592 154 86.0432 153.87 85.7647C153.74 85.4846 153.676 85.1537 153.676 84.7719C153.676 84.3932 153.74 84.0646 153.87 83.7861C154 83.5076 154.181 83.2924 154.413 83.1407C154.644 82.9889 154.912 82.913 155.215 82.913C155.45 82.913 155.635 82.9521 155.771 83.0303C155.909 83.107 156.014 83.1946 156.086 83.2932C156.16 83.3902 156.217 83.47 156.257 83.5326H156.304V81.7582H156.858V86.5651H156.323V86.0111H156.257C156.217 86.0769 156.159 86.1598 156.084 86.2599C156.009 86.3585 155.901 86.4469 155.762 86.5252C155.623 86.6018 155.437 86.6402 155.206 86.6402ZM155.281 86.1426C155.503 86.1426 155.691 86.0847 155.844 85.9689C155.998 85.8515 156.114 85.6896 156.194 85.4831C156.274 85.2749 156.314 85.0348 156.314 84.7625C156.314 84.4934 156.275 84.2579 156.196 84.056C156.118 83.8526 156.002 83.6946 155.849 83.5819C155.696 83.4677 155.506 83.4106 155.281 83.4106C155.046 83.4106 154.851 83.4708 154.694 83.5913C154.539 83.7102 154.423 83.8722 154.344 84.0771C154.268 84.2806 154.229 84.509 154.229 84.7625C154.229 85.0191 154.269 85.2523 154.347 85.4619C154.427 85.67 154.544 85.8359 154.699 85.9595C154.855 86.0816 155.049 86.1426 155.281 86.1426Z" fill="#52525B"/>
<rect x="33.3192" y="112.362" width="194.978" height="26.8508" rx="3.7178" fill="#61CD81"/>
<path d="M121.855 127.833C121.533 127.833 121.242 127.778 120.982 127.668C120.727 127.558 120.524 127.399 120.374 127.192C120.224 126.985 120.147 126.74 120.143 126.458H121.134C121.147 126.648 121.214 126.798 121.333 126.908C121.456 127.018 121.623 127.073 121.835 127.073C122.051 127.073 122.22 127.022 122.344 126.921C122.467 126.815 122.529 126.679 122.529 126.511C122.529 126.375 122.487 126.262 122.403 126.174C122.32 126.086 122.214 126.018 122.086 125.969C121.963 125.917 121.791 125.859 121.57 125.798C121.271 125.709 121.026 125.624 120.837 125.54C120.652 125.452 120.491 125.322 120.354 125.15C120.222 124.974 120.156 124.74 120.156 124.449C120.156 124.176 120.224 123.938 120.361 123.735C120.498 123.533 120.689 123.379 120.936 123.273C121.183 123.163 121.465 123.108 121.782 123.108C122.258 123.108 122.643 123.224 122.939 123.458C123.238 123.687 123.403 124.009 123.434 124.423H122.416C122.408 124.264 122.339 124.134 122.212 124.033C122.088 123.927 121.923 123.874 121.716 123.874C121.535 123.874 121.39 123.92 121.28 124.013C121.174 124.106 121.121 124.24 121.121 124.416C121.121 124.54 121.161 124.643 121.24 124.727C121.324 124.806 121.425 124.872 121.544 124.925C121.667 124.974 121.839 125.031 122.06 125.097C122.359 125.185 122.604 125.273 122.793 125.361C122.983 125.449 123.146 125.582 123.282 125.758C123.419 125.934 123.487 126.165 123.487 126.452C123.487 126.699 123.423 126.928 123.296 127.139C123.168 127.351 122.98 127.52 122.734 127.648C122.487 127.772 122.194 127.833 121.855 127.833ZM124.676 123.689C124.513 123.689 124.376 123.638 124.266 123.537C124.161 123.431 124.108 123.301 124.108 123.147C124.108 122.993 124.161 122.865 124.266 122.764C124.376 122.658 124.513 122.605 124.676 122.605C124.839 122.605 124.973 122.658 125.079 122.764C125.189 122.865 125.244 122.993 125.244 123.147C125.244 123.301 125.189 123.431 125.079 123.537C124.973 123.638 124.839 123.689 124.676 123.689ZM125.132 124.125V127.787H124.207V124.125H125.132ZM127.398 124.066C127.671 124.066 127.911 124.121 128.118 124.231C128.325 124.337 128.489 124.476 128.607 124.648V124.125H129.539V127.813C129.539 128.153 129.471 128.455 129.335 128.719C129.198 128.988 128.993 129.199 128.72 129.353C128.447 129.512 128.116 129.591 127.728 129.591C127.208 129.591 126.781 129.47 126.446 129.228C126.116 128.985 125.928 128.655 125.884 128.236H126.803C126.852 128.404 126.955 128.536 127.114 128.633C127.277 128.734 127.473 128.785 127.702 128.785C127.971 128.785 128.189 128.703 128.356 128.54C128.524 128.382 128.607 128.139 128.607 127.813V127.245C128.489 127.417 128.323 127.56 128.112 127.675C127.905 127.789 127.667 127.846 127.398 127.846C127.09 127.846 126.808 127.767 126.552 127.609C126.296 127.45 126.094 127.227 125.944 126.941C125.798 126.65 125.726 126.317 125.726 125.943C125.726 125.573 125.798 125.245 125.944 124.958C126.094 124.672 126.294 124.451 126.545 124.297C126.801 124.143 127.085 124.066 127.398 124.066ZM128.607 125.956C128.607 125.731 128.563 125.54 128.475 125.381C128.387 125.218 128.268 125.095 128.118 125.011C127.969 124.923 127.808 124.879 127.636 124.879C127.464 124.879 127.305 124.921 127.16 125.004C127.015 125.088 126.896 125.212 126.803 125.375C126.715 125.533 126.671 125.723 126.671 125.943C126.671 126.163 126.715 126.357 126.803 126.525C126.896 126.688 127.015 126.813 127.16 126.901C127.31 126.989 127.468 127.034 127.636 127.034C127.808 127.034 127.969 126.992 128.118 126.908C128.268 126.82 128.387 126.696 128.475 126.538C128.563 126.375 128.607 126.181 128.607 125.956ZM132.39 124.072C132.826 124.072 133.178 124.211 133.447 124.489C133.716 124.762 133.85 125.145 133.85 125.639V127.787H132.925V125.765C132.925 125.474 132.852 125.251 132.707 125.097C132.561 124.938 132.363 124.859 132.112 124.859C131.856 124.859 131.654 124.938 131.504 125.097C131.359 125.251 131.286 125.474 131.286 125.765V127.787H130.361V124.125H131.286V124.581C131.409 124.423 131.566 124.299 131.755 124.211C131.949 124.119 132.16 124.072 132.39 124.072ZM137.065 123.174V127.787H136.14V123.174H137.065ZM139.926 124.072C140.362 124.072 140.715 124.211 140.983 124.489C141.252 124.762 141.387 125.145 141.387 125.639V127.787H140.461V125.765C140.461 125.474 140.389 125.251 140.243 125.097C140.098 124.938 139.899 124.859 139.648 124.859C139.393 124.859 139.19 124.938 139.04 125.097C138.895 125.251 138.822 125.474 138.822 125.765V127.787H137.897V124.125H138.822V124.581C138.946 124.423 139.102 124.299 139.291 124.211C139.485 124.119 139.697 124.072 139.926 124.072Z" fill="white"/>
<rect x="33.3192" y="154.083" width="194.978" height="26.8508" rx="4.13089" fill="#F8FAFC"/>
<path d="M101.357 169.555C101.035 169.555 100.745 169.5 100.485 169.39C100.229 169.28 100.026 169.121 99.8765 168.914C99.7267 168.707 99.6496 168.462 99.6452 168.18H100.637C100.65 168.37 100.716 168.52 100.835 168.63C100.958 168.74 101.126 168.795 101.337 168.795C101.553 168.795 101.723 168.744 101.846 168.643C101.969 168.537 102.031 168.401 102.031 168.233C102.031 168.097 101.989 167.984 101.906 167.896C101.822 167.808 101.716 167.74 101.588 167.691C101.465 167.638 101.293 167.581 101.073 167.519C100.773 167.431 100.529 167.345 100.339 167.262C100.154 167.174 99.9933 167.044 99.8567 166.872C99.7245 166.696 99.6584 166.462 99.6584 166.171C99.6584 165.898 99.7267 165.66 99.8633 165.457C99.9999 165.255 100.192 165.1 100.438 164.995C100.685 164.885 100.967 164.829 101.284 164.829C101.76 164.829 102.146 164.946 102.441 165.18C102.741 165.409 102.906 165.731 102.937 166.145H101.919C101.91 165.986 101.842 165.856 101.714 165.755C101.591 165.649 101.425 165.596 101.218 165.596C101.038 165.596 100.892 165.642 100.782 165.735C100.676 165.827 100.623 165.962 100.623 166.138C100.623 166.261 100.663 166.365 100.742 166.449C100.826 166.528 100.927 166.594 101.046 166.647C101.17 166.696 101.342 166.753 101.562 166.819C101.862 166.907 102.106 166.995 102.296 167.083C102.485 167.171 102.648 167.304 102.785 167.48C102.921 167.656 102.99 167.887 102.99 168.174C102.99 168.421 102.926 168.65 102.798 168.861C102.67 169.073 102.483 169.242 102.236 169.37C101.989 169.493 101.696 169.555 101.357 169.555ZM104.178 165.411C104.015 165.411 103.879 165.36 103.769 165.259C103.663 165.153 103.61 165.023 103.61 164.869C103.61 164.715 103.663 164.587 103.769 164.486C103.879 164.38 104.015 164.327 104.178 164.327C104.341 164.327 104.476 164.38 104.582 164.486C104.692 164.587 104.747 164.715 104.747 164.869C104.747 165.023 104.692 165.153 104.582 165.259C104.476 165.36 104.341 165.411 104.178 165.411ZM104.634 165.847V169.509H103.709V165.847H104.634ZM106.9 165.788C107.174 165.788 107.414 165.843 107.621 165.953C107.828 166.059 107.991 166.198 108.11 166.369V165.847H109.042V169.535C109.042 169.875 108.973 170.176 108.837 170.441C108.7 170.71 108.495 170.921 108.222 171.075C107.949 171.234 107.619 171.313 107.231 171.313C106.711 171.313 106.283 171.192 105.949 170.95C105.618 170.707 105.431 170.377 105.387 169.958H106.305C106.354 170.126 106.457 170.258 106.616 170.355C106.779 170.456 106.975 170.507 107.204 170.507C107.473 170.507 107.691 170.425 107.859 170.262C108.026 170.104 108.11 169.861 108.11 169.535V168.967C107.991 169.139 107.826 169.282 107.614 169.397C107.407 169.511 107.169 169.568 106.9 169.568C106.592 169.568 106.31 169.489 106.054 169.33C105.799 169.172 105.596 168.949 105.446 168.663C105.301 168.372 105.228 168.039 105.228 167.665C105.228 167.295 105.301 166.966 105.446 166.68C105.596 166.394 105.797 166.173 106.048 166.019C106.303 165.865 106.587 165.788 106.9 165.788ZM108.11 167.678C108.11 167.453 108.066 167.262 107.978 167.103C107.89 166.94 107.771 166.817 107.621 166.733C107.471 166.645 107.31 166.601 107.138 166.601C106.966 166.601 106.808 166.643 106.662 166.726C106.517 166.81 106.398 166.933 106.305 167.096C106.217 167.255 106.173 167.445 106.173 167.665C106.173 167.885 106.217 168.079 106.305 168.247C106.398 168.41 106.517 168.535 106.662 168.623C106.812 168.711 106.971 168.755 107.138 168.755C107.31 168.755 107.471 168.714 107.621 168.63C107.771 168.542 107.89 168.418 107.978 168.26C108.066 168.097 108.11 167.903 108.11 167.678ZM111.892 165.794C112.328 165.794 112.681 165.933 112.949 166.211C113.218 166.484 113.353 166.867 113.353 167.361V169.509H112.427V167.486C112.427 167.196 112.355 166.973 112.209 166.819C112.064 166.66 111.866 166.581 111.614 166.581C111.359 166.581 111.156 166.66 111.006 166.819C110.861 166.973 110.788 167.196 110.788 167.486V169.509H109.863V165.847H110.788V166.303C110.912 166.145 111.068 166.021 111.257 165.933C111.451 165.841 111.663 165.794 111.892 165.794ZM116.112 165.411C115.948 165.411 115.812 165.36 115.702 165.259C115.596 165.153 115.543 165.023 115.543 164.869C115.543 164.715 115.596 164.587 115.702 164.486C115.812 164.38 115.948 164.327 116.112 164.327C116.275 164.327 116.409 164.38 116.515 164.486C116.625 164.587 116.68 164.715 116.68 164.869C116.68 165.023 116.625 165.153 116.515 165.259C116.409 165.36 116.275 165.411 116.112 165.411ZM116.568 165.847V169.509H115.642V165.847H116.568ZM119.428 165.794C119.864 165.794 120.217 165.933 120.486 166.211C120.755 166.484 120.889 166.867 120.889 167.361V169.509H119.964V167.486C119.964 167.196 119.891 166.973 119.746 166.819C119.6 166.66 119.402 166.581 119.151 166.581C118.895 166.581 118.692 166.66 118.543 166.819C118.397 166.973 118.324 167.196 118.324 167.486V169.509H117.399V165.847H118.324V166.303C118.448 166.145 118.604 166.021 118.794 165.933C118.988 165.841 119.199 165.794 119.428 165.794ZM128.255 165.847L127.184 169.509H126.186L125.518 166.951L124.851 169.509H123.846L122.769 165.847H123.707L124.355 168.636L125.056 165.847H126.034L126.721 168.63L127.369 165.847H128.255ZM129.142 165.411C128.979 165.411 128.842 165.36 128.732 165.259C128.626 165.153 128.573 165.023 128.573 164.869C128.573 164.715 128.626 164.587 128.732 164.486C128.842 164.38 128.979 164.327 129.142 164.327C129.305 164.327 129.439 164.38 129.545 164.486C129.655 164.587 129.71 164.715 129.71 164.869C129.71 165.023 129.655 165.153 129.545 165.259C129.439 165.36 129.305 165.411 129.142 165.411ZM129.598 165.847V169.509H128.673V165.847H129.598ZM131.507 166.607V168.379C131.507 168.502 131.536 168.592 131.593 168.65C131.654 168.703 131.756 168.729 131.897 168.729H132.326V169.509H131.745C130.965 169.509 130.575 169.13 130.575 168.372V166.607H130.139V165.847H130.575V164.942H131.507V165.847H132.326V166.607H131.507ZM134.972 165.794C135.249 165.794 135.496 165.856 135.712 165.979C135.928 166.098 136.095 166.277 136.214 166.515C136.337 166.748 136.399 167.03 136.399 167.361V169.509H135.474V167.486C135.474 167.196 135.401 166.973 135.256 166.819C135.11 166.66 134.912 166.581 134.661 166.581C134.405 166.581 134.203 166.66 134.053 166.819C133.907 166.973 133.835 167.196 133.835 167.486V169.509H132.909V164.618H133.835V166.303C133.954 166.145 134.112 166.021 134.311 165.933C134.509 165.841 134.729 165.794 134.972 165.794ZM141.901 166.284C141.795 166.09 141.65 165.942 141.465 165.841C141.28 165.739 141.064 165.689 140.817 165.689C140.544 165.689 140.301 165.75 140.09 165.874C139.878 165.997 139.713 166.173 139.594 166.402C139.475 166.632 139.416 166.896 139.416 167.196C139.416 167.504 139.475 167.773 139.594 168.002C139.718 168.231 139.887 168.407 140.103 168.531C140.319 168.654 140.57 168.716 140.857 168.716C141.209 168.716 141.498 168.623 141.722 168.438C141.947 168.249 142.095 167.987 142.165 167.652H140.579V166.944H143.077V167.751C143.016 168.072 142.884 168.37 142.681 168.643C142.478 168.916 142.216 169.137 141.894 169.304C141.577 169.467 141.22 169.549 140.824 169.549C140.379 169.549 139.975 169.449 139.614 169.251C139.257 169.048 138.975 168.769 138.768 168.412C138.565 168.055 138.464 167.649 138.464 167.196C138.464 166.742 138.565 166.336 138.768 165.979C138.975 165.618 139.257 165.338 139.614 165.14C139.975 164.937 140.376 164.836 140.817 164.836C141.337 164.836 141.789 164.964 142.172 165.219C142.555 165.471 142.82 165.825 142.965 166.284H141.901ZM145.305 169.568C144.953 169.568 144.636 169.491 144.354 169.337C144.072 169.178 143.849 168.956 143.686 168.67C143.527 168.383 143.448 168.053 143.448 167.678C143.448 167.304 143.53 166.973 143.693 166.687C143.86 166.4 144.087 166.18 144.373 166.026C144.66 165.867 144.979 165.788 145.332 165.788C145.684 165.788 146.004 165.867 146.29 166.026C146.576 166.18 146.801 166.4 146.964 166.687C147.132 166.973 147.215 167.304 147.215 167.678C147.215 168.053 147.129 168.383 146.958 168.67C146.79 168.956 146.561 169.178 146.27 169.337C145.984 169.491 145.662 169.568 145.305 169.568ZM145.305 168.762C145.473 168.762 145.629 168.722 145.775 168.643C145.924 168.559 146.043 168.436 146.131 168.273C146.22 168.11 146.264 167.912 146.264 167.678C146.264 167.33 146.171 167.063 145.986 166.878C145.805 166.689 145.583 166.594 145.319 166.594C145.054 166.594 144.832 166.689 144.651 166.878C144.475 167.063 144.387 167.33 144.387 167.678C144.387 168.026 144.472 168.295 144.644 168.484C144.821 168.67 145.041 168.762 145.305 168.762ZM149.437 169.568C149.085 169.568 148.768 169.491 148.486 169.337C148.204 169.178 147.981 168.956 147.818 168.67C147.66 168.383 147.58 168.053 147.58 167.678C147.58 167.304 147.662 166.973 147.825 166.687C147.992 166.4 148.219 166.18 148.506 166.026C148.792 165.867 149.111 165.788 149.464 165.788C149.816 165.788 150.136 165.867 150.422 166.026C150.709 166.18 150.933 166.4 151.096 166.687C151.264 166.973 151.348 167.304 151.348 167.678C151.348 168.053 151.262 168.383 151.09 168.67C150.922 168.956 150.693 169.178 150.402 169.337C150.116 169.491 149.794 169.568 149.437 169.568ZM149.437 168.762C149.605 168.762 149.761 168.722 149.907 168.643C150.057 168.559 150.176 168.436 150.264 168.273C150.352 168.11 150.396 167.912 150.396 167.678C150.396 167.33 150.303 167.063 150.118 166.878C149.938 166.689 149.715 166.594 149.451 166.594C149.186 166.594 148.964 166.689 148.783 166.878C148.607 167.063 148.519 167.33 148.519 167.678C148.519 168.026 148.605 168.295 148.777 168.484C148.953 168.67 149.173 168.762 149.437 168.762ZM153.378 165.788C153.651 165.788 153.891 165.843 154.098 165.953C154.305 166.059 154.469 166.198 154.587 166.369V165.847H155.519V169.535C155.519 169.875 155.451 170.176 155.315 170.441C155.178 170.71 154.973 170.921 154.7 171.075C154.427 171.234 154.096 171.313 153.708 171.313C153.188 171.313 152.761 171.192 152.426 170.95C152.096 170.707 151.908 170.377 151.864 169.958H152.783C152.832 170.126 152.935 170.258 153.094 170.355C153.257 170.456 153.453 170.507 153.682 170.507C153.951 170.507 154.169 170.425 154.336 170.262C154.504 170.104 154.587 169.861 154.587 169.535V168.967C154.469 169.139 154.303 169.282 154.092 169.397C153.885 169.511 153.647 169.568 153.378 169.568C153.07 169.568 152.788 169.489 152.532 169.33C152.276 169.172 152.074 168.949 151.924 168.663C151.778 168.372 151.706 168.039 151.706 167.665C151.706 167.295 151.778 166.966 151.924 166.68C152.074 166.394 152.274 166.173 152.525 166.019C152.781 165.865 153.065 165.788 153.378 165.788ZM154.587 167.678C154.587 167.453 154.543 167.262 154.455 167.103C154.367 166.94 154.248 166.817 154.098 166.733C153.949 166.645 153.788 166.601 153.616 166.601C153.444 166.601 153.285 166.643 153.14 166.726C152.995 166.81 152.876 166.933 152.783 167.096C152.695 167.255 152.651 167.445 152.651 167.665C152.651 167.885 152.695 168.079 152.783 168.247C152.876 168.41 152.995 168.535 153.14 168.623C153.29 168.711 153.448 168.755 153.616 168.755C153.788 168.755 153.949 168.714 154.098 168.63C154.248 168.542 154.367 168.418 154.455 168.26C154.543 168.097 154.587 167.903 154.587 167.678ZM157.266 164.618V169.509H156.341V164.618H157.266ZM161.501 167.599C161.501 167.731 161.492 167.85 161.475 167.956H158.798C158.82 168.22 158.913 168.427 159.076 168.577C159.239 168.727 159.439 168.802 159.677 168.802C160.021 168.802 160.265 168.654 160.411 168.359H161.409C161.303 168.711 161.1 169.002 160.801 169.231C160.501 169.456 160.133 169.568 159.697 169.568C159.344 169.568 159.027 169.491 158.745 169.337C158.468 169.178 158.249 168.956 158.091 168.67C157.937 168.383 157.86 168.053 157.86 167.678C157.86 167.299 157.937 166.966 158.091 166.68C158.245 166.394 158.461 166.173 158.739 166.019C159.016 165.865 159.336 165.788 159.697 165.788C160.045 165.788 160.356 165.863 160.629 166.013C160.906 166.162 161.12 166.376 161.27 166.654C161.424 166.927 161.501 167.242 161.501 167.599ZM160.543 167.334C160.539 167.096 160.453 166.907 160.285 166.766C160.118 166.621 159.913 166.548 159.67 166.548C159.441 166.548 159.247 166.618 159.089 166.759C158.935 166.896 158.84 167.088 158.805 167.334H160.543Z" fill="#1E293B"/>
<path d="M95.0476 166.759L90.9504 166.759C90.7694 166.759 90.6228 166.899 90.6228 167.072V168.326C90.6228 168.499 90.7694 168.639 90.9503 168.639H93.2577C93.005 169.267 92.5334 169.793 91.9318 170.127L92.9156 171.758C94.4938 170.884 95.4269 169.351 95.4269 167.634C95.4269 167.389 95.4081 167.214 95.3705 167.018C95.3418 166.868 95.2063 166.759 95.0476 166.759Z" fill="#167EE6"/>
<path d="M90.4036 170.523C89.2745 170.523 88.2887 169.932 87.7593 169.058L86.0562 169.998C86.9229 171.436 88.5465 172.405 90.4036 172.405C91.3147 172.405 92.1743 172.17 92.9149 171.761V171.758L91.931 170.128C91.481 170.377 90.9603 170.523 90.4036 170.523Z" fill="#12B347"/>
<path d="M92.9154 171.761V171.758L91.9316 170.127C91.4816 170.377 90.9608 170.523 90.4042 170.523V172.405C91.3152 172.405 92.1749 172.17 92.9154 171.761Z" fill="#0F993E"/>
<path d="M87.3472 167.595C87.3472 167.062 87.4991 166.563 87.76 166.133L86.057 165.193C85.6271 165.899 85.3819 166.72 85.3819 167.595C85.3819 168.47 85.6271 169.291 86.057 169.998L87.76 169.058C87.4991 168.627 87.3472 168.128 87.3472 167.595Z" fill="#FFD500"/>
<path d="M90.4036 164.667C91.14 164.667 91.8163 164.918 92.3446 165.335C92.4749 165.438 92.6644 165.43 92.7837 165.316L93.7111 164.428C93.8466 164.298 93.8369 164.086 93.6922 163.966C92.8071 163.23 91.6555 162.785 90.4036 162.785C88.5465 162.785 86.9229 163.754 86.0562 165.193L87.7593 166.133C88.2887 165.258 89.2745 164.667 90.4036 164.667Z" fill="#FF4B26"/>
<path d="M92.3451 165.335C92.4755 165.438 92.6649 165.43 92.7843 165.316L93.7117 164.428C93.8471 164.298 93.8375 164.086 93.6928 163.966C92.8077 163.23 91.656 162.785 90.4042 162.785V164.667C91.1405 164.667 91.8169 164.918 92.3451 165.335Z" fill="#D93F21"/>
</g>
<defs>
<filter id="filter0_d_1_945" x="0.176281" y="0.860314" width="261.264" height="218.574" filterUnits="userSpaceOnUse" color-interpolation-filters="sRGB">
<feFlood flood-opacity="0" result="BackgroundImageFix"/>
<feColorMatrix in="SourceAlpha" type="matrix" values="0 0 0 0 0 0 0 0 0 0 0 0 0 0 0 0 0 0 127 0" result="hardAlpha"/>
<feOffset dy="5.22157"/>
<feGaussianBlur stdDeviation="10.4431"/>
<feComposite in2="hardAlpha" operator="out"/>
<feColorMatrix type="matrix" values="0 0 0 0 0 0 0 0 0 0 0 0 0 0 0 0 0 0 0.43 0"/>
<feBlend mode="normal" in2="BackgroundImageFix" result="effect1_dropShadow_1_945"/>
<feBlend mode="normal" in="SourceGraphic" in2="effect1_dropShadow_1_945" result="shape"/>
</filter>
</defs>
</svg>
