<svg width="281" height="158" viewBox="0 0 281 158" fill="none" xmlns="http://www.w3.org/2000/svg">
<g filter="url(#filter0_d_1_965)">
<rect x="21.4145" y="16.603" width="237.71" height="114.646" rx="10.2836" fill="white" shape-rendering="crispEdges"/>
<path d="M43.9008 40.4717C43.857 40.0298 43.6689 39.6865 43.3366 39.4418C43.0043 39.1972 42.5533 39.0748 41.9836 39.0748C41.5965 39.0748 41.2697 39.1296 41.0031 39.2392C40.7365 39.3451 40.532 39.493 40.3896 39.6829C40.2508 39.8727 40.1814 40.0882 40.1814 40.3292C40.1741 40.5301 40.2161 40.7054 40.3074 40.8551C40.4024 41.0048 40.532 41.1345 40.6963 41.244C40.8607 41.3499 41.0506 41.443 41.266 41.5234C41.4815 41.6001 41.7115 41.6658 41.9562 41.7206L42.9641 41.9616C43.4535 42.0712 43.9027 42.2172 44.3117 42.3998C44.7207 42.5824 45.0749 42.807 45.3744 43.0736C45.6738 43.3402 45.9057 43.6542 46.07 44.0158C46.238 44.3773 46.3238 44.7918 46.3275 45.2592C46.3238 45.9458 46.1486 46.541 45.8016 47.045C45.4584 47.5453 44.9617 47.9342 44.3117 48.2118C43.6653 48.4857 42.8856 48.6226 41.9727 48.6226C41.067 48.6226 40.2782 48.4838 39.6062 48.2063C38.938 47.9287 38.4157 47.5179 38.0396 46.9738C37.6671 46.426 37.4717 45.7486 37.4535 44.9415H39.7487C39.7742 45.3177 39.882 45.6317 40.0719 45.8837C40.2654 46.132 40.5229 46.3201 40.8442 46.4479C41.1692 46.5721 41.5363 46.6342 41.9453 46.6342C42.347 46.6342 42.6957 46.5757 42.9915 46.4589C43.291 46.342 43.5229 46.1795 43.6872 45.9714C43.8515 45.7632 43.9337 45.524 43.9337 45.2538C43.9337 45.0018 43.8588 44.79 43.7091 44.6183C43.563 44.4467 43.3476 44.3006 43.0627 44.1801C42.7815 44.0596 42.4364 43.95 42.0274 43.8514L40.8059 43.5447C39.8601 43.3146 39.1132 42.9549 38.5655 42.4656C38.0177 41.9762 37.7456 41.3171 37.7493 40.4881C37.7456 39.8088 37.9264 39.2154 38.2916 38.7078C38.6604 38.2002 39.1662 37.804 39.8089 37.5191C40.4517 37.2343 41.182 37.0919 42 37.0919C42.8327 37.0919 43.5594 37.2343 44.1802 37.5191C44.8047 37.804 45.2904 38.2002 45.6373 38.7078C45.9842 39.2154 46.1632 39.8034 46.1741 40.4717H43.9008ZM49.5388 48.4637L47.2491 40.0499H49.6101L50.9138 45.7029H50.9905L52.3489 40.0499H54.6661L56.0465 45.6701H56.1177L57.3995 40.0499H59.7549L57.4707 48.4637H55.0002L53.5541 43.1722H53.45L52.0038 48.4637H49.5388ZM63.399 48.6226C62.8622 48.6226 62.3838 48.5295 61.9638 48.3432C61.5439 48.1533 61.2116 47.874 60.9669 47.5051C60.7259 47.1326 60.6053 46.6689 60.6053 46.1138C60.6053 45.6463 60.6912 45.2538 60.8628 44.9361C61.0344 44.6183 61.2682 44.3627 61.564 44.1692C61.8598 43.9756 62.1957 43.8295 62.5719 43.7309C62.9517 43.6323 63.3497 43.563 63.766 43.5228C64.2554 43.4717 64.6498 43.4242 64.9492 43.3804C65.2487 43.3329 65.466 43.2635 65.6011 43.1722C65.7362 43.0809 65.8038 42.9458 65.8038 42.7668V42.734C65.8038 42.3871 65.6942 42.1186 65.4751 41.9287C65.2596 41.7388 64.9529 41.6439 64.5548 41.6439C64.1349 41.6439 63.8007 41.737 63.5524 41.9233C63.3041 42.1059 63.1397 42.3359 63.0594 42.6135L60.9011 42.4382C61.0107 41.9269 61.2262 41.485 61.5475 41.1126C61.8689 40.7364 62.2834 40.4479 62.791 40.2471C63.3022 40.0426 63.8938 39.9403 64.5658 39.9403C65.0332 39.9403 65.4806 39.9951 65.9078 40.1046C66.3388 40.2142 66.7204 40.384 67.0527 40.6141C67.3887 40.8441 67.6534 41.1399 67.847 41.5015C68.0405 41.8594 68.1373 42.2885 68.1373 42.7888V48.4637H65.9243V47.297H65.8585C65.7234 47.5599 65.5427 47.7918 65.3162 47.9927C65.0898 48.1899 64.8178 48.3451 64.5 48.4583C64.1823 48.5678 63.8153 48.6226 63.399 48.6226ZM64.0673 47.0121C64.4106 47.0121 64.7137 46.9446 64.9766 46.8095C65.2395 46.6707 65.4459 46.4844 65.5956 46.2507C65.7453 46.017 65.8202 45.7522 65.8202 45.4564V44.5636C65.7472 44.611 65.6467 44.6549 65.5189 44.695C65.3948 44.7315 65.2542 44.7662 65.0971 44.7991C64.9401 44.8283 64.7831 44.8557 64.626 44.8813C64.469 44.9032 64.3266 44.9233 64.1988 44.9415C63.9249 44.9817 63.6857 45.0456 63.4812 45.1333C63.2767 45.2209 63.1178 45.3396 63.0046 45.4893C62.8914 45.6354 62.8348 45.818 62.8348 46.0371C62.8348 46.3548 62.9498 46.5976 63.1799 46.7656C63.4136 46.93 63.7094 47.0121 64.0673 47.0121ZM69.9477 51.619V40.0499H72.2484V41.4631H72.3525C72.4547 41.2367 72.6026 41.0067 72.7962 40.7729C72.9934 40.5356 73.249 40.3384 73.563 40.1813C73.8808 40.0207 74.2752 39.9403 74.7462 39.9403C75.3598 39.9403 75.9258 40.101 76.4444 40.4224C76.9629 40.7401 77.3774 41.2203 77.6878 41.863C77.9982 42.5021 78.1534 43.3037 78.1534 44.2678C78.1534 45.2063 78.0019 45.9987 77.6988 46.6451C77.3993 47.2878 76.9903 47.7754 76.4718 48.1077C75.9568 48.4364 75.3798 48.6007 74.7408 48.6007C74.2879 48.6007 73.9027 48.5258 73.585 48.3761C73.2709 48.2264 73.0134 48.0383 72.8126 47.8119C72.6117 47.5818 72.4584 47.3499 72.3525 47.1162H72.2812V51.619H69.9477ZM72.2319 44.2568C72.2319 44.7571 72.3013 45.1935 72.4401 45.566C72.5789 45.9385 72.7797 46.2288 73.0427 46.437C73.3056 46.6415 73.6251 46.7437 74.0013 46.7437C74.3811 46.7437 74.7024 46.6396 74.9654 46.4315C75.2283 46.2197 75.4273 45.9275 75.5624 45.555C75.7012 45.1789 75.7706 44.7462 75.7706 44.2568C75.7706 43.7711 75.703 43.3438 75.5679 42.975C75.4328 42.6062 75.2338 42.3177 74.9708 42.1095C74.7079 41.9014 74.3847 41.7973 74.0013 41.7973C73.6215 41.7973 73.3001 41.8977 73.0372 42.0986C72.7779 42.2994 72.5789 42.5843 72.4401 42.9531C72.3013 43.3219 72.2319 43.7565 72.2319 44.2568ZM82.8958 39.2008V37.2452H92.1095V39.2008H88.6749V48.4637H86.3304V39.2008H82.8958ZM96.1644 48.6281C95.3135 48.6281 94.5777 48.4473 93.9568 48.0858C93.3397 47.7206 92.8631 47.213 92.5271 46.563C92.1912 45.9093 92.0232 45.1515 92.0232 44.2897C92.0232 43.4205 92.1912 42.6609 92.5271 42.0109C92.8631 41.3572 93.3397 40.8496 93.9568 40.4881C94.5777 40.1229 95.3135 39.9403 96.1644 39.9403C97.0153 39.9403 97.7493 40.1229 98.3665 40.4881C98.9873 40.8496 99.4657 41.3572 99.8016 42.0109C100.138 42.6609 100.306 43.4205 100.306 44.2897C100.306 45.1515 100.138 45.9093 99.8016 46.563C99.4657 47.213 98.9873 47.7206 98.3665 48.0858C97.7493 48.4473 97.0153 48.6281 96.1644 48.6281ZM96.1753 46.8204C96.5624 46.8204 96.8856 46.7109 97.1449 46.4917C97.4042 46.269 97.5996 45.9659 97.731 45.5824C97.8662 45.199 97.9337 44.7626 97.9337 44.2732C97.9337 43.7839 97.8662 43.3475 97.731 42.964C97.5996 42.5806 97.4042 42.2775 97.1449 42.0547C96.8856 41.832 96.5624 41.7206 96.1753 41.7206C95.7846 41.7206 95.4559 41.832 95.1893 42.0547C94.9264 42.2775 94.7274 42.5806 94.5923 42.964C94.4608 43.3475 94.3951 43.7839 94.3951 44.2732C94.3951 44.7626 94.4608 45.199 94.5923 45.5824C94.7274 45.9659 94.9264 46.269 95.1893 46.4917C95.4559 46.7109 95.7846 46.8204 96.1753 46.8204ZM103.937 46.0426L103.943 43.2434H104.282L106.978 40.0499H109.656L106.035 44.2787H105.482L103.937 46.0426ZM101.823 48.4637V37.2452H104.156V48.4637H101.823ZM107.082 48.4637L104.606 44.7991L106.161 43.1503L109.815 48.4637H107.082ZM114.289 48.6281C113.424 48.6281 112.679 48.4528 112.054 48.1022C111.433 47.748 110.955 47.2477 110.619 46.6013C110.283 45.9513 110.115 45.1826 110.115 44.2951C110.115 43.4297 110.283 42.6701 110.619 42.0164C110.955 41.3627 111.428 40.8533 112.038 40.4881C112.651 40.1229 113.371 39.9403 114.196 39.9403C114.751 39.9403 115.268 40.0298 115.746 40.2087C116.228 40.384 116.648 40.6488 117.006 41.003C117.368 41.3572 117.649 41.8028 117.85 42.3396C118.05 42.8728 118.151 43.4972 118.151 44.213V44.8539H111.046V43.4077H115.954C115.954 43.0718 115.881 42.7742 115.735 42.5149C115.589 42.2556 115.386 42.0529 115.127 41.9068C114.871 41.7571 114.574 41.6822 114.234 41.6822C113.88 41.6822 113.566 41.7644 113.292 41.9287C113.022 42.0894 112.81 42.3067 112.657 42.5806C112.503 42.8508 112.425 43.1521 112.421 43.4844V44.8594C112.421 45.2757 112.498 45.6354 112.651 45.9385C112.808 46.2416 113.029 46.4753 113.314 46.6396C113.599 46.804 113.937 46.8861 114.327 46.8861C114.587 46.8861 114.824 46.8496 115.039 46.7766C115.255 46.7035 115.439 46.594 115.593 46.4479C115.746 46.3018 115.863 46.1229 115.943 45.9111L118.102 46.0535C117.992 46.5721 117.767 47.0249 117.428 47.412C117.092 47.7955 116.657 48.0949 116.124 48.3104C115.595 48.5222 114.983 48.6281 114.289 48.6281ZM122.007 43.5995V48.4637H119.674V40.0499H121.898V41.5343H121.996C122.183 41.045 122.495 40.6579 122.933 40.3731C123.371 40.0846 123.903 39.9403 124.527 39.9403C125.111 39.9403 125.621 40.0681 126.055 40.3238C126.49 40.5794 126.828 40.9446 127.069 41.4193C127.31 41.8904 127.43 42.4528 127.43 43.1065V48.4637H125.097V43.5228C125.1 43.0079 124.969 42.6062 124.702 42.3177C124.436 42.0255 124.069 41.8794 123.601 41.8794C123.287 41.8794 123.01 41.947 122.769 42.0821C122.531 42.2172 122.345 42.4144 122.21 42.6737C122.078 42.9294 122.011 43.2379 122.007 43.5995Z" fill="#0A0A0A"/>
<path d="M37.2745 60.1935V59.4905H42.1826V60.1935H40.1248V66.0347H39.3324V60.1935H37.2745ZM42.9737 66.0347V61.1266H43.7023V61.8679H43.7534C43.8429 61.625 44.0048 61.428 44.2391 61.2768C44.4734 61.1255 44.7376 61.0499 45.0315 61.0499C45.0869 61.0499 45.1562 61.0509 45.2392 61.0531C45.3223 61.0552 45.3852 61.0584 45.4278 61.0627V61.8296C45.4022 61.8232 45.3436 61.8136 45.252 61.8008C45.1625 61.7859 45.0677 61.7784 44.9676 61.7784C44.729 61.7784 44.516 61.8285 44.3286 61.9286C44.1432 62.0266 43.9962 62.1629 43.8876 62.3376C43.7811 62.5102 43.7278 62.7072 43.7278 62.9288V66.0347H42.9737ZM47.9459 66.1497C47.6349 66.1497 47.3527 66.0911 47.0992 65.974C46.8457 65.8547 46.6444 65.6832 46.4952 65.4595C46.3461 65.2337 46.2716 64.961 46.2716 64.6415C46.2716 64.3603 46.327 64.1324 46.4377 63.9577C46.5485 63.7809 46.6965 63.6424 46.8819 63.5423C47.0672 63.4422 47.2717 63.3676 47.4954 63.3186C47.7212 63.2675 47.9481 63.227 48.176 63.1972C48.4742 63.1588 48.716 63.1301 48.9014 63.1109C49.0888 63.0896 49.2252 63.0544 49.3104 63.0055C49.3977 62.9565 49.4414 62.8712 49.4414 62.7498V62.7243C49.4414 62.409 49.3551 62.164 49.1826 61.9893C49.0121 61.8146 48.7533 61.7273 48.4061 61.7273C48.0461 61.7273 47.7638 61.8061 47.5593 61.9638C47.3548 62.1214 47.211 62.2897 47.1279 62.4686L46.4122 62.213C46.54 61.9148 46.7104 61.6826 46.9234 61.5164C47.1386 61.3481 47.3729 61.231 47.6264 61.1649C47.882 61.0967 48.1334 61.0627 48.3805 61.0627C48.5382 61.0627 48.7192 61.0818 48.9237 61.1202C49.1304 61.1564 49.3295 61.232 49.5213 61.3471C49.7151 61.4621 49.8759 61.6357 50.0038 61.8679C50.1316 62.1001 50.1955 62.4111 50.1955 62.8009V66.0347H49.4414V65.37H49.403C49.3519 65.4765 49.2667 65.5905 49.1474 65.7119C49.0281 65.8334 48.8694 65.9367 48.6713 66.0219C48.4732 66.1071 48.2314 66.1497 47.9459 66.1497ZM48.061 65.4723C48.3592 65.4723 48.6106 65.4137 48.8151 65.2965C49.0217 65.1794 49.1772 65.0281 49.2816 64.8428C49.3881 64.6575 49.4414 64.4625 49.4414 64.258V63.5678C49.4094 63.6062 49.3391 63.6413 49.2305 63.6733C49.124 63.7031 49.0004 63.7297 48.8598 63.7532C48.7214 63.7745 48.5861 63.7936 48.454 63.8107C48.3241 63.8256 48.2186 63.8384 48.1377 63.849C47.9417 63.8746 47.7585 63.9161 47.5881 63.9737C47.4198 64.029 47.2834 64.1132 47.1791 64.2261C47.0768 64.3369 47.0257 64.4881 47.0257 64.6798C47.0257 64.9418 47.1226 65.14 47.3165 65.2742C47.5124 65.4062 47.7606 65.4723 48.061 65.4723ZM53.6052 66.1369C53.1962 66.1369 52.8351 66.0336 52.5219 65.827C52.2088 65.6182 51.9638 65.3242 51.787 64.945C51.6102 64.5637 51.5218 64.1132 51.5218 63.5934C51.5218 63.0779 51.6102 62.6305 51.787 62.2513C51.9638 61.8722 52.2099 61.5792 52.5251 61.3726C52.8404 61.166 53.2047 61.0627 53.618 61.0627C53.9375 61.0627 54.1899 61.1159 54.3753 61.2224C54.5627 61.3268 54.7054 61.4461 54.8034 61.5803C54.9036 61.7124 54.9813 61.821 55.0367 61.9062H55.1006V59.4905H55.8547V66.0347H55.1262V65.2806H55.0367C54.9813 65.37 54.9025 65.4829 54.8002 65.6193C54.698 65.7535 54.5521 65.8738 54.3625 65.9803C54.1729 66.0847 53.9205 66.1369 53.6052 66.1369ZM53.7074 65.4595C54.0099 65.4595 54.2656 65.3807 54.4743 65.223C54.6831 65.0633 54.8418 64.8428 54.9504 64.5616C55.0591 64.2783 55.1134 63.9513 55.1134 63.5806C55.1134 63.2142 55.0601 62.8936 54.9536 62.6188C54.8471 62.3419 54.6895 62.1267 54.4807 61.9733C54.2719 61.8178 54.0142 61.7401 53.7074 61.7401C53.3879 61.7401 53.1216 61.8221 52.9086 61.9861C52.6977 62.148 52.539 62.3685 52.4325 62.6476C52.3281 62.9245 52.2759 63.2355 52.2759 63.5806C52.2759 63.93 52.3292 64.2474 52.4357 64.5328C52.5443 64.8162 52.7041 65.042 52.915 65.2103C53.128 65.3764 53.3921 65.4595 53.7074 65.4595ZM59.5784 66.1369C59.1054 66.1369 58.6975 66.0325 58.3545 65.8238C58.0137 65.6129 57.7506 65.3189 57.5653 64.9418C57.3821 64.5627 57.2905 64.1217 57.2905 63.619C57.2905 63.1162 57.3821 62.6731 57.5653 62.2897C57.7506 61.9041 58.0084 61.6037 58.3385 61.3886C58.6709 61.1713 59.0586 61.0627 59.5017 61.0627C59.7573 61.0627 60.0097 61.1053 60.259 61.1905C60.5082 61.2757 60.7351 61.4142 60.9396 61.6059C61.1441 61.7955 61.3071 62.0468 61.4285 62.36C61.5499 62.6731 61.6106 63.0587 61.6106 63.5167V63.8362H57.8273V63.1844H60.8437C60.8437 62.9075 60.7883 62.6604 60.6776 62.4431C60.5689 62.2258 60.4134 62.0543 60.211 61.9286C60.0108 61.8029 59.7743 61.7401 59.5017 61.7401C59.2013 61.7401 58.9414 61.8146 58.722 61.9638C58.5047 62.1107 58.3375 62.3025 58.2203 62.5389C58.1032 62.7754 58.0446 63.0289 58.0446 63.2994V63.734C58.0446 64.1047 58.1085 64.4189 58.2363 64.6766C58.3662 64.9323 58.5462 65.1272 58.7763 65.2614C59.0064 65.3935 59.2737 65.4595 59.5784 65.4595C59.7765 65.4595 59.9554 65.4318 60.1152 65.3764C60.2771 65.3189 60.4166 65.2337 60.5338 65.1208C60.6509 65.0058 60.7415 64.863 60.8054 64.6926L61.5339 64.8971C61.4572 65.1442 61.3284 65.3615 61.1473 65.549C60.9662 65.7343 60.7425 65.8792 60.4763 65.9835C60.21 66.0858 59.9107 66.1369 59.5784 66.1369ZM67.7829 61.1266V61.7656H65.2394V61.1266H67.7829ZM65.9807 59.9507H66.7348V64.6287C66.7348 64.8417 66.7657 65.0015 66.8275 65.108C66.8914 65.2124 66.9724 65.2827 67.0704 65.3189C67.1705 65.353 67.2759 65.37 67.3867 65.37C67.4698 65.37 67.5379 65.3658 67.5912 65.3572C67.6445 65.3466 67.6871 65.3381 67.719 65.3317L67.8724 66.0091C67.8213 66.0283 67.7499 66.0474 67.6583 66.0666C67.5667 66.0879 67.4506 66.0986 67.31 66.0986C67.097 66.0986 66.8882 66.0528 66.6837 65.9612C66.4813 65.8696 66.3131 65.73 66.1788 65.5426C66.0468 65.3551 65.9807 65.1187 65.9807 64.8332V59.9507ZM71.0384 66.1369C70.5953 66.1369 70.2066 66.0315 69.8721 65.8206C69.5398 65.6097 69.2799 65.3146 69.0925 64.9355C68.9071 64.5563 68.8145 64.1132 68.8145 63.6062C68.8145 63.0949 68.9071 62.6486 69.0925 62.2673C69.2799 61.886 69.5398 61.5899 69.8721 61.379C70.2066 61.1681 70.5953 61.0627 71.0384 61.0627C71.4815 61.0627 71.8692 61.1681 72.2016 61.379C72.536 61.5899 72.7959 61.886 72.9812 62.2673C73.1687 62.6486 73.2624 63.0949 73.2624 63.6062C73.2624 64.1132 73.1687 64.5563 72.9812 64.9355C72.7959 65.3146 72.536 65.6097 72.2016 65.8206C71.8692 66.0315 71.4815 66.1369 71.0384 66.1369ZM71.0384 65.4595C71.375 65.4595 71.652 65.3732 71.8692 65.2007C72.0865 65.0281 72.2474 64.8013 72.3517 64.5201C72.4561 64.2389 72.5083 63.9342 72.5083 63.6062C72.5083 63.2781 72.4561 62.9724 72.3517 62.6891C72.2474 62.4058 72.0865 62.1768 71.8692 62.0021C71.652 61.8274 71.375 61.7401 71.0384 61.7401C70.7019 61.7401 70.4249 61.8274 70.2076 62.0021C69.9904 62.1768 69.8295 62.4058 69.7251 62.6891C69.6208 62.9724 69.5686 63.2781 69.5686 63.6062C69.5686 63.9342 69.6208 64.2389 69.7251 64.5201C69.8295 64.8013 69.9904 65.0281 70.2076 65.2007C70.4249 65.3732 70.7019 65.4595 71.0384 65.4595ZM75.2965 64.2453L75.2837 63.3122H75.4371L77.5844 61.1266H78.5174L76.2296 63.44H76.1656L75.2965 64.2453ZM74.5935 66.0347V59.4905H75.3476V66.0347H74.5935ZM77.7122 66.0347L75.795 63.6062L76.3318 63.0821L78.6708 66.0347H77.7122ZM81.5237 66.1369C81.0508 66.1369 80.6429 66.0325 80.2999 65.8238C79.959 65.6129 79.696 65.3189 79.5106 64.9418C79.3274 64.5627 79.2358 64.1217 79.2358 63.619C79.2358 63.1162 79.3274 62.6731 79.5106 62.2897C79.696 61.9041 79.9537 61.6037 80.2839 61.3886C80.6162 61.1713 81.0039 61.0627 81.447 61.0627C81.7027 61.0627 81.9551 61.1053 82.2043 61.1905C82.4536 61.2757 82.6804 61.4142 82.8849 61.6059C83.0894 61.7955 83.2524 62.0468 83.3738 62.36C83.4953 62.6731 83.556 63.0587 83.556 63.5167V63.8362H79.7726V63.1844H82.7891C82.7891 62.9075 82.7337 62.6604 82.6229 62.4431C82.5143 62.2258 82.3588 62.0543 82.1564 61.9286C81.9562 61.8029 81.7197 61.7401 81.447 61.7401C81.1467 61.7401 80.8868 61.8146 80.6674 61.9638C80.4501 62.1107 80.2828 62.3025 80.1657 62.5389C80.0485 62.7754 79.9899 63.0289 79.9899 63.2994V63.734C79.9899 64.1047 80.0538 64.4189 80.1817 64.6766C80.3116 64.9323 80.4916 65.1272 80.7217 65.2614C80.9517 65.3935 81.2191 65.4595 81.5237 65.4595C81.7218 65.4595 81.9008 65.4318 82.0605 65.3764C82.2224 65.3189 82.362 65.2337 82.4791 65.1208C82.5963 65.0058 82.6868 64.863 82.7507 64.6926L83.4793 64.8971C83.4026 65.1442 83.2737 65.3615 83.0926 65.549C82.9116 65.7343 82.6879 65.8792 82.4216 65.9835C82.1553 66.0858 81.856 66.1369 81.5237 66.1369ZM85.6372 63.0821V66.0347H84.8831V61.1266H85.6116V61.8935H85.6755C85.7906 61.6442 85.9652 61.444 86.1996 61.2927C86.4339 61.1394 86.7364 61.0627 87.1071 61.0627C87.4394 61.0627 87.7302 61.1308 87.9794 61.2672C88.2286 61.4014 88.4225 61.6059 88.561 61.8807C88.6994 62.1534 88.7687 62.4985 88.7687 62.916V66.0347H88.0145V62.9671C88.0145 62.5815 87.9144 62.2812 87.7142 62.066C87.5139 61.8487 87.2391 61.7401 86.8898 61.7401C86.6491 61.7401 86.4339 61.7923 86.2443 61.8967C86.0568 62.001 85.9088 62.1534 85.8001 62.3536C85.6915 62.5538 85.6372 62.7967 85.6372 63.0821ZM93.8032 62.2258L93.1258 62.4175C93.0832 62.3046 93.0203 62.1949 92.9372 62.0884C92.8563 61.9797 92.7455 61.8903 92.6049 61.82C92.4643 61.7497 92.2843 61.7145 92.0649 61.7145C91.7645 61.7145 91.5142 61.7838 91.314 61.9222C91.1159 62.0586 91.0168 62.2322 91.0168 62.4431C91.0168 62.6305 91.085 62.7786 91.2213 62.8872C91.3577 62.9959 91.5707 63.0864 91.8604 63.1588L92.5889 63.3378C93.0278 63.4443 93.3548 63.6072 93.5699 63.8267C93.7851 64.0439 93.8927 64.3241 93.8927 64.667C93.8927 64.9482 93.8117 65.1996 93.6498 65.4212C93.49 65.6427 93.2664 65.8174 92.9788 65.9452C92.6912 66.073 92.3568 66.1369 91.9754 66.1369C91.4748 66.1369 91.0605 66.0283 90.7324 65.811C90.4044 65.5937 90.1967 65.2763 90.1093 64.8588L90.8251 64.6798C90.8933 64.944 91.0221 65.1421 91.2117 65.2742C91.4035 65.4062 91.6538 65.4723 91.9627 65.4723C92.3141 65.4723 92.5932 65.3977 92.7998 65.2486C93.0086 65.0974 93.113 64.9163 93.113 64.7054C93.113 64.535 93.0533 64.3922 92.934 64.2772C92.8148 64.16 92.6316 64.0727 92.3844 64.0152L91.5664 63.8235C91.1169 63.717 90.7868 63.5519 90.5759 63.3282C90.3671 63.1024 90.2627 62.8201 90.2627 62.4814C90.2627 62.2045 90.3405 61.9595 90.496 61.7465C90.6536 61.5334 90.8677 61.3662 91.1382 61.2448C91.4109 61.1234 91.7198 61.0627 92.0649 61.0627C92.5506 61.0627 92.9319 61.1692 93.2089 61.3822C93.4879 61.5952 93.686 61.8764 93.8032 62.2258ZM97.9185 66.0347V61.1266H98.6726V66.0347H97.9185ZM98.3019 60.3086C98.1549 60.3086 98.0282 60.2585 97.9217 60.1584C97.8173 60.0583 97.7651 59.9379 97.7651 59.7973C97.7651 59.6567 97.8173 59.5363 97.9217 59.4362C98.0282 59.3361 98.1549 59.286 98.3019 59.286C98.4489 59.286 98.5746 59.3361 98.679 59.4362C98.7855 59.5363 98.8387 59.6567 98.8387 59.7973C98.8387 59.9379 98.7855 60.0583 98.679 60.1584C98.5746 60.2585 98.4489 60.3086 98.3019 60.3086ZM100.988 63.0821V66.0347H100.234V61.1266H100.962V61.8935H101.026C101.141 61.6442 101.316 61.444 101.55 61.2927C101.785 61.1394 102.087 61.0627 102.458 61.0627C102.79 61.0627 103.081 61.1308 103.33 61.2672C103.579 61.4014 103.773 61.6059 103.912 61.8807C104.05 62.1534 104.119 62.4985 104.119 62.916V66.0347H103.365V62.9671C103.365 62.5815 103.265 62.2812 103.065 62.066C102.865 61.8487 102.59 61.7401 102.24 61.7401C102 61.7401 101.785 61.7923 101.595 61.8967C101.408 62.001 101.259 62.1534 101.151 62.3536C101.042 62.5538 100.988 62.7967 100.988 63.0821ZM109.832 66.1497C109.521 66.1497 109.239 66.0911 108.986 65.974C108.732 65.8547 108.531 65.6832 108.382 65.4595C108.232 65.2337 108.158 64.961 108.158 64.6415C108.158 64.3603 108.213 64.1324 108.324 63.9577C108.435 63.7809 108.583 63.6424 108.768 63.5423C108.954 63.4422 109.158 63.3676 109.382 63.3186C109.608 63.2675 109.834 63.227 110.062 63.1972C110.361 63.1588 110.602 63.1301 110.788 63.1109C110.975 63.0896 111.112 63.0544 111.197 63.0055C111.284 62.9565 111.328 62.8712 111.328 62.7498V62.7243C111.328 62.409 111.241 62.164 111.069 61.9893C110.899 61.8146 110.64 61.7273 110.292 61.7273C109.932 61.7273 109.65 61.8061 109.446 61.9638C109.241 62.1214 109.097 62.2897 109.014 62.4686L108.299 62.213C108.426 61.9148 108.597 61.6826 108.81 61.5164C109.025 61.3481 109.259 61.231 109.513 61.1649C109.768 61.0967 110.02 61.0627 110.267 61.0627C110.425 61.0627 110.606 61.0818 110.81 61.1202C111.017 61.1564 111.216 61.232 111.408 61.3471C111.601 61.4621 111.762 61.6357 111.89 61.8679C112.018 62.1001 112.082 62.4111 112.082 62.8009V66.0347H111.328V65.37H111.289C111.238 65.4765 111.153 65.5905 111.034 65.7119C110.914 65.8334 110.756 65.9367 110.558 66.0219C110.36 66.1071 110.118 66.1497 109.832 66.1497ZM109.947 65.4723C110.246 65.4723 110.497 65.4137 110.701 65.2965C110.908 65.1794 111.064 65.0281 111.168 64.8428C111.274 64.6575 111.328 64.4625 111.328 64.258V63.5678C111.296 63.6062 111.225 63.6413 111.117 63.6733C111.01 63.7031 110.887 63.7297 110.746 63.7532C110.608 63.7745 110.472 63.7936 110.34 63.8107C110.21 63.8256 110.105 63.8384 110.024 63.849C109.828 63.8746 109.645 63.9161 109.474 63.9737C109.306 64.029 109.17 64.1132 109.065 64.2261C108.963 64.3369 108.912 64.4881 108.912 64.6798C108.912 64.9418 109.009 65.14 109.203 65.2742C109.399 65.4062 109.647 65.4723 109.947 65.4723ZM114.392 63.0821V66.0347H113.638V61.1266H114.367V61.8935H114.431C114.546 61.6442 114.72 61.444 114.955 61.2927C115.189 61.1394 115.492 61.0627 115.862 61.0627C116.195 61.0627 116.485 61.1308 116.735 61.2672C116.984 61.4014 117.178 61.6059 117.316 61.8807C117.455 62.1534 117.524 62.4985 117.524 62.916V66.0347H116.77V62.9671C116.77 62.5815 116.67 62.2812 116.469 62.066C116.269 61.8487 115.994 61.7401 115.645 61.7401C115.404 61.7401 115.189 61.7923 114.999 61.8967C114.812 62.001 114.664 62.1534 114.555 62.3536C114.447 62.5538 114.392 62.7967 114.392 63.0821ZM121.792 66.0347V61.1266H122.547V66.0347H121.792ZM122.176 60.3086C122.029 60.3086 121.902 60.2585 121.796 60.1584C121.691 60.0583 121.639 59.9379 121.639 59.7973C121.639 59.6567 121.691 59.5363 121.796 59.4362C121.902 59.3361 122.029 59.286 122.176 59.286C122.323 59.286 122.449 59.3361 122.553 59.4362C122.659 59.5363 122.713 59.6567 122.713 59.7973C122.713 59.9379 122.659 60.0583 122.553 60.1584C122.449 60.2585 122.323 60.3086 122.176 60.3086ZM124.862 63.0821V66.0347H124.108V61.1266H124.836V61.8935H124.9C125.015 61.6442 125.19 61.444 125.424 61.2927C125.659 61.1394 125.961 61.0627 126.332 61.0627C126.664 61.0627 126.955 61.1308 127.204 61.2672C127.453 61.4014 127.647 61.6059 127.786 61.8807C127.924 62.1534 127.993 62.4985 127.993 62.916V66.0347H127.239V62.9671C127.239 62.5815 127.139 62.2812 126.939 62.066C126.739 61.8487 126.464 61.7401 126.114 61.7401C125.874 61.7401 125.659 61.7923 125.469 61.8967C125.282 62.001 125.133 62.1534 125.025 62.3536C124.916 62.5538 124.862 62.7967 124.862 63.0821ZM133.028 62.2258L132.35 62.4175C132.308 62.3046 132.245 62.1949 132.162 62.0884C132.081 61.9797 131.97 61.8903 131.83 61.82C131.689 61.7497 131.509 61.7145 131.29 61.7145C130.989 61.7145 130.739 61.7838 130.539 61.9222C130.341 62.0586 130.241 62.2322 130.241 62.4431C130.241 62.6305 130.31 62.7786 130.446 62.8872C130.582 62.9959 130.795 63.0864 131.085 63.1588L131.814 63.3378C132.252 63.4443 132.579 63.6072 132.795 63.8267C133.01 64.0439 133.117 64.3241 133.117 64.667C133.117 64.9482 133.036 65.1996 132.874 65.4212C132.715 65.6427 132.491 65.8174 132.203 65.9452C131.916 66.073 131.581 66.1369 131.2 66.1369C130.699 66.1369 130.285 66.0283 129.957 65.811C129.629 65.5937 129.421 65.2763 129.334 64.8588L130.05 64.6798C130.118 64.944 130.247 65.1421 130.436 65.2742C130.628 65.4062 130.878 65.4723 131.187 65.4723C131.539 65.4723 131.818 65.3977 132.025 65.2486C132.233 65.0974 132.338 64.9163 132.338 64.7054C132.338 64.535 132.278 64.3922 132.159 64.2772C132.039 64.16 131.856 64.0727 131.609 64.0152L130.791 63.8235C130.342 63.717 130.011 63.5519 129.801 63.3282C129.592 63.1024 129.487 62.8201 129.487 62.4814C129.487 62.2045 129.565 61.9595 129.721 61.7465C129.878 61.5334 130.092 61.3662 130.363 61.2448C130.636 61.1234 130.944 61.0627 131.29 61.0627C131.775 61.0627 132.157 61.1692 132.434 61.3822C132.713 61.5952 132.911 61.8764 133.028 62.2258ZM136.567 61.1266V61.7656H134.023V61.1266H136.567ZM134.765 59.9507H135.519V64.6287C135.519 64.8417 135.55 65.0015 135.612 65.108C135.675 65.2124 135.756 65.2827 135.854 65.3189C135.955 65.353 136.06 65.37 136.171 65.37C136.254 65.37 136.322 65.3658 136.375 65.3572C136.428 65.3466 136.471 65.3381 136.503 65.3317L136.656 66.0091C136.605 66.0283 136.534 66.0474 136.442 66.0666C136.351 66.0879 136.235 66.0986 136.094 66.0986C135.881 66.0986 135.672 66.0528 135.468 65.9612C135.265 65.8696 135.097 65.73 134.963 65.5426C134.831 65.3551 134.765 65.1187 134.765 64.8332V59.9507ZM139.326 66.1497C139.015 66.1497 138.732 66.0911 138.479 65.974C138.225 65.8547 138.024 65.6832 137.875 65.4595C137.726 65.2337 137.651 64.961 137.651 64.6415C137.651 64.3603 137.707 64.1324 137.817 63.9577C137.928 63.7809 138.076 63.6424 138.262 63.5423C138.447 63.4422 138.651 63.3676 138.875 63.3186C139.101 63.2675 139.328 63.227 139.556 63.1972C139.854 63.1588 140.096 63.1301 140.281 63.1109C140.468 63.0896 140.605 63.0544 140.69 63.0055C140.777 62.9565 140.821 62.8712 140.821 62.7498V62.7243C140.821 62.409 140.735 62.164 140.562 61.9893C140.392 61.8146 140.133 61.7273 139.786 61.7273C139.426 61.7273 139.143 61.8061 138.939 61.9638C138.734 62.1214 138.591 62.2897 138.508 62.4686L137.792 62.213C137.92 61.9148 138.09 61.6826 138.303 61.5164C138.518 61.3481 138.753 61.231 139.006 61.1649C139.262 61.0967 139.513 61.0627 139.76 61.0627C139.918 61.0627 140.099 61.0818 140.303 61.1202C140.51 61.1564 140.709 61.232 140.901 61.3471C141.095 61.4621 141.256 61.6357 141.383 61.8679C141.511 62.1001 141.575 62.4111 141.575 62.8009V66.0347H140.821V65.37H140.783C140.732 65.4765 140.646 65.5905 140.527 65.7119C140.408 65.8334 140.249 65.9367 140.051 66.0219C139.853 66.1071 139.611 66.1497 139.326 66.1497ZM139.441 65.4723C139.739 65.4723 139.99 65.4137 140.195 65.2965C140.401 65.1794 140.557 65.0281 140.661 64.8428C140.768 64.6575 140.821 64.4625 140.821 64.258V63.5678C140.789 63.6062 140.719 63.6413 140.61 63.6733C140.504 63.7031 140.38 63.7297 140.239 63.7532C140.101 63.7745 139.966 63.7936 139.834 63.8107C139.704 63.8256 139.598 63.8384 139.517 63.849C139.321 63.8746 139.138 63.9161 138.968 63.9737C138.799 64.029 138.663 64.1132 138.559 64.2261C138.456 64.3369 138.405 64.4881 138.405 64.6798C138.405 64.9418 138.502 65.14 138.696 65.2742C138.892 65.4062 139.14 65.4723 139.441 65.4723ZM143.886 63.0821V66.0347H143.132V61.1266H143.86V61.8935H143.924C144.039 61.6442 144.214 61.444 144.448 61.2927C144.682 61.1394 144.985 61.0627 145.355 61.0627C145.688 61.0627 145.979 61.1308 146.228 61.2672C146.477 61.4014 146.671 61.6059 146.809 61.8807C146.948 62.1534 147.017 62.4985 147.017 62.916V66.0347H146.263V62.9671C146.263 62.5815 146.163 62.2812 145.963 62.066C145.762 61.8487 145.488 61.7401 145.138 61.7401C144.897 61.7401 144.682 61.7923 144.493 61.8967C144.305 62.001 144.157 62.1534 144.049 62.3536C143.94 62.5538 143.886 62.7967 143.886 63.0821ZM150.71 61.1266V61.7656H148.166V61.1266H150.71ZM148.907 59.9507H149.661V64.6287C149.661 64.8417 149.692 65.0015 149.754 65.108C149.818 65.2124 149.899 65.2827 149.997 65.3189C150.097 65.353 150.203 65.37 150.313 65.37C150.396 65.37 150.465 65.3658 150.518 65.3572C150.571 65.3466 150.614 65.3381 150.646 65.3317L150.799 66.0091C150.748 66.0283 150.677 66.0474 150.585 66.0666C150.493 66.0879 150.377 66.0986 150.237 66.0986C150.024 66.0986 149.815 66.0528 149.61 65.9612C149.408 65.8696 149.24 65.73 149.105 65.5426C148.973 65.3551 148.907 65.1187 148.907 64.8332V59.9507Z" fill="#0A0A0A"/>
<path d="M37.2745 60.1935V59.4905H42.1826V60.1935H40.1248V66.0347H39.3324V60.1935H37.2745ZM42.9737 66.0347V61.1266H43.7023V61.8679H43.7534C43.8429 61.625 44.0048 61.428 44.2391 61.2768C44.4734 61.1255 44.7376 61.0499 45.0315 61.0499C45.0869 61.0499 45.1562 61.0509 45.2392 61.0531C45.3223 61.0552 45.3852 61.0584 45.4278 61.0627V61.8296C45.4022 61.8232 45.3436 61.8136 45.252 61.8008C45.1625 61.7859 45.0677 61.7784 44.9676 61.7784C44.729 61.7784 44.516 61.8285 44.3286 61.9286C44.1432 62.0266 43.9962 62.1629 43.8876 62.3376C43.7811 62.5102 43.7278 62.7072 43.7278 62.9288V66.0347H42.9737ZM47.9459 66.1497C47.6349 66.1497 47.3527 66.0911 47.0992 65.974C46.8457 65.8547 46.6444 65.6832 46.4952 65.4595C46.3461 65.2337 46.2716 64.961 46.2716 64.6415C46.2716 64.3603 46.327 64.1324 46.4377 63.9577C46.5485 63.7809 46.6965 63.6424 46.8819 63.5423C47.0672 63.4422 47.2717 63.3676 47.4954 63.3186C47.7212 63.2675 47.9481 63.227 48.176 63.1972C48.4742 63.1588 48.716 63.1301 48.9014 63.1109C49.0888 63.0896 49.2252 63.0544 49.3104 63.0055C49.3977 62.9565 49.4414 62.8712 49.4414 62.7498V62.7243C49.4414 62.409 49.3551 62.164 49.1826 61.9893C49.0121 61.8146 48.7533 61.7273 48.4061 61.7273C48.0461 61.7273 47.7638 61.8061 47.5593 61.9638C47.3548 62.1214 47.211 62.2897 47.1279 62.4686L46.4122 62.213C46.54 61.9148 46.7104 61.6826 46.9234 61.5164C47.1386 61.3481 47.3729 61.231 47.6264 61.1649C47.882 61.0967 48.1334 61.0627 48.3805 61.0627C48.5382 61.0627 48.7192 61.0818 48.9237 61.1202C49.1304 61.1564 49.3295 61.232 49.5213 61.3471C49.7151 61.4621 49.8759 61.6357 50.0038 61.8679C50.1316 62.1001 50.1955 62.4111 50.1955 62.8009V66.0347H49.4414V65.37H49.403C49.3519 65.4765 49.2667 65.5905 49.1474 65.7119C49.0281 65.8334 48.8694 65.9367 48.6713 66.0219C48.4732 66.1071 48.2314 66.1497 47.9459 66.1497ZM48.061 65.4723C48.3592 65.4723 48.6106 65.4137 48.8151 65.2965C49.0217 65.1794 49.1772 65.0281 49.2816 64.8428C49.3881 64.6575 49.4414 64.4625 49.4414 64.258V63.5678C49.4094 63.6062 49.3391 63.6413 49.2305 63.6733C49.124 63.7031 49.0004 63.7297 48.8598 63.7532C48.7214 63.7745 48.5861 63.7936 48.454 63.8107C48.3241 63.8256 48.2186 63.8384 48.1377 63.849C47.9417 63.8746 47.7585 63.9161 47.5881 63.9737C47.4198 64.029 47.2834 64.1132 47.1791 64.2261C47.0768 64.3369 47.0257 64.4881 47.0257 64.6798C47.0257 64.9418 47.1226 65.14 47.3165 65.2742C47.5124 65.4062 47.7606 65.4723 48.061 65.4723ZM53.6052 66.1369C53.1962 66.1369 52.8351 66.0336 52.5219 65.827C52.2088 65.6182 51.9638 65.3242 51.787 64.945C51.6102 64.5637 51.5218 64.1132 51.5218 63.5934C51.5218 63.0779 51.6102 62.6305 51.787 62.2513C51.9638 61.8722 52.2099 61.5792 52.5251 61.3726C52.8404 61.166 53.2047 61.0627 53.618 61.0627C53.9375 61.0627 54.1899 61.1159 54.3753 61.2224C54.5627 61.3268 54.7054 61.4461 54.8034 61.5803C54.9036 61.7124 54.9813 61.821 55.0367 61.9062H55.1006V59.4905H55.8547V66.0347H55.1262V65.2806H55.0367C54.9813 65.37 54.9025 65.4829 54.8002 65.6193C54.698 65.7535 54.5521 65.8738 54.3625 65.9803C54.1729 66.0847 53.9205 66.1369 53.6052 66.1369ZM53.7074 65.4595C54.0099 65.4595 54.2656 65.3807 54.4743 65.223C54.6831 65.0633 54.8418 64.8428 54.9504 64.5616C55.0591 64.2783 55.1134 63.9513 55.1134 63.5806C55.1134 63.2142 55.0601 62.8936 54.9536 62.6188C54.8471 62.3419 54.6895 62.1267 54.4807 61.9733C54.2719 61.8178 54.0142 61.7401 53.7074 61.7401C53.3879 61.7401 53.1216 61.8221 52.9086 61.9861C52.6977 62.148 52.539 62.3685 52.4325 62.6476C52.3281 62.9245 52.2759 63.2355 52.2759 63.5806C52.2759 63.93 52.3292 64.2474 52.4357 64.5328C52.5443 64.8162 52.7041 65.042 52.915 65.2103C53.128 65.3764 53.3921 65.4595 53.7074 65.4595ZM59.5784 66.1369C59.1054 66.1369 58.6975 66.0325 58.3545 65.8238C58.0137 65.6129 57.7506 65.3189 57.5653 64.9418C57.3821 64.5627 57.2905 64.1217 57.2905 63.619C57.2905 63.1162 57.3821 62.6731 57.5653 62.2897C57.7506 61.9041 58.0084 61.6037 58.3385 61.3886C58.6709 61.1713 59.0586 61.0627 59.5017 61.0627C59.7573 61.0627 60.0097 61.1053 60.259 61.1905C60.5082 61.2757 60.7351 61.4142 60.9396 61.6059C61.1441 61.7955 61.3071 62.0468 61.4285 62.36C61.5499 62.6731 61.6106 63.0587 61.6106 63.5167V63.8362H57.8273V63.1844H60.8437C60.8437 62.9075 60.7883 62.6604 60.6776 62.4431C60.5689 62.2258 60.4134 62.0543 60.211 61.9286C60.0108 61.8029 59.7743 61.7401 59.5017 61.7401C59.2013 61.7401 58.9414 61.8146 58.722 61.9638C58.5047 62.1107 58.3375 62.3025 58.2203 62.5389C58.1032 62.7754 58.0446 63.0289 58.0446 63.2994V63.734C58.0446 64.1047 58.1085 64.4189 58.2363 64.6766C58.3662 64.9323 58.5462 65.1272 58.7763 65.2614C59.0064 65.3935 59.2737 65.4595 59.5784 65.4595C59.7765 65.4595 59.9554 65.4318 60.1152 65.3764C60.2771 65.3189 60.4166 65.2337 60.5338 65.1208C60.6509 65.0058 60.7415 64.863 60.8054 64.6926L61.5339 64.8971C61.4572 65.1442 61.3284 65.3615 61.1473 65.549C60.9662 65.7343 60.7425 65.8792 60.4763 65.9835C60.21 66.0858 59.9107 66.1369 59.5784 66.1369ZM67.7829 61.1266V61.7656H65.2394V61.1266H67.7829ZM65.9807 59.9507H66.7348V64.6287C66.7348 64.8417 66.7657 65.0015 66.8275 65.108C66.8914 65.2124 66.9724 65.2827 67.0704 65.3189C67.1705 65.353 67.2759 65.37 67.3867 65.37C67.4698 65.37 67.5379 65.3658 67.5912 65.3572C67.6445 65.3466 67.6871 65.3381 67.719 65.3317L67.8724 66.0091C67.8213 66.0283 67.7499 66.0474 67.6583 66.0666C67.5667 66.0879 67.4506 66.0986 67.31 66.0986C67.097 66.0986 66.8882 66.0528 66.6837 65.9612C66.4813 65.8696 66.3131 65.73 66.1788 65.5426C66.0468 65.3551 65.9807 65.1187 65.9807 64.8332V59.9507ZM71.0384 66.1369C70.5953 66.1369 70.2066 66.0315 69.8721 65.8206C69.5398 65.6097 69.2799 65.3146 69.0925 64.9355C68.9071 64.5563 68.8145 64.1132 68.8145 63.6062C68.8145 63.0949 68.9071 62.6486 69.0925 62.2673C69.2799 61.886 69.5398 61.5899 69.8721 61.379C70.2066 61.1681 70.5953 61.0627 71.0384 61.0627C71.4815 61.0627 71.8692 61.1681 72.2016 61.379C72.536 61.5899 72.7959 61.886 72.9812 62.2673C73.1687 62.6486 73.2624 63.0949 73.2624 63.6062C73.2624 64.1132 73.1687 64.5563 72.9812 64.9355C72.7959 65.3146 72.536 65.6097 72.2016 65.8206C71.8692 66.0315 71.4815 66.1369 71.0384 66.1369ZM71.0384 65.4595C71.375 65.4595 71.652 65.3732 71.8692 65.2007C72.0865 65.0281 72.2474 64.8013 72.3517 64.5201C72.4561 64.2389 72.5083 63.9342 72.5083 63.6062C72.5083 63.2781 72.4561 62.9724 72.3517 62.6891C72.2474 62.4058 72.0865 62.1768 71.8692 62.0021C71.652 61.8274 71.375 61.7401 71.0384 61.7401C70.7019 61.7401 70.4249 61.8274 70.2076 62.0021C69.9904 62.1768 69.8295 62.4058 69.7251 62.6891C69.6208 62.9724 69.5686 63.2781 69.5686 63.6062C69.5686 63.9342 69.6208 64.2389 69.7251 64.5201C69.8295 64.8013 69.9904 65.0281 70.2076 65.2007C70.4249 65.3732 70.7019 65.4595 71.0384 65.4595ZM75.2965 64.2453L75.2837 63.3122H75.4371L77.5844 61.1266H78.5174L76.2296 63.44H76.1656L75.2965 64.2453ZM74.5935 66.0347V59.4905H75.3476V66.0347H74.5935ZM77.7122 66.0347L75.795 63.6062L76.3318 63.0821L78.6708 66.0347H77.7122ZM81.5237 66.1369C81.0508 66.1369 80.6429 66.0325 80.2999 65.8238C79.959 65.6129 79.696 65.3189 79.5106 64.9418C79.3274 64.5627 79.2358 64.1217 79.2358 63.619C79.2358 63.1162 79.3274 62.6731 79.5106 62.2897C79.696 61.9041 79.9537 61.6037 80.2839 61.3886C80.6162 61.1713 81.0039 61.0627 81.447 61.0627C81.7027 61.0627 81.9551 61.1053 82.2043 61.1905C82.4536 61.2757 82.6804 61.4142 82.8849 61.6059C83.0894 61.7955 83.2524 62.0468 83.3738 62.36C83.4953 62.6731 83.556 63.0587 83.556 63.5167V63.8362H79.7726V63.1844H82.7891C82.7891 62.9075 82.7337 62.6604 82.6229 62.4431C82.5143 62.2258 82.3588 62.0543 82.1564 61.9286C81.9562 61.8029 81.7197 61.7401 81.447 61.7401C81.1467 61.7401 80.8868 61.8146 80.6674 61.9638C80.4501 62.1107 80.2828 62.3025 80.1657 62.5389C80.0485 62.7754 79.9899 63.0289 79.9899 63.2994V63.734C79.9899 64.1047 80.0538 64.4189 80.1817 64.6766C80.3116 64.9323 80.4916 65.1272 80.7217 65.2614C80.9517 65.3935 81.2191 65.4595 81.5237 65.4595C81.7218 65.4595 81.9008 65.4318 82.0605 65.3764C82.2224 65.3189 82.362 65.2337 82.4791 65.1208C82.5963 65.0058 82.6868 64.863 82.7507 64.6926L83.4793 64.8971C83.4026 65.1442 83.2737 65.3615 83.0926 65.549C82.9116 65.7343 82.6879 65.8792 82.4216 65.9835C82.1553 66.0858 81.856 66.1369 81.5237 66.1369ZM85.6372 63.0821V66.0347H84.8831V61.1266H85.6116V61.8935H85.6755C85.7906 61.6442 85.9652 61.444 86.1996 61.2927C86.4339 61.1394 86.7364 61.0627 87.1071 61.0627C87.4394 61.0627 87.7302 61.1308 87.9794 61.2672C88.2286 61.4014 88.4225 61.6059 88.561 61.8807C88.6994 62.1534 88.7687 62.4985 88.7687 62.916V66.0347H88.0145V62.9671C88.0145 62.5815 87.9144 62.2812 87.7142 62.066C87.5139 61.8487 87.2391 61.7401 86.8898 61.7401C86.6491 61.7401 86.4339 61.7923 86.2443 61.8967C86.0568 62.001 85.9088 62.1534 85.8001 62.3536C85.6915 62.5538 85.6372 62.7967 85.6372 63.0821ZM93.8032 62.2258L93.1258 62.4175C93.0832 62.3046 93.0203 62.1949 92.9372 62.0884C92.8563 61.9797 92.7455 61.8903 92.6049 61.82C92.4643 61.7497 92.2843 61.7145 92.0649 61.7145C91.7645 61.7145 91.5142 61.7838 91.314 61.9222C91.1159 62.0586 91.0168 62.2322 91.0168 62.4431C91.0168 62.6305 91.085 62.7786 91.2213 62.8872C91.3577 62.9959 91.5707 63.0864 91.8604 63.1588L92.5889 63.3378C93.0278 63.4443 93.3548 63.6072 93.5699 63.8267C93.7851 64.0439 93.8927 64.3241 93.8927 64.667C93.8927 64.9482 93.8117 65.1996 93.6498 65.4212C93.49 65.6427 93.2664 65.8174 92.9788 65.9452C92.6912 66.073 92.3568 66.1369 91.9754 66.1369C91.4748 66.1369 91.0605 66.0283 90.7324 65.811C90.4044 65.5937 90.1967 65.2763 90.1093 64.8588L90.8251 64.6798C90.8933 64.944 91.0221 65.1421 91.2117 65.2742C91.4035 65.4062 91.6538 65.4723 91.9627 65.4723C92.3141 65.4723 92.5932 65.3977 92.7998 65.2486C93.0086 65.0974 93.113 64.9163 93.113 64.7054C93.113 64.535 93.0533 64.3922 92.934 64.2772C92.8148 64.16 92.6316 64.0727 92.3844 64.0152L91.5664 63.8235C91.1169 63.717 90.7868 63.5519 90.5759 63.3282C90.3671 63.1024 90.2627 62.8201 90.2627 62.4814C90.2627 62.2045 90.3405 61.9595 90.496 61.7465C90.6536 61.5334 90.8677 61.3662 91.1382 61.2448C91.4109 61.1234 91.7198 61.0627 92.0649 61.0627C92.5506 61.0627 92.9319 61.1692 93.2089 61.3822C93.4879 61.5952 93.686 61.8764 93.8032 62.2258ZM97.9185 66.0347V61.1266H98.6726V66.0347H97.9185ZM98.3019 60.3086C98.1549 60.3086 98.0282 60.2585 97.9217 60.1584C97.8173 60.0583 97.7651 59.9379 97.7651 59.7973C97.7651 59.6567 97.8173 59.5363 97.9217 59.4362C98.0282 59.3361 98.1549 59.286 98.3019 59.286C98.4489 59.286 98.5746 59.3361 98.679 59.4362C98.7855 59.5363 98.8387 59.6567 98.8387 59.7973C98.8387 59.9379 98.7855 60.0583 98.679 60.1584C98.5746 60.2585 98.4489 60.3086 98.3019 60.3086ZM100.988 63.0821V66.0347H100.234V61.1266H100.962V61.8935H101.026C101.141 61.6442 101.316 61.444 101.55 61.2927C101.785 61.1394 102.087 61.0627 102.458 61.0627C102.79 61.0627 103.081 61.1308 103.33 61.2672C103.579 61.4014 103.773 61.6059 103.912 61.8807C104.05 62.1534 104.119 62.4985 104.119 62.916V66.0347H103.365V62.9671C103.365 62.5815 103.265 62.2812 103.065 62.066C102.865 61.8487 102.59 61.7401 102.24 61.7401C102 61.7401 101.785 61.7923 101.595 61.8967C101.408 62.001 101.259 62.1534 101.151 62.3536C101.042 62.5538 100.988 62.7967 100.988 63.0821ZM109.832 66.1497C109.521 66.1497 109.239 66.0911 108.986 65.974C108.732 65.8547 108.531 65.6832 108.382 65.4595C108.232 65.2337 108.158 64.961 108.158 64.6415C108.158 64.3603 108.213 64.1324 108.324 63.9577C108.435 63.7809 108.583 63.6424 108.768 63.5423C108.954 63.4422 109.158 63.3676 109.382 63.3186C109.608 63.2675 109.834 63.227 110.062 63.1972C110.361 63.1588 110.602 63.1301 110.788 63.1109C110.975 63.0896 111.112 63.0544 111.197 63.0055C111.284 62.9565 111.328 62.8712 111.328 62.7498V62.7243C111.328 62.409 111.241 62.164 111.069 61.9893C110.899 61.8146 110.64 61.7273 110.292 61.7273C109.932 61.7273 109.65 61.8061 109.446 61.9638C109.241 62.1214 109.097 62.2897 109.014 62.4686L108.299 62.213C108.426 61.9148 108.597 61.6826 108.81 61.5164C109.025 61.3481 109.259 61.231 109.513 61.1649C109.768 61.0967 110.02 61.0627 110.267 61.0627C110.425 61.0627 110.606 61.0818 110.81 61.1202C111.017 61.1564 111.216 61.232 111.408 61.3471C111.601 61.4621 111.762 61.6357 111.89 61.8679C112.018 62.1001 112.082 62.4111 112.082 62.8009V66.0347H111.328V65.37H111.289C111.238 65.4765 111.153 65.5905 111.034 65.7119C110.914 65.8334 110.756 65.9367 110.558 66.0219C110.36 66.1071 110.118 66.1497 109.832 66.1497ZM109.947 65.4723C110.246 65.4723 110.497 65.4137 110.701 65.2965C110.908 65.1794 111.064 65.0281 111.168 64.8428C111.274 64.6575 111.328 64.4625 111.328 64.258V63.5678C111.296 63.6062 111.225 63.6413 111.117 63.6733C111.01 63.7031 110.887 63.7297 110.746 63.7532C110.608 63.7745 110.472 63.7936 110.34 63.8107C110.21 63.8256 110.105 63.8384 110.024 63.849C109.828 63.8746 109.645 63.9161 109.474 63.9737C109.306 64.029 109.17 64.1132 109.065 64.2261C108.963 64.3369 108.912 64.4881 108.912 64.6798C108.912 64.9418 109.009 65.14 109.203 65.2742C109.399 65.4062 109.647 65.4723 109.947 65.4723ZM114.392 63.0821V66.0347H113.638V61.1266H114.367V61.8935H114.431C114.546 61.6442 114.72 61.444 114.955 61.2927C115.189 61.1394 115.492 61.0627 115.862 61.0627C116.195 61.0627 116.485 61.1308 116.735 61.2672C116.984 61.4014 117.178 61.6059 117.316 61.8807C117.455 62.1534 117.524 62.4985 117.524 62.916V66.0347H116.77V62.9671C116.77 62.5815 116.67 62.2812 116.469 62.066C116.269 61.8487 115.994 61.7401 115.645 61.7401C115.404 61.7401 115.189 61.7923 114.999 61.8967C114.812 62.001 114.664 62.1534 114.555 62.3536C114.447 62.5538 114.392 62.7967 114.392 63.0821ZM121.792 66.0347V61.1266H122.547V66.0347H121.792ZM122.176 60.3086C122.029 60.3086 121.902 60.2585 121.796 60.1584C121.691 60.0583 121.639 59.9379 121.639 59.7973C121.639 59.6567 121.691 59.5363 121.796 59.4362C121.902 59.3361 122.029 59.286 122.176 59.286C122.323 59.286 122.449 59.3361 122.553 59.4362C122.659 59.5363 122.713 59.6567 122.713 59.7973C122.713 59.9379 122.659 60.0583 122.553 60.1584C122.449 60.2585 122.323 60.3086 122.176 60.3086ZM124.862 63.0821V66.0347H124.108V61.1266H124.836V61.8935H124.9C125.015 61.6442 125.19 61.444 125.424 61.2927C125.659 61.1394 125.961 61.0627 126.332 61.0627C126.664 61.0627 126.955 61.1308 127.204 61.2672C127.453 61.4014 127.647 61.6059 127.786 61.8807C127.924 62.1534 127.993 62.4985 127.993 62.916V66.0347H127.239V62.9671C127.239 62.5815 127.139 62.2812 126.939 62.066C126.739 61.8487 126.464 61.7401 126.114 61.7401C125.874 61.7401 125.659 61.7923 125.469 61.8967C125.282 62.001 125.133 62.1534 125.025 62.3536C124.916 62.5538 124.862 62.7967 124.862 63.0821ZM133.028 62.2258L132.35 62.4175C132.308 62.3046 132.245 62.1949 132.162 62.0884C132.081 61.9797 131.97 61.8903 131.83 61.82C131.689 61.7497 131.509 61.7145 131.29 61.7145C130.989 61.7145 130.739 61.7838 130.539 61.9222C130.341 62.0586 130.241 62.2322 130.241 62.4431C130.241 62.6305 130.31 62.7786 130.446 62.8872C130.582 62.9959 130.795 63.0864 131.085 63.1588L131.814 63.3378C132.252 63.4443 132.579 63.6072 132.795 63.8267C133.01 64.0439 133.117 64.3241 133.117 64.667C133.117 64.9482 133.036 65.1996 132.874 65.4212C132.715 65.6427 132.491 65.8174 132.203 65.9452C131.916 66.073 131.581 66.1369 131.2 66.1369C130.699 66.1369 130.285 66.0283 129.957 65.811C129.629 65.5937 129.421 65.2763 129.334 64.8588L130.05 64.6798C130.118 64.944 130.247 65.1421 130.436 65.2742C130.628 65.4062 130.878 65.4723 131.187 65.4723C131.539 65.4723 131.818 65.3977 132.025 65.2486C132.233 65.0974 132.338 64.9163 132.338 64.7054C132.338 64.535 132.278 64.3922 132.159 64.2772C132.039 64.16 131.856 64.0727 131.609 64.0152L130.791 63.8235C130.342 63.717 130.011 63.5519 129.801 63.3282C129.592 63.1024 129.487 62.8201 129.487 62.4814C129.487 62.2045 129.565 61.9595 129.721 61.7465C129.878 61.5334 130.092 61.3662 130.363 61.2448C130.636 61.1234 130.944 61.0627 131.29 61.0627C131.775 61.0627 132.157 61.1692 132.434 61.3822C132.713 61.5952 132.911 61.8764 133.028 62.2258ZM136.567 61.1266V61.7656H134.023V61.1266H136.567ZM134.765 59.9507H135.519V64.6287C135.519 64.8417 135.55 65.0015 135.612 65.108C135.675 65.2124 135.756 65.2827 135.854 65.3189C135.955 65.353 136.06 65.37 136.171 65.37C136.254 65.37 136.322 65.3658 136.375 65.3572C136.428 65.3466 136.471 65.3381 136.503 65.3317L136.656 66.0091C136.605 66.0283 136.534 66.0474 136.442 66.0666C136.351 66.0879 136.235 66.0986 136.094 66.0986C135.881 66.0986 135.672 66.0528 135.468 65.9612C135.265 65.8696 135.097 65.73 134.963 65.5426C134.831 65.3551 134.765 65.1187 134.765 64.8332V59.9507ZM139.326 66.1497C139.015 66.1497 138.732 66.0911 138.479 65.974C138.225 65.8547 138.024 65.6832 137.875 65.4595C137.726 65.2337 137.651 64.961 137.651 64.6415C137.651 64.3603 137.707 64.1324 137.817 63.9577C137.928 63.7809 138.076 63.6424 138.262 63.5423C138.447 63.4422 138.651 63.3676 138.875 63.3186C139.101 63.2675 139.328 63.227 139.556 63.1972C139.854 63.1588 140.096 63.1301 140.281 63.1109C140.468 63.0896 140.605 63.0544 140.69 63.0055C140.777 62.9565 140.821 62.8712 140.821 62.7498V62.7243C140.821 62.409 140.735 62.164 140.562 61.9893C140.392 61.8146 140.133 61.7273 139.786 61.7273C139.426 61.7273 139.143 61.8061 138.939 61.9638C138.734 62.1214 138.591 62.2897 138.508 62.4686L137.792 62.213C137.92 61.9148 138.09 61.6826 138.303 61.5164C138.518 61.3481 138.753 61.231 139.006 61.1649C139.262 61.0967 139.513 61.0627 139.76 61.0627C139.918 61.0627 140.099 61.0818 140.303 61.1202C140.51 61.1564 140.709 61.232 140.901 61.3471C141.095 61.4621 141.256 61.6357 141.383 61.8679C141.511 62.1001 141.575 62.4111 141.575 62.8009V66.0347H140.821V65.37H140.783C140.732 65.4765 140.646 65.5905 140.527 65.7119C140.408 65.8334 140.249 65.9367 140.051 66.0219C139.853 66.1071 139.611 66.1497 139.326 66.1497ZM139.441 65.4723C139.739 65.4723 139.99 65.4137 140.195 65.2965C140.401 65.1794 140.557 65.0281 140.661 64.8428C140.768 64.6575 140.821 64.4625 140.821 64.258V63.5678C140.789 63.6062 140.719 63.6413 140.61 63.6733C140.504 63.7031 140.38 63.7297 140.239 63.7532C140.101 63.7745 139.966 63.7936 139.834 63.8107C139.704 63.8256 139.598 63.8384 139.517 63.849C139.321 63.8746 139.138 63.9161 138.968 63.9737C138.799 64.029 138.663 64.1132 138.559 64.2261C138.456 64.3369 138.405 64.4881 138.405 64.6798C138.405 64.9418 138.502 65.14 138.696 65.2742C138.892 65.4062 139.14 65.4723 139.441 65.4723ZM143.886 63.0821V66.0347H143.132V61.1266H143.86V61.8935H143.924C144.039 61.6442 144.214 61.444 144.448 61.2927C144.682 61.1394 144.985 61.0627 145.355 61.0627C145.688 61.0627 145.979 61.1308 146.228 61.2672C146.477 61.4014 146.671 61.6059 146.809 61.8807C146.948 62.1534 147.017 62.4985 147.017 62.916V66.0347H146.263V62.9671C146.263 62.5815 146.163 62.2812 145.963 62.066C145.762 61.8487 145.488 61.7401 145.138 61.7401C144.897 61.7401 144.682 61.7923 144.493 61.8967C144.305 62.001 144.157 62.1534 144.049 62.3536C143.94 62.5538 143.886 62.7967 143.886 63.0821ZM150.71 61.1266V61.7656H148.166V61.1266H150.71ZM148.907 59.9507H149.661V64.6287C149.661 64.8417 149.692 65.0015 149.754 65.108C149.818 65.2124 149.899 65.2827 149.997 65.3189C150.097 65.353 150.203 65.37 150.313 65.37C150.396 65.37 150.465 65.3658 150.518 65.3572C150.571 65.3466 150.614 65.3381 150.646 65.3317L150.799 66.0091C150.748 66.0283 150.677 66.0474 150.585 66.0666C150.493 66.0879 150.377 66.0986 150.237 66.0986C150.024 66.0986 149.815 66.0528 149.61 65.9612C149.408 65.8696 149.24 65.73 149.105 65.5426C148.973 65.3551 148.907 65.1187 148.907 64.8332V59.9507Z" fill="#0A1339" fill-opacity="0.12"/>
<path d="M37.2745 60.1935V59.4905H42.1826V60.1935H40.1248V66.0347H39.3324V60.1935H37.2745ZM42.9737 66.0347V61.1266H43.7023V61.8679H43.7534C43.8429 61.625 44.0048 61.428 44.2391 61.2768C44.4734 61.1255 44.7376 61.0499 45.0315 61.0499C45.0869 61.0499 45.1562 61.0509 45.2392 61.0531C45.3223 61.0552 45.3852 61.0584 45.4278 61.0627V61.8296C45.4022 61.8232 45.3436 61.8136 45.252 61.8008C45.1625 61.7859 45.0677 61.7784 44.9676 61.7784C44.729 61.7784 44.516 61.8285 44.3286 61.9286C44.1432 62.0266 43.9962 62.1629 43.8876 62.3376C43.7811 62.5102 43.7278 62.7072 43.7278 62.9288V66.0347H42.9737ZM47.9459 66.1497C47.6349 66.1497 47.3527 66.0911 47.0992 65.974C46.8457 65.8547 46.6444 65.6832 46.4952 65.4595C46.3461 65.2337 46.2716 64.961 46.2716 64.6415C46.2716 64.3603 46.327 64.1324 46.4377 63.9577C46.5485 63.7809 46.6965 63.6424 46.8819 63.5423C47.0672 63.4422 47.2717 63.3676 47.4954 63.3186C47.7212 63.2675 47.9481 63.227 48.176 63.1972C48.4742 63.1588 48.716 63.1301 48.9014 63.1109C49.0888 63.0896 49.2252 63.0544 49.3104 63.0055C49.3977 62.9565 49.4414 62.8712 49.4414 62.7498V62.7243C49.4414 62.409 49.3551 62.164 49.1826 61.9893C49.0121 61.8146 48.7533 61.7273 48.4061 61.7273C48.0461 61.7273 47.7638 61.8061 47.5593 61.9638C47.3548 62.1214 47.211 62.2897 47.1279 62.4686L46.4122 62.213C46.54 61.9148 46.7104 61.6826 46.9234 61.5164C47.1386 61.3481 47.3729 61.231 47.6264 61.1649C47.882 61.0967 48.1334 61.0627 48.3805 61.0627C48.5382 61.0627 48.7192 61.0818 48.9237 61.1202C49.1304 61.1564 49.3295 61.232 49.5213 61.3471C49.7151 61.4621 49.8759 61.6357 50.0038 61.8679C50.1316 62.1001 50.1955 62.4111 50.1955 62.8009V66.0347H49.4414V65.37H49.403C49.3519 65.4765 49.2667 65.5905 49.1474 65.7119C49.0281 65.8334 48.8694 65.9367 48.6713 66.0219C48.4732 66.1071 48.2314 66.1497 47.9459 66.1497ZM48.061 65.4723C48.3592 65.4723 48.6106 65.4137 48.8151 65.2965C49.0217 65.1794 49.1772 65.0281 49.2816 64.8428C49.3881 64.6575 49.4414 64.4625 49.4414 64.258V63.5678C49.4094 63.6062 49.3391 63.6413 49.2305 63.6733C49.124 63.7031 49.0004 63.7297 48.8598 63.7532C48.7214 63.7745 48.5861 63.7936 48.454 63.8107C48.3241 63.8256 48.2186 63.8384 48.1377 63.849C47.9417 63.8746 47.7585 63.9161 47.5881 63.9737C47.4198 64.029 47.2834 64.1132 47.1791 64.2261C47.0768 64.3369 47.0257 64.4881 47.0257 64.6798C47.0257 64.9418 47.1226 65.14 47.3165 65.2742C47.5124 65.4062 47.7606 65.4723 48.061 65.4723ZM53.6052 66.1369C53.1962 66.1369 52.8351 66.0336 52.5219 65.827C52.2088 65.6182 51.9638 65.3242 51.787 64.945C51.6102 64.5637 51.5218 64.1132 51.5218 63.5934C51.5218 63.0779 51.6102 62.6305 51.787 62.2513C51.9638 61.8722 52.2099 61.5792 52.5251 61.3726C52.8404 61.166 53.2047 61.0627 53.618 61.0627C53.9375 61.0627 54.1899 61.1159 54.3753 61.2224C54.5627 61.3268 54.7054 61.4461 54.8034 61.5803C54.9036 61.7124 54.9813 61.821 55.0367 61.9062H55.1006V59.4905H55.8547V66.0347H55.1262V65.2806H55.0367C54.9813 65.37 54.9025 65.4829 54.8002 65.6193C54.698 65.7535 54.5521 65.8738 54.3625 65.9803C54.1729 66.0847 53.9205 66.1369 53.6052 66.1369ZM53.7074 65.4595C54.0099 65.4595 54.2656 65.3807 54.4743 65.223C54.6831 65.0633 54.8418 64.8428 54.9504 64.5616C55.0591 64.2783 55.1134 63.9513 55.1134 63.5806C55.1134 63.2142 55.0601 62.8936 54.9536 62.6188C54.8471 62.3419 54.6895 62.1267 54.4807 61.9733C54.2719 61.8178 54.0142 61.7401 53.7074 61.7401C53.3879 61.7401 53.1216 61.8221 52.9086 61.9861C52.6977 62.148 52.539 62.3685 52.4325 62.6476C52.3281 62.9245 52.2759 63.2355 52.2759 63.5806C52.2759 63.93 52.3292 64.2474 52.4357 64.5328C52.5443 64.8162 52.7041 65.042 52.915 65.2103C53.128 65.3764 53.3921 65.4595 53.7074 65.4595ZM59.5784 66.1369C59.1054 66.1369 58.6975 66.0325 58.3545 65.8238C58.0137 65.6129 57.7506 65.3189 57.5653 64.9418C57.3821 64.5627 57.2905 64.1217 57.2905 63.619C57.2905 63.1162 57.3821 62.6731 57.5653 62.2897C57.7506 61.9041 58.0084 61.6037 58.3385 61.3886C58.6709 61.1713 59.0586 61.0627 59.5017 61.0627C59.7573 61.0627 60.0097 61.1053 60.259 61.1905C60.5082 61.2757 60.7351 61.4142 60.9396 61.6059C61.1441 61.7955 61.3071 62.0468 61.4285 62.36C61.5499 62.6731 61.6106 63.0587 61.6106 63.5167V63.8362H57.8273V63.1844H60.8437C60.8437 62.9075 60.7883 62.6604 60.6776 62.4431C60.5689 62.2258 60.4134 62.0543 60.211 61.9286C60.0108 61.8029 59.7743 61.7401 59.5017 61.7401C59.2013 61.7401 58.9414 61.8146 58.722 61.9638C58.5047 62.1107 58.3375 62.3025 58.2203 62.5389C58.1032 62.7754 58.0446 63.0289 58.0446 63.2994V63.734C58.0446 64.1047 58.1085 64.4189 58.2363 64.6766C58.3662 64.9323 58.5462 65.1272 58.7763 65.2614C59.0064 65.3935 59.2737 65.4595 59.5784 65.4595C59.7765 65.4595 59.9554 65.4318 60.1152 65.3764C60.2771 65.3189 60.4166 65.2337 60.5338 65.1208C60.6509 65.0058 60.7415 64.863 60.8054 64.6926L61.5339 64.8971C61.4572 65.1442 61.3284 65.3615 61.1473 65.549C60.9662 65.7343 60.7425 65.8792 60.4763 65.9835C60.21 66.0858 59.9107 66.1369 59.5784 66.1369ZM67.7829 61.1266V61.7656H65.2394V61.1266H67.7829ZM65.9807 59.9507H66.7348V64.6287C66.7348 64.8417 66.7657 65.0015 66.8275 65.108C66.8914 65.2124 66.9724 65.2827 67.0704 65.3189C67.1705 65.353 67.2759 65.37 67.3867 65.37C67.4698 65.37 67.5379 65.3658 67.5912 65.3572C67.6445 65.3466 67.6871 65.3381 67.719 65.3317L67.8724 66.0091C67.8213 66.0283 67.7499 66.0474 67.6583 66.0666C67.5667 66.0879 67.4506 66.0986 67.31 66.0986C67.097 66.0986 66.8882 66.0528 66.6837 65.9612C66.4813 65.8696 66.3131 65.73 66.1788 65.5426C66.0468 65.3551 65.9807 65.1187 65.9807 64.8332V59.9507ZM71.0384 66.1369C70.5953 66.1369 70.2066 66.0315 69.8721 65.8206C69.5398 65.6097 69.2799 65.3146 69.0925 64.9355C68.9071 64.5563 68.8145 64.1132 68.8145 63.6062C68.8145 63.0949 68.9071 62.6486 69.0925 62.2673C69.2799 61.886 69.5398 61.5899 69.8721 61.379C70.2066 61.1681 70.5953 61.0627 71.0384 61.0627C71.4815 61.0627 71.8692 61.1681 72.2016 61.379C72.536 61.5899 72.7959 61.886 72.9812 62.2673C73.1687 62.6486 73.2624 63.0949 73.2624 63.6062C73.2624 64.1132 73.1687 64.5563 72.9812 64.9355C72.7959 65.3146 72.536 65.6097 72.2016 65.8206C71.8692 66.0315 71.4815 66.1369 71.0384 66.1369ZM71.0384 65.4595C71.375 65.4595 71.652 65.3732 71.8692 65.2007C72.0865 65.0281 72.2474 64.8013 72.3517 64.5201C72.4561 64.2389 72.5083 63.9342 72.5083 63.6062C72.5083 63.2781 72.4561 62.9724 72.3517 62.6891C72.2474 62.4058 72.0865 62.1768 71.8692 62.0021C71.652 61.8274 71.375 61.7401 71.0384 61.7401C70.7019 61.7401 70.4249 61.8274 70.2076 62.0021C69.9904 62.1768 69.8295 62.4058 69.7251 62.6891C69.6208 62.9724 69.5686 63.2781 69.5686 63.6062C69.5686 63.9342 69.6208 64.2389 69.7251 64.5201C69.8295 64.8013 69.9904 65.0281 70.2076 65.2007C70.4249 65.3732 70.7019 65.4595 71.0384 65.4595ZM75.2965 64.2453L75.2837 63.3122H75.4371L77.5844 61.1266H78.5174L76.2296 63.44H76.1656L75.2965 64.2453ZM74.5935 66.0347V59.4905H75.3476V66.0347H74.5935ZM77.7122 66.0347L75.795 63.6062L76.3318 63.0821L78.6708 66.0347H77.7122ZM81.5237 66.1369C81.0508 66.1369 80.6429 66.0325 80.2999 65.8238C79.959 65.6129 79.696 65.3189 79.5106 64.9418C79.3274 64.5627 79.2358 64.1217 79.2358 63.619C79.2358 63.1162 79.3274 62.6731 79.5106 62.2897C79.696 61.9041 79.9537 61.6037 80.2839 61.3886C80.6162 61.1713 81.0039 61.0627 81.447 61.0627C81.7027 61.0627 81.9551 61.1053 82.2043 61.1905C82.4536 61.2757 82.6804 61.4142 82.8849 61.6059C83.0894 61.7955 83.2524 62.0468 83.3738 62.36C83.4953 62.6731 83.556 63.0587 83.556 63.5167V63.8362H79.7726V63.1844H82.7891C82.7891 62.9075 82.7337 62.6604 82.6229 62.4431C82.5143 62.2258 82.3588 62.0543 82.1564 61.9286C81.9562 61.8029 81.7197 61.7401 81.447 61.7401C81.1467 61.7401 80.8868 61.8146 80.6674 61.9638C80.4501 62.1107 80.2828 62.3025 80.1657 62.5389C80.0485 62.7754 79.9899 63.0289 79.9899 63.2994V63.734C79.9899 64.1047 80.0538 64.4189 80.1817 64.6766C80.3116 64.9323 80.4916 65.1272 80.7217 65.2614C80.9517 65.3935 81.2191 65.4595 81.5237 65.4595C81.7218 65.4595 81.9008 65.4318 82.0605 65.3764C82.2224 65.3189 82.362 65.2337 82.4791 65.1208C82.5963 65.0058 82.6868 64.863 82.7507 64.6926L83.4793 64.8971C83.4026 65.1442 83.2737 65.3615 83.0926 65.549C82.9116 65.7343 82.6879 65.8792 82.4216 65.9835C82.1553 66.0858 81.856 66.1369 81.5237 66.1369ZM85.6372 63.0821V66.0347H84.8831V61.1266H85.6116V61.8935H85.6755C85.7906 61.6442 85.9652 61.444 86.1996 61.2927C86.4339 61.1394 86.7364 61.0627 87.1071 61.0627C87.4394 61.0627 87.7302 61.1308 87.9794 61.2672C88.2286 61.4014 88.4225 61.6059 88.561 61.8807C88.6994 62.1534 88.7687 62.4985 88.7687 62.916V66.0347H88.0145V62.9671C88.0145 62.5815 87.9144 62.2812 87.7142 62.066C87.5139 61.8487 87.2391 61.7401 86.8898 61.7401C86.6491 61.7401 86.4339 61.7923 86.2443 61.8967C86.0568 62.001 85.9088 62.1534 85.8001 62.3536C85.6915 62.5538 85.6372 62.7967 85.6372 63.0821ZM93.8032 62.2258L93.1258 62.4175C93.0832 62.3046 93.0203 62.1949 92.9372 62.0884C92.8563 61.9797 92.7455 61.8903 92.6049 61.82C92.4643 61.7497 92.2843 61.7145 92.0649 61.7145C91.7645 61.7145 91.5142 61.7838 91.314 61.9222C91.1159 62.0586 91.0168 62.2322 91.0168 62.4431C91.0168 62.6305 91.085 62.7786 91.2213 62.8872C91.3577 62.9959 91.5707 63.0864 91.8604 63.1588L92.5889 63.3378C93.0278 63.4443 93.3548 63.6072 93.5699 63.8267C93.7851 64.0439 93.8927 64.3241 93.8927 64.667C93.8927 64.9482 93.8117 65.1996 93.6498 65.4212C93.49 65.6427 93.2664 65.8174 92.9788 65.9452C92.6912 66.073 92.3568 66.1369 91.9754 66.1369C91.4748 66.1369 91.0605 66.0283 90.7324 65.811C90.4044 65.5937 90.1967 65.2763 90.1093 64.8588L90.8251 64.6798C90.8933 64.944 91.0221 65.1421 91.2117 65.2742C91.4035 65.4062 91.6538 65.4723 91.9627 65.4723C92.3141 65.4723 92.5932 65.3977 92.7998 65.2486C93.0086 65.0974 93.113 64.9163 93.113 64.7054C93.113 64.535 93.0533 64.3922 92.934 64.2772C92.8148 64.16 92.6316 64.0727 92.3844 64.0152L91.5664 63.8235C91.1169 63.717 90.7868 63.5519 90.5759 63.3282C90.3671 63.1024 90.2627 62.8201 90.2627 62.4814C90.2627 62.2045 90.3405 61.9595 90.496 61.7465C90.6536 61.5334 90.8677 61.3662 91.1382 61.2448C91.4109 61.1234 91.7198 61.0627 92.0649 61.0627C92.5506 61.0627 92.9319 61.1692 93.2089 61.3822C93.4879 61.5952 93.686 61.8764 93.8032 62.2258ZM97.9185 66.0347V61.1266H98.6726V66.0347H97.9185ZM98.3019 60.3086C98.1549 60.3086 98.0282 60.2585 97.9217 60.1584C97.8173 60.0583 97.7651 59.9379 97.7651 59.7973C97.7651 59.6567 97.8173 59.5363 97.9217 59.4362C98.0282 59.3361 98.1549 59.286 98.3019 59.286C98.4489 59.286 98.5746 59.3361 98.679 59.4362C98.7855 59.5363 98.8387 59.6567 98.8387 59.7973C98.8387 59.9379 98.7855 60.0583 98.679 60.1584C98.5746 60.2585 98.4489 60.3086 98.3019 60.3086ZM100.988 63.0821V66.0347H100.234V61.1266H100.962V61.8935H101.026C101.141 61.6442 101.316 61.444 101.55 61.2927C101.785 61.1394 102.087 61.0627 102.458 61.0627C102.79 61.0627 103.081 61.1308 103.33 61.2672C103.579 61.4014 103.773 61.6059 103.912 61.8807C104.05 62.1534 104.119 62.4985 104.119 62.916V66.0347H103.365V62.9671C103.365 62.5815 103.265 62.2812 103.065 62.066C102.865 61.8487 102.59 61.7401 102.24 61.7401C102 61.7401 101.785 61.7923 101.595 61.8967C101.408 62.001 101.259 62.1534 101.151 62.3536C101.042 62.5538 100.988 62.7967 100.988 63.0821ZM109.832 66.1497C109.521 66.1497 109.239 66.0911 108.986 65.974C108.732 65.8547 108.531 65.6832 108.382 65.4595C108.232 65.2337 108.158 64.961 108.158 64.6415C108.158 64.3603 108.213 64.1324 108.324 63.9577C108.435 63.7809 108.583 63.6424 108.768 63.5423C108.954 63.4422 109.158 63.3676 109.382 63.3186C109.608 63.2675 109.834 63.227 110.062 63.1972C110.361 63.1588 110.602 63.1301 110.788 63.1109C110.975 63.0896 111.112 63.0544 111.197 63.0055C111.284 62.9565 111.328 62.8712 111.328 62.7498V62.7243C111.328 62.409 111.241 62.164 111.069 61.9893C110.899 61.8146 110.64 61.7273 110.292 61.7273C109.932 61.7273 109.65 61.8061 109.446 61.9638C109.241 62.1214 109.097 62.2897 109.014 62.4686L108.299 62.213C108.426 61.9148 108.597 61.6826 108.81 61.5164C109.025 61.3481 109.259 61.231 109.513 61.1649C109.768 61.0967 110.02 61.0627 110.267 61.0627C110.425 61.0627 110.606 61.0818 110.81 61.1202C111.017 61.1564 111.216 61.232 111.408 61.3471C111.601 61.4621 111.762 61.6357 111.89 61.8679C112.018 62.1001 112.082 62.4111 112.082 62.8009V66.0347H111.328V65.37H111.289C111.238 65.4765 111.153 65.5905 111.034 65.7119C110.914 65.8334 110.756 65.9367 110.558 66.0219C110.36 66.1071 110.118 66.1497 109.832 66.1497ZM109.947 65.4723C110.246 65.4723 110.497 65.4137 110.701 65.2965C110.908 65.1794 111.064 65.0281 111.168 64.8428C111.274 64.6575 111.328 64.4625 111.328 64.258V63.5678C111.296 63.6062 111.225 63.6413 111.117 63.6733C111.01 63.7031 110.887 63.7297 110.746 63.7532C110.608 63.7745 110.472 63.7936 110.34 63.8107C110.21 63.8256 110.105 63.8384 110.024 63.849C109.828 63.8746 109.645 63.9161 109.474 63.9737C109.306 64.029 109.17 64.1132 109.065 64.2261C108.963 64.3369 108.912 64.4881 108.912 64.6798C108.912 64.9418 109.009 65.14 109.203 65.2742C109.399 65.4062 109.647 65.4723 109.947 65.4723ZM114.392 63.0821V66.0347H113.638V61.1266H114.367V61.8935H114.431C114.546 61.6442 114.72 61.444 114.955 61.2927C115.189 61.1394 115.492 61.0627 115.862 61.0627C116.195 61.0627 116.485 61.1308 116.735 61.2672C116.984 61.4014 117.178 61.6059 117.316 61.8807C117.455 62.1534 117.524 62.4985 117.524 62.916V66.0347H116.77V62.9671C116.77 62.5815 116.67 62.2812 116.469 62.066C116.269 61.8487 115.994 61.7401 115.645 61.7401C115.404 61.7401 115.189 61.7923 114.999 61.8967C114.812 62.001 114.664 62.1534 114.555 62.3536C114.447 62.5538 114.392 62.7967 114.392 63.0821ZM121.792 66.0347V61.1266H122.547V66.0347H121.792ZM122.176 60.3086C122.029 60.3086 121.902 60.2585 121.796 60.1584C121.691 60.0583 121.639 59.9379 121.639 59.7973C121.639 59.6567 121.691 59.5363 121.796 59.4362C121.902 59.3361 122.029 59.286 122.176 59.286C122.323 59.286 122.449 59.3361 122.553 59.4362C122.659 59.5363 122.713 59.6567 122.713 59.7973C122.713 59.9379 122.659 60.0583 122.553 60.1584C122.449 60.2585 122.323 60.3086 122.176 60.3086ZM124.862 63.0821V66.0347H124.108V61.1266H124.836V61.8935H124.9C125.015 61.6442 125.19 61.444 125.424 61.2927C125.659 61.1394 125.961 61.0627 126.332 61.0627C126.664 61.0627 126.955 61.1308 127.204 61.2672C127.453 61.4014 127.647 61.6059 127.786 61.8807C127.924 62.1534 127.993 62.4985 127.993 62.916V66.0347H127.239V62.9671C127.239 62.5815 127.139 62.2812 126.939 62.066C126.739 61.8487 126.464 61.7401 126.114 61.7401C125.874 61.7401 125.659 61.7923 125.469 61.8967C125.282 62.001 125.133 62.1534 125.025 62.3536C124.916 62.5538 124.862 62.7967 124.862 63.0821ZM133.028 62.2258L132.35 62.4175C132.308 62.3046 132.245 62.1949 132.162 62.0884C132.081 61.9797 131.97 61.8903 131.83 61.82C131.689 61.7497 131.509 61.7145 131.29 61.7145C130.989 61.7145 130.739 61.7838 130.539 61.9222C130.341 62.0586 130.241 62.2322 130.241 62.4431C130.241 62.6305 130.31 62.7786 130.446 62.8872C130.582 62.9959 130.795 63.0864 131.085 63.1588L131.814 63.3378C132.252 63.4443 132.579 63.6072 132.795 63.8267C133.01 64.0439 133.117 64.3241 133.117 64.667C133.117 64.9482 133.036 65.1996 132.874 65.4212C132.715 65.6427 132.491 65.8174 132.203 65.9452C131.916 66.073 131.581 66.1369 131.2 66.1369C130.699 66.1369 130.285 66.0283 129.957 65.811C129.629 65.5937 129.421 65.2763 129.334 64.8588L130.05 64.6798C130.118 64.944 130.247 65.1421 130.436 65.2742C130.628 65.4062 130.878 65.4723 131.187 65.4723C131.539 65.4723 131.818 65.3977 132.025 65.2486C132.233 65.0974 132.338 64.9163 132.338 64.7054C132.338 64.535 132.278 64.3922 132.159 64.2772C132.039 64.16 131.856 64.0727 131.609 64.0152L130.791 63.8235C130.342 63.717 130.011 63.5519 129.801 63.3282C129.592 63.1024 129.487 62.8201 129.487 62.4814C129.487 62.2045 129.565 61.9595 129.721 61.7465C129.878 61.5334 130.092 61.3662 130.363 61.2448C130.636 61.1234 130.944 61.0627 131.29 61.0627C131.775 61.0627 132.157 61.1692 132.434 61.3822C132.713 61.5952 132.911 61.8764 133.028 62.2258ZM136.567 61.1266V61.7656H134.023V61.1266H136.567ZM134.765 59.9507H135.519V64.6287C135.519 64.8417 135.55 65.0015 135.612 65.108C135.675 65.2124 135.756 65.2827 135.854 65.3189C135.955 65.353 136.06 65.37 136.171 65.37C136.254 65.37 136.322 65.3658 136.375 65.3572C136.428 65.3466 136.471 65.3381 136.503 65.3317L136.656 66.0091C136.605 66.0283 136.534 66.0474 136.442 66.0666C136.351 66.0879 136.235 66.0986 136.094 66.0986C135.881 66.0986 135.672 66.0528 135.468 65.9612C135.265 65.8696 135.097 65.73 134.963 65.5426C134.831 65.3551 134.765 65.1187 134.765 64.8332V59.9507ZM139.326 66.1497C139.015 66.1497 138.732 66.0911 138.479 65.974C138.225 65.8547 138.024 65.6832 137.875 65.4595C137.726 65.2337 137.651 64.961 137.651 64.6415C137.651 64.3603 137.707 64.1324 137.817 63.9577C137.928 63.7809 138.076 63.6424 138.262 63.5423C138.447 63.4422 138.651 63.3676 138.875 63.3186C139.101 63.2675 139.328 63.227 139.556 63.1972C139.854 63.1588 140.096 63.1301 140.281 63.1109C140.468 63.0896 140.605 63.0544 140.69 63.0055C140.777 62.9565 140.821 62.8712 140.821 62.7498V62.7243C140.821 62.409 140.735 62.164 140.562 61.9893C140.392 61.8146 140.133 61.7273 139.786 61.7273C139.426 61.7273 139.143 61.8061 138.939 61.9638C138.734 62.1214 138.591 62.2897 138.508 62.4686L137.792 62.213C137.92 61.9148 138.09 61.6826 138.303 61.5164C138.518 61.3481 138.753 61.231 139.006 61.1649C139.262 61.0967 139.513 61.0627 139.76 61.0627C139.918 61.0627 140.099 61.0818 140.303 61.1202C140.51 61.1564 140.709 61.232 140.901 61.3471C141.095 61.4621 141.256 61.6357 141.383 61.8679C141.511 62.1001 141.575 62.4111 141.575 62.8009V66.0347H140.821V65.37H140.783C140.732 65.4765 140.646 65.5905 140.527 65.7119C140.408 65.8334 140.249 65.9367 140.051 66.0219C139.853 66.1071 139.611 66.1497 139.326 66.1497ZM139.441 65.4723C139.739 65.4723 139.99 65.4137 140.195 65.2965C140.401 65.1794 140.557 65.0281 140.661 64.8428C140.768 64.6575 140.821 64.4625 140.821 64.258V63.5678C140.789 63.6062 140.719 63.6413 140.61 63.6733C140.504 63.7031 140.38 63.7297 140.239 63.7532C140.101 63.7745 139.966 63.7936 139.834 63.8107C139.704 63.8256 139.598 63.8384 139.517 63.849C139.321 63.8746 139.138 63.9161 138.968 63.9737C138.799 64.029 138.663 64.1132 138.559 64.2261C138.456 64.3369 138.405 64.4881 138.405 64.6798C138.405 64.9418 138.502 65.14 138.696 65.2742C138.892 65.4062 139.14 65.4723 139.441 65.4723ZM143.886 63.0821V66.0347H143.132V61.1266H143.86V61.8935H143.924C144.039 61.6442 144.214 61.444 144.448 61.2927C144.682 61.1394 144.985 61.0627 145.355 61.0627C145.688 61.0627 145.979 61.1308 146.228 61.2672C146.477 61.4014 146.671 61.6059 146.809 61.8807C146.948 62.1534 147.017 62.4985 147.017 62.916V66.0347H146.263V62.9671C146.263 62.5815 146.163 62.2812 145.963 62.066C145.762 61.8487 145.488 61.7401 145.138 61.7401C144.897 61.7401 144.682 61.7923 144.493 61.8967C144.305 62.001 144.157 62.1534 144.049 62.3536C143.94 62.5538 143.886 62.7967 143.886 63.0821ZM150.71 61.1266V61.7656H148.166V61.1266H150.71ZM148.907 59.9507H149.661V64.6287C149.661 64.8417 149.692 65.0015 149.754 65.108C149.818 65.2124 149.899 65.2827 149.997 65.3189C150.097 65.353 150.203 65.37 150.313 65.37C150.396 65.37 150.465 65.3658 150.518 65.3572C150.571 65.3466 150.614 65.3381 150.646 65.3317L150.799 66.0091C150.748 66.0283 150.677 66.0474 150.585 66.0666C150.493 66.0879 150.377 66.0986 150.237 66.0986C150.024 66.0986 149.815 66.0528 149.61 65.9612C149.408 65.8696 149.24 65.73 149.105 65.5426C148.973 65.3551 148.907 65.1187 148.907 64.8332V59.9507Z" fill="white" fill-opacity="0.3"/>
<rect x="36.84" y="81.3182" width="99.944" height="33.0699" rx="16.535" fill="#F6F8F9"/>
<path d="M77.4721 101.853V94.2581H80.5131C81.0718 94.2581 81.5378 94.341 81.9112 94.5066C82.2845 94.6723 82.5651 94.9022 82.753 95.1964C82.9409 95.4881 83.0348 95.8244 83.0348 96.2051C83.0348 96.5018 82.9755 96.7626 82.8568 96.9876C82.7382 97.2101 82.575 97.3931 82.3673 97.5365C82.1621 97.6774 81.9272 97.7775 81.6627 97.8368V97.911C81.952 97.9234 82.2227 98.005 82.4749 98.1558C82.7295 98.3066 82.936 98.518 83.0942 98.7899C83.2524 99.0594 83.3315 99.3808 83.3315 99.7541C83.3315 100.157 83.2314 100.517 83.0311 100.833C82.8334 101.147 82.5404 101.396 82.1522 101.579C81.7641 101.762 81.2857 101.853 80.717 101.853H77.4721ZM79.0779 100.54H80.387C80.8345 100.54 81.1608 100.455 81.366 100.284C81.5712 100.111 81.6738 99.8815 81.6738 99.5947C81.6738 99.3845 81.6231 99.1991 81.5218 99.0384C81.4204 98.8777 81.2758 98.7516 81.0879 98.6601C80.9025 98.5687 80.6812 98.5229 80.4241 98.5229H79.0779V100.54ZM79.0779 97.4363H80.2683C80.4883 97.4363 80.6837 97.398 80.8542 97.3214C81.0273 97.2422 81.1633 97.131 81.2622 96.9876C81.3635 96.8442 81.4142 96.6724 81.4142 96.4721C81.4142 96.1977 81.3166 95.9764 81.1213 95.8083C80.9284 95.6402 80.654 95.5561 80.298 95.5561H79.0779V97.4363ZM88.2085 99.4278V96.1569H89.7883V101.853H88.2715V100.818H88.2122C88.0836 101.152 87.8698 101.42 87.5706 101.623C87.2739 101.826 86.9117 101.927 86.484 101.927C86.1033 101.927 85.7683 101.841 85.479 101.668C85.1897 101.495 84.9635 101.249 84.8004 100.93C84.6397 100.611 84.5581 100.229 84.5556 99.7838V96.1569H86.1354V99.502C86.1379 99.8382 86.2281 100.104 86.4061 100.299C86.5841 100.495 86.8227 100.592 87.1219 100.592C87.3122 100.592 87.4903 100.549 87.6559 100.462C87.8215 100.373 87.9551 100.242 88.0564 100.069C88.1603 99.8963 88.2109 99.6824 88.2085 99.4278ZM92.2362 103.989C92.0359 103.989 91.848 103.973 91.6725 103.941C91.4994 103.911 91.356 103.873 91.2423 103.826L91.5983 102.647C91.7837 102.704 91.9506 102.735 92.0989 102.739C92.2498 102.744 92.3796 102.71 92.4883 102.636C92.5996 102.561 92.6898 102.435 92.7591 102.257L92.8518 102.016L90.8084 96.1569H92.4698L93.6491 100.34H93.7084L94.8989 96.1569H96.5714L94.3574 102.469C94.2511 102.775 94.1065 103.042 93.9235 103.27C93.743 103.5 93.5144 103.676 93.2375 103.8C92.9606 103.926 92.6268 103.989 92.2362 103.989Z" fill="black"/>
<rect x="144.497" y="81.3182" width="99.944" height="33.0699" rx="16.535" fill="#0A1339"/>
<path d="M189.249 96.4424C189.219 96.1433 189.092 95.9109 188.867 95.7452C188.642 95.5796 188.337 95.4968 187.951 95.4968C187.689 95.4968 187.468 95.5339 187.287 95.608C187.107 95.6797 186.968 95.7799 186.872 95.9084C186.778 96.037 186.731 96.1829 186.731 96.346C186.726 96.482 186.754 96.6007 186.816 96.702C186.881 96.8034 186.968 96.8912 187.08 96.9653C187.191 97.037 187.319 97.1001 187.465 97.1545C187.611 97.2064 187.767 97.2509 187.932 97.288L188.615 97.4512C188.946 97.5253 189.25 97.6242 189.527 97.7478C189.804 97.8715 190.044 98.0235 190.247 98.204C190.449 98.3845 190.606 98.5971 190.718 98.8418C190.831 99.0866 190.889 99.3672 190.892 99.6837C190.889 100.148 190.771 100.551 190.536 100.893C190.303 101.231 189.967 101.495 189.527 101.683C189.09 101.868 188.562 101.961 187.944 101.961C187.33 101.961 186.796 101.867 186.342 101.679C185.889 101.491 185.536 101.213 185.281 100.844C185.029 100.474 184.896 100.015 184.884 99.4686H186.438C186.455 99.7232 186.528 99.9359 186.657 100.106C186.788 100.275 186.962 100.402 187.18 100.488C187.4 100.572 187.648 100.615 187.925 100.615C188.197 100.615 188.433 100.575 188.633 100.496C188.836 100.417 188.993 100.307 189.104 100.166C189.216 100.025 189.271 99.8629 189.271 99.68C189.271 99.5094 189.221 99.366 189.119 99.2498C189.02 99.1336 188.874 99.0347 188.682 98.9531C188.491 98.8715 188.258 98.7973 187.981 98.7306L187.154 98.5229C186.513 98.3672 186.008 98.1236 185.637 97.7923C185.266 97.461 185.082 97.0148 185.084 96.4536C185.082 95.9937 185.204 95.592 185.452 95.2483C185.701 94.9047 186.044 94.6364 186.479 94.4436C186.914 94.2507 187.408 94.1543 187.962 94.1543C188.526 94.1543 189.018 94.2507 189.438 94.4436C189.861 94.6364 190.19 94.9047 190.425 95.2483C190.659 95.592 190.781 95.99 190.788 96.4424H189.249ZM194.747 101.964C194.161 101.964 193.657 101.846 193.234 101.608C192.814 101.369 192.49 101.03 192.262 100.592C192.035 100.152 191.921 99.6318 191.921 99.031C191.921 98.445 192.035 97.9308 192.262 97.4882C192.49 97.0457 192.81 96.7008 193.223 96.4536C193.638 96.2063 194.125 96.0827 194.684 96.0827C195.06 96.0827 195.41 96.1433 195.734 96.2644C196.06 96.3831 196.344 96.5624 196.587 96.8022C196.831 97.042 197.022 97.3436 197.158 97.707C197.294 98.068 197.362 98.4908 197.362 98.9754V99.4092H192.552V98.4302H195.875C195.875 98.2027 195.825 98.0013 195.726 97.8257C195.627 97.6502 195.49 97.513 195.315 97.4141C195.141 97.3127 194.94 97.262 194.71 97.262C194.47 97.262 194.258 97.3177 194.072 97.4289C193.889 97.5377 193.746 97.6848 193.642 97.8702C193.538 98.0532 193.485 98.2571 193.483 98.4821V99.413C193.483 99.6948 193.534 99.9383 193.638 100.144C193.745 100.349 193.894 100.507 194.087 100.618C194.28 100.729 194.509 100.785 194.773 100.785C194.949 100.785 195.109 100.76 195.255 100.711C195.401 100.661 195.526 100.587 195.63 100.488C195.734 100.39 195.813 100.268 195.867 100.125L197.328 100.221C197.254 100.572 197.102 100.879 196.872 101.141C196.645 101.401 196.35 101.603 195.989 101.749C195.631 101.893 195.217 101.964 194.747 101.964ZM200.181 94.2581V101.853H198.601V94.2581H200.181ZM203.235 94.2581V101.853H201.656V94.2581H203.235Z" fill="white"/>
</g>
<defs>
<filter id="filter0_d_1_965" x="0.52824" y="0.938317" width="279.482" height="156.419" filterUnits="userSpaceOnUse" color-interpolation-filters="sRGB">
<feFlood flood-opacity="0" result="BackgroundImageFix"/>
<feColorMatrix in="SourceAlpha" type="matrix" values="0 0 0 0 0 0 0 0 0 0 0 0 0 0 0 0 0 0 127 0" result="hardAlpha"/>
<feOffset dy="5.22157"/>
<feGaussianBlur stdDeviation="10.4431"/>
<feComposite in2="hardAlpha" operator="out"/>
<feColorMatrix type="matrix" values="0 0 0 0 0 0 0 0 0 0 0 0 0 0 0 0 0 0 0.45 0"/>
<feBlend mode="normal" in2="BackgroundImageFix" result="effect1_dropShadow_1_965"/>
<feBlend mode="normal" in="SourceGraphic" in2="effect1_dropShadow_1_965" result="shape"/>
</filter>
</defs>
</svg>
